<?xml version="1.0" standalone="no"?>
<!DOCTYPE svg PUBLIC "-//W3C//DTD SVG 1.1//EN" "http://www.w3.org/Graphics/SVG/1.1/DTD/svg11.dtd" >
<svg xmlns="http://www.w3.org/2000/svg" xmlns:xlink="http://www.w3.org/1999/xlink" version="1.1">
<metadata>
Created by FontForge 20170731 at Fri Jul 10 13:27:24 2020
 By Aleksey,,,
Copyright (c) 2012 by Jos Buivenga. All rights reserved.
</metadata>
<defs>
<font id="MuseoSansCyrl-100" horiz-adv-x="770" >
  <font-face 
    font-family="Museo Sans Cyrl 100"
    font-weight="250"
    font-stretch="normal"
    units-per-em="2048"
    panose-1="2 0 0 0 0 0 0 0 0 0"
    ascent="1536"
    descent="-512"
    x-height="1024"
    cap-height="1434"
    bbox="-233 -434 2228 1790"
    underline-thickness="102"
    underline-position="-307"
    unicode-range="U+0020-FB04"
  />
<missing-glyph horiz-adv-x="1044" 
d="M10 0v1434h1024v-1434h-1024zM522 809l348 522h-696zM584 717l348 -522v1044zM113 195l348 522l-348 522v-1044zM174 102h696l-348 523z" />
    <glyph glyph-name="f_f" unicode="ff" horiz-adv-x="1253" 
d="M209 0v946h-129v78h129v41q0 117 35 201q34 82 91 116q62 37 102 49q45 13 95 13q38 0 54 -4v-80q-11 4 -47 4q-41 0 -74 -10q-34 -10 -77 -38q-41 -26 -67 -92t-26 -157v-43h539v41q0 120 34 201q34 82 91 116q61 37 103 49q45 13 95 13q37 0 53 -4v-80q-11 4 -47 4
q-40 0 -73 -10q-34 -10 -77 -38q-42 -27 -68 -92q-25 -63 -25 -157v-43h280v-78h-280v-946h-86v946h-539v-946h-86z" />
    <glyph glyph-name="fi" unicode="fi" horiz-adv-x="1052" 
d="M209 0v946h-129v78h129v41q0 117 35 201q34 82 91 116q62 37 102 49q45 13 95 13q25 0 54 -4v-80q-15 4 -47 4q-41 0 -74 -10q-34 -10 -77 -38q-41 -26 -67 -92t-26 -157v-43h582v-1024h-86v946h-496v-946h-86zM782 1284v150h103v-150h-103z" />
    <glyph glyph-name="fl" unicode="fl" horiz-adv-x="1067" 
d="M209 0v940h-129v78h129v47q0 117 35 201q34 82 91 116q62 37 102 49q45 13 95 13q25 0 54 -4v-80q-15 4 -47 4q-41 0 -74 -10q-34 -10 -77 -38q-41 -26 -67 -92t-26 -157v-49h280v-78h-280v-940h-86zM780 207v1227h86v-1201q0 -159 121 -159q15 0 31 2v-80q-15 -4 -37 -4
q-30 0 -57 7q-31 8 -65 28q-37 22 -57 66q-22 49 -22 114z" />
    <glyph glyph-name="f_f_i" unicode="ffi" horiz-adv-x="1677" 
d="M209 0v946h-129v78h129v41q0 117 35 201q34 82 91 116q62 37 102 49q45 13 95 13q25 0 54 -4v-80q-15 4 -47 4q-41 0 -74 -10q-34 -10 -77 -38q-41 -26 -67 -92t-26 -157v-43h539v41q0 120 34 201q34 82 91 116q61 37 103 49q45 13 95 13q24 0 53 -4v-80q-15 4 -47 4
q-40 0 -73 -10q-34 -10 -77 -38q-42 -27 -68 -92q-25 -63 -25 -157v-43h581v-1024h-86v946h-495v-946h-86v946h-539v-946h-86zM1407 1284v150h102v-150h-102z" />
    <glyph glyph-name="f_f_l" unicode="ffl" horiz-adv-x="1691" 
d="M209 0v946h-129v78h129v41q0 117 35 201q34 82 91 116q62 37 102 49q45 13 95 13q25 0 54 -4v-80q-15 4 -47 4q-41 0 -74 -10q-34 -10 -77 -38q-41 -26 -67 -92t-26 -157v-43h539v41q0 120 34 201q34 82 91 116q61 37 103 49q45 13 95 13q24 0 53 -4v-80q-15 4 -47 4
q-40 0 -73 -10q-34 -10 -77 -38q-42 -27 -68 -92q-25 -63 -25 -157v-43h280v-78h-280v-946h-86v946h-539v-946h-86zM1405 207v1227h86v-1201q0 -159 121 -159q14 0 30 2v-80q-15 -4 -36 -4q-31 0 -58 7q-29 8 -64 28q-38 22 -58 66q-21 47 -21 114z" />
    <glyph glyph-name="f_j" unicode="fj" horiz-adv-x="1052" 
d="M209 0v946h-129v78h129v41q0 117 35 201q34 82 91 116q62 37 102 49q45 13 95 13q25 0 54 -4v-80q-15 4 -47 4q-41 0 -74 -10q-34 -10 -77 -38q-41 -26 -67 -92t-26 -157v-43h582v-1065q0 -117 -35 -201q-34 -81 -91 -117q-59 -37 -104 -49q-47 -12 -96 -12q-18 0 -51 4
v80q11 -4 45 -4q41 0 75 10q33 10 77 38q42 27 68 92q26 66 26 157v989h-496v-946h-86zM782 1284v150h103v-150h-103z" />
    <glyph glyph-name=".notdef" horiz-adv-x="1044" 
d="M10 0v1434h1024v-1434h-1024zM522 809l348 522h-696zM584 717l348 -522v1044zM113 195l348 522l-348 522v-1044zM174 102h696l-348 523z" />
    <glyph glyph-name=".null" horiz-adv-x="0" 
 />
    <glyph glyph-name="nonmarkingreturn" horiz-adv-x="681" 
 />
    <glyph glyph-name="space" unicode=" " horiz-adv-x="512" 
 />
    <glyph glyph-name="exclam" unicode="!" horiz-adv-x="512" 
d="M211 358v1076h88v-1076h-88zM197 0v125h120v-125h-120z" />
    <glyph glyph-name="quotedbl" unicode="&#x22;" horiz-adv-x="641" 
d="M383 1143v309h88v-309h-88zM170 1143v309h88v-309h-88z" />
    <glyph glyph-name="numbersign" unicode="#" horiz-adv-x="1497" 
d="M344 0l72 408h-312l15 81h311l80 453h-311l14 82h311l72 410h88l-72 -410h387l72 410h88l-72 -410h306l-15 -82h-305l-80 -453h305l-14 -81h-305l-72 -408h-88l72 408h-387l-72 -408h-88zM518 489h387l80 453h-387z" />
    <glyph glyph-name="dollar" unicode="$" horiz-adv-x="1146" 
d="M147 154l60 67q69 -73 172 -116q106 -44 211 -44q136 0 228 78q91 78 91 205q0 78 -41 142q-40 62 -105 103q-64 40 -143 76q-18 8 -50 22.5t-58.5 26.5t-50.5 23q-88 41 -145 80q-64 43 -105 113t-41 157q0 139 103 243q105 106 270 124v195h88v-193q202 -11 334 -131
l-50 -76q-59 54 -143 89q-83 34 -170 34q-151 0 -246 -86q-94 -85 -94 -196q0 -101 76 -171q78 -72 184 -116q100 -42 218 -95q107 -49 186 -141q75 -88 75 -219q0 -151 -101 -253q-102 -103 -269 -118v-190h-88v190q-243 15 -396 177z" />
    <glyph glyph-name="percent" unicode="%" horiz-adv-x="1425" 
d="M389 924q-111 0 -188 77q-78 78 -78 189q0 110 78 189t188 79q111 0 190 -79q78 -78 78 -189q0 -112 -78 -189t-190 -77zM119 0l1087 1434h107l-1088 -1434h-106zM389 1006q75 0 128 53q52 52 52 131t-52 132q-53 54 -128 54q-76 0 -127 -54t-51 -132q0 -79 51 -131
q51 -53 127 -53zM770 242q0 110 78 189t188 79q111 0 190 -79t79 -189q0 -111 -79 -189q-80 -78 -190 -78t-188 78t-78 189zM858 242q0 -78 51 -131q52 -54 127 -54q74 0 128 54q53 53 53 131q0 77 -53 132q-52 54 -128 54t-127 -54t-51 -132z" />
    <glyph glyph-name="ampersand" unicode="&#x26;" horiz-adv-x="1343" 
d="M131 391q0 134 72 242q73 109 198 143v4q-206 82 -206 322q0 158 111 257t306 99q73 0 152 -20l-29 -78q-67 16 -129 16q-138 0 -228 -74q-91 -75 -91 -198q0 -46 12 -90q12 -43 45 -91t108 -78t185 -30h334v209h88v-209h198v-82h-198v-229q0 -263 -122 -396t-335 -133
q-208 0 -339 118q-132 119 -132 298zM223 395q0 -143 103 -238q104 -96 276 -96q369 0 369 443v229h-330q-208 0 -312 -91q-106 -92 -106 -247z" />
    <glyph glyph-name="quotesingle" unicode="'" horiz-adv-x="428" 
d="M170 1143v309h88v-309h-88z" />
    <glyph glyph-name="parenleft" unicode="(" horiz-adv-x="540" 
d="M352 -195q-225 393 -225 881q0 427 225 799h90q-231 -389 -231 -801q0 -474 231 -879h-90z" />
    <glyph glyph-name="parenright" unicode=")" horiz-adv-x="540" 
d="M98 -195q232 407 232 879q0 411 -232 801h90q226 -374 226 -799q0 -486 -226 -881h-90z" />
    <glyph glyph-name="asterisk" unicode="*" horiz-adv-x="1015" 
d="M315 705l-73 51l202 266v4l-319 96l27 86l317 -110l-10 336h96l-10 -336l319 108l29 -84l-322 -96v-4l201 -266l-72 -54l-190 275h-4z" />
    <glyph glyph-name="plus" unicode="+" horiz-adv-x="1146" 
d="M45 539v82h485v538h88v-538h484v-82h-484v-539h-88v539h-485z" />
    <glyph glyph-name="comma" unicode="," horiz-adv-x="518" 
d="M106 -193l109 318h115l-137 -318h-87z" />
    <glyph glyph-name="hyphen" unicode="-" horiz-adv-x="884" 
d="M160 539v82h565v-82h-565z" />
    <glyph glyph-name="period" unicode="." horiz-adv-x="444" 
d="M160 0v129h125v-129h-125z" />
    <glyph glyph-name="slash" unicode="/" horiz-adv-x="796" 
d="M94 -86l518 1602h90l-518 -1602h-90z" />
    <glyph glyph-name="zero" unicode="0" horiz-adv-x="1253" 
d="M627 -25q-484 0 -484 742q0 741 484 741q483 0 483 -741q0 -742 -483 -742zM627 61q109 0 189 50q78 49 122 141q43 89 61 205q19 119 19 260q0 655 -391 655t-391 -655q0 -147 18 -260q18 -116 61 -205q44 -92 122 -141q80 -50 190 -50z" />
    <glyph glyph-name="one" unicode="1" horiz-adv-x="925" 
d="M119 0v82h325v1167l2 72h-4q-16 -29 -75 -88l-170 -170l-62 59l309 312h88v-1352h318v-82h-731z" />
    <glyph glyph-name="two" unicode="2" horiz-adv-x="1136" 
d="M131 0q-6 40 -6 76q0 100 42 187q43 90 109 151q70 65 150 122q30 22 85.5 60t77.5 54q81 57 148 115q68 59 110 135t42 165q0 133 -91 220q-92 87 -243 87q-107 0 -198 -56q-92 -57 -150 -149l-66 45q62 110 174 178q111 68 242 68q200 0 312 -115t112 -278
q0 -116 -56 -213q-56 -98 -142 -164q-95 -73 -183 -136q-38 -27 -103 -74t-80 -58q-85 -61 -142 -150q-56 -87 -56 -188h785v-82h-873z" />
    <glyph glyph-name="three" unicode="3" horiz-adv-x="1140" 
d="M111 174l65 66q67 -76 171 -127q106 -52 214 -52q142 0 251 100q108 99 108 253q0 160 -114 251q-113 91 -269 91h-99l-24 61l401 469l64 66v4q-35 -4 -111 -4h-588v82h821v-62l-462 -534q71 0 148 -20t152 -64q78 -46 125 -133q48 -89 48 -207q0 -183 -134 -311
t-321 -128q-119 0 -241 54q-113 50 -205 145z" />
    <glyph glyph-name="four" unicode="4" horiz-adv-x="1214" 
d="M84 410v61l743 963h82v-942h213v-82h-213v-410h-88v410h-737zM207 492h614v671l6 129h-4q-42 -62 -71 -98l-545 -698v-4z" />
    <glyph glyph-name="five" unicode="5" horiz-adv-x="1124" 
d="M119 182l71 56q115 -177 332 -177q169 0 283 108q115 109 115 267q0 162 -115 271q-114 108 -283 108q-159 0 -278 -86l-66 23l82 682h666v-82h-588l-51 -428l-15 -88h4q99 65 246 65q204 0 347 -135t143 -330q0 -193 -144 -326q-146 -135 -346 -135q-120 0 -230 55
q-108 54 -173 152z" />
    <glyph glyph-name="six" unicode="6" horiz-adv-x="1193" 
d="M135 643q0 140 36 278t105 261q68 121 193 199q124 77 281 77q134 0 251 -57l-43 -80q-90 51 -215 51q-156 0 -273 -101q-118 -102 -175 -247q-58 -147 -68 -311h4q61 91 169 143q111 53 237 53q191 0 316 -125q124 -124 124 -338q0 -216 -128 -344q-127 -127 -312 -127
q-229 0 -366 193q-136 191 -136 475zM647 61q152 0 245 110t93 280q0 172 -97 272t-255 100q-155 0 -276 -88t-121 -217q0 -58 25 -132q24 -71 73 -148q46 -73 130 -125t183 -52z" />
    <glyph glyph-name="seven" unicode="7" horiz-adv-x="1060" 
d="M231 0l598 1219l76 133v4q-36 -4 -112 -4h-697v82h908v-62l-680 -1372h-93z" />
    <glyph glyph-name="eight" unicode="8" horiz-adv-x="1206" 
d="M129 399q0 84 31 163q29 74 78 128t80 78q33 26 65 45q-184 112 -184 291q0 150 111 252t311 102q198 0 311 -100q115 -101 115 -260q0 -95 -43 -188q-45 -97 -80 -141q-36 -44 -72 -79q213 -118 213 -307q0 -170 -134 -289t-327 -119q-187 0 -332 116q-143 115 -143 308
zM770 729q184 174 184 363q0 127 -92 204q-91 76 -241 76q-153 0 -241 -76q-89 -77 -89 -188q0 -63 25 -110t84 -88q47 -33 104 -63q51 -27 136 -62q77 -32 130 -56zM221 406q0 -151 115 -248t264 -97q144 0 259 92q114 91 114 224q0 63 -29 115t-88 90q-58 38 -112 64
q-52 26 -141 63q-113 48 -136 59q-31 -16 -63 -40q-24 -18 -79 -71q-47 -45 -75 -111q-29 -67 -29 -140z" />
    <glyph glyph-name="nine" unicode="9" horiz-adv-x="1193" 
d="M193 33l43 80q92 -52 210 -52q158 0 277 102q119 103 176 246q58 145 68 312h-4q-61 -91 -169 -143q-113 -54 -237 -54q-191 0 -316 125q-124 124 -124 332q0 223 127 350t313 127q232 0 367 -192t135 -478q0 -140 -36 -276q-36 -137 -105 -260t-194 -200t-282 -77
q-133 0 -249 58zM561 610q161 0 279 91t118 194q0 166 -114 322q-113 155 -285 155q-161 0 -256 -108q-94 -107 -94 -283q0 -170 97 -270q98 -101 255 -101z" />
    <glyph glyph-name="colon" unicode=":" horiz-adv-x="436" 
d="M160 903v121h116v-121h-116zM160 0v121h116v-121h-116z" />
    <glyph glyph-name="semicolon" unicode=";" horiz-adv-x="563" 
d="M252 903v121h117v-121h-117zM160 -193l92 318h106l-114 -318h-84z" />
    <glyph glyph-name="less" unicode="&#x3c;" horiz-adv-x="1146" 
d="M98 543v73l899 404v-98l-772 -340v-4l772 -340v-99z" />
    <glyph glyph-name="equal" unicode="=" horiz-adv-x="1146" 
d="M106 702v82h934v-82h-934zM106 375v82h934v-82h-934z" />
    <glyph glyph-name="greater" unicode="&#x3e;" horiz-adv-x="1146" 
d="M150 139v99l772 340v4l-772 340v98l899 -404v-73z" />
    <glyph glyph-name="question" unicode="?" horiz-adv-x="890" 
d="M332 358v91q0 90 38 166q37 74 92 126q18 17 53.5 51t53.5 51q54 51 91 116q38 67 38 149q0 112 -84 188q-83 76 -215 76q-142 0 -260 -86l-47 70q57 46 139 74q83 28 166 28q175 0 284 -100q110 -101 110 -252q0 -93 -38 -169q-36 -72 -93 -126q-53 -50 -109 -100
q-55 -49 -93 -116t-38 -146v-91h-88zM315 0v125h121v-125h-121z" />
    <glyph glyph-name="at" unicode="@" horiz-adv-x="1558" 
d="M129 498q0 308 209 528q208 219 500 219q247 0 360 -104q115 -106 115 -258v-705h143v-82h-543q-163 0 -279 117q-116 118 -116 281q0 164 116 283q115 118 279 118h308q-6 115 -95 192q-88 76 -276 76q-264 0 -447 -193q-182 -192 -182 -472q0 -279 181 -470
q182 -192 448 -192v-86q-298 0 -510 218q-211 217 -211 530zM610 494q0 -133 91 -224q92 -92 223 -92h297v635h-293q-135 0 -226 -94q-92 -95 -92 -225z" />
    <glyph glyph-name="A" unicode="A" horiz-adv-x="1277" 
d="M55 0l537 1434h94l537 -1434h-95l-186 496h-608l-184 -496h-95zM365 578h546l-217 581l-53 172h-4q-28 -104 -53 -172z" />
    <glyph glyph-name="B" unicode="B" horiz-adv-x="1245" 
d="M219 0v1434h481q160 0 262 -99q101 -98 101 -260q0 -223 -186 -313v-4q109 -30 176 -129q67 -98 67 -234q0 -178 -112 -286q-114 -109 -287 -109h-502zM307 795h391q121 0 197 76t76 204q0 127 -75 202t-200 75h-389v-557zM307 82h406q145 0 230 84t85 229q0 144 -89 231
t-228 87h-404v-631z" />
    <glyph glyph-name="C" unicode="C" horiz-adv-x="1472" 
d="M123 727q0 313 201 522t510 209q320 0 512 -180l-54 -66q-83 75 -209 119q-122 43 -247 43q-273 0 -447 -183t-174 -464q0 -285 175 -476q176 -192 452 -192q287 0 485 195l55 -61q-226 -218 -540 -218q-317 0 -518 218q-201 217 -201 534z" />
    <glyph glyph-name="D" unicode="D" horiz-adv-x="1511" 
d="M219 0v1434h451q323 0 519 -191q195 -191 195 -526q0 -340 -194 -528q-195 -189 -520 -189h-451zM307 82h348q292 0 464 166q173 167 173 469q0 301 -173 468t-464 167h-348v-1270z" />
    <glyph glyph-name="E" unicode="E" horiz-adv-x="1138" 
d="M219 0v1434h785v-82h-697v-588h572v-82h-572v-600h735v-82h-823z" />
    <glyph glyph-name="F" unicode="F" horiz-adv-x="1019" 
d="M219 0v1434h723v-82h-635v-598h549v-82h-549v-672h-88z" />
    <glyph glyph-name="G" unicode="G" horiz-adv-x="1544" 
d="M123 717q0 311 206 526t509 215q298 0 499 -162l-53 -67q-76 63 -203 105q-121 40 -243 40q-270 0 -446 -188q-177 -189 -177 -469q0 -279 173 -469q172 -189 437 -189q137 0 270 64q129 62 222 172v276h-256v82h344v-653h-88v125l2 61h-4q-83 -93 -213 -152t-277 -59
q-299 0 -500 214q-202 216 -202 528z" />
    <glyph glyph-name="H" unicode="H" horiz-adv-x="1523" 
d="M219 0v1434h88v-674h910v674h88v-1434h-88v678h-910v-678h-88z" />
    <glyph glyph-name="I" unicode="I" horiz-adv-x="526" 
d="M219 0v1434h88v-1434h-88z" />
    <glyph glyph-name="J" unicode="J" horiz-adv-x="1042" 
d="M72 391v45h88v-47q0 -142 74 -235q75 -95 219 -95q126 0 211 79q86 80 86 251v963h-342v82h430v-1043q0 -211 -112 -314q-111 -102 -271 -102q-161 0 -272 102t-111 314z" />
    <glyph glyph-name="K" unicode="K" horiz-adv-x="1167" 
d="M219 0v1434h88v-639h266l410 639h107l-441 -676v-4l469 -754h-106l-439 713h-266v-713h-88z" />
    <glyph glyph-name="L" unicode="L" horiz-adv-x="1040" 
d="M219 0v1434h88v-1352h684v-82h-772z" />
    <glyph glyph-name="M" unicode="M" horiz-adv-x="1708" 
d="M164 0l115 1434h86l417 -902l70 -161h4q42 102 70 161l417 902h87l114 -1434h-88l-88 1094l-6 190h-4q-39 -116 -74 -190l-385 -818h-90l-383 818l-76 194h-4q0 -125 -6 -194l-88 -1094h-88z" />
    <glyph glyph-name="N" unicode="N" horiz-adv-x="1536" 
d="M219 0v1434h82l817 -1125l117 -180h4q-10 103 -10 180v1125h88v-1434h-82l-817 1124l-117 181h-4q10 -103 10 -181v-1124h-88z" />
    <glyph glyph-name="O" unicode="O" horiz-adv-x="1691" 
d="M121 727q0 308 209 520q208 211 516 211t516 -211q209 -212 209 -520q0 -316 -209 -534t-516 -218t-516 218t-209 534zM213 727q0 -284 181 -475q182 -193 452 -193q269 0 451 193t182 475q0 275 -182 462q-181 185 -451 185q-271 0 -452 -185t-181 -462z" />
    <glyph glyph-name="P" unicode="P" horiz-adv-x="1206" 
d="M219 0v1434h471q191 0 314 -114q122 -113 122 -304q0 -194 -122 -307q-124 -115 -314 -115h-383v-594h-88zM307 676h379q160 0 254 90t94 250t-94 248t-254 88h-379v-676z" />
    <glyph glyph-name="Q" unicode="Q" horiz-adv-x="1693" 
d="M123 725q0 311 208 522t513 211q313 0 521 -211t208 -522q0 -305 -189 -510l185 -190l-58 -56l-182 189q-201 -183 -485 -183q-306 0 -514 219q-207 218 -207 531zM215 725q0 -282 181 -473q182 -193 448 -193q249 0 426 160l-185 191l58 55l182 -189q156 189 156 449
q0 278 -183 464q-182 185 -454 185q-266 0 -448 -186q-181 -185 -181 -463z" />
    <glyph glyph-name="R" unicode="R" horiz-adv-x="1243" 
d="M219 0v1434h420q173 0 258 -43q92 -45 145 -136q54 -93 54 -208q0 -151 -80 -260q-79 -107 -207 -136v-4q15 -17 33 -51l321 -596h-104l-340 635h-412v-635h-88zM307 717h389q140 0 224 91q84 92 84 239q0 92 -46 167t-122 109q-64 29 -201 29h-328v-635z" />
    <glyph glyph-name="S" unicode="S" horiz-adv-x="1073" 
d="M106 154l60 67q160 -160 377 -160q143 0 234 78t91 205q0 112 -75 187q-77 77 -184 123q-40 17 -215 95q-106 47 -183 133q-76 85 -76 208q0 165 124 267q123 101 308 101q224 0 363 -133l-49 -76q-56 56 -145 90q-87 33 -173 33q-139 0 -237 -76q-99 -76 -99 -200
q0 -105 76 -177q80 -76 183 -117q100 -40 215 -93q107 -49 184 -138q76 -88 76 -217q0 -166 -114 -272q-115 -107 -306 -107q-256 0 -435 179z" />
    <glyph glyph-name="T" unicode="T" horiz-adv-x="1230" 
d="M571 0v1352h-534v82h1157v-82h-535v-1352h-88z" />
    <glyph glyph-name="U" unicode="U" horiz-adv-x="1476" 
d="M203 492v942h88v-938q0 -201 121 -319t325 -118q206 0 327 118q122 119 122 323v934h88v-942q0 -235 -149 -376q-148 -141 -386 -141t-388 142q-148 141 -148 375z" />
    <glyph glyph-name="V" unicode="V" horiz-adv-x="1271" 
d="M588 0l-537 1434h94l433 -1160l55 -172h4q25 88 55 172l434 1160h95l-537 -1434h-96z" />
    <glyph glyph-name="W" unicode="W" horiz-adv-x="1871" 
d="M461 0l-377 1434h92l303 -1168l35 -153h4q17 77 39 153l328 1168h98l328 -1168l39 -153h4q15 76 35 153l313 1168h92l-387 -1434h-111l-303 1081l-55 228h-8q-28 -134 -56 -228l-303 -1081h-110z" />
    <glyph glyph-name="X" unicode="X" horiz-adv-x="1136" 
d="M43 0l463 758l-412 676h107l274 -457l94 -160h4q45 91 89 160l276 457h106l-415 -676l465 -758h-105l-332 545l-92 153h-4q-46 -89 -86 -155l-328 -543h-104z" />
    <glyph glyph-name="Y" unicode="Y" horiz-adv-x="1161" 
d="M537 0v623l-488 811h101l339 -566l89 -161h4q48 97 88 161l340 566h100l-485 -811v-623h-88z" />
    <glyph glyph-name="Z" unicode="Z" horiz-adv-x="1157" 
d="M72 0v70l788 1151l98 131v4q-29 -4 -104 -4h-739v82h950v-70l-789 -1151l-98 -131v-4q29 4 105 4h788v-82h-999z" />
    <glyph glyph-name="bracketleft" unicode="[" horiz-adv-x="542" 
d="M201 -195v1680h221v-82h-133v-1516h133v-82h-221z" />
    <glyph glyph-name="backslash" unicode="\" horiz-adv-x="796" 
d="M612 -86l-518 1602h90l518 -1602h-90z" />
    <glyph glyph-name="bracketright" unicode="]" horiz-adv-x="542" 
d="M121 -113h133v1516h-133v82h221v-1680h-221v82z" />
    <glyph glyph-name="asciicircum" unicode="^" horiz-adv-x="1228" 
d="M158 516l403 918h66l403 -918h-94l-342 795l-342 -795h-94z" />
    <glyph glyph-name="underscore" unicode="_" horiz-adv-x="1191" 
d="M88 0h1016v-82h-1016v82z" />
    <glyph glyph-name="grave" unicode="`" horiz-adv-x="1042" 
d="M557 1536l-162 227h115l137 -227h-90z" />
    <glyph glyph-name="a" unicode="a" horiz-adv-x="1040" 
d="M84 272q0 72 27 129q29 60 65 94q37 34 102 62q64 28 113 39q47 11 123 19q72 7 111 9q26 1 94 1h67v34q0 306 -280 306q-164 0 -293 -99l-49 70q63 53 153 82q98 31 193 31q178 0 270 -99q92 -100 92 -288v-662h-86v135l9 92h-4q-40 -105 -137 -179q-96 -73 -222 -73
q-138 0 -244 77q-104 76 -104 220zM174 279q0 -88 70 -156t192 -68q158 0 254 134q96 133 96 300v56h-65q-77 0 -104 -1q-54 -2 -114 -8q-77 -8 -123 -25t-100 -45q-51 -26 -79 -76q-27 -48 -27 -111z" />
    <glyph glyph-name="b" unicode="b" horiz-adv-x="1183" 
d="M178 0v1434h86v-533l-8 -84h4q46 105 146 169q99 63 225 63q201 0 322 -148q120 -147 120 -389q0 -241 -128 -389t-331 -148q-113 0 -211 64q-97 63 -143 168h-4q8 -40 8 -90v-117h-86zM262 510q0 -184 93 -317q93 -134 263 -134q156 0 261 122q104 120 104 331
q0 204 -99 329q-99 124 -257 124q-155 0 -260 -114t-105 -341z" />
    <glyph glyph-name="c" unicode="c" horiz-adv-x="1105" 
d="M106 510q0 238 155 388q156 151 374 151q104 0 202 -37t164 -109l-53 -69q-55 59 -140 95t-173 36q-183 0 -311 -126q-127 -126 -127 -329q0 -202 127 -326q128 -125 311 -125q97 0 188 39q92 39 154 109l45 -72q-66 -74 -169 -117q-102 -43 -218 -43q-222 0 -376 149
q-153 148 -153 386z" />
    <glyph glyph-name="d" unicode="d" horiz-adv-x="1183" 
d="M111 512q0 241 128 389t330 148q115 0 211 -64q94 -63 144 -168h4q-8 40 -8 84v533h86v-1434h-86v129l8 78h-4q-44 -98 -141 -166q-95 -66 -230 -66q-202 0 -323 148q-119 146 -119 389zM201 512q0 -204 99 -329q99 -124 257 -124q155 0 260 114t105 341q0 182 -94 317
q-93 134 -263 134q-155 0 -260 -122q-104 -120 -104 -331z" />
    <glyph glyph-name="e" unicode="e" horiz-adv-x="1124" 
d="M106 510q0 250 146 394q147 145 352 145q197 0 308 -135q110 -134 110 -332q0 -23 -4 -56h-821q0 -215 126 -341t312 -126q188 0 317 129l47 -71q-70 -65 -166 -103q-99 -39 -198 -39q-222 0 -376 149q-153 148 -153 386zM203 606h729q-7 177 -101 271q-92 92 -229 92
q-148 0 -261 -96q-111 -95 -138 -267z" />
    <glyph glyph-name="f" unicode="f" horiz-adv-x="628" 
d="M209 0v940h-129v78h129v47q0 117 35 201q34 82 91 116q62 37 102 49q45 13 95 13q25 0 54 -4v-80q-15 4 -47 4q-41 0 -74 -10q-34 -10 -77 -38q-41 -26 -67 -92t-26 -157v-49h280v-78h-280v-940h-86z" />
    <glyph glyph-name="g" unicode="g" horiz-adv-x="1169" 
d="M242 -274q134 -72 274 -72q174 0 282 87q107 86 107 265v119l8 84h-4q-102 -209 -344 -209q-200 0 -327 145t-127 383q0 240 119 380q120 141 321 141q116 0 216 -51q96 -49 140 -150h4q-6 15 -6 39v137h86v-1018q0 -221 -134 -329q-132 -107 -335 -107q-164 0 -321 80z
M201 528q0 -204 102 -324t268 -120q150 0 243 105t93 339q0 437 -356 437q-166 0 -258 -115t-92 -322z" />
    <glyph glyph-name="h" unicode="h" horiz-adv-x="1200" 
d="M178 0v1434h86v-590l-8 -84h4q34 97 150 193t284 96q188 0 263 -102t75 -298v-649h-86v618q0 67 -4 106q-5 51 -18 92q-16 51 -41 79q-28 31 -75 50q-49 20 -114 20q-178 0 -304 -131q-126 -130 -126 -330v-504h-86z" />
    <glyph glyph-name="i" unicode="i" horiz-adv-x="442" 
d="M170 1284v150h102v-150h-102zM178 0v1024h86v-1024h-86z" />
    <glyph glyph-name="j" unicode="j" horiz-adv-x="442" 
d="M170 1284v150h102v-150h-102zM178 -43v1067h86v-1065q0 -117 -35 -201q-34 -81 -91 -117q-60 -38 -103 -49q-47 -12 -96 -12q-19 0 -52 4v80q11 -4 45 -4q41 0 75 10q35 10 78 38q42 27 68 92q25 63 25 157z" />
    <glyph glyph-name="k" unicode="k" horiz-adv-x="968" 
d="M178 0v1434h86v-813h182l332 403h113l-371 -440v-4l406 -580h-109l-371 541h-182v-541h-86z" />
    <glyph glyph-name="l" unicode="l" horiz-adv-x="464" 
d="M178 207v1227h86v-1201q0 -159 121 -159q15 0 31 2v-80q-15 -4 -37 -4q-30 0 -57 7q-31 8 -65 28q-37 22 -57 66q-22 49 -22 114z" />
    <glyph glyph-name="m" unicode="m" horiz-adv-x="1880" 
d="M178 0v1024h86v-180l-8 -84h4q40 116 157 202q118 87 236 87q151 0 230 -70q77 -68 94 -209h4q45 113 154 196t235 83q188 0 265 -102q77 -103 77 -298v-649h-86v618q0 168 -53 260q-52 91 -203 91q-158 0 -270 -142q-111 -141 -111 -317v-510h-86v618q0 67 -4 106
q-5 46 -19 93q-15 49 -41 80q-25 29 -73 51q-46 21 -113 21q-160 0 -275 -142q-114 -141 -114 -317v-510h-86z" />
    <glyph glyph-name="n" unicode="n" horiz-adv-x="1200" 
d="M178 0v1024h86v-180l-8 -84h4q34 97 150 193t284 96q188 0 263 -102t75 -298v-649h-86v618q0 67 -4 106q-5 51 -18 92q-16 51 -41 79q-28 31 -75 50q-49 20 -114 20q-178 0 -304 -130q-126 -131 -126 -325v-510h-86z" />
    <glyph glyph-name="o" unicode="o" horiz-adv-x="1269" 
d="M104 518q0 224 155 377q156 154 376 154t376 -154q154 -153 154 -377q0 -228 -154 -385q-155 -158 -376 -158t-376 158t-155 385zM195 518q0 -194 128 -327q127 -132 312 -132t312 132q128 133 128 327q0 188 -128 318q-127 129 -312 129t-312 -129q-128 -130 -128 -318z
" />
    <glyph glyph-name="p" unicode="p" horiz-adv-x="1183" 
d="M178 -410v1434h86v-123l-6 -82h4q45 107 144 168q100 62 225 62q201 0 322 -148q120 -147 120 -389q0 -243 -127 -389q-128 -148 -328 -148q-115 0 -212 62q-96 62 -146 170h-4q8 -40 8 -90v-527h-86zM262 510q0 -182 96 -316q97 -135 260 -135q156 0 261 122
q104 120 104 331q0 204 -99 329q-99 124 -257 124q-155 0 -260 -114t-105 -341z" />
    <glyph glyph-name="q" unicode="q" horiz-adv-x="1183" 
d="M111 512q0 241 128 389t330 148q117 0 211 -63q97 -64 142 -167h4q-6 35 -6 82v123h86v-1434h-86v527l8 90h-4q-43 -93 -136 -163q-91 -69 -235 -69q-202 0 -323 148q-119 146 -119 389zM201 512q0 -204 99 -329q99 -124 257 -124q155 0 260 114t105 341q0 182 -94 317
q-93 134 -263 134q-155 0 -260 -122q-104 -120 -104 -331z" />
    <glyph glyph-name="r" unicode="r" horiz-adv-x="696" 
d="M178 0v1024h86v-195l-8 -84h4q40 124 127 206q85 81 201 81q31 0 59 -6v-86q-11 4 -47 4q-112 0 -192 -84q-81 -86 -112 -193q-32 -111 -32 -225v-442h-86z" />
    <glyph glyph-name="s" unicode="s" horiz-adv-x="880" 
d="M84 123l55 65q123 -129 318 -129q99 0 168 52q67 51 67 141q0 72 -58 121q-60 50 -141 80q-73 27 -165 65q-82 34 -141 98q-58 62 -58 156q0 132 94 204q96 73 234 73q195 0 303 -111l-51 -70q-91 97 -258 97q-97 0 -164 -46q-68 -47 -68 -141q0 -73 59 -123
q58 -49 141 -81q110 -42 165 -65q82 -34 140 -98t58 -159q0 -123 -92 -200t-235 -77q-235 0 -371 148z" />
    <glyph glyph-name="t" unicode="t" horiz-adv-x="622" 
d="M209 371v569h-135v78h135v291h86v-291h268v-78h-268v-563q0 -93 26 -160q25 -65 66 -95q39 -29 77 -40q34 -10 75 -10q32 0 47 4v-80q-15 -4 -51 -4q-39 0 -76 6t-84 30q-50 26 -82 62q-36 41 -60 112q-24 72 -24 169z" />
    <glyph glyph-name="u" unicode="u" horiz-adv-x="1187" 
d="M166 375v649h86v-618q0 -67 4 -106q5 -51 18 -92q16 -51 41 -79q28 -31 75 -50q49 -20 114 -20q183 0 302 139q118 137 118 326v500h86v-1024h-86v180l8 84h-4q-34 -97 -148 -193t-276 -96q-182 0 -260 99t-78 301z" />
    <glyph glyph-name="v" unicode="v" horiz-adv-x="1015" 
d="M467 0l-404 1024h93l315 -803l35 -110h4q14 52 35 110l315 803h90l-401 -1024h-82z" />
    <glyph glyph-name="w" unicode="w" horiz-adv-x="1685" 
d="M430 0l-360 1024h92l278 -803l35 -110h4q12 41 35 110l281 799h96l280 -799l35 -110h4q13 49 35 110l279 803h92l-361 -1024h-92l-284 795l-35 110h-4q-14 -52 -35 -110l-283 -795h-92z" />
    <glyph glyph-name="x" unicode="x" horiz-adv-x="946" 
d="M45 0l369 541l-330 483h104l248 -373l35 -57h4q7 12 19.5 32t15.5 25l248 373h104l-330 -483l369 -541h-106l-283 424l-37 59h-4q-21 -36 -37 -59l-282 -424h-107z" />
    <glyph glyph-name="y" unicode="y" horiz-adv-x="1058" 
d="M84 -299q56 -49 127 -49q123 0 201 184l73 170l-424 1018h93l338 -817l36 -96h4q18 56 35 96l338 817h92l-526 -1264q-79 -190 -260 -190q-46 0 -85 14q-44 16 -60 29l-21 14z" />
    <glyph glyph-name="z" unicode="z" horiz-adv-x="997" 
d="M78 0v70l620 780l80 94v4q-33 -4 -104 -4h-570v80h791v-70l-623 -780l-82 -94v-4q35 4 107 4h621v-80h-840z" />
    <glyph glyph-name="braceleft" unicode="{" horiz-adv-x="667" 
d="M270 180v193q0 92 -44 159q-43 66 -130 84v82q84 18 129 83t45 161v166q0 122 33 204t84 115q48 31 88 44q37 12 74 12h18v-80h-12q-25 0 -52 -8q-24 -7 -63 -35q-36 -26 -59 -91q-23 -66 -23 -159v-190q0 -87 -42 -156q-44 -72 -119 -105v-4q161 -66 161 -260v-217
q0 -93 23 -159q23 -65 59 -91t63 -34q31 -9 52 -9h12v-80q-8 -2 -18 -2q-18 0 -54 6q-28 5 -71 27q-44 22 -75 60q-31 37 -55 111q-24 75 -24 173z" />
    <glyph glyph-name="bar" unicode="|" horiz-adv-x="481" 
d="M197 -317v1925h88v-1925h-88z" />
    <glyph glyph-name="braceright" unicode="}" horiz-adv-x="667" 
d="M100 -115h13q21 0 52 9q25 7 62 34q38 27 60 91q22 63 22 159v217q0 194 162 260v4q-68 28 -116 99q-46 68 -46 162v190q0 96 -22 159q-22 64 -60 91q-39 28 -62 35q-27 8 -52 8h-13v80h19q37 0 74 -12q40 -13 88 -44q51 -33 84 -115q32 -80 32 -204v-166q0 -94 45 -160
t129 -84v-82q-84 -17 -129 -82q-45 -66 -45 -161v-193q0 -101 -23 -173t-56 -111q-32 -38 -74 -60q-43 -22 -71 -27q-36 -6 -54 -6l-19 2v80z" />
    <glyph glyph-name="asciitilde" unicode="~" horiz-adv-x="1214" 
d="M162 436q0 152 64 223q64 72 171 72q67 0 114 -23q51 -25 82 -57q40 -42 61 -65q30 -33 72 -57q40 -23 93 -23q64 0 101 43q38 44 45 85q8 45 8 89h82q0 -150 -65 -223q-64 -72 -171 -72q-63 0 -113 24q-53 26 -82 56q-61 64 -62 65q-30 33 -72 57q-40 23 -93 23
q-63 0 -100 -43q-38 -44 -45 -85q-8 -45 -8 -89h-82z" />
    <glyph glyph-name="uni00A0" unicode="&#xa0;" horiz-adv-x="512" 
 />
    <glyph glyph-name="exclamdown" unicode="&#xa1;" horiz-adv-x="464" 
d="M276 666v-1076h-88v1076h88zM291 1024v-125h-121v125h121z" />
    <glyph glyph-name="cent" unicode="&#xa2;" horiz-adv-x="1146" 
d="M551 -27v172q-209 18 -319 178q-109 158 -109 394t109 394q109 159 319 177v170h88v-170q250 -22 379 -291l-84 -32q-112 237 -334 237q-196 0 -290 -135q-95 -136 -95 -350t95 -350t290 -136q221 0 334 238l84 -33q-130 -270 -379 -291v-172h-88z" />
    <glyph glyph-name="sterling" unicode="&#xa3;" horiz-adv-x="1146" 
d="M102 0v82h134v600h-93v82h93v332q0 153 114 258q113 104 289 104q172 0 301 -104l-59 -68q-103 86 -244 86q-148 0 -230 -82q-83 -83 -83 -203v-323h405v-82h-405v-600h718v-82h-940z" />
    <glyph glyph-name="currency" unicode="&#xa4;" horiz-adv-x="1198" 
d="M272 0v389h-151v82h151v164h-151v82h151v717h404q190 0 313 -108t123 -290t-123 -292q-122 -109 -313 -109h-316v-164h523v-82h-523v-389h-88zM360 717h312q160 0 254 85t94 234q0 151 -94 233q-95 83 -254 83h-312v-635z" />
    <glyph glyph-name="yen" unicode="&#xa5;" horiz-adv-x="1146" 
d="M197 455v82h333v86l-59 98h-274v82h225l-379 631h100l340 -566l88 -161h4q44 90 89 161l340 566h100l-379 -631h221v-82h-270l-58 -98v-86h328v-82h-328v-455h-88v455h-333z" />
    <glyph glyph-name="section" unicode="&#xa7;" horiz-adv-x="792" 
d="M291 127l-137 971q-4 29 -4 51q0 133 91 221t232 88q108 0 191 -67l-54 -66q-62 49 -139 49q-99 0 -165 -63t-66 -168q0 -18 4 -43l133 -973h-86zM129 -59l53 65q61 -49 140 -49q97 0 163 63t66 168q0 23 -2 43l-133 973h86l137 -971q4 -33 4 -51q0 -132 -92 -221
q-91 -88 -232 -88q-98 0 -190 68z" />
    <glyph glyph-name="dieresis" unicode="&#xa8;" horiz-adv-x="1042" 
d="M614 1614v149h95v-149h-95zM334 1614v149h94v-149h-94z" />
    <glyph glyph-name="copyright" unicode="&#xa9;" horiz-adv-x="1710" 
d="M131 717q0 310 211 525q212 216 510 216q306 0 517 -216q212 -217 212 -525q0 -312 -212 -527t-517 -215q-301 0 -511 215q-210 214 -210 527zM223 717q0 -279 181 -467q182 -189 448 -189q271 0 454 189t183 467q0 277 -183 466t-454 189q-266 0 -448 -189
q-181 -188 -181 -466zM436 715q0 174 117 303t324 129q97 0 186 -49q91 -50 147 -131l-67 -60q-43 66 -115 109q-71 43 -149 43q-167 0 -258 -102q-93 -104 -93 -240q0 -137 93 -241q91 -101 258 -101q77 0 148 42q72 43 116 109l67 -59q-51 -78 -144 -129t-189 -51
q-207 0 -324 127q-117 128 -117 301z" />
    <glyph glyph-name="ordfeminine" unicode="&#xaa;" horiz-adv-x="866" 
d="M403 782q-92 0 -159 49q-68 50 -68 142q0 227 397 227h29v8q0 170 -156 170q-93 0 -176 -59l-45 61q92 74 224 74q233 0 233 -246v-413h-80v104h-4q-25 -48 -77 -82q-53 -35 -118 -35zM406 858q88 0 142 77t54 171v20h-27q-315 0 -315 -145q0 -51 38 -87q37 -36 108 -36z
M170 539v75h518v-75h-518z" />
    <glyph glyph-name="guillemotleft" unicode="&#xab;" horiz-adv-x="1011" 
d="M440 578l336 421h109l-336 -421l336 -420h-109zM449 158l-336 420l336 421h108l-336 -421l336 -420h-108z" />
    <glyph glyph-name="logicalnot" unicode="&#xac;" horiz-adv-x="1288" 
d="M184 702v82h934v-448h-86v366h-848z" />
    <glyph glyph-name="uni00AD" unicode="&#xad;" horiz-adv-x="884" 
d="M160 539v82h565v-82h-565z" />
    <glyph glyph-name="registered" unicode="&#xae;" horiz-adv-x="1710" 
d="M131 717q0 310 211 525q212 216 510 216q306 0 517 -216q212 -217 212 -525q0 -312 -212 -527t-517 -215q-301 0 -511 215q-210 214 -210 527zM223 717q0 -279 181 -467q182 -189 448 -189q271 0 454 189t183 467q0 277 -183 466t-454 189q-266 0 -448 -189
q-181 -188 -181 -466zM614 307v819h273q106 0 171 -65q66 -66 66 -172q0 -87 -45 -145q-44 -57 -112 -74v-4q9 -13 26 -45l162 -314h-100l-174 342h-176v-342h-91zM705 727h172q71 0 113 43q42 44 42 119t-42 115q-41 40 -113 40h-172v-317z" />
    <glyph glyph-name="macron" unicode="&#xaf;" horiz-adv-x="1042" 
d="M276 1610v82h490v-82h-490z" />
    <glyph glyph-name="degree" unicode="&#xb0;" horiz-adv-x="794" 
d="M397 920q-111 0 -188 77q-78 78 -78 189q0 110 78 189t188 79q111 0 190 -79t79 -189q0 -111 -79 -189q-78 -77 -190 -77zM397 1001q74 0 128 54q53 53 53 131q0 77 -53 132q-52 54 -128 54t-127 -54t-51 -132t51 -131q52 -54 127 -54z" />
    <glyph glyph-name="plusminus" unicode="&#xb1;" horiz-adv-x="1146" 
d="M45 539v82h485v538h88v-538h484v-82h-484v-539h-88v539h-485zM86 -231h975v-82h-975v82z" />
    <glyph glyph-name="twosuperior" unicode="&#xb2;" 
d="M111 866q-5 42 -5 56q0 78 34 142t84 105q47 39 109 83q82 59 108 77q48 34 84 85q34 49 34 110q0 74 -52 126t-134 52q-108 0 -193 -103l-49 54q38 51 103 87q66 36 139 36q126 0 196 -73t70 -179q0 -86 -46 -151q-47 -67 -112 -111q-66 -45 -132 -87q-67 -43 -113 -102
q-49 -63 -50 -133h469v-74h-544z" />
    <glyph glyph-name="threesuperior" unicode="&#xb3;" 
d="M367 846q-84 0 -159 34q-80 36 -124 99l57 53q29 -44 92 -79q59 -33 136 -33q79 0 145 60t66 146q0 88 -67 143q-66 54 -153 54h-65l-23 49l222 260l51 51v5q-44 -7 -78 -7h-336v74h522v-53l-262 -307q102 -7 187 -72q81 -62 81 -197q0 -116 -87 -198q-86 -82 -205 -82z
" />
    <glyph glyph-name="acute" unicode="&#xb4;" horiz-adv-x="1042" 
d="M395 1536l137 227h115l-162 -227h-90z" />
    <glyph glyph-name="mu" unicode="&#xb5;" horiz-adv-x="1183" 
d="M266 80q13 -114 13 -148v-342h-86v1434h86v-618q0 -75 8 -131q8 -53 31 -106q25 -56 76 -82q54 -28 134 -28q188 0 306 139q116 137 116 326v500h86v-1024h-86v170l4 84h-4q-8 -20 -13 -31q-8 -16 -44 -66q-32 -44 -79 -85q-42 -36 -121 -67q-77 -30 -167 -30
q-184 0 -256 105h-4z" />
    <glyph glyph-name="mu" unicode="&#x3bc;" horiz-adv-x="1183" 
d="M266 80q13 -114 13 -148v-342h-86v1434h86v-618q0 -75 8 -131q8 -53 31 -106q25 -56 76 -82q54 -28 134 -28q188 0 306 139q116 137 116 326v500h86v-1024h-86v170l4 84h-4q-8 -20 -13 -31q-8 -16 -44 -66q-32 -44 -79 -85q-42 -36 -121 -67q-77 -30 -167 -30
q-184 0 -256 105h-4z" />
    <glyph glyph-name="paragraph" unicode="&#xb6;" horiz-adv-x="1112" 
d="M578 -102v596q-201 0 -347 137q-145 136 -145 334q0 195 144 332q145 137 345 137h431v-82h-342v-1454h-86zM791 -102v1325h86v-1325h-86z" />
    <glyph glyph-name="periodcentered" unicode="&#xb7;" horiz-adv-x="444" 
d="M160 522v129h125v-129h-125z" />
    <glyph glyph-name="cedilla" unicode="&#xb8;" horiz-adv-x="1042" 
d="M428 -190l49 227l66 -10v-17l-25 -133q65 -11 103 -47q38 -37 38 -92q0 -80 -53 -118t-133 -38q-48 0 -90 8v78q33 -10 84 -10q111 0 111 76q0 78 -125 78z" />
    <glyph glyph-name="onesuperior" unicode="&#xb9;" 
d="M170 866v74h197v666l2 45h-2q-7 -15 -48 -56l-90 -88l-53 56l191 192h77v-815h191v-74h-465z" />
    <glyph glyph-name="ordmasculine" unicode="&#xba;" horiz-adv-x="999" 
d="M498 784q-140 0 -237 99q-97 98 -97 241q0 140 97 236t237 96q138 0 236 -96q97 -96 97 -236q0 -143 -97 -241q-98 -99 -236 -99zM498 860q107 0 180 76q74 77 74 188q0 112 -74 184t-180 72q-108 0 -181 -72t-73 -184t73 -188t181 -76zM201 539v75h602v-75h-602z" />
    <glyph glyph-name="guillemotright" unicode="&#xbb;" horiz-adv-x="1011" 
d="M455 158l336 420l-336 421h108l336 -421l-336 -420h-108zM127 158l336 420l-336 421h109l335 -421l-335 -420h-109z" />
    <glyph glyph-name="onequarter" unicode="&#xbc;" horiz-adv-x="1865" 
d="M1559 0v248h-441v53l455 588h63v-567h140v-74h-140v-248h-77zM1231 322h328v301l6 133h-4q-37 -60 -72 -103l-258 -327v-4zM129 545v73h197v666l2 45h-2q-7 -15 -47 -55l-91 -88l-53 55l191 193h77v-816h191v-73h-465zM604 0h-90l688 1434h88z" />
    <glyph glyph-name="onehalf" unicode="&#xbd;" horiz-adv-x="1841" 
d="M604 0h-90l688 1434h88zM129 545v73h197v666l2 45h-2q-7 -15 -47 -55l-91 -88l-53 55l191 193h77v-816h191v-73h-465zM1180 0q-4 33 -4 55q0 81 33 143q35 64 84 105q47 39 109 83q82 59 108 77q48 34 84 85q34 49 34 109q0 74 -52 126q-53 53 -134 53q-108 0 -193 -103
l-49 53q37 51 104 87q66 36 138 36q127 0 196 -72q70 -73 70 -180q0 -85 -46 -150q-48 -69 -112 -112q-66 -45 -132 -87q-69 -44 -113 -101q-49 -63 -50 -133h469v-74h-544z" />
    <glyph glyph-name="threequarters" unicode="&#xbe;" horiz-adv-x="1912" 
d="M387 524q-84 0 -159 34q-80 36 -124 99l58 54q29 -44 92 -79q61 -34 135 -34q80 0 146 60q65 59 65 147t-66 142t-153 54h-66l-22 50l221 260l51 51v4q-37 -6 -78 -6h-335v74h522v-54l-262 -307q101 -7 186 -72q82 -63 82 -196q0 -117 -87 -199q-86 -82 -206 -82zM651 0
h-90l688 1434h88zM1606 0v248h-441v53l455 588h63v-567h140v-74h-140v-248h-77zM1278 322h328v301l6 133h-4q-37 -60 -72 -103l-258 -327v-4z" />
    <glyph glyph-name="questiondown" unicode="&#xbf;" horiz-adv-x="870" 
d="M547 666v-91q0 -90 -38 -166q-37 -73 -91 -126q-55 -53 -108 -102q-54 -50 -92 -116q-38 -67 -38 -149q0 -112 84 -188q83 -76 215 -76q142 0 260 86l47 -70q-57 -46 -139 -74q-83 -28 -166 -28q-174 0 -283 100q-110 101 -110 252q0 79 28 147q26 64 68 109q36 39 89 90
q51 50 89 86q43 42 69 99q28 62 28 126v91h88zM563 1024v-125h-121v125h121z" />
    <glyph glyph-name="Agrave" unicode="&#xc0;" horiz-adv-x="1277" 
d="M55 0l537 1434h94l537 -1434h-95l-186 496h-608l-184 -496h-95zM365 578h546l-217 581l-53 172h-4q-28 -104 -53 -172zM594 1536l-162 227h115l137 -227h-90z" />
    <glyph glyph-name="Aacute" unicode="&#xc1;" horiz-adv-x="1277" 
d="M55 0l537 1434h94l537 -1434h-95l-186 496h-608l-184 -496h-95zM365 578h546l-217 581l-53 172h-4q-28 -104 -53 -172zM592 1536l137 227h115l-162 -227h-90z" />
    <glyph glyph-name="Acircumflex" unicode="&#xc2;" horiz-adv-x="1277" 
d="M55 0l537 1434h94l537 -1434h-95l-186 496h-608l-184 -496h-95zM365 578h546l-217 581l-53 172h-4q-28 -104 -53 -172zM422 1536l164 227h106l164 -227h-100l-115 164h-4l-115 -164h-100z" />
    <glyph glyph-name="Atilde" unicode="&#xc3;" horiz-adv-x="1277" 
d="M55 0l537 1434h94l537 -1434h-95l-186 496h-608l-184 -496h-95zM365 578h546l-217 581l-53 172h-4q-28 -104 -53 -172zM344 1542q0 221 170 221q49 0 85 -23q39 -25 59 -52q19 -26 53 -53q29 -23 61 -23q82 0 82 145h82q0 -221 -170 -221q-48 0 -85 24q-39 25 -59 52
q-17 23 -53 52q-30 24 -61 24q-82 0 -82 -146h-82z" />
    <glyph glyph-name="Adieresis" unicode="&#xc4;" horiz-adv-x="1277" 
d="M55 0l537 1434h94l537 -1434h-95l-186 496h-608l-184 -496h-95zM365 578h546l-217 581l-53 172h-4q-28 -104 -53 -172zM733 1614v149h94v-149h-94zM453 1614v149h94v-149h-94z" />
    <glyph glyph-name="Aring" unicode="&#xc5;" horiz-adv-x="1277" 
d="M55 0l537 1434h94l537 -1434h-95l-186 496h-608l-184 -496h-95zM365 578h546l-217 581l-53 172h-4q-28 -104 -53 -172zM639 1516q-58 0 -97 38q-40 39 -40 99q0 59 40 98t97 39q56 0 97 -39q40 -39 40 -98q0 -60 -40 -99q-39 -38 -97 -38zM639 1587q28 0 47 19t19 47
q0 30 -19 49q-18 18 -47 18t-47 -18q-19 -19 -19 -49q0 -28 19 -47t47 -19z" />
    <glyph glyph-name="AE" unicode="&#xc6;" horiz-adv-x="1689" 
d="M47 0l588 1434h919v-82h-696v-588h572v-82h-572v-600h735v-82h-823v682h-350l-279 -682h-94zM455 764h315v588h-74z" />
    <glyph glyph-name="Ccedilla" unicode="&#xc7;" horiz-adv-x="1474" 
d="M750 -190l34 167q-293 21 -476 234t-183 516q0 313 201 522t510 209q320 0 512 -180l-54 -66q-83 75 -209 119q-122 43 -247 43q-273 0 -447 -183t-174 -464q0 -285 175 -476q176 -192 452 -192q287 0 485 195l55 -61q-220 -212 -526 -218l-18 -98q64 -11 102 -47
q39 -37 39 -92q0 -80 -53 -118t-133 -38q-48 0 -90 8v78q33 -10 83 -10q111 0 111 76q0 78 -125 78z" />
    <glyph glyph-name="Egrave" unicode="&#xc8;" horiz-adv-x="1138" 
d="M219 0v1434h785v-82h-697v-588h572v-82h-572v-600h735v-82h-823zM592 1536l-162 227h115l137 -227h-90z" />
    <glyph glyph-name="Eacute" unicode="&#xc9;" horiz-adv-x="1138" 
d="M219 0v1434h785v-82h-697v-588h572v-82h-572v-600h735v-82h-823zM590 1536l137 227h115l-162 -227h-90z" />
    <glyph glyph-name="Ecircumflex" unicode="&#xca;" horiz-adv-x="1138" 
d="M219 0v1434h785v-82h-697v-588h572v-82h-572v-600h735v-82h-823zM420 1536l164 227h106l164 -227h-100l-115 164h-4l-115 -164h-100z" />
    <glyph glyph-name="Edieresis" unicode="&#xcb;" horiz-adv-x="1138" 
d="M219 0v1434h785v-82h-697v-588h572v-82h-572v-600h735v-82h-823zM731 1614v149h94v-149h-94zM451 1614v149h94v-149h-94z" />
    <glyph glyph-name="Igrave" unicode="&#xcc;" horiz-adv-x="526" 
d="M219 0v1434h88v-1434h-88zM219 1536l-162 227h115l137 -227h-90z" />
    <glyph glyph-name="Iacute" unicode="&#xcd;" horiz-adv-x="526" 
d="M219 0v1434h88v-1434h-88zM217 1536l137 227h115l-162 -227h-90z" />
    <glyph glyph-name="Icircumflex" unicode="&#xce;" horiz-adv-x="526" 
d="M219 0v1434h88v-1434h-88zM47 1536l164 227h106l164 -227h-100l-115 164h-4l-115 -164h-100z" />
    <glyph glyph-name="Idieresis" unicode="&#xcf;" horiz-adv-x="526" 
d="M219 0v1434h88v-1434h-88zM358 1614v149h95v-149h-95zM78 1614v149h94v-149h-94z" />
    <glyph glyph-name="Eth" unicode="&#xd0;" horiz-adv-x="1523" 
d="M231 0v682h-122v82h122v670h451q323 0 519 -191t196 -526q0 -339 -195 -528t-520 -189h-451zM319 82h349q292 0 464 166q173 167 173 469q0 301 -173 468t-464 167h-349v-588h375v-82h-375v-600z" />
    <glyph glyph-name="Ntilde" unicode="&#xd1;" horiz-adv-x="1536" 
d="M219 0v1434h82l817 -1125l117 -180h4q-10 103 -10 180v1125h88v-1434h-82l-817 1124l-117 181h-4q10 -103 10 -181v-1124h-88zM473 1542q0 221 170 221q49 0 85 -23q39 -25 59 -52q19 -26 53 -53q29 -23 61 -23q82 0 82 145h82q0 -221 -170 -221q-47 0 -85 24
q-39 25 -59 52q-17 23 -53 52q-30 24 -61 24q-82 0 -82 -146h-82z" />
    <glyph glyph-name="Ograve" unicode="&#xd2;" horiz-adv-x="1691" 
d="M121 727q0 308 209 520q208 211 516 211t516 -211q209 -212 209 -520q0 -316 -209 -534t-516 -218t-516 218t-209 534zM213 727q0 -284 181 -475q182 -193 452 -193q269 0 451 193t182 475q0 275 -182 462q-181 185 -451 185q-271 0 -452 -185t-181 -462zM801 1536
l-162 227h115l137 -227h-90z" />
    <glyph glyph-name="Oacute" unicode="&#xd3;" horiz-adv-x="1691" 
d="M121 727q0 308 209 520q208 211 516 211t516 -211q209 -212 209 -520q0 -316 -209 -534t-516 -218t-516 218t-209 534zM213 727q0 -284 181 -475q182 -193 452 -193q269 0 451 193t182 475q0 275 -182 462q-181 185 -451 185q-271 0 -452 -185t-181 -462zM799 1536
l137 227h115l-162 -227h-90z" />
    <glyph glyph-name="Ocircumflex" unicode="&#xd4;" horiz-adv-x="1691" 
d="M121 727q0 308 209 520q208 211 516 211t516 -211q209 -212 209 -520q0 -316 -209 -534t-516 -218t-516 218t-209 534zM213 727q0 -284 181 -475q182 -193 452 -193q269 0 451 193t182 475q0 275 -182 462q-181 185 -451 185q-271 0 -452 -185t-181 -462zM629 1536
l164 227h106l164 -227h-100l-115 164h-4l-115 -164h-100z" />
    <glyph glyph-name="Otilde" unicode="&#xd5;" horiz-adv-x="1691" 
d="M121 727q0 308 209 520q208 211 516 211t516 -211q209 -212 209 -520q0 -316 -209 -534t-516 -218t-516 218t-209 534zM213 727q0 -284 181 -475q182 -193 452 -193q269 0 451 193t182 475q0 275 -182 462q-181 185 -451 185q-271 0 -452 -185t-181 -462zM551 1542
q0 221 170 221q49 0 85 -23q39 -25 59 -52q19 -26 53 -53q29 -23 61 -23q82 0 82 145h82q0 -221 -170 -221q-47 0 -85 24q-41 26 -60 52q-19 25 -52 52q-30 24 -61 24q-82 0 -82 -146h-82z" />
    <glyph glyph-name="Odieresis" unicode="&#xd6;" horiz-adv-x="1691" 
d="M121 727q0 308 209 520q208 211 516 211t516 -211q209 -212 209 -520q0 -316 -209 -534t-516 -218t-516 218t-209 534zM213 727q0 -284 181 -475q182 -193 452 -193q269 0 451 193t182 475q0 275 -182 462q-181 185 -451 185q-271 0 -452 -185t-181 -462zM940 1614v149
h94v-149h-94zM659 1614v149h95v-149h-95z" />
    <glyph glyph-name="multiply" unicode="&#xd7;" horiz-adv-x="1146" 
d="M57 57l459 523l-459 522l62 57l454 -516l455 516l62 -57l-461 -522l461 -523l-62 -57l-455 516l-454 -516z" />
    <glyph glyph-name="Oslash" unicode="&#xd8;" horiz-adv-x="1689" 
d="M281 2l102 143q-125 107 -193 256q-69 151 -69 324q0 309 212 521t513 212q210 0 393 -117l100 142l70 -51l-100 -142q262 -219 262 -565q0 -313 -212 -531q-213 -219 -513 -219q-212 0 -393 119l-101 -141zM434 217l754 1055q-153 102 -342 102q-265 0 -449 -187
t-184 -462q0 -154 59 -285q60 -133 162 -223zM502 164q152 -105 342 -105q262 0 449 193q186 192 186 471q0 306 -222 498z" />
    <glyph glyph-name="Ugrave" unicode="&#xd9;" horiz-adv-x="1476" 
d="M203 492v942h88v-938q0 -201 121 -319t325 -118q206 0 327 118q122 119 122 323v934h88v-942q0 -235 -149 -376q-148 -141 -386 -141t-388 142q-148 141 -148 375zM692 1536l-162 227h115l137 -227h-90z" />
    <glyph glyph-name="Uacute" unicode="&#xda;" horiz-adv-x="1476" 
d="M203 492v942h88v-938q0 -201 121 -319t325 -118q206 0 327 118q122 119 122 323v934h88v-942q0 -235 -149 -376q-148 -141 -386 -141t-388 142q-148 141 -148 375zM690 1536l137 227h115l-162 -227h-90z" />
    <glyph glyph-name="Ucircumflex" unicode="&#xdb;" horiz-adv-x="1476" 
d="M203 492v942h88v-938q0 -201 121 -319t325 -118q206 0 327 118q122 119 122 323v934h88v-942q0 -235 -149 -376q-148 -141 -386 -141t-388 142q-148 141 -148 375zM520 1536l164 227h107l163 -227h-100l-115 164h-4l-114 -164h-101z" />
    <glyph glyph-name="Udieresis" unicode="&#xdc;" horiz-adv-x="1476" 
d="M203 492v942h88v-938q0 -201 121 -319t325 -118q206 0 327 118q122 119 122 323v934h88v-942q0 -235 -149 -376q-148 -141 -386 -141t-388 142q-148 141 -148 375zM831 1614v149h95v-149h-95zM551 1614v149h94v-149h-94z" />
    <glyph glyph-name="Yacute" unicode="&#xdd;" horiz-adv-x="1161" 
d="M537 0v623l-488 811h101l339 -566l89 -161h4q48 97 88 161l340 566h100l-485 -811v-623h-88zM532 1536l138 227h114l-161 -227h-91z" />
    <glyph glyph-name="Thorn" unicode="&#xde;" horiz-adv-x="1214" 
d="M219 0v1434h88v-267h383q192 0 314 -113t122 -304q0 -195 -122 -308q-123 -114 -318 -114h-379v-328h-88zM307 410h379q160 0 254 90t94 250q0 159 -94 247t-254 88h-379v-675z" />
    <glyph glyph-name="germandbls" unicode="&#xdf;" horiz-adv-x="1150" 
d="M178 0v1090q0 170 116 269t269 99t241 -85q89 -86 89 -197q0 -76 -39 -142t-85 -103q-44 -35 -85 -86q-39 -48 -39 -91q0 -50 68 -104q67 -53 148 -100q82 -47 149 -123t67 -165q0 -133 -92 -205q-90 -71 -223 -71q-190 0 -316 71v95q133 -82 318 -82q95 0 159 49t64 143
q0 60 -44 113q-43 53 -108 93q-12 7 -58 35.5t-70 44.5q-67 43 -108 91q-44 52 -44 111q0 61 39 118q42 61 85 96q45 36 85 95q39 57 39 117q0 78 -65 138t-179 60q-118 0 -206 -79q-89 -80 -89 -212v-1083h-86z" />
    <glyph glyph-name="agrave" unicode="&#xe0;" horiz-adv-x="1040" 
d="M84 272q0 72 27 129q29 60 65 94q37 34 102 62q64 28 113 39q47 11 123 19q72 7 111 9q26 1 94 1h67v34q0 306 -280 306q-164 0 -293 -99l-49 70q63 53 153 82q98 31 193 31q178 0 270 -99q92 -100 92 -288v-662h-86v135l9 92h-4q-40 -105 -137 -179q-96 -73 -222 -73
q-138 0 -244 77q-104 76 -104 220zM174 279q0 -88 70 -156t192 -68q158 0 254 134q96 133 96 300v56h-65q-77 0 -104 -1q-54 -2 -114 -8q-77 -8 -123 -25t-100 -45q-51 -26 -79 -76q-27 -48 -27 -111zM465 1206l-162 228h115l137 -228h-90z" />
    <glyph glyph-name="aacute" unicode="&#xe1;" horiz-adv-x="1040" 
d="M84 272q0 72 27 129q29 60 65 94q37 34 102 62q64 28 113 39q47 11 123 19q72 7 111 9q26 1 94 1h67v34q0 306 -280 306q-164 0 -293 -99l-49 70q63 53 153 82q98 31 193 31q178 0 270 -99q92 -100 92 -288v-662h-86v135l9 92h-4q-40 -105 -137 -179q-96 -73 -222 -73
q-138 0 -244 77q-104 76 -104 220zM174 279q0 -88 70 -156t192 -68q158 0 254 134q96 133 96 300v56h-65q-77 0 -104 -1q-54 -2 -114 -8q-77 -8 -123 -25t-100 -45q-51 -26 -79 -76q-27 -48 -27 -111zM461 1206l137 228h115l-162 -228h-90z" />
    <glyph glyph-name="acircumflex" unicode="&#xe2;" horiz-adv-x="1040" 
d="M84 272q0 72 27 129q29 60 65 94q37 34 102 62q64 28 113 39q47 11 123 19q72 7 111 9q26 1 94 1h67v34q0 306 -280 306q-164 0 -293 -99l-49 70q63 53 153 82q98 31 193 31q178 0 270 -99q92 -100 92 -288v-662h-86v135l9 92h-4q-40 -105 -137 -179q-96 -73 -222 -73
q-138 0 -244 77q-104 76 -104 220zM174 279q0 -88 70 -156t192 -68q158 0 254 134q96 133 96 300v56h-65q-77 0 -104 -1q-54 -2 -114 -8q-77 -8 -123 -25t-100 -45q-51 -26 -79 -76q-27 -48 -27 -111zM293 1206l164 228h106l164 -228h-100l-115 164h-4l-115 -164h-100z" />
    <glyph glyph-name="atilde" unicode="&#xe3;" horiz-adv-x="1040" 
d="M84 272q0 72 27 129q29 60 65 94q37 34 102 62q64 28 113 39q47 11 123 19q72 7 111 9q26 1 94 1h67v34q0 306 -280 306q-164 0 -293 -99l-49 70q63 53 153 82q98 31 193 31q178 0 270 -99q92 -100 92 -288v-662h-86v135l9 92h-4q-40 -105 -137 -179q-96 -73 -222 -73
q-138 0 -244 77q-104 76 -104 220zM174 279q0 -88 70 -156t192 -68q158 0 254 134q96 133 96 300v56h-65q-77 0 -104 -1q-54 -2 -114 -8q-77 -8 -123 -25t-100 -45q-51 -26 -79 -76q-27 -48 -27 -111zM215 1212q0 222 170 222q47 0 85 -24q39 -25 59 -52q17 -23 53 -52
q30 -24 61 -24q82 0 82 145h82q0 -221 -170 -221q-47 0 -85 24q-39 25 -59 52q-17 23 -53 52q-30 24 -61 24q-82 0 -82 -146h-82z" />
    <glyph glyph-name="adieresis" unicode="&#xe4;" horiz-adv-x="1040" 
d="M84 272q0 72 27 129q29 60 65 94q37 34 102 62q64 28 113 39q47 11 123 19q72 7 111 9q26 1 94 1h67v34q0 306 -280 306q-164 0 -293 -99l-49 70q63 53 153 82q98 31 193 31q178 0 270 -99q92 -100 92 -288v-662h-86v135l9 92h-4q-40 -105 -137 -179q-96 -73 -222 -73
q-138 0 -244 77q-104 76 -104 220zM174 279q0 -88 70 -156t192 -68q158 0 254 134q96 133 96 300v56h-65q-77 0 -104 -1q-54 -2 -114 -8q-77 -8 -123 -25t-100 -45q-51 -26 -79 -76q-27 -48 -27 -111zM604 1284v150h94v-150h-94zM324 1284v150h94v-150h-94z" />
    <glyph glyph-name="aring" unicode="&#xe5;" horiz-adv-x="1040" 
d="M84 272q0 72 27 129q29 60 65 94q37 34 102 62q64 28 113 39q47 11 123 19q72 7 111 9q26 1 94 1h67v34q0 306 -280 306q-164 0 -293 -99l-49 70q63 53 153 82q98 31 193 31q178 0 270 -99q92 -100 92 -288v-662h-86v135l9 92h-4q-40 -105 -137 -179q-96 -73 -222 -73
q-138 0 -244 77q-104 76 -104 220zM174 279q0 -88 70 -156t192 -68q158 0 254 134q96 133 96 300v56h-65q-77 0 -104 -1q-54 -2 -114 -8q-77 -8 -123 -25t-100 -45q-51 -26 -79 -76q-27 -48 -27 -111zM510 1186q-59 0 -98 40t-39 97t39 97t98 40t98 -40t39 -97t-39 -97
t-98 -40zM510 1257q28 0 47 19q18 18 18 47q0 31 -18 49q-19 19 -47 19t-47 -19t-19 -49q0 -28 19 -47t47 -19z" />
    <glyph glyph-name="ae" unicode="&#xe6;" horiz-adv-x="1779" 
d="M86 272q0 68 23 125t56 90q37 37 89 61q58 27 103 38t120 19q57 6 116 8q29 1 112 1h81v45q0 306 -288 306q-158 0 -285 -99l-49 70q61 54 151 83q92 30 187 30q295 0 352 -240h4q62 119 167 179q107 61 239 61q197 0 305 -131t108 -326q0 -28 -4 -57h-801
q0 -226 116 -351t302 -125q189 0 318 129l47 -71q-69 -64 -167 -103q-99 -39 -198 -39q-158 0 -282 83q-123 82 -179 231h-4q-6 -31 -27 -74q-17 -36 -64 -101q-42 -58 -120 -99q-77 -40 -176 -40q-149 0 -251 78q-101 77 -101 219zM881 614h706q-8 177 -102 265t-228 88
q-147 0 -249 -90q-103 -91 -127 -263zM176 279q0 -91 70 -158q69 -66 192 -66q158 0 253 134t95 300v46h-141q-52 0 -122 -4q-59 -3 -123 -17q-72 -15 -114 -40q-43 -25 -77 -76q-33 -50 -33 -119z" />
    <glyph glyph-name="ccedilla" unicode="&#xe7;" horiz-adv-x="1110" 
d="M539 -190l37 170q-204 21 -335 164q-132 144 -132 366q0 238 154 388q156 151 374 151q104 0 202 -37q100 -38 165 -109l-54 -69q-55 59 -140 95q-86 36 -173 36q-183 0 -311 -126q-127 -126 -127 -329q0 -202 127 -326q128 -125 311 -125q97 0 188 39q92 39 154 109
l45 -72q-62 -71 -164 -115q-100 -44 -213 -45l-18 -98q64 -11 102 -47q39 -37 39 -92q0 -80 -53 -118t-133 -38q-48 0 -90 8v78q33 -10 84 -10q110 0 110 76q0 78 -125 78z" />
    <glyph glyph-name="egrave" unicode="&#xe8;" horiz-adv-x="1124" 
d="M106 510q0 250 146 394q147 145 352 145q197 0 308 -135q110 -134 110 -332q0 -23 -4 -56h-821q0 -215 126 -341t312 -126q188 0 317 129l47 -71q-70 -65 -166 -103q-99 -39 -198 -39q-222 0 -376 149q-153 148 -153 386zM203 606h729q-7 177 -101 271q-92 92 -229 92
q-148 0 -261 -96q-111 -95 -138 -267zM565 1206l-162 228h115l137 -228h-90z" />
    <glyph glyph-name="eacute" unicode="&#xe9;" horiz-adv-x="1124" 
d="M106 510q0 250 146 394q147 145 352 145q197 0 308 -135q110 -134 110 -332q0 -23 -4 -56h-821q0 -215 126 -341t312 -126q188 0 317 129l47 -71q-70 -65 -166 -103q-99 -39 -198 -39q-222 0 -376 149q-153 148 -153 386zM203 606h729q-7 177 -101 271q-92 92 -229 92
q-148 0 -261 -96q-111 -95 -138 -267zM561 1206l137 228h115l-162 -228h-90z" />
    <glyph glyph-name="ecircumflex" unicode="&#xea;" horiz-adv-x="1124" 
d="M106 510q0 250 146 394q147 145 352 145q197 0 308 -135q110 -134 110 -332q0 -23 -4 -56h-821q0 -215 126 -341t312 -126q188 0 317 129l47 -71q-70 -65 -166 -103q-99 -39 -198 -39q-222 0 -376 149q-153 148 -153 386zM203 606h729q-7 177 -101 271q-92 92 -229 92
q-148 0 -261 -96q-111 -95 -138 -267zM391 1206l164 228h107l163 -228h-100l-115 164h-4l-114 -164h-101z" />
    <glyph glyph-name="edieresis" unicode="&#xeb;" horiz-adv-x="1124" 
d="M106 510q0 250 146 394q147 145 352 145q197 0 308 -135q110 -134 110 -332q0 -23 -4 -56h-821q0 -215 126 -341t312 -126q188 0 317 129l47 -71q-70 -65 -166 -103q-99 -39 -198 -39q-222 0 -376 149q-153 148 -153 386zM203 606h729q-7 177 -101 271q-92 92 -229 92
q-148 0 -261 -96q-111 -95 -138 -267zM702 1284v150h95v-150h-95zM422 1284v150h94v-150h-94z" />
    <glyph glyph-name="igrave" unicode="&#xec;" horiz-adv-x="442" 
d="M178 0v1024h86v-1024h-86zM178 1206l-162 228h115l137 -228h-90z" />
    <glyph glyph-name="iacute" unicode="&#xed;" horiz-adv-x="442" 
d="M178 0v1024h86v-1024h-86zM176 1206l137 228h115l-162 -228h-90z" />
    <glyph glyph-name="icircumflex" unicode="&#xee;" horiz-adv-x="442" 
d="M178 0v1024h86v-1024h-86zM6 1206l164 228h106l164 -228h-100l-115 164h-4l-115 -164h-100z" />
    <glyph glyph-name="idieresis" unicode="&#xef;" horiz-adv-x="442" 
d="M178 0v1024h86v-1024h-86zM317 1284v150h95v-150h-95zM37 1284v150h94v-150h-94z" />
    <glyph glyph-name="eth" unicode="&#xf0;" horiz-adv-x="1181" 
d="M111 471q0 200 130 343q131 144 363 144q104 0 183 -33q83 -35 116 -69l33 -33h4q-73 231 -281 375l-352 -164l-35 76l299 139q-135 72 -313 117l25 78q232 -59 385 -152l252 119l34 -76l-206 -96q319 -243 319 -686q0 -107 -30 -206t-88 -184q-59 -86 -156 -136
q-101 -52 -222 -52q-210 0 -335 149t-125 347zM201 471q0 -165 102 -290q102 -124 272 -124q133 0 228 77q93 75 134 182q40 104 40 223q0 147 -104 242q-105 96 -271 96q-192 0 -297 -120q-104 -119 -104 -286z" />
    <glyph glyph-name="ntilde" unicode="&#xf1;" horiz-adv-x="1200" 
d="M178 0v1024h86v-180l-8 -84h4q34 97 150 193t284 96q188 0 263 -102t75 -298v-649h-86v618q0 67 -4 106q-5 51 -18 92q-16 51 -41 79q-28 31 -75 50q-49 20 -114 20q-178 0 -304 -130q-126 -131 -126 -325v-510h-86zM334 1212q0 222 170 222q48 0 85 -24q39 -25 59 -52
q19 -25 52 -52q30 -24 62 -24q82 0 82 145h82q0 -221 -170 -221q-48 0 -85 24q-41 26 -60 52q-19 25 -52 52q-30 24 -61 24q-82 0 -82 -146h-82z" />
    <glyph glyph-name="ograve" unicode="&#xf2;" horiz-adv-x="1269" 
d="M104 518q0 224 155 377q156 154 376 154t376 -154q154 -153 154 -377q0 -228 -154 -385q-155 -158 -376 -158t-376 158t-155 385zM195 518q0 -194 128 -327q127 -132 312 -132t312 132q128 133 128 327q0 188 -128 318q-127 129 -312 129t-312 -129q-128 -130 -128 -318z
M590 1206l-162 228h115l137 -228h-90z" />
    <glyph glyph-name="oacute" unicode="&#xf3;" horiz-adv-x="1269" 
d="M104 518q0 224 155 377q156 154 376 154t376 -154q154 -153 154 -377q0 -228 -154 -385q-155 -158 -376 -158t-376 158t-155 385zM195 518q0 -194 128 -327q127 -132 312 -132t312 132q128 133 128 327q0 188 -128 318q-127 129 -312 129t-312 -129q-128 -130 -128 -318z
M588 1206l137 228h115l-162 -228h-90z" />
    <glyph glyph-name="ocircumflex" unicode="&#xf4;" horiz-adv-x="1269" 
d="M104 518q0 224 155 377q156 154 376 154t376 -154q154 -153 154 -377q0 -228 -154 -385q-155 -158 -376 -158t-376 158t-155 385zM195 518q0 -194 128 -327q127 -132 312 -132t312 132q128 133 128 327q0 188 -128 318q-127 129 -312 129t-312 -129q-128 -130 -128 -318z
M418 1206l164 228h106l164 -228h-100l-115 164h-4l-115 -164h-100z" />
    <glyph glyph-name="otilde" unicode="&#xf5;" horiz-adv-x="1269" 
d="M104 518q0 224 155 377q156 154 376 154t376 -154q154 -153 154 -377q0 -228 -154 -385q-155 -158 -376 -158t-376 158t-155 385zM195 518q0 -194 128 -327q127 -132 312 -132t312 132q128 133 128 327q0 188 -128 318q-127 129 -312 129t-312 -129q-128 -130 -128 -318z
M340 1212q0 222 170 222q48 0 85 -24q39 -25 59 -52q17 -23 53 -52q30 -24 61 -24q82 0 82 145h82q0 -221 -170 -221q-48 0 -85 24q-41 26 -60 52q-19 25 -52 52q-30 24 -61 24q-82 0 -82 -146h-82z" />
    <glyph glyph-name="odieresis" unicode="&#xf6;" horiz-adv-x="1269" 
d="M104 518q0 224 155 377q156 154 376 154t376 -154q154 -153 154 -377q0 -228 -154 -385q-155 -158 -376 -158t-376 158t-155 385zM195 518q0 -194 128 -327q127 -132 312 -132t312 132q128 133 128 327q0 188 -128 318q-127 129 -312 129t-312 -129q-128 -130 -128 -318z
M729 1284v150h94v-150h-94zM449 1284v150h94v-150h-94z" />
    <glyph glyph-name="divide" unicode="&#xf7;" horiz-adv-x="1146" 
d="M514 883v121h117v-121h-117zM86 539v82h975v-82h-975zM514 156v120h117v-120h-117z" />
    <glyph glyph-name="oslash" unicode="&#xf8;" horiz-adv-x="1271" 
d="M225 -6l74 104q-193 160 -193 420q0 224 155 377q156 154 376 154q155 0 283 -80l77 108l70 -53l-78 -109q178 -157 178 -397q0 -228 -154 -385q-155 -158 -376 -158q-147 0 -266 72l-76 -106zM348 168l522 731q-108 66 -233 66q-185 0 -312 -129q-128 -130 -128 -318
q0 -214 151 -350zM420 117q101 -58 217 -58q185 0 312 132q128 133 128 327q0 197 -139 326z" />
    <glyph glyph-name="ugrave" unicode="&#xf9;" horiz-adv-x="1187" 
d="M166 375v649h86v-618q0 -67 4 -106q5 -51 18 -92q16 -51 41 -79q28 -31 75 -50q49 -20 114 -20q183 0 302 139q118 137 118 326v500h86v-1024h-86v180l8 84h-4q-34 -97 -148 -193t-276 -96q-182 0 -260 99t-78 301zM545 1206l-162 228h115l137 -228h-90z" />
    <glyph glyph-name="uacute" unicode="&#xfa;" horiz-adv-x="1187" 
d="M166 375v649h86v-618q0 -67 4 -106q5 -51 18 -92q16 -51 41 -79q28 -31 75 -50q49 -20 114 -20q183 0 302 139q118 137 118 326v500h86v-1024h-86v180l8 84h-4q-34 -97 -148 -193t-276 -96q-182 0 -260 99t-78 301zM541 1206l137 228h115l-162 -228h-90z" />
    <glyph glyph-name="ucircumflex" unicode="&#xfb;" horiz-adv-x="1187" 
d="M166 375v649h86v-618q0 -67 4 -106q5 -51 18 -92q16 -51 41 -79q28 -31 75 -50q49 -20 114 -20q183 0 302 139q118 137 118 326v500h86v-1024h-86v180l8 84h-4q-34 -97 -148 -193t-276 -96q-182 0 -260 99t-78 301zM371 1206l164 228h106l164 -228h-100l-115 164h-4
l-115 -164h-100z" />
    <glyph glyph-name="udieresis" unicode="&#xfc;" horiz-adv-x="1187" 
d="M166 375v649h86v-618q0 -67 4 -106q5 -51 18 -92q16 -51 41 -79q28 -31 75 -50q49 -20 114 -20q183 0 302 139q118 137 118 326v500h86v-1024h-86v180l8 84h-4q-34 -97 -148 -193t-276 -96q-182 0 -260 99t-78 301zM682 1284v150h94v-150h-94zM401 1284v150h95v-150h-95z
" />
    <glyph glyph-name="yacute" unicode="&#xfd;" horiz-adv-x="1058" 
d="M84 -299q56 -49 127 -49q123 0 201 184l73 170l-424 1018h93l338 -817l36 -96h4q18 56 35 96l338 817h92l-526 -1264q-79 -190 -260 -190q-46 0 -85 14q-44 16 -60 29l-21 14zM483 1206l138 228h114l-162 -228h-90z" />
    <glyph glyph-name="thorn" unicode="&#xfe;" horiz-adv-x="1183" 
d="M178 -410v1844h86v-523l-2 -82h4q39 95 137 157q99 63 228 63q201 0 322 -148q120 -147 120 -389q0 -243 -127 -389q-128 -148 -328 -148q-112 0 -211 60q-100 60 -143 162h-4q4 -33 4 -91v-516h-86zM262 510q0 -182 96 -317q97 -136 260 -136q156 0 261 123
q104 122 104 332q0 204 -99 329q-99 124 -257 124q-155 0 -260 -114t-105 -341z" />
    <glyph glyph-name="ydieresis" unicode="&#xff;" horiz-adv-x="1058" 
d="M84 -299q56 -49 127 -49q123 0 201 184l73 170l-424 1018h93l338 -817l36 -96h4q18 56 35 96l338 817h92l-526 -1264q-79 -190 -260 -190q-46 0 -85 14q-44 16 -60 29l-21 14zM625 1284v150h94v-150h-94zM344 1284v150h94v-150h-94z" />
    <glyph glyph-name="Amacron" unicode="&#x100;" horiz-adv-x="1277" 
d="M55 0l537 1434h94l537 -1434h-95l-186 496h-608l-184 -496h-95zM365 578h546l-217 581l-53 172h-4q-28 -104 -53 -172zM395 1610v82h490v-82h-490z" />
    <glyph glyph-name="amacron" unicode="&#x101;" horiz-adv-x="1040" 
d="M84 272q0 72 27 129q29 60 65 94q37 34 102 62q64 28 113 39q47 11 123 19q72 7 111 9q26 1 94 1h67v34q0 306 -280 306q-164 0 -293 -99l-49 70q63 53 153 82q98 31 193 31q178 0 270 -99q92 -100 92 -288v-662h-86v135l9 92h-4q-40 -105 -137 -179q-96 -73 -222 -73
q-138 0 -244 77q-104 76 -104 220zM174 279q0 -88 70 -156t192 -68q158 0 254 134q96 133 96 300v56h-65q-77 0 -104 -1q-54 -2 -114 -8q-77 -8 -123 -25t-100 -45q-51 -26 -79 -76q-27 -48 -27 -111zM266 1280v82h490v-82h-490z" />
    <glyph glyph-name="Abreve" unicode="&#x102;" horiz-adv-x="1277" 
d="M55 0l537 1434h94l537 -1434h-95l-186 496h-608l-184 -496h-95zM365 578h546l-217 581l-53 172h-4q-28 -104 -53 -172zM639 1530q-84 0 -145 52q-62 53 -62 149v32h82v-28q0 -64 35 -96q34 -31 90 -31q54 0 89 31q36 31 36 98v26h82v-32q0 -96 -62 -149q-61 -52 -145 -52
z" />
    <glyph glyph-name="abreve" unicode="&#x103;" horiz-adv-x="1040" 
d="M84 272q0 72 27 129q29 60 65 94q37 34 102 62q64 28 113 39q47 11 123 19q72 7 111 9q26 1 94 1h67v34q0 306 -280 306q-164 0 -293 -99l-49 70q63 53 153 82q98 31 193 31q178 0 270 -99q92 -100 92 -288v-662h-86v135l9 92h-4q-40 -105 -137 -179q-96 -73 -222 -73
q-138 0 -244 77q-104 76 -104 220zM174 279q0 -88 70 -156t192 -68q158 0 254 134q96 133 96 300v56h-65q-77 0 -104 -1q-54 -2 -114 -8q-77 -8 -123 -25t-100 -45q-51 -26 -79 -76q-27 -48 -27 -111zM510 1200q-84 0 -145 52q-62 53 -62 149v33h82v-29q0 -63 35 -95t90 -32
q52 0 89 32q36 32 36 97v27h82v-33q0 -96 -62 -149q-61 -52 -145 -52z" />
    <glyph glyph-name="Aogonek" unicode="&#x104;" horiz-adv-x="1277" 
d="M55 0l537 1434h94l537 -1434q-164 -122 -164 -223q0 -45 35 -74t69 -35l35 -6l-18 -80q-3 0 -23 2q-11 1 -51 14q-41 13 -66 29q-28 18 -51 56q-22 37 -22 86q0 135 155 245l-180 482h-608l-184 -496h-95zM365 578h546l-217 581l-53 172h-4q-28 -104 -53 -172z" />
    <glyph glyph-name="aogonek" unicode="&#x105;" horiz-adv-x="1040" 
d="M84 272q0 72 27 129q29 60 65 94q37 34 102 62q64 28 113 39q47 11 123 19q72 7 111 9q26 1 94 1h67v34q0 306 -280 306q-164 0 -293 -99l-49 70q63 53 153 82q98 31 193 31q178 0 270 -99q92 -100 92 -288v-662q-163 -121 -163 -223q0 -46 34 -74q35 -29 70 -35l35 -6
l-19 -80q-2 0 -22 2q-11 1 -51 14q-41 13 -66 29q-28 18 -51 56t-23 86q0 128 170 245v121l9 92h-4q-40 -105 -137 -179q-96 -73 -222 -73q-138 0 -244 77q-104 76 -104 220zM174 279q0 -88 70 -156t192 -68q158 0 254 134q96 133 96 300v56h-65q-77 0 -104 -1
q-54 -2 -114 -8q-77 -8 -123 -25t-100 -45q-51 -26 -79 -76q-27 -48 -27 -111z" />
    <glyph glyph-name="Cacute" unicode="&#x106;" horiz-adv-x="1472" 
d="M123 727q0 313 201 522t510 209q320 0 512 -180l-54 -66q-83 75 -209 119q-122 43 -247 43q-273 0 -447 -183t-174 -464q0 -285 175 -476q176 -192 452 -192q287 0 485 195l55 -61q-226 -218 -540 -218q-317 0 -518 218q-201 217 -201 534zM776 1536l137 227h115
l-162 -227h-90z" />
    <glyph glyph-name="cacute" unicode="&#x107;" horiz-adv-x="1105" 
d="M106 510q0 238 155 388q156 151 374 151q104 0 202 -37t164 -109l-53 -69q-55 59 -140 95t-173 36q-183 0 -311 -126q-127 -126 -127 -329q0 -202 127 -326q128 -125 311 -125q97 0 188 39q92 39 154 109l45 -72q-66 -74 -169 -117q-102 -43 -218 -43q-222 0 -376 149
q-153 148 -153 386zM551 1206l137 228h115l-162 -228h-90z" />
    <glyph glyph-name="Ccircumflex" unicode="&#x108;" horiz-adv-x="1472" 
d="M123 727q0 313 201 522t510 209q320 0 512 -180l-54 -66q-83 75 -209 119q-122 43 -247 43q-273 0 -447 -183t-174 -464q0 -285 175 -476q176 -192 452 -192q287 0 485 195l55 -61q-226 -218 -540 -218q-317 0 -518 218q-201 217 -201 534zM606 1536l164 227h107
l163 -227h-100l-115 164h-4l-114 -164h-101z" />
    <glyph glyph-name="ccircumflex" unicode="&#x109;" horiz-adv-x="1105" 
d="M106 510q0 238 155 388q156 151 374 151q104 0 202 -37t164 -109l-53 -69q-55 59 -140 95t-173 36q-183 0 -311 -126q-127 -126 -127 -329q0 -202 127 -326q128 -125 311 -125q97 0 188 39q92 39 154 109l45 -72q-66 -74 -169 -117q-102 -43 -218 -43q-222 0 -376 149
q-153 148 -153 386zM381 1206l164 228h106l164 -228h-100l-115 164h-4l-115 -164h-100z" />
    <glyph glyph-name="Cdotaccent" unicode="&#x10a;" horiz-adv-x="1472" 
d="M123 727q0 313 201 522t510 209q320 0 512 -180l-54 -66q-83 75 -209 119q-122 43 -247 43q-273 0 -447 -183t-174 -464q0 -285 175 -476q176 -192 452 -192q287 0 485 195l55 -61q-226 -218 -540 -218q-317 0 -518 218q-201 217 -201 534zM776 1614v149h94v-149h-94z
" />
    <glyph glyph-name="cdotaccent" unicode="&#x10b;" horiz-adv-x="1105" 
d="M106 510q0 238 155 388q156 151 374 151q104 0 202 -37t164 -109l-53 -69q-55 59 -140 95t-173 36q-183 0 -311 -126q-127 -126 -127 -329q0 -202 127 -326q128 -125 311 -125q97 0 188 39q92 39 154 109l45 -72q-66 -74 -169 -117q-102 -43 -218 -43q-222 0 -376 149
q-153 148 -153 386zM551 1284v150h94v-150h-94z" />
    <glyph glyph-name="Ccaron" unicode="&#x10c;" horiz-adv-x="1472" 
d="M123 727q0 313 201 522t510 209q320 0 512 -180l-54 -66q-83 75 -209 119q-122 43 -247 43q-273 0 -447 -183t-174 -464q0 -285 175 -476q176 -192 452 -192q287 0 485 195l55 -61q-226 -218 -540 -218q-317 0 -518 218q-201 217 -201 534zM770 1536l-164 227h101
l114 -164h4l115 164h100l-163 -227h-107z" />
    <glyph glyph-name="ccaron" unicode="&#x10d;" horiz-adv-x="1105" 
d="M106 510q0 238 155 388q156 151 374 151q104 0 202 -37t164 -109l-53 -69q-55 59 -140 95t-173 36q-183 0 -311 -126q-127 -126 -127 -329q0 -202 127 -326q128 -125 311 -125q97 0 188 39q92 39 154 109l45 -72q-66 -74 -169 -117q-102 -43 -218 -43q-222 0 -376 149
q-153 148 -153 386zM545 1206l-164 228h100l115 -164h4l115 164h100l-164 -228h-106z" />
    <glyph glyph-name="Dcaron" unicode="&#x10e;" horiz-adv-x="1511" 
d="M219 0v1434h451q323 0 519 -191q195 -191 195 -526q0 -340 -194 -528q-195 -189 -520 -189h-451zM307 82h348q292 0 464 166q173 167 173 469q0 301 -173 468t-464 167h-348v-1270zM645 1536l-164 227h101l114 -164h4l115 164h100l-163 -227h-107z" />
    <glyph glyph-name="dcaron" unicode="&#x10f;" horiz-adv-x="1183" 
d="M111 512q0 241 128 389t330 148q115 0 211 -64q94 -63 144 -168h4q-8 40 -8 84v533h86v-1434h-86v129l8 78h-4q-44 -98 -141 -166q-95 -66 -230 -66q-202 0 -323 148q-119 146 -119 389zM201 512q0 -204 99 -329q99 -124 257 -124q155 0 260 114t105 341q0 182 -94 317
q-93 134 -263 134q-155 0 -260 -122q-104 -120 -104 -331zM1143 1434h98q12 -53 12 -97q0 -76 -45 -178h-80q37 95 37 160q0 56 -22 115z" />
    <glyph glyph-name="Dcroat" unicode="&#x110;" horiz-adv-x="1523" 
d="M231 0v682h-122v82h122v670h451q323 0 519 -191t196 -526q0 -339 -195 -528t-520 -189h-451zM319 82h349q292 0 464 166q173 167 173 469q0 301 -173 468t-464 167h-349v-588h375v-82h-375v-600z" />
    <glyph glyph-name="dcroat" unicode="&#x111;" horiz-adv-x="1183" 
d="M111 512q0 241 128 389t330 148q115 0 209 -60q96 -61 142 -162h4q-4 33 -4 84v254h-273v82h273v187h86v-187h170v-82h-170v-1165h-86v119l4 78h-4q-39 -92 -136 -157t-231 -65q-202 0 -323 148q-119 146 -119 389zM201 512q0 -204 99 -329q99 -124 257 -124
q155 0 260 114t105 341q0 184 -94 319q-93 134 -263 134q-155 0 -260 -123q-104 -122 -104 -332z" />
    <glyph glyph-name="Emacron" unicode="&#x112;" horiz-adv-x="1138" 
d="M219 0v1434h785v-82h-697v-588h572v-82h-572v-600h735v-82h-823zM393 1610v82h490v-82h-490z" />
    <glyph glyph-name="emacron" unicode="&#x113;" horiz-adv-x="1124" 
d="M106 510q0 250 146 394q147 145 352 145q197 0 308 -135q110 -134 110 -332q0 -23 -4 -56h-821q0 -215 126 -341t312 -126q188 0 317 129l47 -71q-70 -65 -166 -103q-99 -39 -198 -39q-222 0 -376 149q-153 148 -153 386zM203 606h729q-7 177 -101 271q-92 92 -229 92
q-148 0 -261 -96q-111 -95 -138 -267zM365 1280v82h489v-82h-489z" />
    <glyph glyph-name="Ebreve" unicode="&#x114;" horiz-adv-x="1138" 
d="M219 0v1434h785v-82h-697v-588h572v-82h-572v-600h735v-82h-823zM637 1530q-84 0 -145 52q-62 53 -62 149v32h82v-28q0 -64 35 -96q34 -31 90 -31q54 0 89 31q36 31 36 98v26h82v-32q0 -96 -62 -149q-61 -52 -145 -52z" />
    <glyph glyph-name="ebreve" unicode="&#x115;" horiz-adv-x="1124" 
d="M106 510q0 250 146 394q147 145 352 145q197 0 308 -135q110 -134 110 -332q0 -23 -4 -56h-821q0 -215 126 -341t312 -126q188 0 317 129l47 -71q-70 -65 -166 -103q-99 -39 -198 -39q-222 0 -376 149q-153 148 -153 386zM203 606h729q-7 177 -101 271q-92 92 -229 92
q-148 0 -261 -96q-111 -95 -138 -267zM608 1200q-84 0 -145 52q-62 53 -62 149v33h82v-29q0 -63 35 -95t90 -32q52 0 89 32q36 32 36 97v27h82v-33q0 -97 -61 -149t-146 -52z" />
    <glyph glyph-name="Edotaccent" unicode="&#x116;" horiz-adv-x="1138" 
d="M219 0v1434h785v-82h-697v-588h572v-82h-572v-600h735v-82h-823zM590 1614v149h94v-149h-94z" />
    <glyph glyph-name="edotaccent" unicode="&#x117;" horiz-adv-x="1124" 
d="M106 510q0 250 146 394q147 145 352 145q197 0 308 -135q110 -134 110 -332q0 -23 -4 -56h-821q0 -215 126 -341t312 -126q188 0 317 129l47 -71q-70 -65 -166 -103q-99 -39 -198 -39q-222 0 -376 149q-153 148 -153 386zM203 606h729q-7 177 -101 271q-92 92 -229 92
q-148 0 -261 -96q-111 -95 -138 -267zM561 1284v150h94v-150h-94z" />
    <glyph glyph-name="Eogonek" unicode="&#x118;" horiz-adv-x="1138" 
d="M219 0v1434h785v-82h-697v-588h572v-82h-572v-600h735v-82q-163 -121 -163 -223q0 -46 34 -74q35 -29 70 -35l35 -6l-19 -80q-2 0 -22 2q-11 1 -51 14q-41 13 -66 29q-28 18 -51 56t-23 86q0 123 152 231h-719z" />
    <glyph glyph-name="eogonek" unicode="&#x119;" horiz-adv-x="1126" 
d="M106 510q0 250 146 394q147 145 352 145q197 0 308 -135q110 -134 110 -332l-4 -56h-821q0 -215 126 -341t312 -126q177 0 317 129l47 -71q-20 -19 -114 -85q-95 -67 -147 -126q-54 -62 -54 -129q0 -45 35 -74t69 -35l35 -6l-18 -80q-3 0 -23 2q-11 1 -51 14
q-39 12 -65 29q-30 19 -52 56t-22 86q0 108 115 215q-49 -9 -72 -9q-222 0 -376 149q-153 148 -153 386zM203 606h729q-7 177 -101 271q-92 92 -229 92q-148 0 -261 -96q-111 -95 -138 -267z" />
    <glyph glyph-name="Ecaron" unicode="&#x11a;" horiz-adv-x="1138" 
d="M219 0v1434h785v-82h-697v-588h572v-82h-572v-600h735v-82h-823zM584 1536l-164 227h100l115 -164h4l115 164h100l-164 -227h-106z" />
    <glyph glyph-name="ecaron" unicode="&#x11b;" horiz-adv-x="1124" 
d="M106 510q0 250 146 394q147 145 352 145q197 0 308 -135q110 -134 110 -332q0 -23 -4 -56h-821q0 -215 126 -341t312 -126q188 0 317 129l47 -71q-70 -65 -166 -103q-99 -39 -198 -39q-222 0 -376 149q-153 148 -153 386zM203 606h729q-7 177 -101 271q-92 92 -229 92
q-148 0 -261 -96q-111 -95 -138 -267zM555 1206l-164 228h101l114 -164h4l115 164h100l-163 -228h-107z" />
    <glyph glyph-name="Gcircumflex" unicode="&#x11c;" horiz-adv-x="1544" 
d="M123 717q0 311 206 526t509 215q298 0 499 -162l-53 -67q-76 63 -203 105q-121 40 -243 40q-270 0 -446 -188q-177 -189 -177 -469q0 -279 173 -469q172 -189 437 -189q137 0 270 64q129 62 222 172v276h-256v82h344v-653h-88v125l2 61h-4q-83 -93 -213 -152t-277 -59
q-299 0 -500 214q-202 216 -202 528zM598 1536l164 227h106l164 -227h-100l-115 164h-4l-115 -164h-100z" />
    <glyph glyph-name="gcircumflex" unicode="&#x11d;" horiz-adv-x="1169" 
d="M242 -274q134 -72 274 -72q174 0 282 87q107 86 107 265v119l8 84h-4q-102 -209 -344 -209q-200 0 -327 145t-127 383q0 240 119 380q120 141 321 141q116 0 216 -51q96 -49 140 -150h4q-6 15 -6 39v137h86v-1018q0 -221 -134 -329q-132 -107 -335 -107q-164 0 -321 80z
M201 528q0 -204 102 -324t268 -120q150 0 243 105t93 339q0 437 -356 437q-166 0 -258 -115t-92 -322zM354 1206l164 228h107l163 -228h-100l-115 164h-4l-114 -164h-101z" />
    <glyph glyph-name="Gbreve" unicode="&#x11e;" horiz-adv-x="1544" 
d="M123 717q0 311 206 526t509 215q298 0 499 -162l-53 -67q-76 63 -203 105q-121 40 -243 40q-270 0 -446 -188q-177 -189 -177 -469q0 -279 173 -469q172 -189 437 -189q137 0 270 64q129 62 222 172v276h-256v82h344v-653h-88v125l2 61h-4q-83 -93 -213 -152t-277 -59
q-299 0 -500 214q-202 216 -202 528zM815 1530q-84 0 -145 52q-62 53 -62 149v32h82v-28q0 -64 35 -96q34 -31 90 -31q54 0 89 31q36 31 36 98v26h82v-32q0 -97 -61 -149t-146 -52z" />
    <glyph glyph-name="gbreve" unicode="&#x11f;" horiz-adv-x="1169" 
d="M242 -274q134 -72 274 -72q174 0 282 87q107 86 107 265v119l8 84h-4q-102 -209 -344 -209q-200 0 -327 145t-127 383q0 240 119 380q120 141 321 141q116 0 216 -51q96 -49 140 -150h4q-6 15 -6 39v137h86v-1018q0 -221 -134 -329q-132 -107 -335 -107q-164 0 -321 80z
M201 528q0 -204 102 -324t268 -120q150 0 243 105t93 339q0 437 -356 437q-166 0 -258 -115t-92 -322zM571 1200q-84 0 -145 52t-61 149v33h81v-29q0 -63 35 -95t90 -32q52 0 89 32q36 32 36 97v27h82v-33q0 -97 -61 -149t-146 -52z" />
    <glyph glyph-name="Gdotaccent" unicode="&#x120;" horiz-adv-x="1544" 
d="M123 717q0 311 206 526t509 215q298 0 499 -162l-53 -67q-76 63 -203 105q-121 40 -243 40q-270 0 -446 -188q-177 -189 -177 -469q0 -279 173 -469q172 -189 437 -189q137 0 270 64q129 62 222 172v276h-256v82h344v-653h-88v125l2 61h-4q-83 -93 -213 -152t-277 -59
q-299 0 -500 214q-202 216 -202 528zM768 1614v149h94v-149h-94z" />
    <glyph glyph-name="gdotaccent" unicode="&#x121;" horiz-adv-x="1169" 
d="M242 -274q134 -72 274 -72q174 0 282 87q107 86 107 265v119l8 84h-4q-102 -209 -344 -209q-200 0 -327 145t-127 383q0 240 119 380q120 141 321 141q116 0 216 -51q96 -49 140 -150h4q-6 15 -6 39v137h86v-1018q0 -221 -134 -329q-132 -107 -335 -107q-164 0 -321 80z
M201 528q0 -204 102 -324t268 -120q150 0 243 105t93 339q0 437 -356 437q-166 0 -258 -115t-92 -322zM524 1284v150h94v-150h-94z" />
    <glyph glyph-name="Gcommaaccent" unicode="&#x122;" horiz-adv-x="1544" 
d="M123 717q0 311 206 526t509 215q298 0 499 -162l-53 -67q-76 63 -203 105q-121 40 -243 40q-270 0 -446 -188q-177 -189 -177 -469q0 -279 173 -469q172 -189 437 -189q137 0 270 64q129 62 222 172v276h-256v82h344v-653h-88v125l2 61h-4q-83 -93 -213 -152t-277 -59
q-299 0 -500 214q-202 216 -202 528zM776 -135h98q13 -57 13 -96q0 -77 -45 -179h-80q37 95 37 160q0 54 -23 115z" />
    <glyph glyph-name="gcommaaccent" unicode="&#x123;" horiz-adv-x="1169" 
d="M242 -274q134 -72 274 -72q174 0 282 87q107 86 107 265v119l8 84h-4q-102 -209 -344 -209q-200 0 -327 145t-127 383q0 240 119 380q120 141 321 141q116 0 216 -51q96 -49 140 -150h4q-6 15 -6 39v137h86v-1018q0 -221 -134 -329q-132 -107 -335 -107q-164 0 -321 80z
M201 528q0 -204 102 -324t268 -120q150 0 243 105t93 339q0 437 -356 437q-166 0 -258 -115t-92 -322zM625 1159h-99q-12 51 -12 96q0 77 45 179h80q-37 -95 -37 -160q0 -54 23 -115z" />
    <glyph glyph-name="Hcircumflex" unicode="&#x124;" horiz-adv-x="1523" 
d="M219 0v1434h88v-674h910v674h88v-1434h-88v678h-910v-678h-88zM545 1536l164 227h106l164 -227h-100l-115 164h-4l-115 -164h-100z" />
    <glyph glyph-name="hcircumflex" unicode="&#x125;" horiz-adv-x="1200" 
d="M178 0v1434h86v-590l-8 -84h4q34 97 150 193t284 96q188 0 263 -102t75 -298v-649h-86v618q0 67 -4 106q-5 51 -18 92q-16 51 -41 79q-28 31 -75 50q-49 20 -114 20q-178 0 -304 -131q-126 -130 -126 -330v-504h-86zM6 1536l164 227h106l164 -227h-100l-115 164h-4
l-114 -164h-101z" />
    <glyph glyph-name="Hbar" unicode="&#x126;" horiz-adv-x="1548" 
d="M231 0v1047h-133v81h133v306h88v-306h910v306h88v-306h133v-81h-133v-1047h-88v678h-910v-678h-88zM319 760h910v287h-910v-287z" />
    <glyph glyph-name="hbar" unicode="&#x127;" horiz-adv-x="1200" 
d="M178 0v1165h-166v82h166v187h86v-187h273v-82h-273v-311l-4 -84h4q34 94 148 187q113 92 282 92q188 0 263 -102t75 -298v-649h-86v618q0 67 -4 106q-5 51 -18 92q-16 51 -41 79q-28 31 -75 50q-49 20 -114 20q-181 0 -306 -134q-124 -133 -124 -321v-510h-86z" />
    <glyph glyph-name="Itilde" unicode="&#x128;" horiz-adv-x="526" 
d="M219 0v1434h88v-1434h-88zM-31 1542q0 221 170 221q49 0 85 -23q41 -26 60 -52q20 -28 52 -53q29 -23 61 -23q82 0 82 145h82q0 -221 -170 -221q-47 0 -85 24q-39 25 -59 52q-19 25 -52 52q-30 24 -62 24q-82 0 -82 -146h-82z" />
    <glyph glyph-name="itilde" unicode="&#x129;" horiz-adv-x="442" 
d="M178 0v1024h86v-1024h-86zM-72 1212q0 222 170 222q48 0 85 -24q41 -26 60 -52q19 -25 52 -52q30 -24 61 -24q82 0 82 145h82q0 -221 -170 -221q-48 0 -85 24q-39 25 -59 52q-19 25 -52 52q-30 24 -62 24q-82 0 -82 -146h-82z" />
    <glyph glyph-name="Imacron" unicode="&#x12a;" horiz-adv-x="526" 
d="M219 0v1434h88v-1434h-88zM20 1610v82h490v-82h-490z" />
    <glyph glyph-name="imacron" unicode="&#x12b;" horiz-adv-x="442" 
d="M178 0v1024h86v-1024h-86zM-23 1280v82h490v-82h-490z" />
    <glyph glyph-name="Ibreve" unicode="&#x12c;" horiz-adv-x="526" 
d="M219 0v1434h88v-1434h-88zM264 1530q-84 0 -145 52q-62 53 -62 149v32h82v-28q0 -64 35 -96q34 -31 90 -31q54 0 89 31q36 31 36 98v26h82v-32q0 -97 -61 -149t-146 -52z" />
    <glyph glyph-name="ibreve" unicode="&#x12d;" horiz-adv-x="442" 
d="M178 0v1024h86v-1024h-86zM223 1200q-84 0 -145 52q-62 53 -62 149v33h82v-29q0 -63 35 -95t90 -32q52 0 89 32q36 32 36 97v27h82v-33q0 -97 -61 -149t-146 -52z" />
    <glyph glyph-name="Iogonek" unicode="&#x12e;" horiz-adv-x="526" 
d="M51 -231q0 73 53 140q52 66 115 107v1418h88v-1434q-164 -122 -164 -223q0 -45 35 -74t70 -35l35 -6l-19 -80q-2 0 -22 2q-12 1 -52 14q-39 12 -65 29q-28 18 -51 56t-23 86z" />
    <glyph glyph-name="iogonek" unicode="&#x12f;" horiz-adv-x="444" 
d="M10 -231q0 128 170 245v1010h86v-1024q-164 -122 -164 -223q0 -45 35 -74t70 -35l35 -6l-19 -80q-2 0 -22 2q-11 1 -51 14q-41 13 -66 29q-28 18 -51 56t-23 86zM172 1284v150h102v-150h-102z" />
    <glyph glyph-name="Idotaccent" unicode="&#x130;" horiz-adv-x="526" 
d="M219 0v1434h88v-1434h-88zM217 1614v149h94v-149h-94z" />
    <glyph glyph-name="dotlessi" unicode="&#x131;" horiz-adv-x="442" 
d="M178 0v1024h86v-1024h-86z" />
    <glyph glyph-name="IJ" unicode="&#x132;" horiz-adv-x="1138" 
d="M530 -10v86q49 0 87 7q42 8 84 31q47 26 75 62q30 39 50 109q20 71 20 161v988h88v-988q0 -456 -404 -456zM219 0v1434h88v-1434h-88z" />
    <glyph glyph-name="ij" unicode="&#x133;" horiz-adv-x="884" 
d="M170 1284v150h102v-150h-102zM178 0v1024h86v-1024h-86zM612 1284v150h103v-150h-103zM621 -43v1067h86v-1065q0 -117 -35 -201q-34 -81 -91 -117q-59 -37 -104 -49q-47 -12 -96 -12q-18 0 -51 4v80q11 -4 45 -4q41 0 75 10q33 10 77 38q42 27 68 92q26 66 26 157z" />
    <glyph glyph-name="Jcircumflex" unicode="&#x134;" horiz-adv-x="1042" 
d="M72 391v45h88v-47q0 -142 74 -235q75 -95 219 -95q126 0 211 79q86 80 86 251v963h-342v82h430v-1043q0 -211 -112 -314q-111 -102 -271 -102q-161 0 -272 102t-111 314zM406 1536l163 227h107l164 -227h-101l-114 164h-4l-115 -164h-100z" />
    <glyph glyph-name="jcircumflex" unicode="&#x135;" horiz-adv-x="442" 
d="M-4 1206l164 228h106l164 -228h-100l-115 164h-4l-115 -164h-100zM178 -43v1067h86v-1065q0 -117 -35 -201q-34 -81 -91 -117q-60 -38 -103 -49q-47 -12 -96 -12q-36 0 -52 4v80q25 -4 45 -4q41 0 75 10q35 10 78 38q42 27 68 92q25 63 25 157z" />
    <glyph glyph-name="Kcommaaccent" unicode="&#x136;" horiz-adv-x="1167" 
d="M219 0v1434h88v-639h266l410 639h107l-441 -676v-4l469 -754h-106l-439 713h-266v-713h-88zM565 -135h99q12 -53 12 -96q0 -77 -45 -179h-80q37 95 37 160q0 54 -23 115z" />
    <glyph glyph-name="kcommaaccent" unicode="&#x137;" horiz-adv-x="968" 
d="M178 0v1434h86v-813h182l332 403h113l-371 -440v-4l406 -580h-109l-371 541h-182v-541h-86zM461 -135h98q12 -53 12 -96q0 -77 -45 -179h-80q37 95 37 160q0 56 -22 115z" />
    <glyph glyph-name="kgreenlandic" unicode="&#x138;" horiz-adv-x="964" 
d="M178 0v1024h86v-436h176l355 436h116l-391 -471v-4l385 -549h-112l-353 512h-176v-512h-86z" />
    <glyph glyph-name="Lacute" unicode="&#x139;" horiz-adv-x="1040" 
d="M219 0v1434h88v-1352h684v-82h-772zM217 1536l137 227h115l-162 -227h-90z" />
    <glyph glyph-name="lacute" unicode="&#x13a;" horiz-adv-x="464" 
d="M178 207v1227h86v-1201q0 -159 121 -159q15 0 31 2v-80q-15 -4 -37 -4q-30 0 -57 7q-31 8 -65 28q-37 22 -57 66q-22 49 -22 114zM178 1536l137 227h115l-162 -227h-90z" />
    <glyph glyph-name="Lcommaaccent" unicode="&#x13b;" horiz-adv-x="1040" 
d="M219 0v1434h88v-1352h684v-82h-772zM569 -135h99q12 -53 12 -96q0 -77 -45 -179h-80q37 95 37 160q0 54 -23 115z" />
    <glyph glyph-name="lcommaaccent" unicode="&#x13c;" horiz-adv-x="464" 
d="M178 207v1227h86v-1201q0 -159 121 -159q15 0 31 2v-80q-15 -4 -37 -4q-30 0 -57 7q-31 8 -65 28q-37 22 -57 66q-22 49 -22 114zM238 -135h98q12 -53 12 -96q0 -77 -45 -179h-80q37 95 37 160q0 56 -22 115z" />
    <glyph glyph-name="Lcaron" unicode="&#x13d;" horiz-adv-x="1040" 
d="M219 0v1434h88v-1352h684v-82h-772zM506 1434h98q12 -53 12 -97q0 -76 -45 -178h-79q36 92 36 160q0 56 -22 115z" />
    <glyph glyph-name="lcaron" unicode="&#x13e;" horiz-adv-x="464" 
d="M178 207v1227h86v-1201q0 -159 121 -159q15 0 31 2v-80q-15 -4 -37 -4q-30 0 -57 7q-31 8 -65 28q-37 22 -57 66q-22 49 -22 114zM403 1434h99q12 -53 12 -97q0 -76 -45 -178h-80q37 95 37 160q0 54 -23 115z" />
    <glyph glyph-name="Ldot" unicode="&#x13f;" horiz-adv-x="1040" 
d="M219 0v1434h88v-1352h684v-82h-772zM580 684v129h125v-129h-125z" />
    <glyph glyph-name="ldot" unicode="&#x140;" horiz-adv-x="477" 
d="M178 207v1227h86v-1201q0 -159 121 -159q15 0 31 2v-80q-15 -4 -37 -4q-30 0 -57 7q-31 8 -65 28q-37 22 -57 66q-22 49 -22 114zM397 684v129h125v-129h-125z" />
    <glyph glyph-name="Lslash" unicode="&#x141;" horiz-adv-x="1052" 
d="M231 0v758l-133 -76v96l133 76v580h88v-529l236 137v-98l-236 -135v-727h685v-82h-773z" />
    <glyph glyph-name="lslash" unicode="&#x142;" horiz-adv-x="514" 
d="M31 682v96l182 105v551h86v-500l188 108v-98l-188 -108v-603q0 -159 121 -159l31 2v-80q-16 -4 -37 -4q-31 0 -58 7q-29 8 -64 28q-38 22 -58 66q-21 47 -21 114v579z" />
    <glyph glyph-name="Nacute" unicode="&#x143;" horiz-adv-x="1536" 
d="M219 0v1434h82l817 -1125l117 -180h4q-10 103 -10 180v1125h88v-1434h-82l-817 1124l-117 181h-4q10 -103 10 -181v-1124h-88zM721 1536l137 227h115l-162 -227h-90z" />
    <glyph glyph-name="nacute" unicode="&#x144;" horiz-adv-x="1200" 
d="M178 0v1024h86v-180l-8 -84h4q34 97 150 193t284 96q188 0 263 -102t75 -298v-649h-86v618q0 67 -4 106q-5 51 -18 92q-16 51 -41 79q-28 31 -75 50q-49 20 -114 20q-178 0 -304 -130q-126 -131 -126 -325v-510h-86zM582 1206l137 228h115l-162 -228h-90z" />
    <glyph glyph-name="Ncommaaccent" unicode="&#x145;" horiz-adv-x="1536" 
d="M219 0v1434h82l817 -1125l117 -180h4q-10 103 -10 180v1125h88v-1434h-82l-817 1124l-117 181h-4q10 -103 10 -181v-1124h-88zM717 -135h98q12 -53 12 -96q0 -77 -45 -179h-80q37 95 37 160q0 56 -22 115z" />
    <glyph glyph-name="ncommaaccent" unicode="&#x146;" horiz-adv-x="1200" 
d="M178 0v1024h86v-180l-8 -84h4q34 97 150 193t284 96q188 0 263 -102t75 -298v-649h-86v618q0 67 -4 106q-5 51 -18 92q-16 51 -41 79q-28 31 -75 50q-49 20 -114 20q-178 0 -304 -130q-126 -131 -126 -325v-510h-86zM555 -135h98q13 -57 13 -96q0 -77 -45 -179h-80
q37 95 37 160q0 54 -23 115z" />
    <glyph glyph-name="Ncaron" unicode="&#x147;" horiz-adv-x="1536" 
d="M219 0v1434h82l817 -1125l117 -180h4q-10 103 -10 180v1125h88v-1434h-82l-817 1124l-117 181h-4q10 -103 10 -181v-1124h-88zM715 1536l-164 227h100l115 -164h4l115 164h100l-164 -227h-106z" />
    <glyph glyph-name="ncaron" unicode="&#x148;" horiz-adv-x="1200" 
d="M178 0v1024h86v-180l-8 -84h4q34 97 150 193t284 96q188 0 263 -102t75 -298v-649h-86v618q0 67 -4 106q-5 51 -18 92q-16 51 -41 79q-28 31 -75 50q-49 20 -114 20q-178 0 -304 -130q-126 -131 -126 -325v-510h-86zM575 1206l-163 228h100l115 -164h4l114 164h101
l-164 -228h-107z" />
    <glyph glyph-name="napostrophe" unicode="&#x149;" horiz-adv-x="1200" 
d="M178 0v1024h86v-180l-8 -84h4q34 97 150 193t284 96q188 0 263 -102t75 -298v-649h-86v618q0 67 -4 106q-5 51 -18 92q-16 51 -41 79q-28 31 -75 50q-49 20 -114 20q-178 0 -304 -130q-126 -131 -126 -325v-510h-86zM63 1434h99q12 -52 12 -97q0 -76 -45 -178h-80
q37 95 37 160q0 54 -23 115z" />
    <glyph glyph-name="Eng" unicode="&#x14a;" horiz-adv-x="1536" 
d="M219 0v1434h82l817 -1125l117 -180h4q-10 103 -10 180v1125h88v-1438q0 -211 -112 -314q-111 -102 -271 -102v86q124 0 209 81q86 81 86 261l-811 1116l-117 181h-4q10 -103 10 -181v-1124h-88z" />
    <glyph glyph-name="eng" unicode="&#x14b;" horiz-adv-x="1200" 
d="M178 0v1024h86v-170l-4 -84h4q34 94 148 187q113 92 282 92q188 0 263 -102t75 -298v-700q0 -117 -35 -201q-34 -82 -91 -118t-103 -48q-47 -12 -96 -12l-52 4v80q16 -4 45 -4q41 0 75 10q35 10 78 38q42 27 68 92q25 63 25 157v671q0 67 -4 106q-5 51 -18 92
q-16 51 -41 79q-28 31 -75 50q-49 20 -114 20q-181 0 -306 -134q-124 -133 -124 -321v-510h-86z" />
    <glyph glyph-name="Omacron" unicode="&#x14c;" horiz-adv-x="1691" 
d="M121 727q0 308 209 520q208 211 516 211t516 -211q209 -212 209 -520q0 -316 -209 -534t-516 -218t-516 218t-209 534zM213 727q0 -284 181 -475q182 -193 452 -193q269 0 451 193t182 475q0 275 -182 462q-181 185 -451 185q-271 0 -452 -185t-181 -462zM602 1610v82
h490v-82h-490z" />
    <glyph glyph-name="omacron" unicode="&#x14d;" horiz-adv-x="1269" 
d="M104 518q0 224 155 377q156 154 376 154t376 -154q154 -153 154 -377q0 -228 -154 -385q-155 -158 -376 -158t-376 158t-155 385zM195 518q0 -194 128 -327q127 -132 312 -132t312 132q128 133 128 327q0 188 -128 318q-127 129 -312 129t-312 -129q-128 -130 -128 -318z
M391 1280v82h490v-82h-490z" />
    <glyph glyph-name="Obreve" unicode="&#x14e;" horiz-adv-x="1691" 
d="M121 727q0 308 209 520q208 211 516 211t516 -211q209 -212 209 -520q0 -316 -209 -534t-516 -218t-516 218t-209 534zM213 727q0 -284 181 -475q182 -193 452 -193q269 0 451 193t182 475q0 275 -182 462q-181 185 -451 185q-271 0 -452 -185t-181 -462zM846 1530
q-85 0 -146 52t-61 149v32h82v-28q0 -64 35 -96q34 -31 90 -31q54 0 89 31q36 31 36 98v26h82v-32q0 -96 -62 -149q-61 -52 -145 -52z" />
    <glyph glyph-name="obreve" unicode="&#x14f;" horiz-adv-x="1269" 
d="M104 518q0 224 155 377q156 154 376 154t376 -154q154 -153 154 -377q0 -228 -154 -385q-155 -158 -376 -158t-376 158t-155 385zM195 518q0 -194 128 -327q127 -132 312 -132t312 132q128 133 128 327q0 188 -128 318q-127 129 -312 129t-312 -129q-128 -130 -128 -318z
M635 1200q-85 0 -146 52t-61 149v33h82v-29q0 -63 35 -95t90 -32q52 0 89 32q36 32 36 97v27h82v-33q0 -96 -62 -149q-61 -52 -145 -52z" />
    <glyph glyph-name="Ohungarumlaut" unicode="&#x150;" horiz-adv-x="1691" 
d="M121 727q0 308 209 520q208 211 516 211t516 -211q209 -212 209 -520q0 -316 -209 -534t-516 -218t-516 218t-209 534zM213 727q0 -284 181 -475q182 -193 452 -193q269 0 451 193t182 475q0 275 -182 462q-181 185 -451 185q-271 0 -452 -185t-181 -462zM887 1536
l137 227h115l-162 -227h-90zM651 1536l127 227h103l-133 -227h-97z" />
    <glyph glyph-name="ohungarumlaut" unicode="&#x151;" horiz-adv-x="1269" 
d="M104 518q0 224 155 377q156 154 376 154t376 -154q154 -153 154 -377q0 -228 -154 -385q-155 -158 -376 -158t-376 158t-155 385zM195 518q0 -194 128 -327q127 -132 312 -132t312 132q128 133 128 327q0 188 -128 318q-127 129 -312 129t-312 -129q-128 -130 -128 -318z
M676 1206l137 228h115l-162 -228h-90zM440 1206l127 228h103l-133 -228h-97z" />
    <glyph glyph-name="OE" unicode="&#x152;" horiz-adv-x="1906" 
d="M123 717q0 313 203 525t518 212q42 0 123 -10t114 -10h691v-82h-697v-588h572v-82h-572v-600h735v-82h-727q-30 0 -114 -10t-125 -10q-317 0 -518 210q-203 212 -203 527zM215 717q0 -282 174 -468t455 -186q28 0 68 5q46 6 55 8l20 4v1274q-65 16 -143 16
q-281 0 -455 -186t-174 -467z" />
    <glyph glyph-name="oe" unicode="&#x153;" horiz-adv-x="2093" 
d="M106 510q0 238 155 388q156 151 374 151q159 0 287 -82q129 -82 192 -224h4q61 147 181 226q122 80 274 80q197 0 308 -135q110 -134 110 -332l-4 -56h-822q6 -221 131 -344q124 -123 308 -123q182 0 317 129l47 -71q-69 -67 -166 -104q-100 -38 -198 -38q-162 0 -292 82
q-131 83 -192 226h-4q-63 -143 -192 -226q-128 -82 -289 -82q-221 0 -375 149t-154 386zM1171 606h730q-7 177 -101 271q-92 92 -229 92q-148 0 -261 -96q-112 -95 -139 -267zM197 510q0 -202 127 -326q128 -125 311 -125q185 0 312 127q128 128 128 334q0 196 -129 321
q-128 124 -311 124q-184 0 -311 -127t-127 -328z" />
    <glyph glyph-name="Racute" unicode="&#x154;" horiz-adv-x="1243" 
d="M219 0v1434h420q173 0 258 -43q92 -45 145 -136q54 -93 54 -208q0 -151 -80 -260q-79 -107 -207 -136v-4q15 -17 33 -51l321 -596h-104l-340 635h-412v-635h-88zM307 717h389q140 0 224 91q84 92 84 239q0 92 -46 167t-122 109q-64 29 -201 29h-328v-635zM561 1536
l137 227h115l-162 -227h-90z" />
    <glyph glyph-name="racute" unicode="&#x155;" horiz-adv-x="696" 
d="M178 0v1024h86v-195l-8 -84h4q40 124 127 206q85 81 201 81q31 0 59 -6v-86q-11 4 -47 4q-112 0 -192 -84q-81 -86 -112 -193q-32 -111 -32 -225v-442h-86zM373 1206l137 228h115l-162 -228h-90z" />
    <glyph glyph-name="Rcommaaccent" unicode="&#x156;" horiz-adv-x="1243" 
d="M219 0v1434h420q173 0 258 -43q92 -45 145 -136q54 -93 54 -208q0 -151 -80 -260q-79 -107 -207 -136v-4q15 -17 33 -51l321 -596h-104l-340 635h-412v-635h-88zM307 717h389q140 0 224 91q84 92 84 239q0 92 -46 167t-122 109q-64 29 -201 29h-328v-635zM598 -135h98
q13 -57 13 -96q0 -77 -45 -179h-80q37 95 37 160q0 54 -23 115z" />
    <glyph glyph-name="rcommaaccent" unicode="&#x157;" horiz-adv-x="696" 
d="M178 0v1024h86v-195l-8 -84h4q40 124 127 206q85 81 201 81q31 0 59 -6v-86q-11 4 -47 4q-112 0 -192 -84q-81 -86 -112 -193q-32 -111 -32 -225v-442h-86zM174 -135h98q13 -57 13 -96q0 -77 -45 -179h-80q37 95 37 160q0 54 -23 115z" />
    <glyph glyph-name="Rcaron" unicode="&#x158;" horiz-adv-x="1243" 
d="M219 0v1434h420q173 0 258 -43q92 -45 145 -136q54 -93 54 -208q0 -151 -80 -260q-79 -107 -207 -136v-4q15 -17 33 -51l321 -596h-104l-340 635h-412v-635h-88zM307 717h389q140 0 224 91q84 92 84 239q0 92 -46 167t-122 109q-64 29 -201 29h-328v-635zM555 1536
l-164 227h101l114 -164h4l115 164h100l-163 -227h-107z" />
    <glyph glyph-name="rcaron" unicode="&#x159;" horiz-adv-x="696" 
d="M178 0v1024h86v-195l-8 -84h4q40 124 127 206q85 81 201 81q31 0 59 -6v-86q-11 4 -47 4q-112 0 -192 -84q-81 -86 -112 -193q-32 -111 -32 -225v-442h-86zM367 1206l-164 228h100l115 -164h4l115 164h100l-164 -228h-106z" />
    <glyph glyph-name="Sacute" unicode="&#x15a;" horiz-adv-x="1073" 
d="M106 154l60 67q160 -160 377 -160q143 0 234 78t91 205q0 112 -75 187q-77 77 -184 123q-40 17 -215 95q-106 47 -183 133q-76 85 -76 208q0 165 124 267q123 101 308 101q224 0 363 -133l-49 -76q-56 56 -145 90q-87 33 -173 33q-139 0 -237 -76q-99 -76 -99 -200
q0 -105 76 -177q80 -76 183 -117q100 -40 215 -93q107 -49 184 -138q76 -88 76 -217q0 -166 -114 -272q-115 -107 -306 -107q-256 0 -435 179zM494 1536l137 227h114l-161 -227h-90z" />
    <glyph glyph-name="sacute" unicode="&#x15b;" horiz-adv-x="880" 
d="M84 123l55 65q123 -129 318 -129q99 0 168 52q67 51 67 141q0 72 -58 121q-60 50 -141 80q-73 27 -165 65q-82 34 -141 98q-58 62 -58 156q0 132 94 204q96 73 234 73q195 0 303 -111l-51 -70q-91 97 -258 97q-97 0 -164 -46q-68 -47 -68 -141q0 -73 59 -123
q58 -49 141 -81q110 -42 165 -65q82 -34 140 -98t58 -159q0 -123 -92 -200t-235 -77q-235 0 -371 148zM403 1206l138 228h114l-161 -228h-91z" />
    <glyph glyph-name="Scircumflex" unicode="&#x15c;" horiz-adv-x="1073" 
d="M106 154l60 67q160 -160 377 -160q143 0 234 78t91 205q0 112 -75 187q-77 77 -184 123q-40 17 -215 95q-106 47 -183 133q-76 85 -76 208q0 165 124 267q123 101 308 101q224 0 363 -133l-49 -76q-56 56 -145 90q-87 33 -173 33q-139 0 -237 -76q-99 -76 -99 -200
q0 -105 76 -177q80 -76 183 -117q100 -40 215 -93q107 -49 184 -138q76 -88 76 -217q0 -166 -114 -272q-115 -107 -306 -107q-256 0 -435 179zM326 1536l163 227h107l164 -227h-101l-114 164h-4l-115 -164h-100z" />
    <glyph glyph-name="scircumflex" unicode="&#x15d;" horiz-adv-x="880" 
d="M84 123l55 65q123 -129 318 -129q99 0 168 52q67 51 67 141q0 72 -58 121q-60 50 -141 80q-73 27 -165 65q-82 34 -141 98q-58 62 -58 156q0 132 94 204q96 73 234 73q195 0 303 -111l-51 -70q-91 97 -258 97q-97 0 -164 -46q-68 -47 -68 -141q0 -73 59 -123
q58 -49 141 -81q110 -42 165 -65q82 -34 140 -98t58 -159q0 -123 -92 -200t-235 -77q-235 0 -371 148zM236 1206l163 228h107l164 -228h-101l-114 164h-4l-115 -164h-100z" />
    <glyph glyph-name="Scedilla" unicode="&#x15e;" horiz-adv-x="1075" 
d="M467 -190l35 167q-236 12 -396 177l60 67q160 -160 377 -160q143 0 234 78t91 205q0 112 -75 187q-77 77 -184 123q-40 17 -215 95q-106 47 -183 133q-76 85 -76 208q0 165 124 267q123 101 308 101q224 0 363 -133l-49 -76q-56 56 -145 90q-87 33 -173 33
q-139 0 -237 -76q-99 -76 -99 -200q0 -105 76 -177q80 -76 183 -117q100 -40 215 -93q107 -49 184 -138q76 -88 76 -217q0 -157 -104 -263q-105 -107 -282 -114l-18 -100q64 -11 102 -47q39 -38 39 -92q0 -80 -53 -118t-133 -38q-48 0 -90 8v78q33 -10 84 -10q110 0 110 76
q0 78 -124 78z" />
    <glyph glyph-name="scedilla" unicode="&#x15f;" horiz-adv-x="884" 
d="M375 -190l35 167q-210 18 -324 146l55 65q123 -129 318 -129q99 0 168 52q67 51 67 141q0 72 -58 121q-60 51 -140 80q-73 27 -165 65q-83 35 -142 98q-58 62 -58 156q0 132 94 204q96 73 234 73q195 0 303 -111l-51 -70q-91 97 -258 97q-97 0 -164 -46q-68 -47 -68 -141
q0 -73 59 -123q58 -49 141 -81q110 -42 165 -65q82 -34 140 -98t58 -159q0 -115 -85 -191q-85 -77 -216 -84l-18 -100q64 -11 102 -47q39 -38 39 -92q0 -80 -53 -118t-133 -38q-48 0 -90 8v78q33 -10 84 -10q110 0 110 76q0 78 -125 78z" />
    <glyph glyph-name="Scaron" unicode="&#x160;" horiz-adv-x="1073" 
d="M106 154l60 67q160 -160 377 -160q143 0 234 78t91 205q0 112 -75 187q-77 77 -184 123q-40 17 -215 95q-106 47 -183 133q-76 85 -76 208q0 165 124 267q123 101 308 101q224 0 363 -133l-49 -76q-56 56 -145 90q-87 33 -173 33q-139 0 -237 -76q-99 -76 -99 -200
q0 -105 76 -177q80 -76 183 -117q100 -40 215 -93q107 -49 184 -138q76 -88 76 -217q0 -166 -114 -272q-115 -107 -306 -107q-256 0 -435 179zM489 1536l-163 227h100l115 -164h4l114 164h101l-164 -227h-107z" />
    <glyph glyph-name="scaron" unicode="&#x161;" horiz-adv-x="880" 
d="M84 123l55 65q123 -129 318 -129q99 0 168 52q67 51 67 141q0 72 -58 121q-60 50 -141 80q-73 27 -165 65q-82 34 -141 98q-58 62 -58 156q0 132 94 204q96 73 234 73q195 0 303 -111l-51 -70q-91 97 -258 97q-97 0 -164 -46q-68 -47 -68 -141q0 -73 59 -123
q58 -49 141 -81q110 -42 165 -65q82 -34 140 -98t58 -159q0 -123 -92 -200t-235 -77q-235 0 -371 148zM399 1206l-163 228h100l115 -164h4l114 164h101l-164 -228h-107z" />
    <glyph glyph-name="Tcommaaccent" unicode="&#x162;" horiz-adv-x="1230" 
d="M571 0v1352h-534v82h1157v-82h-535v-1352h-10l-22 -123q64 -11 102 -47q39 -37 39 -92q0 -80 -53 -118t-133 -38q-48 0 -90 8v78q33 -10 83 -10q111 0 111 76q0 78 -125 78l-24 -2l41 190h-7z" />
    <glyph glyph-name="tcommaaccent" unicode="&#x163;" horiz-adv-x="622" 
d="M311 -190l49 225q-151 88 -151 336v569h-135v78h135v291h86v-291h268v-78h-268v-563q0 -93 26 -160q25 -65 66 -95q39 -29 77 -40q34 -10 75 -10q32 0 47 4v-80q-15 -4 -51 -4q-58 0 -111 14l-23 -129q65 -11 103 -47q39 -38 39 -92q0 -79 -54 -118q-53 -38 -133 -38
q-48 0 -90 8v78q33 -10 84 -10q111 0 111 76q0 78 -125 78z" />
    <glyph glyph-name="Tcaron" unicode="&#x164;" horiz-adv-x="1230" 
d="M571 0v1352h-534v82h1157v-82h-535v-1352h-88zM561 1536l-164 227h101l114 -164h4l115 164h100l-163 -227h-107z" />
    <glyph glyph-name="tcaron" unicode="&#x165;" horiz-adv-x="622" 
d="M209 371v569h-135v78h135v291h86v-291h268v-78h-268v-563q0 -93 26 -160q25 -65 66 -95q39 -29 77 -40q34 -10 75 -10q32 0 47 4v-80q-15 -4 -51 -4q-39 0 -76 6t-84 30q-50 26 -82 62q-36 41 -60 112q-24 72 -24 169zM444 1434h99q12 -53 12 -97q0 -76 -45 -178h-80
q37 95 37 160q0 54 -23 115z" />
    <glyph glyph-name="Tbar" unicode="&#x166;" horiz-adv-x="1251" 
d="M582 0v690h-340v82h340v580h-535v82h1157v-82h-534v-580h348v-82h-348v-690h-88z" />
    <glyph glyph-name="tbar" unicode="&#x167;" horiz-adv-x="632" 
d="M78 604v82h135v254h-135v78h135v291h86v-291h268v-78h-268v-254h268v-82h-268v-227q0 -93 26 -160q25 -65 66 -95q39 -29 77 -40q34 -10 75 -10l47 4v-80q-19 -4 -51 -4q-39 0 -76 6t-84 30q-50 26 -82 62q-35 39 -59 112q-25 75 -25 169v233h-135z" />
    <glyph glyph-name="Utilde" unicode="&#x168;" horiz-adv-x="1476" 
d="M203 492v942h88v-938q0 -201 121 -319t325 -118q206 0 327 118q122 119 122 323v934h88v-942q0 -235 -149 -376q-148 -141 -386 -141t-388 142q-148 141 -148 375zM442 1542q0 221 170 221q49 0 85 -23q41 -26 60 -52q20 -28 52 -53q29 -23 61 -23q82 0 82 145h82
q0 -221 -170 -221q-48 0 -85 24q-39 25 -59 52q-19 25 -52 52q-30 24 -62 24q-82 0 -82 -146h-82z" />
    <glyph glyph-name="utilde" unicode="&#x169;" horiz-adv-x="1187" 
d="M166 375v649h86v-618q0 -67 4 -106q5 -51 18 -92q16 -51 41 -79q28 -31 75 -50q49 -20 114 -20q183 0 302 139q118 137 118 326v500h86v-1024h-86v180l8 84h-4q-34 -97 -148 -193t-276 -96q-182 0 -260 99t-78 301zM293 1212q0 222 170 222q48 0 85 -24q39 -25 59 -52
q19 -25 52 -52q30 -24 62 -24q82 0 82 145h82q0 -221 -170 -221q-47 0 -85 24q-41 26 -60 52q-19 25 -52 52q-30 24 -61 24q-82 0 -82 -146h-82z" />
    <glyph glyph-name="Umacron" unicode="&#x16a;" horiz-adv-x="1476" 
d="M203 492v942h88v-938q0 -201 121 -319t325 -118q206 0 327 118q122 119 122 323v934h88v-942q0 -235 -149 -376q-148 -141 -386 -141t-388 142q-148 141 -148 375zM494 1610v82h489v-82h-489z" />
    <glyph glyph-name="umacron" unicode="&#x16b;" horiz-adv-x="1187" 
d="M166 375v649h86v-618q0 -67 4 -106q5 -51 18 -92q16 -51 41 -79q28 -31 75 -50q49 -20 114 -20q183 0 302 139q118 137 118 326v500h86v-1024h-86v180l8 84h-4q-34 -97 -148 -193t-276 -96q-182 0 -260 99t-78 301zM344 1280v82h490v-82h-490z" />
    <glyph glyph-name="Ubreve" unicode="&#x16c;" horiz-adv-x="1476" 
d="M203 492v942h88v-938q0 -201 121 -319t325 -118q206 0 327 118q122 119 122 323v934h88v-942q0 -235 -149 -376q-148 -141 -386 -141t-388 142q-148 141 -148 375zM737 1530q-84 0 -145 52q-62 53 -62 149v32h82v-28q0 -64 35 -96q34 -31 90 -31q54 0 89 31q36 31 36 98
v26h82v-32q0 -97 -61 -149t-146 -52z" />
    <glyph glyph-name="ubreve" unicode="&#x16d;" horiz-adv-x="1187" 
d="M166 375v649h86v-618q0 -67 4 -106q5 -51 18 -92q16 -51 41 -79q28 -31 75 -50q49 -20 114 -20q183 0 302 139q118 137 118 326v500h86v-1024h-86v180l8 84h-4q-34 -97 -148 -193t-276 -96q-182 0 -260 99t-78 301zM588 1200q-85 0 -146 52t-61 149v33h82v-29
q0 -63 35 -95t90 -32q52 0 89 32q36 32 36 97v27h82v-33q0 -96 -62 -149q-61 -52 -145 -52z" />
    <glyph glyph-name="Uring" unicode="&#x16e;" horiz-adv-x="1476" 
d="M203 492v942h88v-938q0 -201 121 -319t325 -118q206 0 327 118q122 119 122 323v934h88v-942q0 -235 -149 -376q-148 -141 -386 -141t-388 142q-148 141 -148 375zM737 1516q-58 0 -97 38q-40 39 -40 99q0 59 40 98t97 39t98 -39q39 -38 39 -98q0 -61 -39 -99t-98 -38z
M737 1587q28 0 47 19t19 47q0 30 -19 49q-18 18 -47 18t-47 -18t-18 -49q0 -29 18 -47q19 -19 47 -19z" />
    <glyph glyph-name="uring" unicode="&#x16f;" horiz-adv-x="1187" 
d="M166 375v649h86v-618q0 -67 4 -106q5 -51 18 -92q16 -51 41 -79q28 -31 75 -50q49 -20 114 -20q183 0 302 139q118 137 118 326v500h86v-1024h-86v180l8 84h-4q-34 -97 -148 -193t-276 -96q-182 0 -260 99t-78 301zM588 1186q-60 0 -99 40q-38 39 -38 97t38 97
q39 40 99 40q59 0 98 -40t39 -97t-39 -97t-98 -40zM588 1257q28 0 47 19q18 18 18 47q0 31 -18 49q-19 19 -47 19t-47 -19t-19 -49q0 -28 19 -47t47 -19z" />
    <glyph glyph-name="Uhungarumlaut" unicode="&#x170;" horiz-adv-x="1476" 
d="M203 492v942h88v-938q0 -201 121 -319t325 -118q206 0 327 118q122 119 122 323v934h88v-942q0 -235 -149 -376q-148 -141 -386 -141t-388 142q-148 141 -148 375zM778 1536l137 227h115l-162 -227h-90zM543 1536l127 227h102l-133 -227h-96z" />
    <glyph glyph-name="uhungarumlaut" unicode="&#x171;" horiz-adv-x="1187" 
d="M166 375v649h86v-618q0 -67 4 -106q5 -51 18 -92q16 -51 41 -79q28 -31 75 -50q49 -20 114 -20q183 0 302 139q118 137 118 326v500h86v-1024h-86v180l8 84h-4q-34 -97 -148 -193t-276 -96q-182 0 -260 99t-78 301zM629 1206l137 228h115l-162 -228h-90zM393 1206
l127 228h103l-134 -228h-96z" />
    <glyph glyph-name="Uogonek" unicode="&#x172;" horiz-adv-x="1476" 
d="M203 492v942h88v-938q0 -201 121 -319t325 -118q206 0 327 118q122 119 122 323v934h88v-942q0 -173 -73 -279q-71 -103 -195 -182q-65 -40 -115 -76q-38 -28 -76 -78q-37 -49 -37 -100q0 -45 35 -74t70 -35l35 -6l-19 -80q-2 0 -22 2q-12 1 -52 14q-39 12 -65 29
q-28 18 -51 56t-23 86q0 102 109 208q-50 -2 -56 -2q-238 0 -388 142q-148 141 -148 375z" />
    <glyph glyph-name="uogonek" unicode="&#x173;" horiz-adv-x="1187" 
d="M166 375v649h86v-618q0 -67 4 -106q5 -51 18 -92q16 -51 41 -79q28 -31 75 -50q49 -20 114 -20q183 0 302 139q118 137 118 326v500h86v-1024q-164 -122 -164 -223q0 -45 35 -74t69 -35l35 -6l-18 -80q-3 0 -23 2q-11 1 -51 14q-41 13 -66 29q-28 18 -51 56
q-22 37 -22 86q0 128 170 245v166l8 84h-4q-34 -97 -148 -193t-276 -96q-182 0 -260 99t-78 301z" />
    <glyph glyph-name="Wcircumflex" unicode="&#x174;" horiz-adv-x="1871" 
d="M461 0l-377 1434h92l303 -1168l35 -153h4q17 77 39 153l328 1168h98l328 -1168l39 -153h4q15 76 35 153l313 1168h92l-387 -1434h-111l-303 1081l-55 228h-8q-28 -134 -56 -228l-303 -1081h-110zM739 1536l164 227h107l164 -227h-101l-115 164h-4l-114 -164h-101z" />
    <glyph glyph-name="wcircumflex" unicode="&#x175;" horiz-adv-x="1685" 
d="M430 0l-360 1024h92l278 -803l35 -110h4q12 41 35 110l281 799h96l280 -799l35 -110h4q13 49 35 110l279 803h92l-361 -1024h-92l-284 795l-35 110h-4q-14 -52 -35 -110l-283 -795h-92zM625 1206l163 228h107l164 -228h-101l-114 164h-4l-115 -164h-100z" />
    <glyph glyph-name="Ycircumflex" unicode="&#x176;" horiz-adv-x="1161" 
d="M537 0v623l-488 811h101l339 -566l89 -161h4q48 97 88 161l340 566h100l-485 -811v-623h-88zM362 1536l164 227h107l164 -227h-101l-114 164h-4l-115 -164h-101z" />
    <glyph glyph-name="ycircumflex" unicode="&#x177;" horiz-adv-x="1058" 
d="M84 -299q56 -49 127 -49q123 0 201 184l73 170l-424 1018h93l338 -817l36 -96h4q18 56 35 96l338 817h92l-526 -1264q-79 -190 -260 -190q-46 0 -85 14q-44 16 -60 29l-21 14zM315 1206l164 228h107l164 -228h-101l-114 164h-5l-114 -164h-101z" />
    <glyph glyph-name="Ydieresis" unicode="&#x178;" horiz-adv-x="1161" 
d="M537 0v623l-488 811h101l339 -566l89 -161h4q48 97 88 161l340 566h100l-485 -811v-623h-88zM662 1614v149h94v-149h-94zM381 1614v149h94v-149h-94z" />
    <glyph glyph-name="Zacute" unicode="&#x179;" horiz-adv-x="1157" 
d="M72 0v70l788 1151l98 131v4q-29 -4 -104 -4h-739v82h950v-70l-789 -1151l-98 -131v-4q29 4 105 4h788v-82h-999zM555 1536l137 227h115l-162 -227h-90z" />
    <glyph glyph-name="zacute" unicode="&#x17a;" horiz-adv-x="997" 
d="M78 0v70l620 780l80 94v4q-33 -4 -104 -4h-570v80h791v-70l-623 -780l-82 -94v-4q35 4 107 4h621v-80h-840zM449 1206l137 228h114l-161 -228h-90z" />
    <glyph glyph-name="Zdotaccent" unicode="&#x17b;" horiz-adv-x="1157" 
d="M72 0v70l788 1151l98 131v4q-29 -4 -104 -4h-739v82h950v-70l-789 -1151l-98 -131v-4q29 4 105 4h788v-82h-999zM555 1614v149h94v-149h-94z" />
    <glyph glyph-name="zdotaccent" unicode="&#x17c;" horiz-adv-x="997" 
d="M78 0v70l620 780l80 94v4q-33 -4 -104 -4h-570v80h791v-70l-623 -780l-82 -94v-4q35 4 107 4h621v-80h-840zM451 1284v150h94v-150h-94z" />
    <glyph glyph-name="Zcaron" unicode="&#x17d;" horiz-adv-x="1157" 
d="M72 0v70l788 1151l98 131v4q-29 -4 -104 -4h-739v82h950v-70l-789 -1151l-98 -131v-4q29 4 105 4h788v-82h-999zM549 1536l-164 227h100l115 -164h4l115 164h100l-164 -227h-106z" />
    <glyph glyph-name="zcaron" unicode="&#x17e;" horiz-adv-x="997" 
d="M78 0v70l620 780l80 94v4q-33 -4 -104 -4h-570v80h791v-70l-623 -780l-82 -94v-4q35 4 107 4h621v-80h-840zM444 1206l-163 228h100l115 -164h4l114 164h101l-164 -228h-107z" />
    <glyph glyph-name="longs" unicode="&#x17f;" horiz-adv-x="514" 
d="M209 0v940h-129v78h129v47q0 117 35 201q34 82 91 116q62 37 102 49q45 13 95 13l54 -4v-80q-16 4 -47 4q-41 0 -74 -10q-34 -10 -77 -38q-41 -26 -67 -92t-26 -157v-1067h-86z" />
    <glyph glyph-name="florin" unicode="&#x192;" horiz-adv-x="1146" 
d="M74 -117q53 -10 127 -10q25 0 57 5q24 4 66 24q35 17 64 49q28 31 50 87q23 59 29 132l53 604h-196v78h202l21 227q7 93 39 169q31 74 69 112q37 37 89 62q49 24 89 30q37 6 74 6q44 0 80 -4q54 -6 64 -8l22 -2v-80q-80 14 -168 14q-41 0 -75 -10t-79 -38t-75 -92
q-32 -68 -39 -157l-23 -229h273v-78h-279l-53 -602q-11 -120 -52 -201q-41 -80 -102 -117q-63 -38 -106 -49q-47 -12 -96 -12l-125 10v80z" />
    <glyph glyph-name="Scommaaccent" unicode="&#x218;" horiz-adv-x="1073" 
d="M106 154l60 67q160 -160 377 -160q143 0 234 78t91 205q0 112 -75 187q-77 77 -184 123q-40 17 -215 95q-106 47 -183 133q-76 85 -76 208q0 165 124 267q123 101 308 101q224 0 363 -133l-49 -76q-56 56 -145 90q-87 33 -173 33q-139 0 -237 -76q-99 -76 -99 -200
q0 -105 76 -177q80 -76 183 -117q100 -40 215 -93q107 -49 184 -138q76 -88 76 -217q0 -166 -114 -272q-115 -107 -306 -107q-256 0 -435 179zM487 -135h99q12 -53 12 -96q0 -77 -45 -179h-80q37 95 37 160q0 54 -23 115z" />
    <glyph glyph-name="scommaaccent" unicode="&#x219;" horiz-adv-x="880" 
d="M84 123l55 65q123 -129 318 -129q99 0 168 52q67 51 67 141q0 72 -58 121q-60 50 -141 80q-73 27 -165 65q-82 34 -141 98q-58 62 -58 156q0 132 94 204q96 73 234 73q195 0 303 -111l-51 -70q-91 97 -258 97q-97 0 -164 -46q-68 -47 -68 -141q0 -73 59 -123
q58 -49 141 -81q110 -42 165 -65q82 -34 140 -98t58 -159q0 -123 -92 -200t-235 -77q-235 0 -371 148zM399 -135h99q12 -53 12 -96q0 -77 -45 -179h-80q37 95 37 160q0 54 -23 115z" />
    <glyph glyph-name="uni021A" unicode="&#x21a;" horiz-adv-x="1230" 
d="M571 0v1352h-534v82h1157v-82h-535v-1352h-88zM567 -135h99q12 -53 12 -96q0 -77 -45 -179h-80q37 95 37 160q0 54 -23 115z" />
    <glyph glyph-name="uni021B" unicode="&#x21b;" horiz-adv-x="622" 
d="M209 371v569h-135v78h135v291h86v-291h268v-78h-268v-563q0 -93 26 -160q25 -65 66 -95q39 -29 77 -40q34 -10 75 -10q32 0 47 4v-80q-15 -4 -51 -4q-39 0 -76 6t-84 30q-50 26 -82 62q-36 41 -60 112q-24 72 -24 169zM352 -135h99q12 -53 12 -96q0 -77 -45 -179h-80
q37 95 37 160q0 54 -23 115z" />
    <glyph glyph-name="circumflex" unicode="&#x2c6;" horiz-adv-x="1040" 
d="M303 1536l164 227h106l164 -227h-100l-115 164h-4l-115 -164h-100z" />
    <glyph glyph-name="caron" unicode="&#x2c7;" horiz-adv-x="1040" 
d="M467 1536l-164 227h100l115 -164h4l115 164h100l-164 -227h-106z" />
    <glyph glyph-name="breve" unicode="&#x2d8;" horiz-adv-x="1044" 
d="M522 1530q-84 0 -145 52q-62 53 -62 149v32h82v-28q0 -64 35 -96q34 -31 90 -31q54 0 89 31q36 31 36 98v26h82v-32q0 -97 -61 -149t-146 -52z" />
    <glyph glyph-name="dotaccent" unicode="&#x2d9;" horiz-adv-x="1044" 
d="M475 1614v149h94v-149h-94z" />
    <glyph glyph-name="ring" unicode="&#x2da;" horiz-adv-x="1044" 
d="M522 1516q-60 0 -98 38q-39 39 -39 99q0 59 39 98t98 39q60 0 99 -39q38 -38 38 -98q0 -61 -38 -99t-99 -38zM522 1587q28 0 47 19t19 47q0 30 -19 49q-18 18 -47 18t-47 -18t-18 -49q0 -29 18 -47q19 -19 47 -19z" />
    <glyph glyph-name="ogonek" unicode="&#x2db;" horiz-adv-x="1042" 
d="M383 -231q0 47 20 90t50 76q34 38 57 57q33 28 49 37l21 12l79 -27q-35 -25 -51 -37q-34 -25 -82 -85q-51 -63 -51 -115q0 -45 35 -74t70 -35l34 -6l-18 -80q-3 0 -23 2q-11 1 -51 14q-39 12 -65 29q-28 18 -51 56t-23 86z" />
    <glyph glyph-name="tilde" unicode="&#x2dc;" horiz-adv-x="1042" 
d="M225 1542q0 221 170 221q49 0 85 -23q41 -26 60 -52q20 -28 52 -53q29 -23 61 -23q82 0 82 145h82q0 -221 -170 -221q-47 0 -85 24q-39 25 -59 52q-19 25 -52 52q-30 24 -62 24q-82 0 -82 -146h-82z" />
    <glyph glyph-name="hungarumlaut" unicode="&#x2dd;" horiz-adv-x="1042" 
d="M514 1536l137 227h115l-162 -227h-90zM279 1536l127 227h102l-133 -227h-96z" />
    <glyph glyph-name="uni0400" unicode="&#x400;" horiz-adv-x="1138" 
d="M219 0v1434h785v-82h-697v-588h572v-82h-572v-600h735v-82h-823zM618 1536l-161 227h114l138 -227h-91z" />
    <glyph glyph-name="uni0401" unicode="&#x401;" horiz-adv-x="1138" 
d="M219 0v1434h785v-82h-697v-588h572v-82h-572v-600h735v-82h-823zM721 1614v149h94v-149h-94zM440 1614v149h95v-149h-95z" />
    <glyph glyph-name="uni0402" unicode="&#x402;" horiz-adv-x="1470" 
d="M457 0v1352h-422v82h1009v-82h-499v-531l-2 -61h4q195 94 385 94q219 0 336 -117q116 -116 116 -309q0 -231 -130 -342t-316 -111q-33 0 -96 5v79q33 -4 90 -4q155 0 259 88q105 89 105 285q0 156 -90 249t-274 93q-97 0 -193 -27q-95 -27 -145 -51l-49 -26v-666h-88z
" />
    <glyph glyph-name="uni0403" unicode="&#x403;" horiz-adv-x="974" 
d="M219 0v1434h723v-82h-635v-1352h-88zM516 1536l137 227h115l-162 -227h-90z" />
    <glyph glyph-name="uni0404" unicode="&#x404;" horiz-adv-x="1468" 
d="M123 727q0 311 204 521t507 210q94 0 182 -18t145 -45q63 -30 102 -54q42 -26 64 -45l19 -18l-54 -66q-10 10 -19 18q-12 11 -59 39q-52 31 -94 49q-50 21 -127 39q-74 17 -157 17q-257 0 -434 -174q-176 -173 -187 -440h864v-82h-862q16 -263 193 -441
q176 -178 432 -178q86 0 168 21q81 21 136 48q49 24 97 56q43 28 64 49l20 21l55 -61l-23 -24q-10 -10 -67 -52q-52 -38 -109 -66q-55 -27 -151 -52q-92 -24 -190 -24q-307 0 -514 219q-205 217 -205 533z" />
    <glyph glyph-name="uni0405" unicode="&#x405;" horiz-adv-x="1073" 
d="M106 154l60 67q160 -160 377 -160q143 0 234 78t91 205q0 112 -75 187q-77 77 -184 123q-40 17 -215 95q-106 47 -183 133q-76 85 -76 208q0 165 124 267q123 101 308 101q224 0 363 -133l-49 -76q-56 56 -145 90q-87 33 -173 33q-139 0 -237 -76q-99 -76 -99 -200
q0 -105 76 -177q80 -76 183 -117q100 -40 215 -93q107 -49 184 -138q76 -88 76 -217q0 -166 -114 -272q-115 -107 -306 -107q-256 0 -435 179z" />
    <glyph glyph-name="uni0406" unicode="&#x406;" horiz-adv-x="526" 
d="M219 0v1434h88v-1434h-88z" />
    <glyph glyph-name="uni0407" unicode="&#x407;" horiz-adv-x="526" 
d="M219 0v1434h88v-1434h-88zM358 1614v149h95v-149h-95zM78 1614v149h94v-149h-94z" />
    <glyph glyph-name="uni0408" unicode="&#x408;" horiz-adv-x="1042" 
d="M72 391v45h88v-47q0 -142 74 -235q75 -95 219 -95q126 0 211 79q86 80 86 251v963h-342v82h430v-1043q0 -211 -112 -314q-111 -102 -271 -102q-161 0 -272 102t-111 314z" />
    <glyph glyph-name="uni0409" unicode="&#x409;" horiz-adv-x="1890" 
d="M45 -16v86q109 15 179 99q74 88 111 242q37 152 52 340q14 171 14 439v244h674v-635h303q194 0 315 -106q119 -104 119 -294q0 -182 -121 -290q-123 -109 -300 -109h-404v1352h-500v-162q0 -185 -6 -323q-6 -145 -22 -279q-16 -140 -47 -241q-29 -94 -79 -181
q-48 -82 -120 -127q-71 -44 -168 -55zM1075 82h307q149 0 244 83q94 82 94 234q0 147 -95 233q-94 85 -243 85h-307v-635z" />
    <glyph glyph-name="uni040A" unicode="&#x40a;" horiz-adv-x="2023" 
d="M219 0v1434h88v-637h807v637h88v-635h324q183 0 302 -107q118 -106 118 -293q0 -182 -122 -290q-123 -109 -300 -109h-410v715h-807v-715h-88zM1202 82h314q148 0 243 83q94 82 94 234q0 147 -95 233q-94 85 -242 85h-314v-635z" />
    <glyph glyph-name="uni040B" unicode="&#x40b;" horiz-adv-x="1458" 
d="M457 0v1352h-422v82h1007v-82h-497v-541l-4 -68h4q189 111 411 111q387 0 387 -395v-459h-88v444q0 165 -71 245q-72 81 -228 81q-121 0 -234 -40q-115 -41 -177 -85v-645h-88z" />
    <glyph glyph-name="uni040C" unicode="&#x40c;" horiz-adv-x="1169" 
d="M219 0v1434h88v-639h266l410 639h107l-441 -676v-4l469 -754h-106l-439 713h-266v-713h-88zM557 1536l137 227h115l-162 -227h-90z" />
    <glyph glyph-name="uni040D" unicode="&#x40d;" horiz-adv-x="1536" 
d="M219 0v1434h88v-1125l-10 -180h4q62 97 125 186l809 1119h82v-1434h-88v1124l10 181h-4q-74 -117 -119 -181l-815 -1124h-82zM737 1536l-162 227h115l137 -227h-90z" />
    <glyph glyph-name="uni040E" unicode="&#x40e;" horiz-adv-x="1179" 
d="M184 57l47 70q102 -70 168 -70q70 0 112 54q39 50 85 172l-573 1151h98l434 -873l82 -184h4q12 36 66 184l327 873h96l-481 -1241q-86 -218 -250 -218q-99 0 -215 82zM584 1503q-97 0 -170 61q-72 60 -72 162v37h86v-30q0 -70 45 -109t111 -39q64 0 110 40q47 41 47 110
v28h84v-37q0 -103 -71 -162q-73 -61 -170 -61z" />
    <glyph glyph-name="uni040F" unicode="&#x40f;" horiz-adv-x="1468" 
d="M219 0v1434h88v-1352h854v1352h88v-1434h-471v-287h-88v287h-471z" />
    <glyph glyph-name="uni0410" unicode="&#x410;" horiz-adv-x="1277" 
d="M55 0l537 1434h94l537 -1434h-95l-186 496h-608l-184 -496h-95zM365 578h546l-217 581l-53 172h-4q-28 -104 -53 -172z" />
    <glyph glyph-name="uni0411" unicode="&#x411;" horiz-adv-x="1196" 
d="M219 0v1434h782v-82h-694v-533h369q184 0 298 -104q116 -105 116 -307q0 -185 -112 -297q-111 -111 -288 -111h-471zM307 82h375q144 0 230 86q85 85 85 240q0 152 -88 240q-89 89 -229 89h-373v-655z" />
    <glyph glyph-name="uni0412" unicode="&#x412;" horiz-adv-x="1245" 
d="M219 0v1434h481q160 0 262 -99q101 -98 101 -260q0 -223 -186 -313v-4q109 -30 176 -129q67 -98 67 -234q0 -178 -112 -286q-114 -109 -287 -109h-502zM307 795h391q121 0 197 76t76 204q0 127 -75 202t-200 75h-389v-557zM307 82h406q145 0 230 84t85 229q0 144 -89 231
t-228 87h-404v-631z" />
    <glyph glyph-name="uni0413" unicode="&#x413;" horiz-adv-x="974" 
d="M219 0v1434h723v-82h-635v-1352h-88z" />
    <glyph glyph-name="uni0414" unicode="&#x414;" horiz-adv-x="1396" 
d="M252 82h807v1270h-567v-181q0 -340 -50 -619q-49 -276 -190 -470zM8 82h144q83 105 138 241q54 133 78 288q21 138 30 277q8 130 8 281v265h741v-1352h160v-369h-86v287h-1125v-287h-88v369z" />
    <glyph glyph-name="uni0415" unicode="&#x415;" horiz-adv-x="1138" 
d="M219 0v1434h785v-82h-697v-588h572v-82h-572v-600h735v-82h-823z" />
    <glyph glyph-name="uni0416" unicode="&#x416;" horiz-adv-x="1677" 
d="M53 0l441 754v4l-412 676h102l385 -639h226v639h88v-639h225l385 639h102l-411 -676v-4l440 -754h-102l-414 713h-225v-713h-88v713h-226l-413 -713h-103z" />
    <glyph glyph-name="uni0417" unicode="&#x417;" horiz-adv-x="1085" 
d="M74 152l59 69q62 -71 158 -115q99 -45 203 -45q161 0 271 93q107 91 107 243q0 145 -97 227q-98 83 -243 83h-182v81h146q132 0 229 83q96 83 96 214q0 126 -79 206q-80 81 -238 81q-194 0 -338 -123l-49 76q163 133 387 133q200 0 304 -100q105 -100 105 -266
q0 -126 -64 -206q-65 -82 -159 -122v-4q124 -30 200 -126q75 -94 75 -237q0 -187 -135 -305q-134 -117 -338 -117q-116 0 -235 48q-115 47 -183 129z" />
    <glyph glyph-name="uni0418" unicode="&#x418;" horiz-adv-x="1536" 
d="M219 0v1434h88v-1125l-10 -180h4q62 97 125 186l809 1119h82v-1434h-88v1124l10 181h-4q-74 -117 -119 -181l-815 -1124h-82z" />
    <glyph glyph-name="uni0419" unicode="&#x419;" horiz-adv-x="1536" 
d="M770 1503q-97 0 -170 61q-72 60 -72 162v37h86v-30q0 -70 45 -109t111 -39q65 0 111 40q47 41 47 110v28h84v-37q0 -102 -72 -162q-73 -61 -170 -61zM219 0v1434h88v-1125l-10 -180h4q62 97 125 186l809 1119h82v-1434h-88v1124l10 181h-4q-74 -117 -119 -181l-815 -1124
h-82z" />
    <glyph glyph-name="uni041A" unicode="&#x41a;" horiz-adv-x="1169" 
d="M219 0v1434h88v-639h266l410 639h107l-441 -676v-4l469 -754h-106l-439 713h-266v-713h-88z" />
    <glyph glyph-name="uni041B" unicode="&#x41b;" horiz-adv-x="1335" 
d="M18 70q110 15 180 99q73 86 110 242q37 152 52 340q15 183 15 439v244h741v-1434h-88v1352h-567v-162q0 -185 -6 -323q-6 -131 -23 -279q-16 -140 -47 -241q-29 -94 -79 -181q-48 -82 -120 -127q-71 -44 -168 -55v86z" />
    <glyph glyph-name="uni041C" unicode="&#x41c;" horiz-adv-x="1708" 
d="M164 0l115 1434h86l417 -902l70 -161h4q42 102 70 161l417 902h87l114 -1434h-88l-88 1094l-6 190h-4q-39 -116 -74 -190l-385 -818h-90l-383 818l-76 194h-4q0 -125 -6 -194l-88 -1094h-88z" />
    <glyph glyph-name="uni041D" unicode="&#x41d;" horiz-adv-x="1523" 
d="M219 0v1434h88v-674h910v674h88v-1434h-88v678h-910v-678h-88z" />
    <glyph glyph-name="uni041E" unicode="&#x41e;" horiz-adv-x="1691" 
d="M121 727q0 307 212 519t513 212t513 -212t212 -519q0 -315 -212 -533q-213 -219 -513 -219t-513 219q-212 218 -212 533zM213 727q0 -281 184 -474q185 -194 449 -194q263 0 448 194t185 474q0 274 -185 461q-184 186 -448 186t-449 -186q-184 -185 -184 -461z" />
    <glyph glyph-name="uni041F" unicode="&#x41f;" horiz-adv-x="1503" 
d="M219 0v1434h1065v-1434h-88v1352h-889v-1352h-88z" />
    <glyph glyph-name="uni0420" unicode="&#x420;" horiz-adv-x="1206" 
d="M219 0v1434h471q191 0 314 -114q122 -113 122 -304q0 -194 -122 -307q-124 -115 -314 -115h-383v-594h-88zM307 676h379q160 0 254 90t94 250t-94 248t-254 88h-379v-676z" />
    <glyph glyph-name="uni0421" unicode="&#x421;" horiz-adv-x="1472" 
d="M123 727q0 313 201 522t510 209q320 0 512 -180l-54 -66q-83 75 -209 119q-122 43 -247 43q-273 0 -447 -183t-174 -464q0 -285 175 -476q176 -192 452 -192q287 0 485 195l55 -61q-226 -218 -540 -218q-317 0 -518 218q-201 217 -201 534z" />
    <glyph glyph-name="uni0422" unicode="&#x422;" horiz-adv-x="1230" 
d="M571 0v1352h-534v82h1157v-82h-535v-1352h-88z" />
    <glyph glyph-name="uni0423" unicode="&#x423;" horiz-adv-x="1179" 
d="M184 57l47 70q102 -70 168 -70q70 0 112 54q39 50 85 172l-573 1151h98l434 -873l82 -184h4q12 36 66 184l327 873h96l-481 -1241q-86 -218 -250 -218q-99 0 -215 82z" />
    <glyph glyph-name="uni0424" unicode="&#x424;" horiz-adv-x="1656" 
d="M100 760q0 279 188 438q189 160 496 160v178h88v-178q309 0 497 -161q187 -160 187 -437q0 -279 -187 -438q-189 -160 -497 -160v-187h-88v187q-307 0 -496 160q-188 159 -188 438zM872 240q278 0 435 136t157 384t-157 384t-435 136v-1040zM193 760q0 -248 157 -384
t434 -136v1040q-277 0 -434 -136t-157 -384z" />
    <glyph glyph-name="uni0425" unicode="&#x425;" horiz-adv-x="1136" 
d="M43 0l463 758l-412 676h107l274 -457l92 -156h4q46 85 91 156l276 457h106l-415 -676l465 -758h-105l-332 545l-90 151h-4q-41 -76 -88 -153l-328 -543h-104z" />
    <glyph glyph-name="uni0426" unicode="&#x426;" horiz-adv-x="1499" 
d="M219 0v1434h88v-1352h854v1352h88v-1352h160v-369h-86v287h-1104z" />
    <glyph glyph-name="uni0427" unicode="&#x427;" horiz-adv-x="1228" 
d="M545 580q-422 0 -422 395v459h88v-445q0 -165 79 -245t255 -80q105 0 209 37t168 83v650h88v-1434h-88v625l4 67h-4q-191 -112 -377 -112z" />
    <glyph glyph-name="uni0428" unicode="&#x428;" horiz-adv-x="2013" 
d="M219 0v1434h88v-1352h656v1352h88v-1352h655v1352h88v-1434h-1575z" />
    <glyph glyph-name="uni0429" unicode="&#x429;" horiz-adv-x="2056" 
d="M219 0v1434h88v-1352h656v1352h88v-1352h655v1352h88v-1352h176v-369h-88v287h-1663z" />
    <glyph glyph-name="uni042A" unicode="&#x42a;" horiz-adv-x="1335" 
d="M403 0v1352h-380v82h469v-615h348q184 0 298 -104q115 -105 115 -307q0 -186 -111 -297t-288 -111h-451zM492 82h354q144 0 230 86q85 85 85 240q0 152 -88 240q-89 89 -229 89h-352v-655z" />
    <glyph glyph-name="uni042B" unicode="&#x42b;" horiz-adv-x="1607" 
d="M1300 0v1434h89v-1434h-89zM219 0v1434h88v-615h348q184 0 298 -104q116 -105 116 -307q0 -185 -112 -297q-111 -111 -287 -111h-451zM307 82h355q144 0 230 86q85 85 85 240q0 152 -88 240q-89 89 -230 89h-352v-655z" />
    <glyph glyph-name="uni042C" unicode="&#x42c;" horiz-adv-x="1150" 
d="M219 0v1434h88v-615h348q184 0 298 -104q116 -105 116 -307q0 -185 -112 -297q-111 -111 -287 -111h-451zM307 82h355q144 0 230 86q85 85 85 240q0 152 -88 240q-89 89 -230 89h-352v-655z" />
    <glyph glyph-name="uni042D" unicode="&#x42d;" horiz-adv-x="1468" 
d="M86 193l55 61q76 -84 211 -139q136 -56 277 -56q254 0 430 178q175 177 192 441h-862v82h864q-12 266 -188 440q-175 174 -434 174q-265 0 -455 -162l-53 66q91 87 227 133q138 47 279 47q306 0 512 -209q205 -208 205 -522q0 -316 -205 -533q-207 -219 -512 -219
q-149 0 -296 57q-148 57 -247 161z" />
    <glyph glyph-name="uni042E" unicode="&#x42e;" horiz-adv-x="2121" 
d="M219 0v1434h88v-674h283q12 295 217 496q207 202 487 202q293 0 499 -212t206 -519q0 -315 -207 -533q-208 -219 -498 -219q-279 0 -483 202q-202 201 -219 501h-285v-678h-88zM682 727q0 -280 179 -473t433 -193t433 193q180 194 180 473q0 271 -180 459
q-179 186 -433 186t-433 -186q-179 -187 -179 -459z" />
    <glyph glyph-name="uni042F" unicode="&#x42f;" horiz-adv-x="1230" 
d="M68 0l358 590l33 51v4q-152 38 -227 141q-76 104 -76 261q0 117 53 208t145 136q85 43 258 43h400v-1434h-88v635h-367l-385 -635h-104zM555 717h369v635h-308q-136 0 -200 -29q-77 -34 -123 -109q-45 -74 -45 -167q0 -147 84 -239q84 -91 223 -91z" />
    <glyph glyph-name="uni0430" unicode="&#x430;" horiz-adv-x="1040" 
d="M84 272q0 72 27 129q29 60 65 94q37 34 102 62q64 28 113 39q47 11 123 19q72 7 111 9q26 1 94 1h67v34q0 306 -280 306q-164 0 -293 -99l-49 70q63 53 153 82q98 31 193 31q178 0 270 -99q92 -100 92 -288v-662h-86v135l9 92h-4q-40 -105 -137 -179q-96 -73 -222 -73
q-138 0 -244 77q-104 76 -104 220zM174 279q0 -88 70 -156t192 -68q158 0 254 134q96 133 96 300v56h-65q-77 0 -104 -1q-54 -2 -114 -8q-77 -8 -123 -25t-100 -45q-51 -26 -79 -76q-27 -48 -27 -111z" />
    <glyph glyph-name="uni0431" unicode="&#x431;" horiz-adv-x="1161" 
d="M133 571q0 140 14 230q15 98 55 189q42 95 117 165q75 69 197 131l391 195l39 -76l-397 -197q-183 -90 -255 -214q-72 -125 -87 -316h4q122 248 405 248q189 0 310 -127t121 -346q0 -211 -126 -344q-126 -134 -325 -134q-234 0 -348 164q-115 165 -115 432zM236 457
q0 -185 103 -292q103 -108 257 -108q153 0 257 107q103 106 103 287t-101 286q-102 107 -249 107q-163 0 -267 -112q-103 -110 -103 -275z" />
    <glyph glyph-name="uni0432" unicode="&#x432;" horiz-adv-x="997" 
d="M178 0v1024h322q156 0 246 -67t90 -193q0 -169 -164 -225v-4q98 -17 159 -88q60 -69 60 -164q0 -127 -96 -205t-269 -78h-348zM264 569h240q239 0 239 195q0 182 -247 182h-232v-377zM264 80h254q283 0 283 203q0 101 -74 154q-73 52 -211 52h-252v-409z" />
    <glyph glyph-name="uni0433" unicode="&#x433;" horiz-adv-x="811" 
d="M178 0v1024h582v-78h-496v-946h-86z" />
    <glyph glyph-name="uni0434" unicode="&#x434;" horiz-adv-x="1132" 
d="M248 80h590v866h-406v-67q0 -530 -184 -799zM20 80h125q201 253 201 799v145h578v-944h143v-326h-86v246h-875v-246h-86v326z" />
    <glyph glyph-name="uni0435" unicode="&#x435;" horiz-adv-x="1124" 
d="M106 510q0 250 146 394q147 145 352 145q197 0 308 -135q110 -134 110 -332q0 -23 -4 -56h-821q0 -215 126 -341t312 -126q188 0 317 129l47 -71q-70 -65 -166 -103q-99 -39 -198 -39q-222 0 -376 149q-153 148 -153 386zM203 606h729q-7 177 -101 271q-92 92 -229 92
q-148 0 -261 -96q-111 -95 -138 -267z" />
    <glyph glyph-name="uni0436" unicode="&#x436;" horiz-adv-x="1417" 
d="M47 0l361 522v4l-326 498h100l299 -459h185v459h86v-459h184l299 459h100l-325 -498v-4l360 -522h-108l-330 485h-180v-485h-86v485h-181l-329 -485h-109z" />
    <glyph glyph-name="uni0437" unicode="&#x437;" horiz-adv-x="882" 
d="M70 123l55 65q117 -131 283 -131q109 0 194 59q84 58 84 169q0 100 -74 153q-76 54 -211 54h-122v79h110q121 0 191 51q67 49 67 146q0 98 -65 147q-67 50 -172 50q-146 0 -252 -97l-52 70q128 111 312 111q142 0 232 -70q89 -69 89 -203q0 -175 -166 -235v-4
q95 -21 149 -84t54 -166q0 -147 -108 -230q-107 -82 -260 -82q-193 0 -338 148z" />
    <glyph glyph-name="uni0438" unicode="&#x438;" horiz-adv-x="1196" 
d="M178 0v1024h86v-729l-6 -166h4q17 23 58.5 82.5t58.5 83.5l559 729h80v-1024h-86v731l6 160h-4q-57 -76 -117 -160l-559 -731h-80z" />
    <glyph glyph-name="uni0439" unicode="&#x439;" horiz-adv-x="1196" 
d="M598 1174q-98 0 -170 60t-72 163v37h86v-31q0 -70 45 -109t111 -39q65 0 111 40q47 41 47 110v29h84v-37q0 -103 -72 -163t-170 -60zM178 0v1024h86v-729l-6 -166h4q17 23 58.5 82.5t58.5 83.5l559 729h80v-1024h-86v731l6 160h-4q-57 -76 -117 -160l-559 -731h-80z" />
    <glyph glyph-name="uni043A" unicode="&#x43a;" horiz-adv-x="964" 
d="M178 0v1024h86v-453h178l336 453h109l-371 -487v-5l412 -532h-113l-373 492h-178v-492h-86z" />
    <glyph glyph-name="uni043B" unicode="&#x43b;" horiz-adv-x="1050" 
d="M41 -8v80q139 22 199 183q59 158 59 464v305h573v-1024h-86v944h-401v-225q0 -367 -84 -537q-84 -169 -260 -190z" />
    <glyph glyph-name="uni043C" unicode="&#x43c;" horiz-adv-x="1443" 
d="M139 0l82 1024h82l346 -678l70 -149h4q28 66 70 149l348 678h82l82 -1024h-86l-58 711l-2 176h-4q-21 -57 -68 -148l-321 -626h-88l-322 622l-67 152h-4q2 -136 -2 -176l-58 -711h-86z" />
    <glyph glyph-name="uni043D" unicode="&#x43d;" horiz-adv-x="1198" 
d="M178 0v1024h86v-457h670v457h86v-1024h-86v487h-670v-487h-86z" />
    <glyph glyph-name="uni043E" unicode="&#x43e;" horiz-adv-x="1269" 
d="M104 518q0 224 155 377q156 154 376 154t376 -154q154 -153 154 -377q0 -228 -154 -385q-155 -158 -376 -158t-376 158t-155 385zM195 518q0 -194 128 -327q127 -132 312 -132t312 132q128 133 128 327q0 188 -128 318q-127 129 -312 129t-312 -129q-128 -130 -128 -318z
" />
    <glyph glyph-name="uni043F" unicode="&#x43f;" horiz-adv-x="1177" 
d="M178 0v1024h821v-1024h-86v944h-649v-944h-86z" />
    <glyph glyph-name="uni0440" unicode="&#x440;" horiz-adv-x="1183" 
d="M178 -410v1434h86v-123l-6 -82h4q45 107 144 168q100 62 225 62q201 0 322 -148q120 -147 120 -389q0 -243 -127 -389q-128 -148 -328 -148q-115 0 -212 62q-96 62 -146 170h-4q8 -40 8 -90v-527h-86zM262 510q0 -182 96 -316q97 -135 260 -135q156 0 261 122
q104 120 104 331q0 204 -99 329q-99 124 -257 124q-155 0 -260 -114t-105 -341z" />
    <glyph glyph-name="uni0441" unicode="&#x441;" horiz-adv-x="1105" 
d="M106 510q0 238 155 388q156 151 374 151q104 0 202 -37t164 -109l-53 -69q-55 59 -140 95t-173 36q-183 0 -311 -126q-127 -126 -127 -329q0 -202 127 -326q128 -125 311 -125q97 0 188 39q92 39 154 109l45 -72q-66 -74 -169 -117q-102 -43 -218 -43q-222 0 -376 149
q-153 148 -153 386z" />
    <glyph glyph-name="uni0442" unicode="&#x442;" horiz-adv-x="966" 
d="M440 0v944h-389v80h864v-80h-389v-944h-86z" />
    <glyph glyph-name="uni0443" unicode="&#x443;" horiz-adv-x="1058" 
d="M84 -299q56 -49 127 -49q123 0 201 184l73 170l-424 1018h93l338 -817l36 -96h4q18 56 35 96l338 817h92l-526 -1264q-79 -190 -260 -190q-46 0 -85 14q-44 16 -60 29l-21 14z" />
    <glyph glyph-name="uni0444" unicode="&#x444;" horiz-adv-x="1400" 
d="M109 518q0 229 151 373q152 144 397 156v387h86v-387q247 -12 398 -156t151 -373q0 -236 -152 -382q-153 -147 -397 -159v-387h-86v387q-243 12 -396 159q-152 146 -152 382zM743 59q206 12 333 136q126 123 126 323q0 198 -126 316t-333 129v-904zM199 518
q0 -200 126 -323q127 -124 332 -136v904q-206 -10 -332 -129q-126 -118 -126 -316z" />
    <glyph glyph-name="uni0445" unicode="&#x445;" horiz-adv-x="946" 
d="M45 0l369 541l-330 483h104l248 -373l35 -57h4q7 12 19.5 32t15.5 25l248 373h104l-330 -483l369 -541h-106l-283 424l-37 59h-4q-21 -36 -37 -59l-282 -424h-107z" />
    <glyph glyph-name="uni0446" unicode="&#x446;" horiz-adv-x="1196" 
d="M178 0v1024h86v-944h637v944h86v-944h143v-326h-86v246h-866z" />
    <glyph glyph-name="uni0447" unicode="&#x447;" horiz-adv-x="991" 
d="M446 389q-342 0 -342 318v317h86v-317q0 -103 52 -169q51 -65 204 -65q156 0 281 92v459h86v-1024h-86v408l4 69h-4q-50 -36 -135 -62q-84 -26 -146 -26z" />
    <glyph glyph-name="uni0448" unicode="&#x448;" horiz-adv-x="1597" 
d="M178 0v1024h86v-944h492v944h86v-944h491v944h86v-1024h-1241z" />
    <glyph glyph-name="uni0449" unicode="&#x449;" horiz-adv-x="1628" 
d="M178 0v1024h86v-944h492v944h86v-944h491v944h86v-944h144v-326h-86v246h-1299z" />
    <glyph glyph-name="uni044A" unicode="&#x44a;" horiz-adv-x="1060" 
d="M315 0v946h-288v78h374v-410h236q69 0 122 -14q58 -15 109 -46q54 -33 84 -95q31 -65 31 -154q0 -139 -89 -222t-261 -83h-318zM401 80h232q260 0 260 225q0 230 -256 230h-236v-455z" />
    <glyph glyph-name="uni044B" unicode="&#x44b;" horiz-adv-x="1298" 
d="M1034 0v1024h86v-1024h-86zM178 0v1024h86v-410h236q69 0 122 -14q58 -15 109 -46q54 -33 84 -95q31 -65 31 -154q0 -139 -89 -222t-261 -83h-318zM264 80h232q260 0 260 225q0 230 -256 230h-236v-455z" />
    <glyph glyph-name="uni044C" unicode="&#x44c;" horiz-adv-x="923" 
d="M178 0v1024h86v-410h236q69 0 122 -14q58 -15 109 -46q54 -33 84 -95q31 -65 31 -154q0 -139 -89 -222t-261 -83h-318zM264 80h232q260 0 260 225q0 230 -256 230h-236v-455z" />
    <glyph glyph-name="uni044D" unicode="&#x44d;" horiz-adv-x="1103" 
d="M82 135l45 72q128 -148 346 -148q172 0 295 114q122 113 137 298h-563v80h563q-15 187 -138 299q-126 115 -294 115q-181 0 -317 -131l-54 69q64 71 162 108q102 38 207 38q219 0 373 -151q153 -150 153 -388t-152 -386q-154 -149 -376 -149q-239 0 -387 160z" />
    <glyph glyph-name="uni044E" unicode="&#x44e;" horiz-adv-x="1607" 
d="M178 0v1024h86v-473h219q12 209 160 354q147 144 350 144q210 0 361 -154q149 -152 149 -377q0 -229 -149 -385q-150 -158 -361 -158q-200 0 -346 143t-162 353h-221v-471h-86zM573 518q0 -195 123 -327t297 -132t297 132t123 327q0 189 -123 318t-297 129t-297 -129
t-123 -318z" />
    <glyph glyph-name="uni044F" unicode="&#x44f;" horiz-adv-x="980" 
d="M72 0l256 362l47 62v4q-100 15 -175 91q-75 77 -75 202q0 147 99 225t263 78h316v-1024h-86v414h-250l-287 -414h-108zM479 492h238v454h-225q-275 0 -275 -225q0 -106 74 -168q73 -61 188 -61z" />
    <glyph glyph-name="uni0450" unicode="&#x450;" horiz-adv-x="1124" 
d="M106 510q0 250 146 394q147 145 352 145q197 0 308 -135q110 -134 110 -332q0 -23 -4 -56h-821q0 -215 126 -341t312 -126q188 0 317 129l47 -71q-70 -65 -166 -103q-99 -39 -198 -39q-222 0 -376 149q-153 148 -153 386zM203 606h729q-7 177 -101 271q-92 92 -229 92
q-148 0 -261 -96q-111 -95 -138 -267zM586 1206l-162 228h115l137 -228h-90z" />
    <glyph glyph-name="uni0451" unicode="&#x451;" horiz-adv-x="1124" 
d="M106 510q0 250 146 394q147 145 352 145q197 0 308 -135q110 -134 110 -332q0 -23 -4 -56h-821q0 -215 126 -341t312 -126q188 0 317 129l47 -71q-70 -65 -166 -103q-99 -39 -198 -39q-222 0 -376 149q-153 148 -153 386zM203 606h729q-7 177 -101 271q-92 92 -229 92
q-148 0 -261 -96q-111 -95 -138 -267zM684 1284v150h94v-150h-94zM403 1284v150h95v-150h-95z" />
    <glyph glyph-name="uni0452" unicode="&#x452;" horiz-adv-x="1200" 
d="M178 0v1180h-135v77h135v177h86v-177h488v-77h-488v-428l-4 -84h4q34 94 148 187q112 91 282 91q189 0 263 -101q75 -102 75 -298v-600q0 -117 -35 -201q-34 -82 -91 -118t-103 -48q-47 -12 -96 -12l-52 4v80q16 -4 45 -4q41 0 75 10q35 10 78 38q42 27 68 92
q25 63 25 157v571q0 67 -4 106q-5 51 -18 92q-16 51 -41 79q-28 31 -75 50t-114 19q-144 0 -259 -91t-154 -234q-17 -59 -17 -140v-397h-86z" />
    <glyph glyph-name="uni0453" unicode="&#x453;" horiz-adv-x="811" 
d="M178 0v1024h582v-78h-496v-946h-86zM389 1206l137 228h115l-162 -228h-90z" />
    <glyph glyph-name="uni0454" unicode="&#x454;" horiz-adv-x="1103" 
d="M106 510q0 238 155 388q156 151 374 151q110 0 200 -37q91 -38 128 -74l38 -35l-53 -69q-9 11 -38 35q-28 23 -106 59q-80 37 -169 37q-171 0 -296 -111q-123 -110 -140 -291h563v-80h-565q7 -189 134 -307q126 -117 304 -117q101 0 185 37q86 38 122 74l35 37l45 -72
q-9 -9 -16 -17q-10 -12 -48 -39q-40 -29 -77 -48q-35 -18 -108 -38q-66 -18 -138 -18q-222 0 -376 149q-153 148 -153 386z" />
    <glyph glyph-name="uni0455" unicode="&#x455;" horiz-adv-x="880" 
d="M84 123l55 65q123 -129 318 -129q99 0 168 52q67 51 67 141q0 72 -58 121q-60 50 -141 80q-73 27 -165 65q-82 34 -141 98q-58 62 -58 156q0 132 94 204q96 73 234 73q195 0 303 -111l-51 -70q-91 97 -258 97q-97 0 -164 -46q-68 -47 -68 -141q0 -73 59 -123
q58 -49 141 -81q110 -42 165 -65q82 -34 140 -98t58 -159q0 -123 -92 -200t-235 -77q-235 0 -371 148z" />
    <glyph glyph-name="uni0456" unicode="&#x456;" horiz-adv-x="442" 
d="M170 1284v150h102v-150h-102zM178 0v1024h86v-1024h-86z" />
    <glyph glyph-name="uni0457" unicode="&#x457;" horiz-adv-x="442" 
d="M178 0v1024h86v-1024h-86zM315 1284v150h95v-150h-95zM35 1284v150h94v-150h-94z" />
    <glyph glyph-name="uni0458" unicode="&#x458;" horiz-adv-x="442" 
d="M170 1284v150h102v-150h-102zM178 -43v1067h86v-1065q0 -117 -35 -201q-34 -81 -91 -117q-60 -38 -103 -49q-47 -12 -96 -12q-19 0 -52 4v80q11 -4 45 -4q41 0 75 10q35 10 78 38q42 27 68 92q25 63 25 157z" />
    <glyph glyph-name="uni0459" unicode="&#x459;" horiz-adv-x="1443" 
d="M63 -8v80q139 22 199 183t60 464v305h462v-410h236q69 0 122 -14q58 -15 109 -46q54 -33 84 -95q31 -65 31 -154q0 -139 -89 -222t-261 -83h-318v944h-290v-225q0 -367 -84 -537q-84 -169 -261 -190zM784 80h232q260 0 260 225q0 230 -256 230h-236v-455z" />
    <glyph glyph-name="uni045A" unicode="&#x45a;" horiz-adv-x="1595" 
d="M178 0v1024h86v-422h588v422h86v-422h223q49 0 99 -8q45 -7 95 -29q49 -21 84 -52t58 -84q23 -54 23 -120q0 -141 -89 -225t-262 -84h-317v522h-588v-522h-86zM938 80h231q261 0 261 229q0 213 -269 213h-223v-442z" />
    <glyph glyph-name="uni045B" unicode="&#x45b;" horiz-adv-x="1200" 
d="M178 0v1180h-135v77h135v177h86v-177h488v-77h-488v-428l-4 -84h4q34 94 148 187q112 91 282 91q189 0 263 -101q75 -102 75 -298v-547h-86v516q0 67 -4 106q-5 51 -18 92q-16 51 -41 79q-28 31 -75 50t-114 19q-144 0 -259 -91t-154 -234q-17 -59 -17 -140v-397h-86z
" />
    <glyph glyph-name="uni045C" unicode="&#x45c;" horiz-adv-x="964" 
d="M178 0v1024h86v-453h178l336 453h109l-371 -487v-5l412 -532h-113l-373 492h-178v-492h-86zM438 1206l137 228h115l-162 -228h-90z" />
    <glyph glyph-name="uni045D" unicode="&#x45d;" horiz-adv-x="1196" 
d="M608 1206l-162 228h115l137 -228h-90zM178 0v1024h86v-729l-6 -166h4q17 23 58.5 82.5t58.5 83.5l559 729h80v-1024h-86v731l6 160h-4q-57 -76 -117 -160l-559 -731h-80z" />
    <glyph glyph-name="uni045E" unicode="&#x45e;" horiz-adv-x="1058" 
d="M84 -299q56 -49 127 -49q123 0 201 184l73 170l-424 1018h93l338 -817l36 -96h4q18 56 35 96l338 817h92l-526 -1264q-79 -190 -260 -190q-46 0 -85 14q-44 16 -60 29l-21 14zM530 1174q-98 0 -170 60q-71 59 -71 163v37h86v-31q0 -70 45 -109t110 -39t111 40
q47 41 47 110v29h84v-37q0 -103 -72 -163t-170 -60z" />
    <glyph glyph-name="uni045F" unicode="&#x45f;" horiz-adv-x="1126" 
d="M178 0v1024h86v-944h598v944h86v-1024h-342v-246h-86v246h-342z" />
    <glyph glyph-name="uni0462" unicode="&#x462;" horiz-adv-x="1368" 
d="M422 0v1106h-389v82h389v246h88v-246h416v-82h-416v-287h354q185 0 304 -106q120 -107 120 -293q0 -192 -122 -306t-300 -114h-444zM510 82h348q149 0 244 89q94 88 94 249q0 146 -95 232q-94 85 -243 85h-348v-655z" />
    <glyph glyph-name="uni0463" unicode="&#x463;" horiz-adv-x="1001" 
d="M252 0v946h-248v78h248v410h86v-410h348v-78h-348v-332h235q69 0 122 -14q59 -16 110 -46q54 -33 84 -95q31 -65 31 -154q0 -138 -90 -222q-89 -83 -261 -83h-317zM338 80h231q260 0 260 225q0 230 -256 230h-235v-455z" />
    <glyph glyph-name="uni0472" unicode="&#x472;" horiz-adv-x="1691" 
d="M121 727q0 308 209 520q208 211 516 211t516 -211q209 -212 209 -520q0 -316 -209 -534t-516 -218t-516 218t-209 534zM846 59q258 0 438 180q178 178 193 447h-1264q15 -268 194 -447q180 -180 439 -180zM846 1374q-260 0 -438 -172q-179 -173 -195 -434h1264
q-15 261 -193 433q-179 173 -438 173z" />
    <glyph glyph-name="uni0473" unicode="&#x473;" horiz-adv-x="1269" 
d="M104 518q0 224 155 377q156 154 376 154t376 -154q154 -153 154 -377q0 -228 -154 -385q-155 -158 -376 -158t-376 158t-155 385zM635 59q172 0 298 120q125 119 140 298h-878q15 -182 140 -299q127 -119 300 -119zM635 965q-174 0 -300 -117q-125 -116 -140 -291h878
q-15 175 -139 291q-125 117 -299 117z" />
    <glyph glyph-name="uni0474" unicode="&#x474;" horiz-adv-x="1392" 
d="M588 0l-537 1434h96l431 -1160l55 -172h4q39 123 55 172l334 965q47 131 101 163q55 32 192 32h49v-84h-43h-36h-33q-13 0 -26 -1q-21 -2 -25 -6t-19 -10t-22 -16q-3 -3 -8.5 -11.5t-8.5 -13.5q-13 -19 -19 -34q-12 -31 -16 -44l-428 -1214h-96z" />
    <glyph glyph-name="uni0475" unicode="&#x475;" horiz-adv-x="1103" 
d="M467 0l-404 1024h93l315 -803l35 -110h4q12 41 35 110l219 625q34 100 90 139t162 39h43v-84h-43q-76 0 -111 -24t-63 -101l-293 -815h-82z" />
    <glyph glyph-name="uni048A" unicode="&#x48a;" horiz-adv-x="1570" 
d="M219 0v1434h88v-1125l-10 -180h4q62 97 125 186l809 1119h82v-1352h184v-68l-123 -301h-82l101 287h-168v1124l10 181h-4q-74 -117 -119 -181l-815 -1124h-82zM772 1503q-97 0 -170 61q-72 60 -72 162v37h86v-30q0 -69 46 -109q45 -39 110 -39t111 40q47 41 47 110v28h84
v-37q0 -102 -72 -162q-73 -61 -170 -61z" />
    <glyph glyph-name="uni048B" unicode="&#x48b;" horiz-adv-x="1226" 
d="M178 0v1024h86v-729l-6 -166h4q17 23 58.5 82.5t58.5 83.5l559 729h80v-946h143v-68l-104 -256h-78l86 246h-133v731l6 160h-4q-57 -76 -117 -160l-559 -731h-80zM604 1174q-98 0 -170 60t-72 163v37h87v-31q0 -70 45 -109t110 -39t111 40q47 41 47 110v29h84v-37
q0 -103 -72 -163t-170 -60z" />
    <glyph glyph-name="uni048C" unicode="&#x48c;" horiz-adv-x="1329" 
d="M365 0v1200h-336v82h336v254h88v-254h348v-82h-348v-360h374q181 0 303 -113q121 -112 121 -307q0 -192 -122 -306q-121 -114 -300 -114h-464zM453 82h368q149 0 244 89q94 88 94 249q0 158 -95 248q-94 90 -243 90h-368v-676z" />
    <glyph glyph-name="uni048D" unicode="&#x48d;" horiz-adv-x="1021" 
d="M272 0v946h-247v78h247v410h86v-410h349v-78h-349v-332h236q69 0 122 -14q58 -15 109 -46q54 -33 84 -95q31 -65 31 -154q0 -139 -89 -222t-261 -83h-318zM358 80h232q260 0 260 225q0 230 -256 230h-236v-455z" />
    <glyph glyph-name="uni048E" unicode="&#x48e;" horiz-adv-x="1247" 
d="M219 0v1434h471q191 0 314 -114q122 -113 122 -304q0 -206 -141 -324l129 -184l-65 -47l-129 186q-101 -53 -230 -53h-383v-594h-88zM725 930l66 47l147 -213q96 90 96 252q0 160 -94 248t-254 88h-379v-676h379q110 0 184 41z" />
    <glyph glyph-name="uni048F" unicode="&#x48f;" horiz-adv-x="1204" 
d="M178 -410v1434h86v-123l-6 -82h4l4 10q4 10 7 16q8 17 37 54q31 41 68 70q40 32 105 55q70 25 148 25q201 0 322 -148q120 -147 120 -389q0 -241 -129 -391l117 -141l-62 -54l-114 137q-112 -88 -267 -88q-74 0 -138 24q-67 25 -103 57q-42 37 -67 69q-29 37 -40 59
l-10 23h-4q8 -40 8 -90v-527h-86zM682 307l61 53l142 -170q98 120 98 322q0 204 -99 329q-99 124 -257 124q-155 0 -260 -114t-105 -341q0 -182 96 -316q97 -135 260 -135q119 0 209 72z" />
    <glyph glyph-name="uni0490" unicode="&#x490;" horiz-adv-x="976" 
d="M219 0v1434h639v163h86v-245h-637v-1352h-88z" />
    <glyph glyph-name="uni0491" unicode="&#x491;" horiz-adv-x="790" 
d="M178 0v1024h479v143h82v-221h-475v-946h-86z" />
    <glyph glyph-name="uni0492" unicode="&#x492;" horiz-adv-x="999" 
d="M231 0v672h-133v82h133v680h723v-82h-635v-598h334v-82h-334v-672h-88z" />
    <glyph glyph-name="uni0493" unicode="&#x493;" horiz-adv-x="819" 
d="M178 0v473h-131v78h131v473h582v-78h-496v-395h277v-78h-277v-473h-86z" />
    <glyph glyph-name="uni0494" unicode="&#x494;" horiz-adv-x="1191" 
d="M219 0v1434h723v-82h-635v-578q43 25 138 53q91 27 171 27q79 0 135 -10t123 -45q66 -34 109 -94q44 -61 72 -167t28 -253q0 -327 -131 -481q-130 -152 -336 -152v80q75 0 137 25q60 24 119 83q58 58 91 171q32 111 32 274q0 269 -93 378t-286 109q-149 0 -309 -80v-692
h-88z" />
    <glyph glyph-name="uni0495" unicode="&#x495;" horiz-adv-x="968" 
d="M178 0v1024h580v-80h-494v-438q130 67 256 67q105 0 180 -38t113 -105q36 -63 53 -136t17 -151q0 -371 -279 -563l-47 70q240 159 240 493q0 153 -65 250q-65 96 -212 96q-141 0 -256 -71v-418h-86z" />
    <glyph glyph-name="uni0496" unicode="&#x496;" horiz-adv-x="1767" 
d="M53 0l441 754v4l-412 676h102l385 -639h226v639h88v-639h225l385 639h102l-411 -676v-4l391 -672h166v-369h-86v287h-133l-414 713h-225v-713h-88v713h-226l-413 -713h-103z" />
    <glyph glyph-name="uni0497" unicode="&#x497;" horiz-adv-x="1482" 
d="M47 0l361 522v4l-326 498h100l299 -459h185v459h86v-459h184l299 459h100l-325 -498v-4l305 -442h127v-326h-86v246h-94l-330 485h-180v-485h-86v485h-181l-329 -485h-109z" />
    <glyph glyph-name="uni0498" unicode="&#x498;" horiz-adv-x="1089" 
d="M74 152l59 69q62 -71 158 -115q99 -45 203 -45q161 0 271 93q107 91 107 243q0 145 -97 227q-98 83 -243 83h-182v81h146q132 0 229 83q96 83 96 214q0 126 -79 206q-80 81 -238 81q-194 0 -338 -123l-49 76q163 133 387 133q200 0 304 -100q105 -100 105 -266
q0 -126 -64 -206q-65 -82 -159 -122v-4q124 -30 200 -126q75 -94 75 -237q0 -175 -118 -289q-119 -115 -302 -131v-264h-86v264q-111 6 -217 53t-168 122z" />
    <glyph glyph-name="uni0499" unicode="&#x499;" horiz-adv-x="886" 
d="M72 123l55 65q117 -131 283 -131q109 0 194 59q84 58 84 169q0 100 -74 153q-76 54 -211 54h-122v79h110q121 0 191 51q67 49 67 146q0 98 -65 147q-67 50 -172 50q-146 0 -252 -97l-51 70q127 111 311 111q142 0 232 -70q89 -69 89 -203q0 -175 -166 -235v-4
q95 -21 149 -84t54 -166q0 -131 -87 -211q-87 -79 -218 -96v-226h-86v221q-185 10 -315 148z" />
    <glyph glyph-name="uni049A" unicode="&#x49a;" horiz-adv-x="1261" 
d="M219 0v1434h88v-639h266l410 639h107l-441 -676v-4l418 -672h168v-369h-86v287h-137l-439 713h-266v-713h-88z" />
    <glyph glyph-name="uni049B" unicode="&#x49b;" horiz-adv-x="1026" 
d="M178 0v1024h86v-453h178l336 453h109l-371 -487v-5l350 -452h123v-326h-86v246h-88l-373 492h-178v-492h-86z" />
    <glyph glyph-name="uni049C" unicode="&#x49c;" horiz-adv-x="1288" 
d="M219 0v1434h88v-639h176v266h84v-266h125l410 639h106l-440 -676v-4l469 -754h-107l-438 713h-125v-267h-84v267h-176v-713h-88z" />
    <glyph glyph-name="uni049D" unicode="&#x49d;" horiz-adv-x="1087" 
d="M178 0v1024h86v-453h144v224h79v-224h78l336 453h109l-371 -487v-5l412 -532h-113l-373 492h-78v-228h-79v228h-144v-492h-86z" />
    <glyph glyph-name="uni049E" unicode="&#x49e;" horiz-adv-x="1179" 
d="M12 1092v82h217v260h88v-260h230v-82h-230v-297h267l409 639h107l-441 -676v-4l469 -754h-106l-438 713h-267v-713h-88v1092h-217z" />
    <glyph glyph-name="uni049F" unicode="&#x49f;" horiz-adv-x="966" 
d="M178 0v1085h-129v78h129v271h86v-271h279v-78h-279v-464h182l332 403h113l-371 -440v-4l406 -580h-109l-371 541h-182v-541h-86z" />
    <glyph glyph-name="uni04A0" unicode="&#x4a0;" horiz-adv-x="1462" 
d="M512 0v1352h-473v82h561v-639h266l410 639h106l-440 -676v-4l469 -754h-106l-439 713h-266v-713h-88z" />
    <glyph glyph-name="uni04A1" unicode="&#x4a1;" horiz-adv-x="1101" 
d="M315 0v946h-288v78h374v-453h179l335 453h109l-371 -487v-5l412 -532h-113l-372 492h-179v-492h-86z" />
    <glyph glyph-name="uni04A2" unicode="&#x4a2;" horiz-adv-x="1566" 
d="M219 0v1434h88v-674h910v674h88v-1352h176v-369h-86v287h-178v678h-910v-678h-88z" />
    <glyph glyph-name="uni04A3" unicode="&#x4a3;" horiz-adv-x="1230" 
d="M178 0v1024h86v-457h670v457h86v-944h154v-326h-87v246h-153v487h-670v-487h-86z" />
    <glyph glyph-name="uni04A4" unicode="&#x4a4;" horiz-adv-x="1869" 
d="M219 0v1434h88v-674h807v674h723v-82h-635v-1352h-88v678h-807v-678h-88z" />
    <glyph glyph-name="uni04A5" unicode="&#x4a5;" horiz-adv-x="1443" 
d="M178 0v1024h86v-457h588v457h541v-78h-455v-946h-86v487h-588v-487h-86z" />
    <glyph glyph-name="uni04A6" unicode="&#x4a6;" horiz-adv-x="2029" 
d="M219 0v1434h936v-639q43 25 138 53q88 26 171 26q78 0 134 -10q60 -11 124 -47q66 -38 109 -98q44 -62 72 -172q28 -109 28 -262q0 -327 -131 -481q-130 -152 -336 -152v80q75 0 137 25q60 24 119 83q57 57 90 171t33 274q0 279 -93 393q-94 115 -286 115
q-135 0 -309 -80v-713h-88v1352h-760v-1352h-88z" />
    <glyph glyph-name="uni04A7" unicode="&#x4a7;" horiz-adv-x="1599" 
d="M178 0v1024h699v-477q130 67 256 67q89 0 158 -27q67 -26 111 -72q40 -41 68 -104q27 -60 36 -120q10 -67 10 -127q0 -383 -279 -584l-47 70q240 168 240 514q0 162 -69 264t-228 102q-141 0 -256 -71v-459h-86v944h-527v-944h-86z" />
    <glyph glyph-name="uni04A8" unicode="&#x4a8;" horiz-adv-x="1902" 
d="M125 733q0 158 51 290q51 131 135 220q82 86 184 142t203 73v-84q-196 -46 -339 -212q-142 -164 -142 -429q0 -288 162 -480t438 -192q159 0 328 68q-188 112 -290 293q-103 182 -103 407q0 156 49 276q50 122 128 190q81 71 167 104q90 35 174 35q210 0 356 -151
t146 -454q0 -210 -119 -394q-119 -183 -314 -302q153 -51 332 -51h80v-82h-80q-240 0 -426 80q-213 -105 -426 -105q-314 0 -504 208t-190 550zM844 829q0 -212 103 -385q103 -174 294 -270q191 106 315 281q123 174 123 374q0 273 -119 396q-120 125 -290 125
q-52 0 -112 -19q-56 -18 -114 -59q-56 -40 -101 -100q-46 -62 -72 -147q-27 -89 -27 -196z" />
    <glyph glyph-name="uni04A9" unicode="&#x4a9;" horiz-adv-x="1548" 
d="M109 522q0 207 115 343q116 137 268 184l26 -78q-121 -38 -221 -155q-98 -114 -98 -294q0 -207 117 -334q118 -129 356 -129q133 0 262 50q-147 83 -231 215q-85 133 -85 301q0 175 120 299q120 125 294 125q175 0 287 -115q111 -114 111 -309q0 -154 -84 -286t-224 -224
q108 -31 221 -31h87v-84h-87q-169 0 -315 61q-177 -86 -356 -86q-281 0 -422 156t-141 391zM709 625q0 -155 87 -280q87 -124 232 -193q141 78 226 200t85 273q0 162 -86 251t-221 89q-130 0 -227 -97q-96 -96 -96 -243z" />
    <glyph glyph-name="uni04AA" unicode="&#x4aa;" horiz-adv-x="1474" 
d="M125 727q0 313 201 522t510 209q320 0 512 -180l-54 -66q-83 75 -209 119q-122 43 -247 43q-273 0 -447 -183t-174 -464q0 -285 175 -476q176 -192 452 -192q287 0 485 195l55 -61q-213 -206 -503 -216v-264h-86v264q-298 18 -485 232q-185 212 -185 518z" />
    <glyph glyph-name="uni04AB" unicode="&#x4ab;" horiz-adv-x="1110" 
d="M109 510q0 238 154 388q156 151 374 151q104 0 202 -37q100 -38 165 -109l-54 -69q-55 59 -140 95q-86 36 -173 36q-183 0 -311 -126q-127 -126 -127 -329q0 -202 127 -326q128 -125 311 -125q97 0 188 39q92 39 154 109l45 -72q-133 -150 -362 -160v-221h-87v226
q-203 21 -334 164q-132 144 -132 366z" />
    <glyph glyph-name="uni04AC" unicode="&#x4ac;" horiz-adv-x="1228" 
d="M567 0v1352h-534v82h1157v-82h-535v-1270h176v-369h-86v287h-178z" />
    <glyph glyph-name="uni04AD" unicode="&#x4ad;" horiz-adv-x="972" 
d="M440 0v944h-389v80h864v-80h-389v-864h154v-326h-86v246h-154z" />
    <glyph glyph-name="uni04AE" unicode="&#x4ae;" horiz-adv-x="1136" 
d="M524 0v623l-487 811h100l340 -566l88 -161h4q48 97 88 161l340 566h101l-486 -811v-623h-88z" />
    <glyph glyph-name="uni04AF" unicode="&#x4af;" horiz-adv-x="1019" 
d="M469 80l-408 944h93l315 -735l39 -105h4q18 58 39 105l315 735h90l-405 -944v-490h-82v490z" />
    <glyph glyph-name="uni04B0" unicode="&#x4b0;" horiz-adv-x="1136" 
d="M248 543v80h276l-487 811h100l340 -566l88 -161h4q48 97 88 161l340 566h101l-486 -811h267v-80h-267v-543h-88v543h-276z" />
    <glyph glyph-name="uni04B1" unicode="&#x4b1;" horiz-adv-x="1017" 
d="M236 0v80h233l-403 944h92l311 -735l39 -105h4q18 58 39 105l311 735h90l-401 -944h233v-80h-233v-410h-82v410h-233z" />
    <glyph glyph-name="uni04B2" unicode="&#x4b2;" horiz-adv-x="1230" 
d="M43 0l463 758l-412 676h107l274 -457l94 -160h4q45 91 89 160l276 457h106l-415 -676l413 -676h166v-369h-86v287h-133l-332 545l-92 153h-4q-46 -89 -86 -155l-328 -543h-104z" />
    <glyph glyph-name="uni04B3" unicode="&#x4b3;" horiz-adv-x="1009" 
d="M45 0l369 541l-330 483h104l248 -373l35 -57h4q7 12 19.5 32t15.5 25l248 373h104l-330 -483l314 -461h123v-326h-86v246h-88l-283 424l-37 59h-4q-21 -36 -37 -59l-282 -424h-107z" />
    <glyph glyph-name="uni04B4" unicode="&#x4b4;" horiz-adv-x="1804" 
d="M512 0v1352h-473v82h1034v-82h-473v-1270h854v1352h88v-1352h176v-369h-86v287h-1120z" />
    <glyph glyph-name="uni04B5" unicode="&#x4b5;" horiz-adv-x="1449" 
d="M432 0v944h-381v80h848v-80h-381v-864h637v944h86v-944h143v-326h-86v246h-866z" />
    <glyph glyph-name="uni04B6" unicode="&#x4b6;" horiz-adv-x="1271" 
d="M545 580q-422 0 -422 395v459h88v-445q0 -165 79 -245t255 -80q105 0 209 37t168 83v650h88v-1352h176v-369h-86v287h-178v625l4 67h-4q-191 -112 -377 -112z" />
    <glyph glyph-name="uni04B7" unicode="&#x4b7;" horiz-adv-x="1034" 
d="M446 389q-342 0 -342 318v317h86v-317q0 -103 52 -169q51 -65 204 -65q156 0 281 92v459h86v-944h170v-326h-86v246h-170v408l4 69h-4q-50 -36 -135 -62q-84 -26 -146 -26z" />
    <glyph glyph-name="uni04B8" unicode="&#x4b8;" horiz-adv-x="1226" 
d="M532 348v232q-411 2 -411 395v459h88v-445q0 -161 77 -243q76 -80 246 -82v299h84v-295q174 24 304 116v650h88v-1434h-88v625l4 67h-4q-139 -84 -304 -108v-236h-84z" />
    <glyph glyph-name="uni04B9" unicode="&#x4b9;" horiz-adv-x="991" 
d="M438 223v166q-334 1 -334 318v317h86v-317q0 -103 51 -168t197 -66v260h80v-254q117 18 209 86v459h86v-1024h-86v408l4 69h-4q-86 -58 -209 -82v-172h-80z" />
    <glyph glyph-name="uni04BA" unicode="&#x4ba;" horiz-adv-x="1239" 
d="M219 0v1434h88v-535l-4 -68h4q189 111 412 111q387 0 387 -395v-547h-88v532q0 164 -72 245t-227 81q-122 0 -235 -40q-115 -41 -177 -85v-733h-88z" />
    <glyph glyph-name="uni04BB" unicode="&#x4bb;" horiz-adv-x="1200" 
d="M178 0v1434h86v-590l-8 -84h4q34 97 150 193t284 96q188 0 263 -102t75 -298v-649h-86v618q0 67 -4 106q-5 51 -18 92q-16 51 -41 79q-28 31 -75 50q-49 20 -114 20q-178 0 -304 -131q-126 -130 -126 -330v-504h-86z" />
    <glyph glyph-name="uni04BC" unicode="&#x4bc;" horiz-adv-x="1732" 
d="M102 1034q0 86 13 158l18 92h90l-18 -92q-15 -72 -15 -158t47 -144q46 -56 132 -56h30q34 267 207 446q172 178 436 178q252 0 407 -170t155 -479v-57h-1121q-6 -166 42 -300q49 -135 131 -219q81 -83 189 -129q105 -45 218 -45q82 0 164 20q81 20 136 46q51 24 99 54
q38 24 66 46l20 21l49 -76q-1 -1 -5 -5.5t-8.5 -8.5t-8.5 -8q-13 -12 -66 -46q-48 -31 -108 -58q-58 -26 -150 -47q-96 -22 -190 -22q-292 0 -481 201t-189 531v45h-24q-127 0 -195 77q-70 79 -70 205zM492 834h1017q0 144 -46 261t-154 198t-267 81q-223 0 -369 -152
t-181 -388z" />
    <glyph glyph-name="uni04BD" unicode="&#x4bd;" horiz-adv-x="1335" 
d="M92 770q0 78 29 162h86q-31 -74 -31 -156q0 -168 127 -168h21q30 203 169 323q137 118 322 118q197 0 308 -135q110 -134 110 -332l-4 -56h-821q0 -215 126 -341t312 -126q86 0 167 32q77 30 113 65l37 32l47 -71q-16 -16 -46 -40q-29 -24 -125 -63q-95 -39 -193 -39
q-222 0 -376 149q-153 148 -153 386v16h-18q-207 0 -207 244zM414 606h729q-7 177 -101 271q-92 92 -229 92q-148 0 -261 -96q-111 -95 -138 -267z" />
    <glyph glyph-name="uni04BE" unicode="&#x4be;" horiz-adv-x="1732" 
d="M102 1034q0 86 13 158l18 92h90l-18 -92q-15 -72 -15 -158t47 -144q46 -56 132 -56h30q34 267 207 446q172 178 436 178q252 0 407 -170t155 -479v-57h-1121q-6 -166 42 -300q49 -135 131 -219q81 -83 189 -129q105 -45 218 -45q82 0 164 20q81 20 136 46q51 24 99 54
q38 24 66 46l20 21l49 -76q-12 -12 -21 -20q-19 -17 -63 -45q-51 -32 -103 -57q-55 -26 -142 -48q-93 -24 -181 -25v-262h-86v264q-270 21 -440 220t-170 510v45h-24q-127 0 -195 77q-70 79 -70 205zM492 834h1017q0 144 -46 261t-154 198t-267 81q-223 0 -369 -152
t-181 -388z" />
    <glyph glyph-name="uni04BF" unicode="&#x4bf;" horiz-adv-x="1337" 
d="M94 770q0 78 29 162h86q-31 -74 -31 -156q0 -168 127 -168h21q30 203 169 323q137 118 322 118q197 0 308 -135q110 -134 110 -332l-4 -56h-821q0 -215 126 -341t312 -126q86 0 167 32q75 30 115 65l35 32l47 -71q-16 -16 -46 -40q-29 -24 -125 -63q-95 -39 -193 -39h-4
v-221h-86v230q-190 28 -315 171q-124 142 -124 355v16h-18q-207 0 -207 244zM416 606h729q-7 177 -101 271q-92 92 -229 92q-148 0 -261 -96q-111 -95 -138 -267z" />
    <glyph glyph-name="uni04C0" unicode="&#x4c0;" horiz-adv-x="526" 
d="M219 0v1434h88v-1434h-88z" />
    <glyph glyph-name="uni04C1" unicode="&#x4c1;" horiz-adv-x="1677" 
d="M53 0l441 754v4l-412 676h102l385 -639h226v639h88v-639h225l385 639h102l-411 -676v-4l440 -754h-102l-414 713h-225v-713h-88v713h-226l-413 -713h-103zM838 1503q-97 0 -170 61q-72 60 -72 162v37h86v-30q0 -70 45 -109t111 -39q64 0 110 40q47 41 47 110v28h84v-37
q0 -103 -71 -162q-73 -61 -170 -61z" />
    <glyph glyph-name="uni04C2" unicode="&#x4c2;" horiz-adv-x="1417" 
d="M47 0l361 522v4l-326 498h100l299 -459h185v459h86v-459h184l299 459h100l-325 -498v-4l360 -522h-108l-330 485h-180v-485h-86v485h-181l-329 -485h-109zM709 1174q-98 0 -170 60t-72 163v37h86v-31q0 -70 45 -109t111 -39q64 0 110 40q47 41 47 110v29h84v-37
q0 -104 -71 -163q-72 -60 -170 -60z" />
    <glyph glyph-name="uni04C3" unicode="&#x4c3;" horiz-adv-x="1220" 
d="M219 0v1434h88v-639h266l410 639h107l-424 -662q112 -26 199 -80q86 -53 129 -109q47 -61 72 -127q28 -74 34 -119q6 -48 6 -97q0 -287 -134 -438q-134 -150 -333 -150v80q157 0 268 121t111 387q0 249 -157 361t-398 112h-156v-713h-88z" />
    <glyph glyph-name="uni04C4" unicode="&#x4c4;" horiz-adv-x="987" 
d="M178 0v1024h86v-457h174l340 457h109l-355 -465v-4q353 -86 353 -467q0 -342 -285 -508l-45 74q240 124 240 434q0 206 -115 303q-114 96 -313 96h-103v-487h-86z" />
    <glyph glyph-name="uni04C5" unicode="&#x4c5;" horiz-adv-x="1370" 
d="M18 70q110 15 180 99q73 86 110 242q37 152 52 340q15 183 15 439v244h741v-1352h184v-68l-122 -301h-82l100 287h-168v1352h-567v-162q0 -185 -6 -323q-6 -131 -23 -279q-16 -140 -47 -241q-29 -94 -79 -181q-48 -82 -120 -127q-71 -44 -168 -55v86z" />
    <glyph glyph-name="uni04C6" unicode="&#x4c6;" horiz-adv-x="1081" 
d="M41 -8v80q139 22 199 183q59 158 59 464v305h573v-946h144v-68l-105 -256h-77l86 246h-134v944h-401v-225q0 -367 -84 -537q-84 -169 -260 -190z" />
    <glyph glyph-name="uni04C7" unicode="&#x4c7;" horiz-adv-x="1523" 
d="M219 0v1434h88v-674h910v674h88v-1403q0 -96 -26 -169q-26 -74 -60 -112q-33 -37 -84 -62q-50 -24 -86 -30q-37 -6 -76 -6v80q41 0 74 10q32 10 76 38q42 27 68 92q26 66 26 157v649h-910v-678h-88z" />
    <glyph glyph-name="uni04C8" unicode="&#x4c8;" horiz-adv-x="1200" 
d="M178 0v1024h86v-457h670v457h88v-956q0 -203 -77 -310q-75 -105 -208 -178l-45 74q242 113 242 414v419h-670v-487h-86z" />
    <glyph glyph-name="uni04C9" unicode="&#x4c9;" horiz-adv-x="1558" 
d="M219 0v1434h88v-674h910v674h88v-1352h184v-68l-123 -301h-82l100 287h-167v678h-910v-678h-88z" />
    <glyph glyph-name="uni04CA" unicode="&#x4ca;" horiz-adv-x="1228" 
d="M178 0v1024h86v-457h670v457h86v-946h143v-68l-104 -256h-78l86 246h-133v487h-670v-487h-86z" />
    <glyph glyph-name="uni04CB" unicode="&#x4cb;" horiz-adv-x="1228" 
d="M545 580q-422 0 -422 395v459h88v-445q0 -165 79 -245t255 -80q105 0 209 37t168 83v650h88v-1434h-179v-287h-86v369h177v543l4 67h-4q-191 -112 -377 -112z" />
    <glyph glyph-name="uni04CC" unicode="&#x4cc;" horiz-adv-x="1007" 
d="M590 80h153v325l5 70h-5q-55 -35 -150 -60q-96 -26 -161 -26q-172 0 -250 86q-78 85 -78 232v317h86v-317q0 -100 51 -168q49 -66 191 -66q90 0 176 30q89 31 135 62v459h86v-1024h-153v-246h-86v326z" />
    <glyph glyph-name="uni04CD" unicode="&#x4cd;" horiz-adv-x="1742" 
d="M164 0l115 1434h86l417 -902l70 -161h4q42 102 70 161l417 902h87l108 -1352h180v-68l-123 -301h-82l101 287h-158l-88 1094l-6 190h-4q-39 -116 -74 -190l-385 -818h-90l-383 818l-76 194h-4q0 -125 -6 -194l-88 -1094h-88z" />
    <glyph glyph-name="uni04CE" unicode="&#x4ce;" horiz-adv-x="1474" 
d="M139 0l82 1024h82l346 -678l70 -149h4q28 66 70 149l348 678h82l75 -946h140v-68l-105 -256h-78l86 246h-122l-58 711l-2 176h-4q-21 -57 -68 -148l-321 -626h-88l-322 622l-67 152h-4q2 -136 -2 -176l-58 -711h-86z" />
    <glyph glyph-name="uni04CF" unicode="&#x4cf;" horiz-adv-x="442" 
d="M178 0v1434h86v-1434h-86z" />
    <glyph glyph-name="uni04D0" unicode="&#x4d0;" horiz-adv-x="1277" 
d="M55 0l537 1434h94l537 -1434h-95l-186 496h-608l-184 -496h-95zM365 578h546l-217 581l-53 172h-4q-28 -104 -53 -172zM639 1503q-97 0 -170 61q-72 60 -72 162v37h86v-30q0 -70 45 -109t111 -39q65 0 111 40q47 41 47 110v28h84v-37q0 -102 -72 -162q-73 -61 -170 -61z
" />
    <glyph glyph-name="uni04D1" unicode="&#x4d1;" horiz-adv-x="1042" 
d="M86 272q0 72 27 129q29 60 65 94q37 34 102 62q64 28 113 39q47 11 123 19q72 7 111 9q26 1 94 1h67v34q0 306 -280 306q-164 0 -293 -99l-49 70q63 53 153 82q98 31 193 31q178 0 270 -99q92 -100 92 -288v-662h-86v135l9 92h-4q-40 -105 -137 -179q-96 -73 -222 -73
q-138 0 -244 77q-104 76 -104 220zM176 279q0 -88 70 -156t192 -68q158 0 254 134q96 133 96 300v56h-65q-76 0 -103 -1q-56 -2 -115 -8q-77 -8 -123 -25t-100 -45q-51 -26 -79 -76q-27 -48 -27 -111zM530 1174q-98 0 -170 60q-71 59 -71 163v37h86v-31q0 -70 45 -109
t110 -39t111 40q47 41 47 110v29h84v-37q0 -103 -72 -163t-170 -60z" />
    <glyph glyph-name="uni04D2" unicode="&#x4d2;" horiz-adv-x="1277" 
d="M55 0l537 1434h94l537 -1434h-95l-186 496h-608l-184 -496h-95zM365 578h546l-217 581l-53 172h-4q-28 -104 -53 -172zM733 1614v149h94v-149h-94zM453 1614v149h94v-149h-94z" />
    <glyph glyph-name="uni04D3" unicode="&#x4d3;" horiz-adv-x="1042" 
d="M86 272q0 72 27 129q29 60 65 94q37 34 102 62q64 28 113 39q47 11 123 19q72 7 111 9q26 1 94 1h67v34q0 306 -280 306q-164 0 -293 -99l-49 70q63 53 153 82q98 31 193 31q178 0 270 -99q92 -100 92 -288v-662h-86v135l9 92h-4q-40 -105 -137 -179q-96 -73 -222 -73
q-138 0 -244 77q-104 76 -104 220zM176 279q0 -88 70 -156t192 -68q158 0 254 134q96 133 96 300v56h-65q-76 0 -103 -1q-56 -2 -115 -8q-77 -8 -123 -25t-100 -45q-51 -26 -79 -76q-27 -48 -27 -111zM608 1284v150h94v-150h-94zM328 1284v150h94v-150h-94z" />
    <glyph glyph-name="uni04D4" unicode="&#x4d4;" horiz-adv-x="1685" 
d="M43 0l588 1434h919v-82h-696v-588h571v-82h-571v-600h735v-82h-823v682h-350l-279 -682h-94zM451 764h315v588h-74z" />
    <glyph glyph-name="uni04D5" unicode="&#x4d5;" horiz-adv-x="1781" 
d="M88 272q0 68 23 125t56 90q37 37 89 61q58 27 103 38t120 19q57 6 116 8q29 1 112 1h81v45q0 306 -288 306q-158 0 -285 -99l-49 70q61 54 151 83q91 30 187 30q295 0 352 -240h4q128 240 406 240q197 0 305 -131t108 -326q0 -28 -4 -57h-801q0 -226 116 -351t302 -125
q189 0 318 129l47 -71q-69 -64 -167 -103q-99 -39 -198 -39q-158 0 -282 83q-123 82 -179 231h-4q-6 -31 -27 -74q-17 -36 -64 -101q-42 -58 -120 -99q-77 -40 -176 -40q-149 0 -251 78q-101 77 -101 219zM883 614h706q-8 177 -102 265t-227 88q-148 0 -250 -90
q-103 -91 -127 -263zM178 279q0 -91 70 -158q69 -66 192 -66q158 0 253 134t95 300v46h-141q-52 0 -122 -4q-59 -3 -123 -17q-72 -15 -114 -40q-43 -25 -77 -76q-33 -50 -33 -119z" />
    <glyph glyph-name="uni04D6" unicode="&#x4d6;" horiz-adv-x="1138" 
d="M219 0v1434h785v-82h-697v-588h572v-82h-572v-600h735v-82h-823zM621 1503q-97 0 -170 61q-72 60 -72 162v37h86v-30q0 -70 45 -109t111 -39q64 0 110 40q47 41 47 110v28h84v-37q0 -103 -71 -162q-73 -61 -170 -61z" />
    <glyph glyph-name="uni04D7" unicode="&#x4d7;" horiz-adv-x="1124" 
d="M106 510q0 250 146 394q147 145 352 145q197 0 308 -135q110 -134 110 -332q0 -23 -4 -56h-821q0 -215 126 -341t312 -126q188 0 317 129l47 -71q-70 -65 -166 -103q-99 -39 -198 -39q-222 0 -376 149q-153 148 -153 386zM203 606h729q-7 177 -101 271q-92 92 -229 92
q-148 0 -261 -96q-111 -95 -138 -267zM594 1174q-98 0 -170 60t-72 163v37h86v-31q0 -70 45 -109t111 -39q65 0 111 40q47 41 47 110v29h84v-37q0 -103 -72 -163t-170 -60z" />
    <glyph glyph-name="uni04D8" unicode="&#x4d8;" horiz-adv-x="1470" 
d="M121 702l2 58h1128q0 270 -157 442t-402 172q-87 0 -164 -16q-83 -17 -134 -40q-54 -24 -96 -48q-36 -21 -62 -41l-21 -17l-53 66q7 7 22 19q10 8 65 43q51 32 107 56q54 23 149 43q89 19 189 19q286 0 468 -198q181 -197 181 -533q0 -330 -168 -540q-170 -212 -462 -212
q-270 0 -431 178t-161 549zM215 678q0 -617 516 -617q226 0 371 169t145 448h-1032z" />
    <glyph glyph-name="uni04D9" unicode="&#x4d9;" horiz-adv-x="1128" 
d="M104 475l5 55h821q0 188 -115 312q-114 123 -283 123q-59 0 -121 -14q-65 -15 -102 -31q-38 -17 -72 -38q-36 -23 -49 -34l-14 -12l-47 71q17 16 52 40q36 25 140 63q106 39 216 39q208 0 347 -148q138 -147 138 -387q0 -256 -137 -398q-137 -141 -340 -141
q-213 0 -326 137t-113 363zM195 451q15 -396 350 -396q146 0 258 101q111 100 121 295h-729z" />
    <glyph glyph-name="uni04DA" unicode="&#x4da;" horiz-adv-x="1470" 
d="M825 1614v149h95v-149h-95zM545 1614v149h94v-149h-94zM121 702l2 58h1128q0 270 -157 442t-402 172q-87 0 -164 -16q-83 -17 -134 -40q-54 -24 -96 -48q-36 -21 -62 -41l-21 -17l-53 66q7 7 22 19q10 8 65 43q51 32 107 56q54 23 149 43q89 19 189 19q286 0 468 -198
q181 -197 181 -533q0 -330 -168 -540q-170 -212 -462 -212q-270 0 -431 178t-161 549zM215 678q0 -617 516 -617q226 0 371 169t145 448h-1032z" />
    <glyph glyph-name="uni04DB" unicode="&#x4db;" horiz-adv-x="1128" 
d="M639 1284v150h94v-150h-94zM358 1284v150h95v-150h-95zM104 475l5 55h821q0 188 -115 312q-114 123 -283 123q-59 0 -121 -14q-65 -15 -102 -31q-38 -17 -72 -38q-36 -23 -49 -34l-14 -12l-47 71q17 16 52 40q36 25 140 63q106 39 216 39q208 0 347 -148
q138 -147 138 -387q0 -256 -137 -398q-137 -141 -340 -141q-213 0 -326 137t-113 363zM195 451q15 -396 350 -396q146 0 258 101q111 100 121 295h-729z" />
    <glyph glyph-name="uni04DC" unicode="&#x4dc;" horiz-adv-x="1677" 
d="M934 1614v149h94v-149h-94zM653 1614v149h95v-149h-95zM53 0l441 754v4l-412 676h102l385 -639h226v639h88v-639h225l385 639h102l-411 -676v-4l440 -754h-102l-414 713h-225v-713h-88v713h-226l-413 -713h-103z" />
    <glyph glyph-name="uni04DD" unicode="&#x4dd;" horiz-adv-x="1417" 
d="M801 1284v150h94v-150h-94zM520 1284v150h94v-150h-94zM47 0l361 522v4l-326 498h100l299 -459h185v459h86v-459h184l299 459h100l-325 -498v-4l360 -522h-108l-330 485h-180v-485h-86v485h-181l-329 -485h-109z" />
    <glyph glyph-name="uni04DE" unicode="&#x4de;" horiz-adv-x="1085" 
d="M631 1614v149h94v-149h-94zM350 1614v149h94v-149h-94zM74 152l59 69q62 -71 158 -115q99 -45 203 -45q161 0 271 93q107 91 107 243q0 145 -97 227q-98 83 -243 83h-182v81h146q132 0 229 83q96 83 96 214q0 126 -79 206q-80 81 -238 81q-194 0 -338 -123l-49 76
q163 133 387 133q200 0 304 -100q105 -100 105 -266q0 -126 -64 -206q-65 -82 -159 -122v-4q124 -30 200 -126q75 -94 75 -237q0 -187 -135 -305q-134 -117 -338 -117q-116 0 -235 48q-115 47 -183 129z" />
    <glyph glyph-name="uni04DF" unicode="&#x4df;" horiz-adv-x="882" 
d="M530 1284v150h95v-150h-95zM250 1284v150h94v-150h-94zM70 123l55 65q117 -131 283 -131q109 0 194 59q84 58 84 169q0 100 -74 153q-76 54 -211 54h-122v79h110q121 0 191 51q67 49 67 146q0 98 -65 147q-67 50 -172 50q-146 0 -252 -97l-52 70q128 111 312 111
q142 0 232 -70q89 -69 89 -203q0 -175 -166 -235v-4q95 -21 149 -84t54 -166q0 -147 -108 -230q-107 -82 -260 -82q-193 0 -338 148z" />
    <glyph glyph-name="uni04E0" unicode="&#x4e0;" horiz-adv-x="1056" 
d="M127 182q66 -56 157 -87q93 -32 179 -32q170 0 279 94q108 93 108 240q0 133 -66 207q-65 73 -219 94q-68 9 -303 9v69l438 490l88 88l-2 4q-47 -4 -124 -4h-547v80h794v-62l-471 -526l-55 -53v-5q142 0 201 -8q358 -49 358 -370q0 -188 -132 -310q-130 -120 -347 -120
q-210 0 -383 126z" />
    <glyph glyph-name="uni04E1" unicode="&#x4e1;" horiz-adv-x="968" 
d="M76 -227q67 -56 156 -87q93 -32 180 -32q171 0 279 93t108 241q0 134 -66 207q-65 73 -219 94q-61 8 -303 8v70l438 489l88 88l-2 4q-47 -4 -125 -4h-547v80h795v-61l-471 -527l-55 -53v-4q141 0 200 -8q359 -50 359 -371q0 -188 -132 -309q-131 -121 -347 -121
q-208 0 -383 127z" />
    <glyph glyph-name="uni04E2" unicode="&#x4e2;" horiz-adv-x="1536" 
d="M526 1612v82h490v-82h-490zM219 0v1434h88v-1125l-10 -180h4q62 97 125 186l809 1119h82v-1434h-88v1124l10 181h-4q-74 -117 -119 -181l-815 -1124h-82z" />
    <glyph glyph-name="uni04E3" unicode="&#x4e3;" horiz-adv-x="1196" 
d="M356 1280v82h490v-82h-490zM178 0v1024h86v-729l-6 -166h4q17 23 58.5 82.5t58.5 83.5l559 729h80v-1024h-86v731l6 160h-4q-57 -76 -117 -160l-559 -731h-80z" />
    <glyph glyph-name="uni04E4" unicode="&#x4e4;" horiz-adv-x="1536" 
d="M860 1614v149h94v-149h-94zM580 1614v149h94v-149h-94zM219 0v1434h88v-1125l-10 -180h4q62 97 125 186l809 1119h82v-1434h-88v1124l10 181h-4q-74 -117 -119 -181l-815 -1124h-82z" />
    <glyph glyph-name="uni04E5" unicode="&#x4e5;" horiz-adv-x="1196" 
d="M702 1284v150h95v-150h-95zM422 1284v150h94v-150h-94zM178 0v1024h86v-729l-6 -166h4q17 23 58.5 82.5t58.5 83.5l559 729h80v-1024h-86v731l6 160h-4q-57 -76 -117 -160l-559 -731h-80z" />
    <glyph glyph-name="uni04E6" unicode="&#x4e6;" horiz-adv-x="1691" 
d="M121 727q0 308 209 520q208 211 516 211t516 -211q209 -212 209 -520q0 -316 -209 -534t-516 -218t-516 218t-209 534zM213 727q0 -284 181 -475q182 -193 452 -193q269 0 451 193t182 475q0 275 -182 462q-181 185 -451 185q-271 0 -452 -185t-181 -462zM936 1614v149
h94v-149h-94zM655 1614v149h95v-149h-95z" />
    <glyph glyph-name="uni04E7" unicode="&#x4e7;" horiz-adv-x="1269" 
d="M104 518q0 224 155 377q156 154 376 154t376 -154q154 -153 154 -377q0 -228 -154 -385q-155 -158 -376 -158t-376 158t-155 385zM195 518q0 -194 128 -327q127 -132 312 -132t312 132q128 133 128 327q0 188 -128 318q-127 129 -312 129t-312 -129q-128 -130 -128 -318z
M731 1284v150h94v-150h-94zM451 1284v150h94v-150h-94z" />
    <glyph glyph-name="uni04E8" unicode="&#x4e8;" horiz-adv-x="1691" 
d="M121 727q0 308 209 520q208 211 516 211t516 -211q209 -212 209 -520q0 -316 -209 -534t-516 -218t-516 218t-209 534zM846 59q258 0 438 180q178 178 193 447h-1264q15 -268 194 -447q180 -180 439 -180zM846 1374q-260 0 -438 -172q-179 -173 -195 -434h1264
q-15 261 -193 433q-179 173 -438 173z" />
    <glyph glyph-name="uni04E9" unicode="&#x4e9;" horiz-adv-x="1269" 
d="M104 518q0 224 155 377q156 154 376 154t376 -154q154 -153 154 -377q0 -228 -154 -385q-155 -158 -376 -158t-376 158t-155 385zM635 59q172 0 298 120q125 119 140 298h-878q15 -182 140 -299q127 -119 300 -119zM635 965q-174 0 -300 -117q-125 -116 -140 -291h878
q-15 175 -139 291q-125 117 -299 117z" />
    <glyph glyph-name="uni04EA" unicode="&#x4ea;" horiz-adv-x="1691" 
d="M121 727q0 308 209 520q208 211 516 211t516 -211q209 -212 209 -520q0 -316 -209 -534t-516 -218t-516 218t-209 534zM846 59q258 0 438 180q178 178 193 447h-1264q15 -268 194 -447q180 -180 439 -180zM846 1374q-260 0 -438 -172q-179 -173 -195 -434h1264
q-15 261 -193 433q-179 173 -438 173zM659 1614v149h95v-149h-95zM940 1614v149h94v-149h-94z" />
    <glyph glyph-name="uni04EB" unicode="&#x4eb;" horiz-adv-x="1269" 
d="M104 518q0 224 155 377q156 154 376 154t376 -154q154 -153 154 -377q0 -228 -154 -385q-155 -158 -376 -158t-376 158t-155 385zM635 59q172 0 298 120q125 119 140 298h-878q15 -182 140 -299q127 -119 300 -119zM635 965q-174 0 -300 -117q-125 -116 -140 -291h878
q-15 175 -139 291q-125 117 -299 117zM440 1284v150h95v-150h-95zM721 1284v150h94v-150h-94z" />
    <glyph glyph-name="uni04EC" unicode="&#x4ec;" horiz-adv-x="1468" 
d="M764 1614v149h94v-149h-94zM483 1614v149h95v-149h-95zM86 193l55 61q76 -84 211 -139q136 -56 277 -56q254 0 430 178q175 177 192 441h-862v82h864q-12 266 -188 440q-175 174 -434 174q-265 0 -455 -162l-53 66q91 87 227 133q138 47 279 47q306 0 512 -209
q205 -208 205 -522q0 -316 -205 -533q-207 -219 -512 -219q-149 0 -296 57q-148 57 -247 161z" />
    <glyph glyph-name="uni04ED" unicode="&#x4ed;" horiz-adv-x="1103" 
d="M608 1284v150h94v-150h-94zM328 1284v150h94v-150h-94zM82 135l45 72q128 -148 346 -148q172 0 295 114q122 113 137 298h-563v80h563q-15 187 -138 299q-126 115 -294 115q-181 0 -317 -131l-54 69q64 71 162 108q102 38 207 38q219 0 373 -151q153 -150 153 -388
t-152 -386q-154 -149 -376 -149q-239 0 -387 160z" />
    <glyph glyph-name="uni04EE" unicode="&#x4ee;" horiz-adv-x="1179" 
d="M346 1612v82h490v-82h-490zM184 57l47 70q102 -70 168 -70q70 0 112 54q39 50 85 172l-573 1151h98l434 -873l82 -184h4q12 36 66 184l327 873h96l-481 -1241q-86 -218 -250 -218q-99 0 -215 82z" />
    <glyph glyph-name="uni04EF" unicode="&#x4ef;" horiz-adv-x="1058" 
d="M84 -299q56 -49 127 -49q123 0 201 184l73 170l-424 1018h93l338 -817l36 -96h4q18 56 35 96l338 817h92l-526 -1264q-79 -190 -260 -190q-46 0 -85 14q-44 16 -60 29l-21 14zM285 1280v82h489v-82h-489z" />
    <glyph glyph-name="uni04F0" unicode="&#x4f0;" horiz-adv-x="1179" 
d="M684 1614v149h94v-149h-94zM403 1614v149h95v-149h-95zM184 57l47 70q102 -70 168 -70q70 0 112 54q39 50 85 172l-573 1151h98l434 -873l82 -184h4q12 36 66 184l327 873h96l-481 -1241q-86 -218 -250 -218q-99 0 -215 82z" />
    <glyph glyph-name="uni04F1" unicode="&#x4f1;" horiz-adv-x="1058" 
d="M84 -299q56 -49 127 -49q123 0 201 184l73 170l-424 1018h93l338 -817l36 -96h4q18 56 35 96l338 817h92l-526 -1264q-79 -190 -260 -190q-46 0 -85 14q-44 16 -60 29l-21 14zM623 1284v150h94v-150h-94zM342 1284v150h94v-150h-94z" />
    <glyph glyph-name="uni04F2" unicode="&#x4f2;" horiz-adv-x="1179" 
d="M184 57l47 70q102 -70 168 -70q70 0 112 54q39 50 85 172l-573 1151h98l434 -873l82 -184h4q12 36 66 184l327 873h96l-481 -1241q-86 -218 -250 -218q-99 0 -215 82zM655 1536l138 227h114l-162 -227h-90zM420 1536l127 227h102l-133 -227h-96z" />
    <glyph glyph-name="uni04F3" unicode="&#x4f3;" horiz-adv-x="1058" 
d="M84 -299q56 -49 127 -49q123 0 201 184l73 170l-424 1018h93l338 -817l36 -96h4q18 56 35 96l338 817h92l-526 -1264q-79 -190 -260 -190q-46 0 -85 14q-44 16 -60 29l-21 14zM582 1206l137 228h115l-162 -228h-90zM346 1206l127 228h102l-133 -228h-96z" />
    <glyph glyph-name="uni04F4" unicode="&#x4f4;" horiz-adv-x="1228" 
d="M674 1614v149h94v-149h-94zM393 1614v149h94v-149h-94zM545 580q-422 0 -422 395v459h88v-445q0 -165 79 -245t255 -80q105 0 209 37t168 83v650h88v-1434h-88v625l4 67h-4q-191 -112 -377 -112z" />
    <glyph glyph-name="uni04F5" unicode="&#x4f5;" horiz-adv-x="991" 
d="M569 1284v150h95v-150h-95zM289 1284v150h94v-150h-94zM446 389q-342 0 -342 318v317h86v-317q0 -103 52 -169q51 -65 204 -65q156 0 281 92v459h86v-1024h-86v408l4 69h-4q-50 -36 -135 -62q-84 -26 -146 -26z" />
    <glyph glyph-name="uni04F6" unicode="&#x4f6;" horiz-adv-x="978" 
d="M219 0v1434h723v-82h-635v-1270h176v-369h-86v287h-178z" />
    <glyph glyph-name="uni04F7" unicode="&#x4f7;" horiz-adv-x="815" 
d="M178 0v1024h582v-78h-496v-866h154v-326h-86v246h-154z" />
    <glyph glyph-name="uni04F8" unicode="&#x4f8;" horiz-adv-x="1607" 
d="M899 1614v149h94v-149h-94zM618 1614v149h95v-149h-95zM1300 0v1434h89v-1434h-89zM219 0v1434h88v-615h348q184 0 298 -104q116 -105 116 -307q0 -185 -112 -297q-111 -111 -287 -111h-451zM307 82h355q144 0 230 86q85 85 85 240q0 152 -88 240q-89 89 -230 89h-352
v-655z" />
    <glyph glyph-name="uni04F9" unicode="&#x4f9;" horiz-adv-x="1298" 
d="M739 1284v150h95v-150h-95zM459 1284v150h94v-150h-94zM1034 0v1024h86v-1024h-86zM178 0v1024h86v-410h236q69 0 122 -14q58 -15 109 -46q54 -33 84 -95q31 -65 31 -154q0 -139 -89 -222t-261 -83h-318zM264 80h232q260 0 260 225q0 230 -256 230h-236v-455z" />
    <glyph glyph-name="uni0524" unicode="&#x524;" horiz-adv-x="1546" 
d="M219 0v1434h1065v-1352h176v-369h-86v287h-178v1352h-889v-1352h-88z" />
    <glyph glyph-name="uni0525" unicode="&#x525;" horiz-adv-x="1210" 
d="M178 0v1024h821v-944h154v-326h-86v246h-154v944h-649v-944h-86z" />
    <glyph glyph-name="uni1E9E" unicode="&#x1e9e;" horiz-adv-x="1343" 
d="M207 0v1075q0 150 104 254q105 105 254 105h613v-62l-355 -495l-55 -74v-4h74q164 0 279 -117q116 -118 116 -281q0 -164 -116 -283q-115 -118 -279 -118h-350v82h346q130 0 219 93q88 92 88 226q0 133 -87 224q-87 92 -216 92h-191v65l320 451l90 119v4q-11 -4 -86 -4
h-397q-123 0 -203 -80t-80 -197v-1075h-88z" />
    <glyph glyph-name="thinspace" unicode="&#x2009;" horiz-adv-x="20" 
 />
    <glyph glyph-name="endash" unicode="&#x2013;" horiz-adv-x="1294" 
d="M160 539v82h975v-82h-975z" />
    <glyph glyph-name="emdash" unicode="&#x2014;" horiz-adv-x="1703" 
d="M160 539v82h1384v-82h-1384z" />
    <glyph glyph-name="quoteleft" unicode="&#x2018;" horiz-adv-x="466" 
d="M152 1141l98 309h80l-72 -309h-106z" />
    <glyph glyph-name="quoteright" unicode="&#x2019;" horiz-adv-x="458" 
d="M156 1141l71 309h107l-98 -309h-80z" />
    <glyph glyph-name="quotesinglbase" unicode="&#x201a;" horiz-adv-x="499" 
d="M137 -184l72 309h106l-98 -309h-80z" />
    <glyph glyph-name="quotedblleft" unicode="&#x201c;" horiz-adv-x="671" 
d="M356 1141l99 309h80l-72 -309h-107zM152 1141l98 309h80l-72 -309h-106z" />
    <glyph glyph-name="quotedblright" unicode="&#x201d;" horiz-adv-x="663" 
d="M360 1141l72 309h107l-99 -309h-80zM156 1141l71 309h107l-98 -309h-80z" />
    <glyph glyph-name="quotedblbase" unicode="&#x201e;" horiz-adv-x="704" 
d="M342 -184l72 309h106l-98 -309h-80zM137 -184l72 309h106l-98 -309h-80z" />
    <glyph glyph-name="dagger" unicode="&#x2020;" horiz-adv-x="776" 
d="M340 -102v1044h-234v82h234v410h86v-410h244v-82h-244v-1044h-86z" />
    <glyph glyph-name="daggerdbl" unicode="&#x2021;" horiz-adv-x="825" 
d="M131 381v82h234v479h-234v82h234v410h86v-410h243v-82h-243v-479h243v-82h-243v-483h-86v483h-234z" />
    <glyph glyph-name="bullet" unicode="&#x2022;" horiz-adv-x="909" 
d="M455 326q-114 0 -192 78q-79 79 -79 192q0 112 79 191t192 79q112 0 191 -79t79 -191q0 -113 -79 -192q-78 -78 -191 -78z" />
    <glyph glyph-name="ellipsis" unicode="&#x2026;" horiz-adv-x="1316" 
d="M1032 0v129h125v-129h-125zM596 0v129h125v-129h-125zM160 0v129h125v-129h-125z" />
    <glyph glyph-name="perthousand" unicode="&#x2030;" horiz-adv-x="2037" 
d="M389 924q-111 0 -188 77q-78 78 -78 189q0 110 78 189t188 79q111 0 190 -79q78 -78 78 -189q0 -112 -78 -189t-190 -77zM119 0l1087 1434h107l-1088 -1434h-106zM389 1006q75 0 128 53q52 52 52 131t-52 132q-53 54 -128 54q-76 0 -127 -54t-51 -132q0 -79 51 -131
q51 -53 127 -53zM1425 242q0 110 78 189t189 79q110 0 189 -79t79 -189q0 -111 -79 -189t-189 -78q-111 0 -189 78t-78 189zM770 242q0 110 78 189t188 79q111 0 190 -79t79 -189q0 -111 -79 -189q-80 -78 -190 -78t-188 78t-78 189zM1513 242q0 -77 52 -131t127 -54
q74 0 128 54q52 52 52 131t-52 132q-52 54 -128 54t-127 -54q-52 -55 -52 -132zM858 242q0 -78 51 -131q52 -54 127 -54q74 0 128 54q53 53 53 131q0 77 -53 132q-52 54 -128 54t-127 -54t-51 -132z" />
    <glyph glyph-name="guilsinglleft" unicode="&#x2039;" horiz-adv-x="684" 
d="M449 158l-336 420l336 421h108l-336 -421l336 -420h-108z" />
    <glyph glyph-name="guilsinglright" unicode="&#x203a;" horiz-adv-x="684" 
d="M127 158l336 420l-336 421h109l335 -421l-335 -420h-109z" />
    <glyph glyph-name="fraction" unicode="&#x2044;" horiz-adv-x="307" 
d="M-143 0h-90l688 1434h88z" />
    <glyph glyph-name="zerosuperior" unicode="&#x2070;" 
d="M385 846q-303 0 -303 465t303 465t303 -465t-303 -465zM385 920q223 0 223 391t-223 391t-223 -391t223 -391z" />
    <glyph glyph-name="foursuperior" unicode="&#x2074;" 
d="M492 866v248h-441v53l455 588h63v-567h140v-74h-140v-248h-77zM164 1188h328v301l6 133h-4q-34 -56 -72 -102l-258 -328v-4z" />
    <glyph glyph-name="fivesuperior" unicode="&#x2075;" 
d="M358 846q-169 0 -264 143l66 43q29 -52 84 -82t114 -30q97 0 163 63q67 64 67 158q0 89 -68 155t-162 66q-89 0 -165 -55l-54 20l54 428h421v-74h-356l-20 -186l-15 -88h4q63 29 133 29q131 0 220 -86q88 -85 88 -209q0 -123 -90 -209q-91 -86 -220 -86z" />
    <glyph glyph-name="sixsuperior" unicode="&#x2076;" 
d="M406 846q-146 0 -229 116t-83 291q0 84 22 177q21 88 64 167q44 79 120 129q77 50 175 50q86 0 170 -41l-39 -66q-57 33 -133 33q-123 0 -201 -107t-96 -258h4q35 44 100 71q67 28 126 28q123 0 202 -79q80 -80 80 -208q0 -143 -81 -223q-82 -80 -201 -80zM406 920
q95 0 148 65q54 66 54 164q0 97 -57 155t-148 58q-87 0 -156 -51t-69 -109q0 -98 65 -190t163 -92z" />
    <glyph glyph-name="sevensuperior" unicode="&#x2077;" 
d="M156 866l356 682l76 133v5q-45 -5 -113 -5h-364v74h571v-53l-438 -836h-88z" />
    <glyph glyph-name="eightsuperior" unicode="&#x2078;" 
d="M385 846q-120 0 -211 73q-90 72 -90 199q0 63 34 119q36 59 64 83q27 23 60 42q-113 74 -113 190q0 104 79 164q80 60 187 60q108 0 189 -61q80 -60 80 -169q0 -60 -30 -120q-32 -63 -52 -85q-23 -24 -41 -41q137 -83 137 -202q0 -105 -85 -178q-86 -74 -208 -74z
M477 1333q107 99 107 213q0 75 -57 115q-58 41 -134 41t-130 -39t-54 -111q0 -26 7 -46q8 -23 25 -40q22 -22 32 -31q15 -13 45 -30q34 -19 49 -25q36 -15 56 -23q10 -4 54 -24zM385 920q81 0 147 51t66 125q0 37 -16 66q-15 27 -52 53q-36 25 -64 39q-40 20 -82 38
q-58 25 -81 37q-139 -88 -139 -211q0 -91 65 -144q66 -54 156 -54z" />
    <glyph glyph-name="ninesuperior" unicode="&#x2079;" 
d="M125 887l39 65q51 -32 133 -32q123 0 201 106t96 258h-4q-35 -44 -100 -71t-125 -27q-124 0 -203 79q-80 80 -80 208q0 143 81 223q82 80 202 80q145 0 228 -116t83 -292q0 -83 -22 -176q-21 -90 -64 -168q-44 -80 -120 -129t-175 -49q-93 0 -170 41zM367 1260
q87 0 156 51t69 108q0 99 -65 191t-162 92q-95 0 -149 -66t-54 -163t57 -155t148 -58z" />
    <glyph glyph-name="zeroinferior" unicode="&#x2080;" 
d="M385 -342q-303 0 -303 465t303 465t303 -465t-303 -465zM385 -268q223 0 223 391t-223 391t-223 -391t223 -391z" />
    <glyph glyph-name="oneinferior" unicode="&#x2081;" 
d="M170 -322v74h197v666l2 45h-2q-6 -13 -48 -55l-90 -89l-53 56l191 192h77v-815h191v-74h-465z" />
    <glyph glyph-name="twoinferior" unicode="&#x2082;" 
d="M111 -322q-5 42 -5 56q0 78 34 142q35 66 84 106q47 39 109 83q35 25 108 76q48 34 84 85q34 49 34 110q0 74 -52 126t-134 52q-109 0 -193 -102l-49 53q38 51 103 87q66 36 139 36q126 0 196 -73t70 -179q0 -86 -46 -151q-47 -67 -112 -111q-66 -45 -132 -87
q-67 -43 -113 -102q-49 -63 -50 -133h469v-74h-544z" />
    <glyph glyph-name="threeinferior" unicode="&#x2083;" 
d="M367 -344q-84 0 -159 34q-80 36 -124 99l57 53q29 -44 92 -79q59 -33 136 -33q79 0 145 60t66 147t-67 142q-66 54 -153 54h-65l-23 49l222 260l51 52v4q-37 -6 -78 -6h-336v73h522v-53l-262 -307q102 -7 187 -72q81 -62 81 -196q0 -116 -87 -199q-86 -82 -205 -82z" />
    <glyph glyph-name="fourinferior" unicode="&#x2084;" 
d="M492 -322v248h-441v54l455 587h63v-567h140v-74h-140v-248h-77zM164 0h328v301l6 133h-4q-34 -56 -72 -102l-258 -328v-4z" />
    <glyph glyph-name="fiveinferior" unicode="&#x2085;" 
d="M360 -342q-169 0 -264 143l66 43q29 -52 84 -82q56 -30 114 -30q97 0 163 63q67 64 67 158q0 90 -68 156q-66 65 -162 65q-89 0 -165 -55l-54 20l54 428h421v-73h-356l-20 -187l-15 -88h4q63 29 133 29q131 0 220 -86q88 -85 88 -209q0 -123 -90 -209q-91 -86 -220 -86z
" />
    <glyph glyph-name="sixinferior" unicode="&#x2086;" 
d="M406 -342q-146 0 -229 116t-83 292q0 83 22 176q21 90 64 168q44 80 120 129t175 49q86 0 170 -41l-39 -66q-57 33 -133 33q-123 0 -201 -106t-96 -258h4q33 42 100 70t126 28q123 0 202 -79q80 -80 80 -208q0 -143 -81 -223q-82 -80 -201 -80zM406 -268q95 0 148 65
q54 66 54 164q0 97 -57 155t-148 58q-87 0 -156 -51t-69 -109q0 -98 65 -190t163 -92z" />
    <glyph glyph-name="seveninferior" unicode="&#x2087;" 
d="M156 -324l356 682l76 134v4q-36 -4 -113 -4h-364v73h571v-53l-438 -836h-88z" />
    <glyph glyph-name="eightinferior" unicode="&#x2088;" 
d="M385 -340q-120 0 -211 73q-90 72 -90 199q0 63 34 119q36 59 64 83q27 23 60 42q-113 74 -113 191q0 103 79 163t187 60t189 -61q80 -60 80 -169q0 -59 -30 -119q-32 -63 -52 -85q-23 -24 -41 -41q137 -83 137 -203q0 -105 -85 -178q-86 -74 -208 -74zM477 147
q107 99 107 213q0 75 -57 115q-58 41 -134 41t-130 -39t-54 -110q0 -26 7 -46q8 -23 25 -40l32 -32q15 -13 45 -30q27 -15 49 -24q2 -1 21.5 -9.5t34.5 -14.5q10 -4 54 -24zM385 -266q81 0 147 51t66 125q0 37 -16 66t-52 54t-64 39q-26 13 -82 37q-58 25 -81 37
q-139 -88 -139 -211q0 -91 65 -144q66 -54 156 -54z" />
    <glyph glyph-name="nineinferior" unicode="&#x2089;" 
d="M125 -301l39 65q51 -32 133 -32q123 0 201 106t96 258h-4q-33 -42 -100 -70t-125 -28q-124 0 -203 79q-80 80 -80 208q0 143 81 223q82 80 202 80q145 0 228 -116t83 -292q0 -83 -22 -176q-21 -90 -64 -168q-44 -80 -120 -129t-175 -49q-93 0 -170 41zM367 72
q87 0 156 51t69 108q0 99 -65 191t-162 92q-96 0 -149 -65q-54 -66 -54 -164q0 -97 57 -155t148 -58z" />
    <glyph glyph-name="Euro" unicode="&#x20ac;" horiz-adv-x="1146" 
d="M55 559v82h111q-4 25 -4 87q0 58 6 95h-113v82h127q57 244 245 399q187 154 437 154q102 0 183 -22l-21 -86q-72 22 -162 22q-217 0 -375 -128q-157 -128 -213 -339h672l-16 -82h-672q-15 -78 -4 -182h643l-14 -82h-617q47 -221 209 -359q163 -139 387 -139q100 0 180 27
l25 -84q-87 -29 -205 -29q-258 0 -448 163q-191 164 -240 421h-121z" />
    <glyph glyph-name="numero" unicode="&#x2116;" horiz-adv-x="2078" 
d="M205 0v1434h82l817 -1125l117 -180h4q-11 113 -11 180v1125h89v-1434h-82l-818 1124l-116 181h-4q10 -103 10 -181v-1124h-88zM1464 983q0 104 73 177t177 73q103 0 178 -73q74 -72 74 -177q0 -108 -74 -182t-178 -74q-105 0 -177 74q-73 75 -73 182zM1546 983
q0 -77 49 -127q49 -51 119 -51q72 0 121 51q49 50 49 127q0 74 -49 122t-121 48q-70 0 -119 -48t-49 -122zM1483 498v75h463v-75h-463z" />
    <glyph glyph-name="trademark" unicode="&#x2122;" horiz-adv-x="1986" 
d="M956 541l72 893h72l258 -553l28 -82h5q12 46 28 82l258 553h72l72 -893h-78l-57 671l2 58h-5l-260 -561h-69l-260 561h-4l2 -58l-58 -671h-78zM463 541v815h-328v78h737v-78h-329v-815h-80z" />
    <glyph glyph-name="minus" unicode="&#x2212;" horiz-adv-x="1146" 
d="M66 539v82h1015v-82h-1015z" />
    <glyph glyph-name="infinity" unicode="&#x221e;" horiz-adv-x="942" 
d="M471 377q-140 0 -239 99t-99 239q0 138 99 237t239 99q139 0 238 -99q98 -98 98 -237q0 -141 -98 -239q-99 -99 -238 -99z" />
    <glyph glyph-name="approxequal" unicode="&#x2248;" horiz-adv-x="1146" 
d="M133 657l-51 62q130 135 289 135q101 0 220 -72q117 -71 185 -71q124 0 238 114l51 -61q-130 -135 -289 -135q-103 0 -220 71q-118 72 -185 72q-123 0 -238 -115zM133 330l-51 61q130 135 289 135q103 0 220 -71q119 -72 185 -72q123 0 238 115l51 -62
q-130 -135 -289 -135q-102 0 -220 72q-117 71 -185 71q-124 0 -238 -114z" />
    <glyph glyph-name="notequal" unicode="&#x2260;" horiz-adv-x="1146" 
d="M223 188l139 187h-258v82h320l186 245h-506v82h568l184 244l68 -51l-146 -193h260v-82h-321l-187 -245h508v-82h-569l-178 -238z" />
    <glyph glyph-name="lessequal" unicode="&#x2264;" horiz-adv-x="1146" 
d="M111 543v73l899 404v-98l-772 -340v-4l772 -340v-99zM111 -231h899v-82h-899v82z" />
    <glyph glyph-name="greaterequal" unicode="&#x2265;" horiz-adv-x="1146" 
d="M137 139v99l772 340v4l-772 340v98l899 -404v-73zM135 -231h899v-82h-899v82z" />
    <glyph glyph-name="commaaccent" unicode="&#xf6c3;" horiz-adv-x="686" 
d="M291 -135h98q12 -53 12 -96q0 -77 -45 -179h-80q37 95 37 160q0 56 -22 115z" />
    <glyph glyph-name="cyrbreve" unicode="&#xf6d4;" horiz-adv-x="565" 
d="M283 1503q-97 0 -170 61q-72 60 -72 162v37h86v-30q0 -70 45 -109t111 -39q64 0 110 40q47 41 47 110v28h84v-37q0 -103 -71 -162q-73 -61 -170 -61z" />
    <glyph glyph-name="apple" unicode="&#xf8ff;" horiz-adv-x="2314" 
d="M344 -10v311l-258 148v569l258 145v310l543 290l274 -145l271 145l542 -290v-310l254 -145v-569l-254 -148v-311l-542 -289l-271 145l-274 -145zM426 61l487 -258l248 136l242 -136l487 258v285l234 131v510l-234 135v279l-487 258l-242 -131l-248 131l-487 -258v-279
l-233 -135v-510l233 -131v-285zM496 131v248l-203 123v461l203 118v252l440 234l225 -121l219 121l439 -234v-252l204 -118v-461l-204 -123v-248l-439 -233l-219 118l-225 -118zM915 186h89v467h466v82h-466v393h407q35 0 47 -13t12 -46v-86h86v111q0 63 -26 89
q-27 27 -92 27h-656v-82h133v-942z" />
    <glyph glyph-name="zero.tnum" horiz-adv-x="1146" 
d="M573 -25q-483 0 -483 742q0 741 483 741q484 0 484 -741q0 -742 -484 -742zM573 61q110 0 190 50q78 49 122 141q43 89 61 205q19 119 19 260q0 655 -392 655q-391 0 -391 -655q0 -141 19 -260q18 -116 61 -205q44 -92 122 -141q80 -50 189 -50z" />
    <glyph glyph-name="one.tnum" horiz-adv-x="1146" 
d="M229 0v82h326v1167l2 72h-4q-15 -27 -76 -88l-170 -170l-61 59l309 312h88v-1352h318v-82h-732z" />
    <glyph glyph-name="two.tnum" horiz-adv-x="1146" 
d="M135 0q-6 40 -6 76q0 100 42 187q42 88 110 151q73 68 149 122q30 22 85.5 60t77.5 54q81 57 148 115q68 59 110 135t42 165q0 133 -91 220q-92 87 -243 87q-107 0 -198 -56q-92 -57 -150 -149l-66 45q62 110 174 178q111 68 242 68q200 0 312 -115t112 -278
q0 -116 -56 -213q-56 -98 -142 -164q-95 -73 -183 -136q-38 -27 -103 -74t-80 -58q-83 -59 -141 -150q-57 -89 -57 -188h785v-82h-873z" />
    <glyph glyph-name="three.tnum" horiz-adv-x="1146" 
d="M113 174l65 66q67 -76 171 -127q106 -52 214 -52q142 0 251 100q108 99 108 253q0 160 -114 251q-113 91 -269 91h-99l-24 61l401 469l64 66v4q-35 -4 -111 -4h-588v82h822v-62l-463 -534q71 0 148 -20t152 -64q78 -46 125 -133q48 -89 48 -207q0 -183 -134 -311
t-321 -128q-119 0 -241 54q-113 50 -205 145z" />
    <glyph glyph-name="four.tnum" horiz-adv-x="1146" 
d="M49 410v61l744 963h81v-942h213v-82h-213v-410h-88v410h-737zM172 492h614v671l7 129h-5q-42 -62 -71 -98l-545 -698v-4z" />
    <glyph glyph-name="five.tnum" horiz-adv-x="1146" 
d="M129 182l72 56q115 -177 331 -177q169 0 283 108q115 109 115 267q0 162 -115 271q-114 108 -283 108q-159 0 -278 -86l-66 23l82 682h666v-82h-588l-51 -428l-14 -88h4q99 65 245 65q206 0 348 -135t142 -330q0 -193 -143 -326q-146 -135 -347 -135q-120 0 -230 55
q-108 54 -173 152z" />
    <glyph glyph-name="six.tnum" horiz-adv-x="1146" 
d="M111 643q0 144 35 278q35 135 106 261q69 122 192 199q124 77 281 77q135 0 252 -57l-43 -80q-90 51 -215 51q-157 0 -274 -101q-118 -102 -175 -247q-56 -144 -67 -311h4q61 91 169 143q111 53 236 53q192 0 317 -125q124 -124 124 -338q0 -216 -128 -344
q-127 -127 -313 -127q-228 0 -365 193q-136 191 -136 475zM623 61q151 0 244 110q94 111 94 280q0 171 -98 272q-97 100 -255 100q-154 0 -275 -88q-122 -89 -122 -217q0 -56 26 -132q25 -74 72 -148q46 -73 130 -125t184 -52z" />
    <glyph glyph-name="seven.tnum" horiz-adv-x="1146" 
d="M274 0l598 1219l76 133v4q-36 -4 -112 -4h-697v82h908v-62l-680 -1372h-93z" />
    <glyph glyph-name="eight.tnum" horiz-adv-x="1146" 
d="M98 399q0 84 31 163q29 74 78 128q47 51 81 78q36 28 64 45q-184 112 -184 291q0 149 112 252q111 102 310 102q198 0 311 -100q115 -101 115 -260q0 -95 -43 -188q-45 -97 -80 -141q-36 -44 -72 -79q213 -118 213 -307q0 -170 -134 -289t-327 -119q-186 0 -331 116
q-144 115 -144 308zM739 729q185 174 185 363q0 126 -93 204q-91 76 -241 76q-153 0 -241 -76q-89 -77 -89 -188q0 -61 26 -110q25 -47 84 -88q51 -35 103 -63q51 -27 136 -62q77 -32 130 -56zM190 406q0 -151 115 -248t264 -97q144 0 259 92q114 91 114 224q0 63 -29 115
t-88 90q-61 40 -111 64q-46 22 -142 63q-113 48 -136 59q-27 -14 -62 -40q-28 -21 -80 -71q-46 -45 -75 -111q-29 -67 -29 -140z" />
    <glyph glyph-name="nine.tnum" horiz-adv-x="1146" 
d="M168 33l43 80q92 -52 211 -52q158 0 276 102q119 103 176 246q58 145 68 312h-4q-61 -91 -169 -143q-113 -54 -237 -54q-191 0 -316 125q-124 124 -124 332q0 223 127 350t313 127q232 0 367 -192t135 -478q0 -140 -36 -276q-36 -137 -105 -260t-194 -200t-281 -77
q-134 0 -250 58zM537 610q160 0 278 91q119 92 119 194q0 165 -115 322q-113 155 -284 155q-161 0 -256 -108q-95 -109 -95 -283q0 -169 98 -270t255 -101z" />
    <glyph glyph-name="hyphen.case" horiz-adv-x="884" 
d="M160 674v82h565v-82h-565z" />
    <glyph glyph-name="parenleft.case" horiz-adv-x="540" 
d="M352 -133q-225 396 -225 881q0 426 225 798h90q-231 -388 -231 -801q0 -473 231 -878h-90z" />
    <glyph glyph-name="parenright.case" horiz-adv-x="540" 
d="M98 -133q232 407 232 878q0 411 -232 801h90q226 -374 226 -798q0 -486 -226 -881h-90z" />
    <glyph glyph-name="bracketleft.case" horiz-adv-x="542" 
d="M201 -133v1679h221v-82h-133v-1515h133v-82h-221z" />
    <glyph glyph-name="bracketright.case" horiz-adv-x="542" 
d="M121 -51h133v1515h-133v82h221v-1679h-221v82z" />
    <glyph glyph-name="braceleft.case" horiz-adv-x="667" 
d="M270 242v192q0 93 -44 160q-43 66 -130 84v82q84 18 129 83q45 64 45 161v165q0 121 33 204t84 116q48 31 88 44q34 11 74 11h18v-80h-12q-25 0 -52 -8q-24 -7 -63 -35q-36 -26 -59 -91q-23 -66 -23 -159v-190q0 -87 -42 -156q-43 -70 -119 -104v-4q161 -66 161 -260
v-217q0 -93 23 -159q23 -65 59 -91q39 -28 63 -35q27 -8 52 -8h12v-80q-8 -2 -18 -2q-24 0 -54 5q-25 4 -71 28q-45 23 -75 59q-31 37 -55 112t-24 173z" />
    <glyph glyph-name="braceright.case" horiz-adv-x="667" 
d="M100 -53h13q25 0 52 8q23 7 62 35q38 27 60 91q22 63 22 159v217q0 194 162 260v4q-69 29 -116 98q-46 68 -46 162v190q0 96 -22 159q-22 64 -60 91q-39 28 -62 35q-27 8 -52 8h-13v80h19q40 0 74 -11q40 -13 88 -44q51 -33 84 -116q32 -80 32 -204v-165q0 -94 45 -160
t129 -84v-82q-84 -16 -129 -83q-45 -66 -45 -161v-192q0 -101 -23 -173q-23 -73 -56 -112q-31 -37 -74 -59q-46 -24 -71 -28q-30 -5 -54 -5l-19 2v80z" />
    <glyph glyph-name="at.case" horiz-adv-x="1560" 
d="M129 717q0 308 209 528q208 219 500 219q247 0 360 -104q115 -106 115 -258v-705h143v-82h-543q-163 0 -279 117q-116 118 -116 281q0 164 116 283q115 118 279 118h308q-6 116 -95 193q-87 75 -276 75q-264 0 -447 -193q-182 -192 -182 -472q0 -279 181 -470
q182 -192 448 -192v-86q-298 0 -510 218q-211 217 -211 530zM610 713q0 -133 91 -224q92 -92 223 -92h297v635h-293q-135 0 -226 -94q-92 -95 -92 -225z" />
    <glyph glyph-name="guillemotleft.case" horiz-adv-x="1013" 
d="M776 281l-336 419l336 422h109l-336 -422l336 -419h-109zM449 281l-336 419l336 422h108l-336 -422l336 -419h-108z" />
    <glyph glyph-name="guillemotright.case" horiz-adv-x="1013" 
d="M457 281l336 419l-336 422h108l336 -422l-336 -419h-108zM129 281l336 419l-336 422h109l335 -422l-335 -419h-109z" />
    <glyph glyph-name="guilsinglleft.case" horiz-adv-x="686" 
d="M449 281l-336 419l336 422h108l-336 -422l336 -419h-108z" />
    <glyph glyph-name="guilsinglright.case" horiz-adv-x="686" 
d="M129 281l336 419l-336 422h109l335 -422l-335 -419h-109z" />
    <glyph glyph-name="endash.case" horiz-adv-x="1294" 
d="M160 662v81h975v-81h-975z" />
    <glyph glyph-name="emdash.case" horiz-adv-x="1703" 
d="M160 662v81h1384v-81h-1384z" />
    <glyph glyph-name="periodcentered.case" horiz-adv-x="436" 
d="M160 649v121h116v-121h-116z" />
    <glyph glyph-name="questiondown.case" horiz-adv-x="890" 
d="M559 1075v-90q0 -91 -38 -167q-37 -73 -91 -126q-53 -52 -107 -101q-55 -51 -93 -117q-37 -65 -37 -148q0 -113 83 -189t216 -76q142 0 260 86l47 -69q-56 -46 -140 -74q-85 -29 -165 -29q-174 0 -284 101t-110 252q0 78 28 146q26 64 69 110q36 39 89 90q51 50 89 86
q42 41 68 98q28 62 28 127v90h88zM575 1434v-125h-120v125h120z" />
    <glyph glyph-name="exclamdown.case" horiz-adv-x="507" 
d="M299 1075v-1075h-88v1075h88zM313 1434v-125h-120v125h120z" />
    <glyph glyph-name="bullet.case" horiz-adv-x="905" 
d="M453 449q-114 0 -192 78q-79 79 -79 192q0 112 79 191t192 79q112 0 191 -79t79 -191q0 -113 -79 -192q-78 -78 -191 -78z" />
    <glyph glyph-name="zero.p_osf" horiz-adv-x="1196" 
d="M127 549q0 235 125 408t346 173t346 -173t125 -408t-124 -404q-125 -170 -347 -170t-347 170q-124 169 -124 404zM217 553q0 -201 100 -347q101 -147 281 -147t281 147q100 146 100 347t-100 347q-101 147 -281 147t-281 -147q-100 -146 -100 -347z" />
    <glyph glyph-name="one.p_osf" horiz-adv-x="931" 
d="M154 0v80h325v838l2 98h-4q-35 -25 -80 -53l-239 -146l-41 64l362 225h86v-1026h287v-80h-698z" />
    <glyph glyph-name="two.p_osf" horiz-adv-x="1085" 
d="M139 0v66q384 260 534 413q152 155 152 307q0 129 -87 195t-222 66q-172 0 -334 -162l-55 61q61 73 170 129q107 55 227 55q193 0 292 -102t99 -231q0 -175 -143 -337t-481 -380v-4q35 4 110 4h568v-80h-830z" />
    <glyph glyph-name="three.p_osf" horiz-adv-x="1075" 
d="M94 -76l66 60q140 -162 348 -162q141 0 249 90q107 89 107 238q0 151 -112 232q-113 81 -273 81h-96l-25 65l394 437l63 61v4q-35 -4 -110 -4h-523v80h762v-57l-463 -502q75 0 148 -18q78 -19 151 -57q78 -41 126 -124q48 -84 48 -198q0 -184 -132 -298t-318 -114
q-248 0 -410 186z" />
    <glyph glyph-name="four.p_osf" horiz-adv-x="1185" 
d="M78 84v59l713 963h77v-942h232v-80h-232v-322h-86v322h-704zM197 164h585v674l6 129h-4q-38 -70 -71 -113z" />
    <glyph glyph-name="five.p_osf" horiz-adv-x="1087" 
d="M109 -49l71 49q52 -75 138 -115q88 -41 182 -41q158 0 275 94q116 93 116 255q0 157 -114 247t-267 90q-72 0 -139 -19q-73 -21 -105 -40l-33 -18l-63 20l82 633h643v-80h-567l-49 -387l-15 -82h4q105 57 252 57q189 0 325 -109t136 -310q0 -197 -137 -316t-342 -119
q-113 0 -223 51q-107 50 -170 140z" />
    <glyph glyph-name="six.p_osf" horiz-adv-x="1198" 
d="M137 586q0 133 36 265q35 130 106 251q69 118 192 192q124 74 281 74q131 0 249 -53l-43 -78q-91 47 -210 47q-234 0 -370 -188q-137 -189 -153 -445h4q61 96 169 146q109 51 239 51q191 0 316 -116q124 -115 124 -308q0 -212 -127 -330q-128 -119 -313 -119
q-230 0 -365 176q-135 175 -135 435zM236 496q0 -154 114 -295q115 -142 285 -142q163 0 258 102q94 101 94 263q0 157 -98 248q-100 92 -256 92q-160 0 -279 -86q-118 -85 -118 -182z" />
    <glyph glyph-name="seven.p_osf" horiz-adv-x="1024" 
d="M225 -238l574 1141l69 123v4q-36 -4 -112 -4h-666v80h879v-57l-650 -1287h-94z" />
    <glyph glyph-name="eight.p_osf" horiz-adv-x="1187" 
d="M131 383q0 74 31 145q30 70 79 117q54 52 82 73q36 27 64 42q-190 108 -190 280q0 136 108 233q107 97 301 97q193 0 305 -94q113 -95 113 -246q0 -67 -25 -137q-24 -66 -62 -117q-32 -42 -64 -78q-27 -30 -46 -45q220 -118 220 -295q0 -157 -133 -270t-320 -113
q-189 0 -326 110t-137 298zM748 692q186 153 186 338q0 118 -92 187q-91 69 -236 69q-142 0 -231 -71q-88 -70 -88 -175q0 -48 21 -88q20 -39 49 -68q28 -28 82 -58q48 -27 92 -46q33 -15 110 -45q90 -36 107 -43zM221 383q0 -147 112 -236q110 -88 261 -88q142 0 252 85
t110 212q0 59 -26 104t-85 83q-46 30 -107 60q-51 25 -137 59q-94 37 -132 55q-34 -19 -57 -35q-40 -28 -80 -62q-50 -43 -80 -105q-31 -65 -31 -132z" />
    <glyph glyph-name="nine.p_osf" horiz-adv-x="1163" 
d="M225 -131q85 -47 211 -47q234 0 370 188q135 188 152 445h-4q-61 -96 -169 -146q-110 -51 -238 -51q-192 0 -317 116q-124 115 -124 308q0 212 127 330t314 118q229 0 364 -175q136 -177 136 -435q0 -133 -36 -265q-35 -130 -106 -251q-69 -118 -192 -192
q-124 -74 -281 -74q-136 0 -250 53zM551 342q159 0 278 86t119 182q0 154 -114 295q-115 142 -285 142q-163 0 -258 -102q-94 -101 -94 -263q0 -157 98 -248q100 -92 256 -92z" />
    <glyph glyph-name="zero.t_osf" horiz-adv-x="1146" 
d="M102 549q0 235 125 408t346 173q222 0 347 -173q124 -172 124 -408q0 -237 -123 -404q-125 -170 -348 -170q-222 0 -347 170q-124 169 -124 404zM193 553q0 -201 100 -347q101 -147 280 -147q181 0 281 147q100 146 100 347t-100 347q-100 147 -281 147q-179 0 -280 -147
q-100 -146 -100 -347z" />
    <glyph glyph-name="one.t_osf" horiz-adv-x="1146" 
d="M260 0v80h326v838l2 98h-4q-35 -25 -80 -53l-240 -146l-41 64l363 225h86v-1026h286v-80h-698z" />
    <glyph glyph-name="two.t_osf" horiz-adv-x="1146" 
d="M170 0v66q381 258 533 413q153 156 153 307q0 129 -87 195t-222 66q-172 0 -334 -162l-55 61q61 73 170 129q107 55 227 55q193 0 292 -102t99 -231q0 -175 -143 -337t-481 -380v-4q35 4 110 4h567v-80h-829z" />
    <glyph glyph-name="three.t_osf" horiz-adv-x="1146" 
d="M129 -76l66 60q139 -162 348 -162q141 0 249 90q107 89 107 238q0 151 -113 232q-112 81 -272 81h-96l-25 65l393 437l64 61v4q-35 -4 -111 -4h-522v80h762v-57l-463 -502q74 0 148 -18q78 -19 151 -57q78 -41 126 -124q48 -84 48 -198q0 -184 -132 -298t-318 -114
q-248 0 -410 186z" />
    <glyph glyph-name="four.t_osf" horiz-adv-x="1146" 
d="M57 84v59l713 963h78v-942h231v-80h-231v-322h-86v322h-705zM176 164h586v674l6 129h-4q-35 -65 -72 -113z" />
    <glyph glyph-name="five.t_osf" horiz-adv-x="1146" 
d="M137 -49l72 49q52 -75 138 -115q88 -41 181 -41q159 0 276 94q116 93 116 255q0 157 -114 247t-267 90q-73 0 -140 -19q-71 -20 -104 -40l-33 -18l-63 20l82 633h643v-80h-568l-49 -387l-14 -82h4q105 57 252 57q188 0 324 -109q137 -110 137 -310q0 -196 -138 -316
q-137 -119 -342 -119q-113 0 -223 51q-107 50 -170 140z" />
    <glyph glyph-name="six.t_osf" horiz-adv-x="1146" 
d="M111 586q0 137 35 265q35 130 106 251q69 118 192 192q124 74 281 74q132 0 250 -53l-43 -78q-91 47 -211 47q-234 0 -370 -188q-135 -188 -152 -445h4q61 96 169 146q109 51 238 51q192 0 317 -116q124 -115 124 -308q0 -212 -127 -330q-128 -119 -314 -119
q-229 0 -364 176q-135 175 -135 435zM209 496q0 -153 115 -295t284 -142q164 0 258 102q95 103 95 263q0 156 -99 248q-100 92 -256 92q-159 0 -278 -86t-119 -182z" />
    <glyph glyph-name="seven.t_osf" horiz-adv-x="1146" 
d="M287 -238l573 1141l70 123v4q-36 -4 -113 -4h-665v80h878v-57l-649 -1287h-94z" />
    <glyph glyph-name="eight.t_osf" horiz-adv-x="1146" 
d="M111 383q0 76 30 145q30 70 79 117q54 52 82 73q33 24 65 42q-191 108 -191 280q0 135 109 233q107 97 301 97q193 0 305 -94q113 -95 113 -246q0 -67 -25 -137q-23 -64 -63 -117q-38 -50 -63 -78q-27 -30 -46 -45q219 -117 219 -295q0 -158 -132 -270
q-133 -113 -321 -113t-325 110t-137 298zM727 692q186 153 186 338q0 118 -92 187q-91 69 -235 69q-143 0 -232 -71q-88 -70 -88 -175q0 -46 22 -88q20 -39 49 -68q28 -28 82 -58q48 -27 92 -46q33 -15 110 -45q79 -31 106 -43zM201 383q0 -147 111 -236q110 -88 261 -88
q142 0 252 85q111 85 111 212q0 58 -27 104q-26 45 -85 83q-50 32 -106 60q-51 25 -137 59q-94 37 -132 55q-39 -22 -58 -35q-40 -28 -80 -62q-50 -43 -80 -105q-30 -63 -30 -132z" />
    <glyph glyph-name="nine.t_osf" horiz-adv-x="1146" 
d="M217 -131q85 -47 211 -47q234 0 370 188q135 188 152 445h-4q-61 -96 -169 -146q-109 -51 -238 -51q-192 0 -317 116q-124 115 -124 308q0 212 127 330t314 118q229 0 364 -175t135 -435q0 -133 -36 -265q-36 -133 -105 -251t-192 -192q-124 -74 -281 -74q-136 0 -250 53
zM543 342q159 0 278 86t119 182q0 153 -115 295t-284 142q-163 0 -258 -102q-95 -103 -95 -263q0 -156 99 -248q100 -92 256 -92z" />
    <glyph glyph-name="dollar.osf" horiz-adv-x="1017" 
d="M100 176l68 60q57 -74 158 -125q102 -52 206 -52q116 0 198 62q81 61 81 170q0 81 -67 139q-66 57 -162 93q-112 42 -192 75q-96 40 -162 110t-66 175q0 139 93 220t237 93v172h88v-172q191 -18 290 -123l-55 -67q-105 108 -291 108q-114 0 -193 -55t-79 -168
q0 -84 66 -141q67 -58 162 -94q147 -56 192 -75q98 -42 163 -112q66 -72 66 -178q0 -133 -97 -220q-99 -88 -249 -94v-190h-88v193q-104 10 -205 63q-99 52 -162 133z" />
    <glyph glyph-name="cent.osf" horiz-adv-x="1130" 
d="M555 -51v170q-195 18 -323 152t-128 339q0 204 128 338t323 152v178h88v-176q218 -15 348 -158l-47 -72q-52 67 -145 108q-90 40 -187 40q-174 0 -296 -114q-121 -114 -121 -296t121 -296q120 -113 296 -113q202 0 332 147l45 -72q-57 -68 -154 -111t-192 -48v-168h-88z
" />
    <glyph glyph-name="sterling.osf" horiz-adv-x="1191" 
d="M113 0v80h135v428h-94v80h94v248q0 153 116 258q114 104 295 104q187 0 322 -104l-59 -68q-52 41 -123 64q-73 24 -142 24q-151 0 -237 -83t-86 -204v-239h497v-80h-497v-428h719v-80h-940z" />
    <glyph glyph-name="yen.osf" horiz-adv-x="1198" 
d="M213 322v81h344v66l-61 98h-283v82h233l-325 529h100l289 -476l88 -155h4q49 93 88 155l289 476h100l-323 -529h227v-82h-278l-60 -98v-66h338v-81h-338v-322h-88v322h-344z" />
    <glyph glyph-name="florin.osf" horiz-adv-x="962" 
d="M-82 -172q53 -10 127 -10q41 0 75 10q35 10 80 38q44 27 74 92q32 68 39 157l49 563h-196v78h203l20 235q11 120 52 201q42 82 102 117q61 35 107 48t98 13q38 0 79 -3q46 -3 64 -7l22 -4v-80q-80 14 -168 14q-40 0 -74 -10q-35 -10 -80 -38t-75 -92q-32 -68 -39 -157
l-22 -237h272v-78h-278l-50 -561q-11 -120 -52 -201q-42 -83 -101 -118q-60 -36 -107 -48t-96 -12l-125 10v80z" />
    <glyph glyph-name="Euro.osf" horiz-adv-x="1247" 
d="M117 426v82h133q-10 78 -2 149h-131v82h143q45 199 204 329q158 130 419 130q97 0 188 -24l-22 -84q-81 22 -166 22q-215 0 -347 -104q-136 -107 -182 -269h617l-19 -82h-616q-12 -76 2 -149h590l-19 -82h-553q44 -160 181 -263q135 -102 346 -102q97 0 180 27l24 -84
q-98 -29 -204 -29q-250 0 -408 127q-160 129 -211 324h-147z" />
    <glyph glyph-name="zero.numerator" 
d="M385 524q-303 0 -303 465t303 465t303 -465t-303 -465zM385 598q223 0 223 391t-223 391t-223 -391t223 -391z" />
    <glyph glyph-name="one.numerator" 
d="M170 545v73h197v666l2 45h-2q-6 -13 -48 -55l-90 -88l-53 55l191 193h77v-816h191v-73h-465z" />
    <glyph glyph-name="two.numerator" 
d="M111 545q-5 42 -5 55q0 78 34 142q35 66 84 106q47 39 109 83q82 59 108 77q48 34 84 85q34 49 34 109q0 74 -52 126t-134 52q-109 0 -193 -102l-49 53q38 51 103 87q66 36 139 36q126 0 196 -73t70 -179q0 -85 -46 -150q-48 -69 -112 -112q-66 -45 -132 -87
q-69 -44 -113 -101q-49 -63 -50 -134h469v-73h-544z" />
    <glyph glyph-name="three.numerator" 
d="M367 524q-84 0 -159 34q-80 36 -124 99l57 54q29 -44 92 -79q61 -34 136 -34q79 0 145 60t66 147t-67 142q-66 54 -153 54h-65l-23 50l222 260l51 51v4q-37 -6 -78 -6h-336v74h522v-54l-262 -307q102 -7 187 -72q81 -62 81 -196q0 -117 -87 -199q-86 -82 -205 -82z" />
    <glyph glyph-name="four.numerator" 
d="M492 545v248h-441v53l455 588h63v-568h140v-73h-140v-248h-77zM164 866h328v301l6 133h-4q-34 -56 -72 -102l-258 -328v-4z" />
    <glyph glyph-name="five.numerator" 
d="M360 524q-168 0 -264 144l66 43q29 -52 84 -82q57 -31 114 -31q96 0 163 64t67 157q0 90 -68 156q-66 65 -162 65q-89 0 -165 -55l-54 21l54 428h421v-74h-356l-20 -186l-15 -89h4q63 29 133 29q131 0 220 -86q88 -85 88 -209q0 -123 -90 -209q-91 -86 -220 -86z" />
    <glyph glyph-name="six.numerator" 
d="M406 524q-146 0 -229 116t-83 292q0 83 22 176q21 90 64 168q44 80 120 129t175 49q86 0 170 -41l-39 -65q-55 32 -133 32q-123 0 -201 -106t-96 -258h4q33 42 100 70t126 28q123 0 202 -79q80 -80 80 -208q0 -143 -81 -223q-82 -80 -201 -80zM406 598q94 0 148 66
t54 163t-57 155t-148 58q-87 0 -156 -51t-69 -108q0 -99 65 -191t163 -92z" />
    <glyph glyph-name="seven.numerator" 
d="M156 545l356 682l76 133v4q-36 -4 -113 -4h-364v74h571v-54l-438 -835h-88z" />
    <glyph glyph-name="eight.numerator" 
d="M385 522q-120 0 -211 73q-90 72 -90 200q0 62 34 118q36 59 64 83q27 23 60 42q-113 74 -113 191q0 104 79 164q78 59 187 59t189 -60t80 -169q0 -60 -30 -120q-32 -63 -52 -85q-23 -24 -41 -41q137 -83 137 -203q0 -105 -85 -178q-86 -74 -208 -74zM477 1010
q107 99 107 213q0 73 -57 114q-58 41 -134 41t-130 -39t-54 -110q0 -26 7 -46q8 -23 25 -40l32 -32q15 -13 45 -30q27 -15 49 -24q2 -1 21.5 -9.5t34.5 -14.5q28 -11 54 -23zM385 596q81 0 147 51t66 125q0 38 -16 67q-15 27 -52 53q-36 25 -64 39q-40 20 -82 38
q-58 25 -81 37q-139 -88 -139 -211q0 -92 65 -145q66 -54 156 -54z" />
    <glyph glyph-name="nine.numerator" 
d="M125 565l39 66q52 -33 133 -33q123 0 201 107t96 258h-4q-35 -44 -100 -71q-67 -28 -125 -28q-124 0 -203 79q-80 80 -80 208q0 143 81 223q82 80 202 80q145 0 228 -116t83 -291q0 -84 -22 -177q-21 -90 -64 -168q-44 -80 -120 -129t-175 -49q-93 0 -170 41zM367 938
q87 0 156 51t69 109q0 98 -65 190t-162 92q-96 0 -149 -65q-54 -66 -54 -164q0 -96 57 -155q57 -58 148 -58z" />
    <glyph glyph-name="zero.denominator" 
d="M385 -20q-303 0 -303 464q0 465 303 465t303 -465q0 -464 -303 -464zM385 53q223 0 223 391q0 392 -223 392t-223 -392q0 -391 223 -391z" />
    <glyph glyph-name="one.denominator" 
d="M170 0v74h197v665l2 45h-2q-6 -13 -48 -55l-90 -88l-53 55l191 193h77v-815h191v-74h-465z" />
    <glyph glyph-name="two.denominator" 
d="M111 0q-5 42 -5 55q0 79 34 143t84 105q47 39 109 83q82 59 108 77q48 34 84 85q34 49 34 109q0 74 -52 126q-53 53 -134 53q-108 0 -193 -103l-49 53q38 51 103 87q66 36 139 36q127 0 196 -72q70 -73 70 -180q0 -85 -46 -150q-48 -69 -112 -112q-66 -45 -132 -87
q-69 -44 -113 -101q-49 -63 -50 -133h469v-74h-544z" />
    <glyph glyph-name="three.denominator" 
d="M367 -20q-86 0 -159 33q-78 35 -124 100l57 53q29 -44 92 -79q61 -34 136 -34q78 0 145 61q66 60 66 146q0 87 -67 142t-153 55h-65l-23 49l222 260l51 51v4q-37 -6 -78 -6h-336v74h522v-53l-262 -308q104 -7 187 -71q81 -62 81 -197q0 -116 -87 -199q-85 -81 -205 -81z
" />
    <glyph glyph-name="four.denominator" 
d="M492 0v248h-441v53l455 588h63v-567h140v-74h-140v-248h-77zM164 322h328v301l6 133h-4q-37 -60 -72 -103l-258 -327v-4z" />
    <glyph glyph-name="five.denominator" 
d="M358 -20q-169 0 -264 143l66 43q29 -52 84 -82q57 -31 114 -31q96 0 163 64t67 157q0 90 -68 156t-162 66q-88 0 -165 -56l-54 21l54 428h421v-74h-356l-20 -186l-15 -88h4q60 28 133 28q131 0 220 -86q88 -85 88 -209q0 -122 -90 -208q-91 -86 -220 -86z" />
    <glyph glyph-name="six.denominator" 
d="M406 -20q-147 0 -229 115q-83 116 -83 292q0 83 22 176q21 90 64 168q44 79 120 129q76 49 175 49q86 0 170 -41l-39 -65q-57 33 -133 33q-123 0 -201 -107t-96 -258h4q35 44 100 71q64 27 126 27q123 0 202 -79q80 -80 80 -207q0 -145 -81 -224q-80 -79 -201 -79z
M406 53q94 0 148 66t54 164q0 95 -57 154t-148 59q-86 0 -156 -52q-69 -51 -69 -108q0 -99 65 -191t163 -92z" />
    <glyph glyph-name="seven.denominator" 
d="M156 0l356 682l76 133v4q-36 -4 -113 -4h-364v74h571v-53l-438 -836h-88z" />
    <glyph glyph-name="eight.denominator" 
d="M385 -20q-121 0 -211 72t-90 200q0 63 34 119q36 59 64 83q27 23 60 42q-113 74 -113 190q0 104 79 164q78 59 187 59t189 -60t80 -169q0 -60 -30 -120q-32 -63 -52 -85q-23 -24 -41 -41q137 -83 137 -203q0 -105 -85 -178t-208 -73zM477 467q107 99 107 213
q0 74 -57 115q-58 41 -134 41t-130 -39t-54 -111q0 -26 7 -46q8 -23 25 -40q4 -4 10.5 -11t12 -12t9.5 -9q12 -11 45 -29q34 -19 49 -25q2 -1 21.5 -9.5t34.5 -14.5q28 -11 54 -23zM385 53q81 0 147 51t66 125q0 38 -16 67q-15 27 -52 53q-36 25 -64 39q-40 20 -82 38
q-58 25 -81 37q-139 -88 -139 -211q0 -91 65 -144q67 -55 156 -55z" />
    <glyph glyph-name="nine.denominator" 
d="M125 20l39 66q52 -33 133 -33q123 0 201 107q78 106 96 258h-4q-35 -44 -100 -71q-67 -28 -125 -28q-124 0 -203 79q-80 80 -80 208q0 144 81 223q82 80 202 80q146 0 228 -115q83 -116 83 -292q0 -83 -22 -176q-21 -90 -64 -168q-44 -80 -120 -129t-175 -49
q-94 0 -170 40zM367 393q87 0 156 51t69 109q0 98 -65 190q-66 93 -162 93q-95 0 -149 -66t-54 -164q0 -96 57 -154q57 -59 148 -59z" />
    <glyph glyph-name="uni0433.BUL" horiz-adv-x="880" 
d="M96 227q0 81 42 142q41 60 106 97q56 32 138 73q54 27 138 67q63 30 106 81q42 49 42 112q0 84 -63 125q-64 41 -159 41q-78 0 -144 -24q-67 -24 -95 -48l-29 -25l-51 70q16 16 36 31q28 21 105 49q85 31 172 31q143 0 231 -62q87 -62 87 -184q0 -96 -59 -166
q-61 -72 -143 -111q-130 -62 -169 -79q-81 -36 -142 -91q-59 -53 -59 -125q0 -84 68 -128t168 -44q56 0 110 14q58 15 90 31q34 17 63 38q30 22 40 34l14 12l56 -65q-6 -8 -15 -17t-45 -34q-38 -27 -73 -44q-38 -19 -104 -36t-134 -17q-144 0 -237 67q-91 66 -91 185z" />
    <glyph glyph-name="uni0434.BUL" horiz-adv-x="1169" 
d="M242 -274q134 -72 274 -72q174 0 282 87q107 86 107 265v119l8 84h-4q-102 -209 -344 -209q-200 0 -327 145t-127 383q0 240 119 380q120 141 321 141q116 0 216 -51q96 -49 140 -150h4q-6 15 -6 39v137h86v-1018q0 -221 -134 -329q-132 -107 -335 -107q-164 0 -321 80z
M201 528q0 -204 102 -324t268 -120q150 0 243 105t93 339q0 437 -356 437q-166 0 -258 -115t-92 -322z" />
    <glyph glyph-name="uni0436.BUL" horiz-adv-x="1417" 
d="M47 0l361 522v4l-326 498h100l299 -459h185v869h86v-869h184l299 459h100l-325 -498v-4l360 -522h-108l-330 485h-180v-485h-86v485h-181l-329 -485h-109z" />
    <glyph glyph-name="uni0438.BUL" horiz-adv-x="1187" 
d="M166 375v649h86v-618q0 -67 4 -106q5 -51 18 -92q16 -51 41 -79q28 -31 75 -50q49 -20 114 -20q183 0 302 139q118 137 118 326v500h86v-1024h-86v180l8 84h-4q-34 -97 -148 -193t-276 -96q-182 0 -260 99t-78 301z" />
    <glyph glyph-name="uni0439.BUL" horiz-adv-x="1187" 
d="M166 375v649h86v-618q0 -67 4 -106q5 -51 18 -92q16 -51 41 -79q28 -31 75 -50q49 -20 114 -20q183 0 302 139q118 137 118 326v500h86v-1024h-86v180l8 84h-4q-34 -97 -148 -193t-276 -96q-182 0 -260 99t-78 301zM588 1174q-98 0 -170 60t-72 163v37h86v-31
q0 -70 45 -109t111 -39q64 0 110 40q47 41 47 110v29h84v-37q0 -104 -71 -163q-72 -60 -170 -60z" />
    <glyph glyph-name="uni043A.BUL" horiz-adv-x="966" 
d="M178 0v1434h86v-813h182l332 403h113l-371 -440v-4l406 -580h-109l-371 541h-182v-541h-86z" />
    <glyph glyph-name="uni043B.BUL" horiz-adv-x="1015" 
d="M63 0l404 1024h82l401 -1024h-90l-315 803l-35 110h-4q-14 -52 -35 -110l-315 -803h-93z" />
    <glyph glyph-name="uni043F.BUL" horiz-adv-x="1200" 
d="M178 0v1024h86v-180l-8 -84h4q34 97 150 193t284 96q188 0 263 -102t75 -298v-649h-86v618q0 67 -4 106q-5 51 -18 92q-16 51 -41 79q-28 31 -75 50q-49 20 -114 20q-178 0 -304 -130q-126 -131 -126 -325v-510h-86z" />
    <glyph glyph-name="uni0442.BUL" horiz-adv-x="1880" 
d="M178 0v1024h86v-180l-8 -84h4q40 116 157 202q118 87 236 87q151 0 230 -70q77 -68 94 -209h4q45 113 154 196t235 83q188 0 265 -102q77 -103 77 -298v-649h-86v618q0 168 -53 260q-52 91 -203 91q-158 0 -270 -142q-111 -141 -111 -317v-510h-86v618q0 67 -4 106
q-5 46 -19 93q-15 49 -41 80q-25 29 -73 51q-46 21 -113 21q-160 0 -275 -142q-114 -141 -114 -317v-510h-86z" />
    <glyph glyph-name="uni0446.BUL" horiz-adv-x="1220" 
d="M166 375v649h86v-618q0 -67 4 -106q5 -51 18 -92q16 -51 41 -79q28 -31 75 -50q49 -20 114 -20q183 0 302 139q118 137 118 326v500h86v-944h155v-326h-86v246h-155v180l8 84h-4q-34 -97 -148 -193t-276 -96q-182 0 -260 99t-78 301z" />
    </font>
</defs>
</svg>
