<?xml version="1.0" standalone="no"?>
<!DOCTYPE svg PUBLIC "-//W3C//DTD SVG 1.1//EN" "http://www.w3.org/Graphics/SVG/1.1/DTD/svg11.dtd" >
<svg xmlns="http://www.w3.org/2000/svg" xmlns:xlink="http://www.w3.org/1999/xlink" version="1.1">
<metadata>
Created by FontForge 20170731 at Fri Jul 10 13:27:24 2020
 By Aleksey,,,
Copyright (c) 2012 by Jos Buivenga. All rights reserved.
</metadata>
<defs>
<font id="MuseoSansCyrl-900" horiz-adv-x="1228" >
  <font-face 
    font-family="Museo Sans Cyrl 900"
    font-weight="700"
    font-stretch="normal"
    units-per-em="2048"
    panose-1="2 0 0 0 0 0 0 0 0 0"
    ascent="1536"
    descent="-512"
    x-height="1055"
    cap-height="1464"
    bbox="-264 -440 2519 1880"
    underline-thickness="102"
    underline-position="-307"
    unicode-range="U+0020-FB04"
  />
<missing-glyph horiz-adv-x="1044" 
d="M10 0v1434h1024v-1434h-1024zM522 809l348 522h-696zM584 717l348 -522v1044zM113 195l348 522l-348 522v-1044zM174 102h696l-348 523z" />
    <glyph glyph-name="f_f" unicode="ff" horiz-adv-x="1562" 
d="M188 0v778h-129v277h129v24q0 97 35 173q34 74 85 116q52 42 121 66q68 23 127 31q61 8 116 8q62 0 106 -7v-299q-15 4 -57 4q-178 0 -178 -102v-14h432v24q0 97 35 173q34 74 85 116q53 43 120 66q68 23 127 31q61 8 116 8q63 0 107 -7v-299q-15 4 -58 4
q-178 0 -178 -102v-14h195v-277h-195v-778h-354v778h-432v-778h-355z" />
    <glyph glyph-name="fi" unicode="fi" horiz-adv-x="1382" 
d="M188 0v778h-129v277h129v24q0 97 35 173q34 74 85 116q52 42 121 66q68 23 127 31q61 8 116 8q62 0 106 -7v-299q-15 4 -57 4q-178 0 -178 -102v-14h721v-1055h-355v778h-366v-778h-355zM913 1188v276h347v-276h-347z" />
    <glyph glyph-name="fl" unicode="fl" horiz-adv-x="1443" 
d="M195 0v760h-129v276h129v43q0 99 34 173t85 116q52 42 121 66q68 23 127 31q61 8 116 8q62 0 106 -7v-299q-15 4 -57 4q-178 0 -178 -102v-33h194v-276h-194v-760h-354zM901 389v1075h354v-1028q0 -77 20 -106t79 -29q21 0 43 2v-307q-73 -6 -107 -6q-84 0 -142 13
q-63 14 -121 52q-60 39 -93 123t-33 211z" />
    <glyph glyph-name="f_f_i" unicode="ffi" horiz-adv-x="2168" 
d="M188 0v778h-129v277h129v24q0 97 35 173q34 74 85 116q52 42 121 66q68 23 127 31q61 8 116 8q62 0 106 -7v-299q-15 4 -57 4q-178 0 -178 -102v-14h432v24q0 97 35 173q34 74 85 116q53 43 120 66q68 23 127 31q61 8 116 8q63 0 107 -7v-299q-15 4 -58 4
q-178 0 -178 -102v-14h721v-1055h-354v778h-367v-778h-354v778h-432v-778h-355zM1700 1188v276h346v-276h-346z" />
    <glyph glyph-name="f_f_l" unicode="ffl" horiz-adv-x="2224" 
d="M188 0v778h-129v277h129v24q0 97 35 173q34 74 85 116q52 42 121 66q68 23 127 31q61 8 116 8q62 0 106 -7v-299q-15 4 -57 4q-178 0 -178 -102v-14h432v24q0 97 35 173q34 74 85 116q53 43 120 66q68 23 127 31q61 8 116 8q63 0 107 -7v-299q-15 4 -58 4
q-178 0 -178 -102v-14h195v-277h-195v-778h-354v778h-432v-778h-355zM1681 389v1075h355v-1028q0 -78 19 -106q20 -29 79 -29q21 0 43 2v-307q-73 -6 -106 -6q-85 0 -143 13q-63 14 -121 52q-60 39 -93 123t-33 211z" />
    <glyph glyph-name="f_j" unicode="fj" horiz-adv-x="1382" 
d="M188 0v778h-129v277h129v24q0 97 35 173q34 74 85 116q52 42 121 66q68 23 127 31q61 8 116 8q62 0 106 -7v-299q-15 4 -57 4q-178 0 -178 -102v-14h721v-1082q0 -102 -37 -177q-39 -79 -89 -118q-53 -41 -125 -65q-74 -25 -129 -32q-53 -7 -116 -7q-48 0 -94 6v295
q22 -2 45 -2q190 0 190 135v770h-366v-778h-355zM913 1188v276h347v-276h-347z" />
    <glyph glyph-name=".notdef" horiz-adv-x="1044" 
d="M10 0v1434h1024v-1434h-1024zM522 809l348 522h-696zM584 717l348 -522v1044zM113 195l348 522l-348 522v-1044zM174 102h696l-348 523z" />
    <glyph glyph-name=".null" horiz-adv-x="0" 
 />
    <glyph glyph-name="nonmarkingreturn" horiz-adv-x="681" 
 />
    <glyph glyph-name="space" unicode=" " horiz-adv-x="512" 
 />
    <glyph glyph-name="exclam" unicode="!" horiz-adv-x="630" 
d="M164 453l-33 1011h369l-33 -1011h-303zM154 0v307h323v-307h-323z" />
    <glyph glyph-name="quotedbl" unicode="&#x22;" horiz-adv-x="894" 
d="M518 1004v491h250v-491h-250zM127 1004v491h250v-491h-250z" />
    <glyph glyph-name="numbersign" unicode="#" horiz-adv-x="1445" 
d="M211 0l63 369h-206l41 245h206l35 195h-203l41 246h203l72 409h274l-71 -409h221l71 409h275l-72 -409h215l-41 -246h-215l-35 -195h211l-41 -245h-211l-63 -369h-274l63 369h-221l-64 -369h-274zM590 614h221l35 195h-221z" />
    <glyph glyph-name="dollar" unicode="$" 
d="M86 184l188 273q71 -65 166 -108q97 -44 185 -44q61 0 108 28q45 27 45 89q0 43 -68 83q-66 39 -167 80q-97 40 -196 93q-96 52 -166 146q-68 92 -68 216q0 168 108 286q107 118 283 151v192h223v-186q221 -23 375 -160l-152 -293q-65 55 -153 92q-87 37 -170 37
q-63 0 -110 -29q-46 -28 -46 -86q0 -47 69 -86q67 -38 166 -76q82 -32 195 -88q96 -48 167 -145q69 -95 69 -219q0 -167 -110 -292q-109 -124 -300 -154v-187h-223v187q-263 39 -418 200z" />
    <glyph glyph-name="percent" unicode="%" horiz-adv-x="1755" 
d="M440 782q-154 0 -263 103q-107 101 -107 250q0 144 108 249t262 105t262 -105q109 -106 109 -249q0 -147 -109 -250t-262 -103zM152 0l1130 1464h311l-1130 -1464h-311zM440 1028q46 0 80 32q33 32 33 77q0 43 -34 74q-35 32 -79 32t-79 -32q-33 -30 -33 -74
q0 -46 32 -77q34 -32 80 -32zM944 328q0 144 109 250q107 104 262 104t262 -104q109 -106 109 -250q0 -147 -109 -250t-262 -103q-154 0 -263 103q-108 102 -108 250zM1202 330q0 -46 33 -77q34 -32 80 -32t80 32q32 31 32 77q0 44 -33 74q-35 32 -79 32t-79 -32
q-34 -31 -34 -74z" />
    <glyph glyph-name="ampersand" unicode="&#x26;" horiz-adv-x="1431" 
d="M90 424q0 112 65 210q64 96 169 140v4q-79 39 -126 125q-46 85 -46 191q0 199 140 297t343 98q88 0 211 -25l-82 -280q-35 8 -80 8q-74 0 -122 -39t-48 -113q0 -60 40 -100q41 -41 110 -41h178v180h352v-180h182v-307h-182v-141q0 -205 -150 -340q-151 -136 -409 -136
q-244 0 -395 128q-150 127 -150 321zM457 446q0 -58 51 -102q50 -43 127 -43q97 0 152 47t55 123v121h-201q-184 0 -184 -146z" />
    <glyph glyph-name="quotesingle" unicode="'" horiz-adv-x="509" 
d="M127 1004v491h256v-491h-256z" />
    <glyph glyph-name="parenleft" unicode="(" horiz-adv-x="679" 
d="M336 -195q-254 403 -254 906q0 433 254 825h291q-232 -389 -232 -825q0 -463 232 -906h-291z" />
    <glyph glyph-name="parenright" unicode=")" horiz-adv-x="679" 
d="M53 -195q232 443 232 906q0 436 -232 825h291q254 -392 254 -825q0 -503 -254 -906h-291z" />
    <glyph glyph-name="asterisk" unicode="*" horiz-adv-x="1013" 
d="M391 633l-250 180l154 170v4l-225 47l94 293l209 -92l-23 229h312l-25 -229l211 94l96 -293l-227 -47v-4l155 -170l-249 -182l-115 198h-4z" />
    <glyph glyph-name="plus" unicode="+" 
d="M55 455v266h420v457h279v-457h420v-266h-420v-455h-279v455h-420z" />
    <glyph glyph-name="comma" unicode="," horiz-adv-x="610" 
d="M23 -227l153 567h338l-231 -567h-260z" />
    <glyph glyph-name="hyphen" unicode="-" horiz-adv-x="884" 
d="M121 434v307h643v-307h-643z" />
    <glyph glyph-name="period" unicode="." horiz-adv-x="577" 
d="M121 0v336h336v-336h-336z" />
    <glyph glyph-name="slash" unicode="/" horiz-adv-x="925" 
d="M53 -86l525 1622h294l-524 -1622h-295z" />
    <glyph glyph-name="zero" unicode="0" horiz-adv-x="1302" 
d="M651 -25q-151 0 -261 59q-110 58 -171 165q-62 107 -90 239q-29 136 -29 297q0 162 29 296t90 238q62 106 171 163q110 57 261 57t261 -57q109 -57 171 -163q63 -107 91 -238q28 -130 28 -296t-28 -297q-28 -129 -91 -239q-61 -107 -171 -165q-110 -59 -261 -59zM651 303
q183 0 183 432q0 426 -183 426q-182 0 -182 -426q0 -432 182 -432z" />
    <glyph glyph-name="one" unicode="1" horiz-adv-x="1130" 
d="M113 0v307h311v611l2 112h-4q-18 -40 -57 -78l-89 -80l-206 222l395 370h309v-1157h313v-307h-974z" />
    <glyph glyph-name="two" unicode="2" horiz-adv-x="1226" 
d="M113 0q-17 94 -17 158q0 126 47 235q46 107 117 178q73 73 153 134q84 64 152 107q70 44 117 94t47 100q0 70 -47 108q-46 37 -111 37q-68 0 -125 -45q-58 -46 -92 -111l-266 179q71 138 202 227q130 88 314 88q199 0 350 -116q150 -115 150 -333q0 -125 -62 -231
t-149 -171q-100 -75 -176 -121q-89 -54 -154 -106q-64 -51 -69 -104h632v-307h-1013z" />
    <glyph glyph-name="three" unicode="3" horiz-adv-x="1191" 
d="M61 168l172 276q136 -131 302 -131q95 0 152 42q56 41 56 104q0 162 -272 162h-102l-76 174l192 231q19 24 63 72q29 32 48 49l16 16v4q-44 -10 -139 -10h-350v307h924v-223l-297 -342q162 -35 258 -151q96 -117 96 -273q0 -206 -142 -352q-143 -148 -401 -148
q-309 0 -500 193z" />
    <glyph glyph-name="four" unicode="4" horiz-adv-x="1296" 
d="M49 354v217l565 893h439v-813h174v-297h-174v-354h-355v354h-649zM414 651h284v328l13 164h-4q-29 -86 -72 -152l-221 -336v-4z" />
    <glyph glyph-name="five" unicode="5" horiz-adv-x="1191" 
d="M76 168l172 276q140 -131 297 -131q79 0 142 48t63 133q0 84 -66 133q-65 49 -168 49q-99 0 -197 -49l-190 71l59 766h820v-307h-508l-8 -135l-9 -57h4q36 14 107 14q251 0 387 -136q137 -137 137 -345q0 -228 -151 -375q-153 -148 -392 -148q-297 0 -499 193z" />
    <glyph glyph-name="six" unicode="6" horiz-adv-x="1259" 
d="M92 676q0 153 46 295q47 145 131 260q86 117 221 187q137 71 301 71q187 0 323 -64l-96 -307q-24 13 -90 29q-59 14 -111 14q-236 0 -315 -241h4q26 17 88 34q63 17 113 17q217 0 348 -151t131 -351t-136 -346q-137 -148 -364 -148q-242 0 -418 183q-176 184 -176 518z
M686 303q66 0 107 48q41 49 41 116q0 87 -56 151t-166 64q-151 0 -151 -88q0 -124 71 -207q72 -84 154 -84z" />
    <glyph glyph-name="seven" unicode="7" horiz-adv-x="1153" 
d="M129 0l518 1026q21 41 44 78q19 30 32 43l10 12v4q-12 -6 -86 -6h-579v307h1050v-250l-614 -1214h-375z" />
    <glyph glyph-name="eight" unicode="8" horiz-adv-x="1271" 
d="M88 430q0 81 41 163t81 122q42 42 81 71q-133 118 -133 281q0 176 125 299t366 123q214 0 355 -114t141 -310q0 -162 -144 -336q173 -119 173 -307q0 -182 -144 -314q-145 -133 -399 -133q-253 0 -399 135q-144 133 -144 320zM741 858q54 88 54 180q0 61 -41 99
q-40 37 -113 37q-64 0 -99 -32q-34 -31 -34 -83q0 -66 58 -109q56 -42 175 -92zM455 461q0 -71 51 -121q50 -49 125 -49q83 0 129 39q47 39 47 110q0 16 -4 27q-5 14 -15 25q-7 8 -19 22q-9 11 -29 23q-5 3 -16 10t-16 10q-31 17 -39 21q-17 8 -41 20q-26 13 -46 22
q-10 5 -25.5 12t-21.5 9q-80 -85 -80 -180z" />
    <glyph glyph-name="nine" unicode="9" horiz-adv-x="1259" 
d="M145 39l97 307q99 -43 200 -43q236 0 316 242h-4q-24 -21 -86 -36t-115 -15q-217 0 -348 150q-131 151 -131 351t136 346q137 148 363 148q243 0 418 -182q176 -184 176 -519q0 -152 -46 -294q-47 -146 -131 -261q-86 -117 -221 -187q-137 -71 -300 -71q-188 0 -324 64z
M647 782q152 0 152 88q0 123 -72 207t-154 84q-66 0 -106 -48q-41 -49 -41 -116q0 -89 55 -151q56 -64 166 -64z" />
    <glyph glyph-name="colon" unicode=":" horiz-adv-x="577" 
d="M121 719v336h336v-336h-336zM121 0v336h336v-336h-336z" />
    <glyph glyph-name="semicolon" unicode=";" horiz-adv-x="626" 
d="M180 719v336h324v-336h-324zM37 -227l133 567h340l-211 -567h-262z" />
    <glyph glyph-name="less" unicode="&#x3c;" 
d="M70 479v219l1032 457v-297l-676 -268v-4l676 -267v-296z" />
    <glyph glyph-name="equal" unicode="=" 
d="M96 690v266h1037v-266h-1037zM96 219v266h1037v-266h-1037z" />
    <glyph glyph-name="greater" unicode="&#x3e;" 
d="M125 23v296l676 267v4l-676 268v297l1032 -457v-219z" />
    <glyph glyph-name="question" unicode="?" horiz-adv-x="1042" 
d="M276 453v102q0 75 33 140t81 107q49 43 95 80q48 39 80 81q33 43 33 90q0 52 -43 86q-44 35 -102 35q-94 0 -195 -89l-197 240q170 170 428 170q190 0 333 -107q145 -109 145 -294q0 -92 -36 -169q-37 -78 -88 -125q-48 -44 -104 -90q-52 -43 -87 -88q-36 -46 -36 -96
v-73h-340zM285 0v307h323v-307h-323z" />
    <glyph glyph-name="at" unicode="@" horiz-adv-x="1730" 
d="M94 489q0 326 231 548q232 223 574 223q319 0 465 -137q145 -136 145 -355v-406h152v-243h-580q-218 0 -341 110q-124 111 -124 263q0 146 122 253t343 107h101q0 62 -85 96q-87 35 -192 35q-195 0 -330 -150t-135 -344q0 -205 138 -348q136 -141 378 -141v-266
q-392 0 -627 215t-235 540zM967 500q0 -61 34 -99q35 -39 101 -39h80v275h-76q-68 0 -104 -39q-35 -38 -35 -98z" />
    <glyph glyph-name="A" unicode="A" horiz-adv-x="1359" 
d="M-6 0l498 1464h376l498 -1464h-369l-90 307h-456l-89 -307h-368zM535 594h288l-82 285l-59 251h-4q-33 -161 -60 -251z" />
    <glyph glyph-name="B" unicode="B" horiz-adv-x="1325" 
d="M154 0v1464h538q226 0 362 -99t136 -284q0 -93 -45 -179q-45 -85 -125 -132v-4q115 -34 173 -128q56 -91 56 -202q0 -224 -157 -330t-400 -106h-538zM512 897h184q64 0 97 39q32 38 32 96q0 57 -33 90q-35 35 -102 35h-178v-260zM512 307h215q74 0 115 44t41 110
q0 65 -39 107t-115 42h-217v-303z" />
    <glyph glyph-name="C" unicode="C" horiz-adv-x="1462" 
d="M76 735q0 325 216 539q217 215 552 215q155 0 299 -52t250 -155l-166 -270q-71 64 -173 107q-99 42 -194 42q-204 0 -309 -122q-105 -121 -105 -296q0 -179 108 -309q108 -131 306 -131q209 0 389 180l185 -262q-237 -246 -590 -246q-348 0 -558 214q-210 215 -210 546z
" />
    <glyph glyph-name="D" unicode="D" horiz-adv-x="1509" 
d="M154 0v1464h520q349 0 552 -193q204 -193 204 -536q0 -344 -204 -539q-205 -196 -552 -196h-520zM512 307h147q189 0 294 111q106 112 106 317t-107 314q-106 108 -293 108h-147v-850z" />
    <glyph glyph-name="E" unicode="E" horiz-adv-x="1175" 
d="M154 0v1464h917v-307h-559v-266h446v-307h-446v-277h588v-307h-946z" />
    <glyph glyph-name="F" unicode="F" horiz-adv-x="1099" 
d="M154 0v1464h897v-307h-539v-307h446v-307h-446v-543h-358z" />
    <glyph glyph-name="G" unicode="G" horiz-adv-x="1583" 
d="M76 735q0 322 218 538t550 216q342 0 563 -195l-172 -268q-63 57 -164 96t-192 39q-217 0 -325 -118q-108 -119 -108 -295q0 -202 122 -324q121 -121 298 -121q160 0 297 107v112h-207v305h525v-827h-299v41l2 61h-4q-67 -58 -171 -92q-107 -35 -214 -35q-295 0 -507 207
t-212 553z" />
    <glyph glyph-name="H" unicode="H" horiz-adv-x="1556" 
d="M154 0v1464h358v-585h532v585h359v-1464h-359v573h-532v-573h-358z" />
    <glyph glyph-name="I" unicode="I" horiz-adv-x="665" 
d="M154 0v1464h358v-1464h-358z" />
    <glyph glyph-name="J" unicode="J" horiz-adv-x="1159" 
d="M37 451v106h358v-78q0 -176 133 -176q62 0 97 39q34 38 34 117v698h-393v307h752v-1013q0 -227 -146 -352q-145 -124 -344 -124q-200 0 -346 125q-145 124 -145 351z" />
    <glyph glyph-name="K" unicode="K" horiz-adv-x="1382" 
d="M154 0v1464h358v-565h147l304 565h385l-396 -700v-4l418 -760h-401l-310 594h-147v-594h-358z" />
    <glyph glyph-name="L" unicode="L" horiz-adv-x="1130" 
d="M154 0v1464h358v-1157h598v-307h-956z" />
    <glyph glyph-name="M" unicode="M" horiz-adv-x="1789" 
d="M96 0l121 1464h389l213 -618l74 -242h4q39 143 74 242l213 618h389l119 -1464h-359l-45 659q-4 44 -4 111q0 48 2 98l2 37h-4q-59 -181 -82 -246l-153 -423h-308l-153 423l-82 246h-4q8 -135 0 -246l-45 -659h-361z" />
    <glyph glyph-name="N" unicode="N" horiz-adv-x="1544" 
d="M154 0v1464h362l406 -684q37 -66 55 -105q42 -88 49 -104l18 -41h5q-17 162 -17 250v684h359v-1464h-361l-407 682q-44 79 -56 105q-42 88 -49 104l-18 41h-4q16 -153 16 -250v-682h-358z" />
    <glyph glyph-name="O" unicode="O" horiz-adv-x="1679" 
d="M74 741q0 319 215 534q214 214 551 214t551 -214q215 -215 215 -534q0 -326 -215 -546t-551 -220t-551 220t-215 546zM444 741q0 -187 112 -313q111 -125 284 -125q172 0 283 125q112 126 112 313q0 179 -112 300q-111 120 -283 120q-173 0 -284 -120
q-112 -121 -112 -300z" />
    <glyph glyph-name="P" unicode="P" horiz-adv-x="1288" 
d="M154 0v1464h608q213 0 345 -141t132 -362q0 -223 -132 -366q-132 -142 -345 -142h-250v-453h-358zM512 760h176q90 0 138 55t48 146q0 90 -47 143t-133 53h-182v-397z" />
    <glyph glyph-name="Q" unicode="Q" horiz-adv-x="1677" 
d="M74 741q0 319 215 534q214 214 551 214t551 -214q215 -215 215 -534q0 -226 -146 -434l154 -125l-203 -227l-149 141q-184 -121 -422 -121q-336 0 -551 220t-215 546zM444 741q0 -187 112 -313q111 -125 284 -125q93 0 159 33l-149 131l201 227l145 -141q39 90 39 188
q0 179 -113 300q-112 120 -282 120q-173 0 -284 -120q-112 -121 -112 -300z" />
    <glyph glyph-name="R" unicode="R" horiz-adv-x="1347" 
d="M154 0v1464h510q195 0 284 -34q127 -49 199 -159q72 -109 72 -267q0 -122 -58 -235t-162 -165v-4q24 -31 56 -88l284 -512h-399l-260 494h-168v-494h-358zM512 801h156q87 0 137 47q49 46 49 133q0 121 -86 156q-44 20 -135 20h-121v-356z" />
    <glyph glyph-name="S" unicode="S" horiz-adv-x="1177" 
d="M53 184l189 273q69 -62 166 -107q96 -45 186 -45q71 0 112 29q39 27 39 74q0 46 -48 87q-46 38 -119 66q-72 27 -156 69q-81 40 -156 89q-71 46 -120 130q-48 83 -48 191q0 200 149 325q148 124 382 124q273 0 458 -166l-151 -293q-60 53 -152 92q-87 37 -172 37
q-76 0 -116 -29q-39 -28 -39 -75t48 -86q49 -40 120 -65q76 -27 155 -65q90 -43 156 -86q72 -47 120 -129q48 -83 48 -192q0 -196 -138 -326q-139 -131 -382 -131q-143 0 -288 54q-140 52 -243 155z" />
    <glyph glyph-name="T" unicode="T" horiz-adv-x="1296" 
d="M469 0v1157h-444v307h1247v-307h-445v-1157h-358z" />
    <glyph glyph-name="U" unicode="U" horiz-adv-x="1499" 
d="M137 539v925h359v-925q0 -113 68 -174q70 -62 186 -62q115 0 185 62q69 61 69 174v925h358v-925q0 -251 -168 -407q-169 -157 -442 -157q-275 0 -446 157q-169 156 -169 407z" />
    <glyph glyph-name="V" unicode="V" horiz-adv-x="1382" 
d="M506 0l-518 1464h389l258 -833q11 -38 27 -101q14 -56 22 -96l6 -39h4q26 141 56 236l262 833h383l-516 -1464h-373z" />
    <glyph glyph-name="W" unicode="W" horiz-adv-x="2004" 
d="M383 0l-356 1464h376l185 -915q10 -54 13 -79q5 -42 5 -56v-19h4q1 60 25 154l225 915h289l219 -915q9 -34 16 -79q1 -9 3.5 -22t4 -21t1.5 -13v-19h4q0 64 18 154l201 915h371l-371 -1464h-399l-185 739l-28 172h-5q-6 -80 -28 -172l-185 -739h-403z" />
    <glyph glyph-name="X" unicode="X" horiz-adv-x="1349" 
d="M16 0l445 727l-447 737h408l160 -301l90 -188h4q37 90 90 188l162 301h407l-448 -737l446 -727h-399l-168 307l-90 182h-4q-40 -92 -90 -182l-168 -307h-398z" />
    <glyph glyph-name="Y" unicode="Y" horiz-adv-x="1284" 
d="M463 0v600l-483 864h407l166 -352l88 -211h4q36 98 88 211l164 352h408l-484 -864v-600h-358z" />
    <glyph glyph-name="Z" unicode="Z" horiz-adv-x="1300" 
d="M76 0v225l565 801q28 40 56 74q22 28 42 47l15 12v4q-47 -6 -113 -6h-539v307h1106v-221l-567 -805q-23 -33 -56 -73q-29 -36 -42 -46l-15 -14v-4q46 6 113 6h578v-307h-1143z" />
    <glyph glyph-name="bracketleft" unicode="[" horiz-adv-x="720" 
d="M143 -195v1731h504v-246h-209v-1239h209v-246h-504z" />
    <glyph glyph-name="backslash" unicode="\" horiz-adv-x="925" 
d="M578 -86l-525 1622h295l524 -1622h-294z" />
    <glyph glyph-name="bracketright" unicode="]" horiz-adv-x="720" 
d="M74 51h209v1239h-209v246h504v-1731h-504v246z" />
    <glyph glyph-name="asciicircum" unicode="^" horiz-adv-x="1290" 
d="M119 494l416 970h219l415 -970h-297l-229 614l-227 -614h-297z" />
    <glyph glyph-name="underscore" unicode="_" horiz-adv-x="1265" 
d="M23 0h1220v-266h-1220v266z" />
    <glyph glyph-name="grave" unicode="`" horiz-adv-x="991" 
d="M479 1559l-241 307h350l166 -307h-275z" />
    <glyph glyph-name="a" unicode="a" horiz-adv-x="1132" 
d="M45 297q0 101 55 174q56 74 147 113q89 38 189 56q93 17 205 17h31v19q0 117 -150 117q-139 0 -291 -101l-122 250q73 56 197 96q128 41 249 41q219 0 345 -114t126 -316v-649h-324v63l5 66h-5q-52 -73 -136 -113q-87 -41 -177 -41q-150 0 -248 93q-96 92 -96 229z
M395 330q0 -40 27 -65q26 -25 74 -25q75 0 127 59q53 61 53 127v29h-33q-98 0 -173 -30t-75 -95z" />
    <glyph glyph-name="b" unicode="b" horiz-adv-x="1296" 
d="M119 0v1464h354v-407l-4 -90h4q47 53 124 82q79 30 161 30q215 0 345 -152t130 -401q0 -248 -139 -399q-140 -152 -353 -152q-190 0 -295 125h-4q2 -36 2 -59v-41h-325zM463 520q0 -102 54 -177t153 -75q87 0 147 68t60 184t-58 189q-56 71 -149 71q-89 0 -148 -65
t-59 -195z" />
    <glyph glyph-name="c" unicode="c" horiz-adv-x="1130" 
d="M59 528q0 224 159 388q159 163 429 163q120 0 233 -40q115 -41 187 -119l-149 -238q-106 102 -248 102q-121 0 -186 -74q-66 -75 -66 -178q0 -104 69 -183t195 -79q143 0 289 127l129 -247q-79 -81 -200 -127q-125 -48 -253 -48q-270 0 -429 162t-159 391z" />
    <glyph glyph-name="d" unicode="d" horiz-adv-x="1296" 
d="M63 528q0 247 135 400q133 151 347 151q192 0 276 -84h4q-2 28 -2 47v422h355v-1464h-332v70l2 59h-4q-101 -154 -305 -154q-215 0 -345 153q-131 154 -131 400zM420 528q0 -116 57 -188t150 -72q87 0 147 66t60 194q0 102 -55 178q-53 74 -152 74q-88 0 -148 -67
q-59 -66 -59 -185z" />
    <glyph glyph-name="e" unicode="e" horiz-adv-x="1161" 
d="M59 528q0 239 150 395t399 156q228 0 358 -142t130 -368q0 -22 -9 -110h-665q18 -93 87 -141t159 -48q130 0 290 107l132 -248q-85 -73 -206 -113q-123 -41 -245 -41q-268 0 -424 164q-156 163 -156 389zM430 662h315q0 69 -39 112q-41 45 -106 45q-136 0 -170 -157z" />
    <glyph glyph-name="f" unicode="f" horiz-adv-x="782" 
d="M195 0v760h-129v276h129v43q0 99 34 173t85 116q52 42 121 66q68 23 127 31q61 8 116 8q62 0 106 -7v-299q-15 4 -57 4q-178 0 -178 -102v-33h194v-276h-194v-760h-354z" />
    <glyph glyph-name="g" unicode="g" horiz-adv-x="1280" 
d="M266 -68q138 -67 297 -67q244 0 244 203v34l2 39h-4q-91 -110 -264 -110q-227 0 -351 155t-124 375q0 219 122 368q123 150 351 150q184 0 286 -102h6q-2 16 -2 24v54h332v-959q0 -138 -51 -243q-51 -106 -139 -165q-90 -61 -190 -89q-104 -29 -216 -29q-220 0 -399 94z
M422 573q0 -107 51 -177t152 -70q83 0 136 52q54 52 54 179q0 227 -205 227q-90 0 -139 -58t-49 -153z" />
    <glyph glyph-name="h" unicode="h" horiz-adv-x="1282" 
d="M119 0v1464h354v-463l-4 -90h4q45 78 131 123q85 45 191 45q379 0 379 -395v-684h-355v618q0 140 -117 140q-110 0 -170 -78q-59 -77 -59 -205v-475h-354z" />
    <glyph glyph-name="i" unicode="i" horiz-adv-x="591" 
d="M123 1188v276h346v-276h-346zM119 0v1055h354v-1055h-354z" />
    <glyph glyph-name="j" unicode="j" horiz-adv-x="591" 
d="M123 1188v276h346v-276h-346zM119 8v1047h354v-1082q0 -102 -37 -177q-39 -79 -89 -118q-53 -41 -125 -65q-74 -25 -129 -32q-53 -7 -116 -7q-47 0 -94 6v295q22 -2 45 -2q191 0 191 135z" />
    <glyph glyph-name="k" unicode="k" horiz-adv-x="1210" 
d="M119 0v1464h354v-757h100l209 348h385l-309 -480v-4l352 -571h-403l-223 410h-111v-410h-354z" />
    <glyph glyph-name="l" unicode="l" horiz-adv-x="661" 
d="M117 389v1075h354v-1028q0 -77 20 -106t78 -29q21 0 43 2v-307q-74 -6 -106 -6q-84 0 -142 13q-63 14 -121 52q-60 39 -93 123t-33 211z" />
    <glyph glyph-name="m" unicode="m" horiz-adv-x="1861" 
d="M119 0v1055h340v-92l-4 -66h4q121 182 313 182q213 0 295 -178h4q45 74 136 126t202 52q156 0 249 -94t93 -301v-684h-354v625q0 133 -82 133q-107 0 -155 -89t-48 -223v-446h-354v625q0 133 -82 133q-110 0 -157 -90q-46 -89 -46 -222v-446h-354z" />
    <glyph glyph-name="n" unicode="n" horiz-adv-x="1282" 
d="M119 0v1055h340v-92l-4 -66h4q107 182 336 182q379 0 379 -395v-684h-355v618q0 140 -117 140q-112 0 -171 -80q-58 -79 -58 -201v-477h-354z" />
    <glyph glyph-name="o" unicode="o" horiz-adv-x="1314" 
d="M59 524q0 244 172 400q171 155 424 155q255 0 427 -154q173 -155 173 -401q0 -243 -172 -396q-173 -153 -426 -153t-426 153q-172 153 -172 396zM418 524q0 -115 69 -184q70 -70 170 -70t170 70t70 184q0 116 -70 189q-68 71 -170 71t-170 -71q-69 -72 -69 -189z" />
    <glyph glyph-name="p" unicode="p" horiz-adv-x="1296" 
d="M119 -410v1465h319v-54l-4 -67h4q108 145 320 145q215 0 345 -152t130 -401q0 -248 -139 -399q-140 -152 -353 -152q-150 0 -268 101h-4q4 -33 4 -90v-396h-354zM463 520q0 -102 54 -177t153 -75q87 0 147 68t60 184t-58 189q-56 71 -149 71q-89 0 -148 -65t-59 -195z
" />
    <glyph glyph-name="q" unicode="q" horiz-adv-x="1296" 
d="M63 528q0 247 135 400q133 151 347 151q201 0 301 -112h4q-4 20 -4 57v31h332v-1465h-355v414l4 90h-4q-102 -119 -284 -119q-215 0 -345 153q-131 154 -131 400zM420 528q0 -116 57 -188t150 -72q87 0 147 66t60 194q0 102 -55 178q-53 74 -152 74q-88 0 -148 -67
q-59 -66 -59 -185z" />
    <glyph glyph-name="r" unicode="r" horiz-adv-x="872" 
d="M119 0v1055h340v-178l-4 -66h4q34 108 128 186q92 76 208 76q20 0 41 -4v-348q-18 6 -72 6q-144 0 -217 -84q-74 -85 -74 -233v-410h-354z" />
    <glyph glyph-name="s" unicode="s" horiz-adv-x="964" 
d="M39 131l151 231q127 -106 287 -106q96 0 96 55q0 31 -51 55t-123 48t-144 60t-124 106q-51 69 -51 165q0 158 124 246t314 88q228 0 377 -121l-121 -245q-44 36 -122 61q-80 25 -144 25q-98 0 -98 -51q0 -27 36 -47q37 -21 92 -36q45 -13 118 -43q64 -27 119 -62t91 -96
q37 -62 37 -142q0 -152 -118 -249q-119 -98 -316 -98q-256 0 -430 156z" />
    <glyph glyph-name="t" unicode="t" horiz-adv-x="841" 
d="M180 389v371h-135v276h145v303h345v-303h221v-276h-221v-324q0 -135 188 -135q17 0 47 2v-307q-80 -6 -96 -6q-43 0 -95 5q-51 5 -107 19q-61 15 -108 43q-48 28 -92 71q-42 41 -67 110q-25 70 -25 151z" />
    <glyph glyph-name="u" unicode="u" horiz-adv-x="1271" 
d="M109 371v684h354v-619q0 -139 112 -139q109 0 166 83q58 84 58 208v467h354v-1055h-340v92l4 66h-4q-43 -84 -133 -133q-91 -50 -197 -50q-170 0 -273 94q-101 92 -101 302z" />
    <glyph glyph-name="v" unicode="v" horiz-adv-x="1171" 
d="M371 0l-365 1055h373l164 -561l39 -183h4q19 116 39 183l161 561h375l-358 -1055h-432z" />
    <glyph glyph-name="w" unicode="w" horiz-adv-x="1712" 
d="M317 0l-294 1055h372l131 -623l13 -110h4q5 62 18 110l146 623h303l145 -623l16 -110h5q1 50 14 110l131 623h369l-295 -1055h-396l-118 487l-21 113h-4q-7 -63 -20 -113l-119 -487h-400z" />
    <glyph glyph-name="x" unicode="x" horiz-adv-x="1126" 
d="M23 0l331 522l-340 533h400l114 -236l33 -69h4q29 61 33 69l115 236h399l-338 -533l332 -522h-389l-127 238l-25 53h-4q-20 -47 -24 -53l-125 -238h-389z" />
    <glyph glyph-name="y" unicode="y" horiz-adv-x="1148" 
d="M129 -96q57 -39 109 -39q127 0 170 106l20 49l-448 1035h401l156 -486l38 -163h5q28 135 34 157l134 492h387l-433 -1168q-62 -164 -181 -240q-121 -77 -259 -77q-62 0 -123 18q-59 17 -92 37l-31 19z" />
    <glyph glyph-name="z" unicode="z" horiz-adv-x="1114" 
d="M70 0v176l387 486q24 28 47 53q30 32 33 35l12 8v4q-24 -4 -92 -4h-371v297h942v-178l-385 -486q-23 -28 -46 -52q-20 -20 -36 -34l-12 -10v-4q27 6 94 6h395v-297h-968z" />
    <glyph glyph-name="braceleft" unicode="{" horiz-adv-x="808" 
d="M240 127v201q0 85 -44 137q-44 51 -130 59v307q80 7 128 60q46 50 46 143v180q0 103 42 175t110 103q67 31 129 43q55 11 126 11l88 -4v-254q-20 4 -51 4q-149 0 -149 -110v-240q0 -93 -49 -165q-49 -71 -124 -95v-4q173 -62 173 -258v-260q0 -111 149 -111l51 4v-254
q-33 -4 -88 -4q-71 0 -126 11q-62 12 -129 43t-110 104q-42 72 -42 174z" />
    <glyph glyph-name="bar" unicode="|" horiz-adv-x="573" 
d="M139 -338v1980h295v-1980h-295z" />
    <glyph glyph-name="braceright" unicode="}" horiz-adv-x="808" 
d="M74 53q20 -4 51 -4q149 0 149 111v260q0 88 45 162t127 96v4q-69 22 -120 92q-52 70 -52 168v240q0 110 -149 110l-51 -4v254q33 4 88 4q71 0 126 -11q62 -12 129 -43q68 -31 110 -103t42 -175v-180q0 -82 44 -140q43 -57 130 -63v-307q-81 -2 -127 -58q-47 -58 -47 -138
v-201q0 -102 -42 -174q-43 -73 -110 -104t-129 -43q-55 -11 -126 -11l-88 4v254z" />
    <glyph glyph-name="asciitilde" unicode="~" horiz-adv-x="1302" 
d="M109 391q0 416 356 416q62 0 120 -26q55 -25 88 -56q34 -33 70 -56q40 -26 74 -26q52 0 82 40q31 42 31 116h272q0 -416 -354 -416q-62 0 -120 26q-55 25 -88 56t-72 56q-41 26 -74 26q-50 0 -80 -40q-31 -42 -31 -116h-274z" />
    <glyph glyph-name="uni00A0" unicode="&#xa0;" horiz-adv-x="512" 
 />
    <glyph glyph-name="exclamdown" unicode="&#xa1;" horiz-adv-x="593" 
d="M449 602l32 -1012h-368l32 1012h304zM459 1055v-307h-324v307h324z" />
    <glyph glyph-name="cent" unicode="&#xa2;" 
d="M524 -25v179q-188 44 -311 203q-125 161 -125 376q0 213 126 375t310 205v174h226v-174q137 -30 244 -124q106 -94 151 -228l-316 -123q-22 66 -70 109q-49 44 -114 44q-75 0 -138 -73q-63 -74 -63 -185q0 -122 59 -190t142 -68q65 0 115 44q47 41 69 110l316 -123
q-43 -121 -147 -227q-103 -104 -248 -125v-179h-226z" />
    <glyph glyph-name="sterling" unicode="&#xa3;" 
d="M92 0v307h113v305h-88v230h88v205q0 193 141 318q140 124 359 124q231 0 401 -170l-199 -242q-90 90 -192 90q-61 0 -102 -35q-42 -36 -42 -96v-194h338v-230h-338v-305h594v-307h-1073z" />
    <glyph glyph-name="currency" unicode="&#xa4;" horiz-adv-x="1320" 
d="M229 0v291h-133v227h133v117h-133v274h133v555h578q236 0 352 -115q117 -115 117 -319q0 -188 -136 -293q-135 -104 -354 -104h-198v-115h499v-227h-499v-291h-359zM588 909h145q89 0 133 42q43 42 43 102q0 57 -42 96t-128 39h-151v-279z" />
    <glyph glyph-name="yen" unicode="&#xa5;" 
d="M96 342v197h334v57l-49 100h-285v197h189l-281 571h412l108 -293l88 -272h4q38 133 89 272l108 293h412l-283 -571h191v-197h-287l-49 -100v-57h336v-197h-336v-342h-367v342h-334z" />
    <glyph glyph-name="section" unicode="&#xa7;" horiz-adv-x="1083" 
d="M293 367l-156 559q-20 73 -20 153q0 182 122 296q121 114 351 114q115 0 230 -41t194 -117l-152 -221q-113 96 -268 96q-201 0 -201 -170q0 -60 21 -137l147 -532h-268zM70 31l141 235q121 -112 281 -112q200 0 200 192q0 70 -26 158l-140 491h269l151 -559
q21 -76 21 -153q0 -182 -122 -296q-121 -114 -351 -114q-114 0 -231 41q-115 40 -193 117z" />
    <glyph glyph-name="dieresis" unicode="&#xa8;" horiz-adv-x="993" 
d="M582 1579v287h258v-287h-258zM154 1579v287h258v-287h-258z" />
    <glyph glyph-name="copyright" unicode="&#xa9;" horiz-adv-x="1652" 
d="M88 733q0 313 215 534q214 220 520 220q310 0 527 -220t217 -534t-217 -535q-218 -223 -527 -223q-302 0 -519 223q-216 222 -216 535zM319 733q0 -228 146 -388q145 -159 358 -159q217 0 366 159q148 158 148 388q0 228 -148 385q-149 158 -366 158q-212 0 -358 -158
t-146 -385zM475 727q0 160 105 271q106 112 247 112q119 0 207 -63q86 -61 125 -173l-205 -79q-8 39 -42 69q-36 31 -76 31q-46 0 -84 -47q-37 -46 -37 -121q0 -81 34 -124q35 -44 87 -44q39 0 73 29q33 29 45 71l205 -79q-27 -94 -116 -165t-216 -71q-141 0 -247 112
q-105 111 -105 271z" />
    <glyph glyph-name="ordfeminine" unicode="&#xaa;" horiz-adv-x="880" 
d="M334 784q-83 0 -150 59q-65 58 -65 150q0 224 370 224h11v16q0 74 -97 74q-78 0 -163 -56l-78 154q109 80 282 80q144 0 221 -74q76 -73 76 -203v-409h-221v80h-4q-50 -95 -182 -95zM406 967q37 0 64 28q28 30 28 64v10h-21q-119 0 -119 -61q0 -41 48 -41zM125 549v174
h625v-174h-625z" />
    <glyph glyph-name="guillemotleft" unicode="&#xab;" horiz-adv-x="1339" 
d="M598 578l336 421h323l-335 -421l335 -420h-323zM401 158l-335 420l335 421h324l-336 -421l336 -420h-324z" />
    <glyph glyph-name="logicalnot" unicode="&#xac;" horiz-adv-x="1271" 
d="M96 690v266h1037v-686h-277v420h-760z" />
    <glyph glyph-name="uni00AD" unicode="&#xad;" horiz-adv-x="884" 
d="M121 434v307h643v-307h-643z" />
    <glyph glyph-name="registered" unicode="&#xae;" horiz-adv-x="1652" 
d="M88 733q0 313 215 534q214 220 520 220q310 0 527 -220t217 -534t-217 -535q-218 -223 -527 -223q-302 0 -519 223q-216 222 -216 535zM319 733q0 -228 146 -388q145 -159 358 -159q217 0 366 159q148 158 148 388q0 228 -148 385q-149 158 -366 158q-212 0 -358 -158
t-146 -385zM557 383v711h334q113 0 182 -64q68 -63 68 -172q0 -77 -40 -124q-40 -48 -79 -58v-4q10 -8 27 -41l129 -248h-242l-100 242h-58v-242h-221zM778 772h56q81 0 81 86q0 84 -77 84h-60v-170z" />
    <glyph glyph-name="macron" unicode="&#xaf;" horiz-adv-x="993" 
d="M215 1602v229h563v-229h-563z" />
    <glyph glyph-name="degree" unicode="&#xb0;" horiz-adv-x="897" 
d="M449 788q-155 0 -264 103q-107 101 -107 250q0 145 108 250q107 104 263 104q155 0 262 -104q108 -105 108 -250q0 -148 -108 -250q-109 -103 -262 -103zM449 1034q45 0 79 32q33 32 33 77q0 44 -34 75t-78 31q-45 0 -79 -31t-34 -75q0 -45 33 -77q34 -32 80 -32z" />
    <glyph glyph-name="plusminus" unicode="&#xb1;" 
d="M55 455v266h420v457h279v-457h420v-266h-420v-455h-279v455h-420zM76 -143h1077v-267h-1077v267z" />
    <glyph glyph-name="twosuperior" unicode="&#xb2;" horiz-adv-x="819" 
d="M76 866q-10 54 -10 101q0 102 42 180q42 79 102 122t120 78q65 37 101 67q42 34 42 71q0 33 -27 51t-65 18q-71 0 -145 -92l-170 146q50 83 140 132q92 50 193 50q131 0 233 -75q101 -74 101 -218q0 -97 -56 -171q-56 -73 -125 -108q-64 -32 -130 -69q-62 -35 -68 -62
h391v-221h-669z" />
    <glyph glyph-name="threesuperior" unicode="&#xb3;" horiz-adv-x="819" 
d="M383 846q-210 0 -328 139l125 184q72 -88 187 -88q49 0 80 25q30 24 30 61q0 38 -36 56t-91 18h-76l-49 117l127 141l49 47v4q-39 -4 -69 -4h-226v223h603v-161l-170 -187q198 -49 198 -258q0 -128 -94 -222q-95 -95 -260 -95z" />
    <glyph glyph-name="acute" unicode="&#xb4;" horiz-adv-x="991" 
d="M238 1559l165 307h351l-242 -307h-274z" />
    <glyph glyph-name="mu" unicode="&#xb5;" horiz-adv-x="1294" 
d="M426 -16q16 -96 16 -181v-213h-301v1465h355v-619q0 -139 112 -139q109 0 166 83q57 82 57 208v467h355v-1055h-340v102l4 56h-6q-1 -2 -4.5 -9.5t-6.5 -11.5q-8 -13 -35 -43q-29 -32 -62 -55q-37 -26 -93 -44q-62 -20 -127 -20q-39 0 -86 9h-4z" />
    <glyph glyph-name="mu" unicode="&#x3bc;" horiz-adv-x="1294" 
d="M426 -16q16 -96 16 -181v-213h-301v1465h355v-619q0 -139 112 -139q109 0 166 83q57 82 57 208v467h355v-1055h-340v102l4 56h-6q-1 -2 -4.5 -9.5t-6.5 -11.5q-8 -13 -35 -43q-29 -32 -62 -55q-37 -26 -93 -44q-62 -20 -127 -20q-39 0 -86 9h-4z" />
    <glyph glyph-name="paragraph" unicode="&#xb6;" horiz-adv-x="1374" 
d="M543 -102v596q-199 0 -338 141q-139 140 -139 346q0 205 139 344t338 139h731v-307h-486v-1259h-245zM915 -102v1157h246v-1157h-246z" />
    <glyph glyph-name="periodcentered" unicode="&#xb7;" horiz-adv-x="565" 
d="M121 436v336h323v-336h-323z" />
    <glyph glyph-name="cedilla" unicode="&#xb8;" horiz-adv-x="991" 
d="M336 -168l72 227l147 -34v-15l-20 -84q153 -16 153 -164q0 -101 -70 -147q-69 -45 -169 -45q-77 0 -146 18v179q37 -21 92 -21q78 0 78 47q0 43 -84 43z" />
    <glyph glyph-name="onesuperior" unicode="&#xb9;" horiz-adv-x="819" 
d="M117 866v221h182v293l6 66h-4q-10 -21 -22 -31l-50 -45l-147 162l254 237h221v-682h184v-221h-624z" />
    <glyph glyph-name="ordmasculine" unicode="&#xba;" horiz-adv-x="974" 
d="M487 788q-156 0 -265 98q-107 97 -107 251t107 251t263 97q162 0 269 -97q108 -97 108 -251q0 -153 -108 -251q-109 -98 -267 -98zM487 999q55 0 92 37t37 101q0 62 -37 100q-38 39 -92 39q-53 0 -91 -39q-38 -40 -38 -100q0 -63 38 -101q37 -37 91 -37zM141 549v174h693
v-174h-693z" />
    <glyph glyph-name="guillemotright" unicode="&#xbb;" horiz-adv-x="1339" 
d="M614 158l336 420l-336 421h324l336 -421l-336 -420h-324zM82 158l336 420l-336 421h324l335 -421l-335 -420h-324z" />
    <glyph glyph-name="onequarter" unicode="&#xbc;" horiz-adv-x="2074" 
d="M1642 0v178h-403v172l350 553h307v-506h109v-219h-109v-178h-254zM1483 397h159v185l9 102h-4q-17 -51 -43 -94l-121 -189v-4zM807 0h-244l688 1464h244zM109 561v221h182v293l6 66h-4q-10 -19 -23 -31l-49 -45l-147 162l254 237h221v-682h184v-221h-624z" />
    <glyph glyph-name="onehalf" unicode="&#xbd;" horiz-adv-x="2056" 
d="M811 0h-244l688 1464h244zM104 561v221h183v293l6 66h-4q-10 -19 -23 -31l-49 -45l-147 162l254 237h221v-682h184v-221h-625zM1311 0q-11 60 -11 100q0 103 42 181q42 77 102 121t120 78q64 37 102 68q42 34 42 70q0 34 -27 52t-65 18q-72 0 -146 -92l-170 145
q50 83 141 132q94 51 193 51q131 0 233 -75q101 -74 101 -218q0 -97 -56 -171q-57 -75 -125 -109q-81 -40 -130 -68q-62 -35 -68 -62h391v-221h-669z" />
    <glyph glyph-name="threequarters" unicode="&#xbe;" horiz-adv-x="2088" 
d="M395 541q-209 0 -327 139l125 184q72 -88 186 -88q50 0 81 25q29 23 29 61t-35 56q-36 18 -92 18h-75l-49 117l127 141l49 47v4q-39 -4 -70 -4h-225v223h602v-161l-170 -187q199 -50 199 -258q0 -127 -95 -222t-260 -95zM817 0h-244l689 1464h243zM1653 0v178h-404v172
l350 553h308v-506h108v-219h-108v-178h-254zM1493 397h160v185l8 102h-4q-17 -51 -43 -94l-121 -189v-4z" />
    <glyph glyph-name="questiondown" unicode="&#xbf;" horiz-adv-x="1030" 
d="M760 602v-102q0 -76 -33 -141q-33 -64 -81 -106q-49 -43 -95 -80q-48 -39 -80 -81q-33 -44 -33 -90q0 -52 43 -86q44 -35 103 -35q94 0 194 88l197 -239q-170 -170 -428 -170q-190 0 -333 107q-144 108 -144 294q0 95 35 169q36 77 89 125q57 52 103 90q52 43 87 88
q36 46 36 95v74h340zM752 1055v-307h-324v307h324z" />
    <glyph glyph-name="Agrave" unicode="&#xc0;" horiz-adv-x="1359" 
d="M-6 0l498 1464h376l498 -1464h-369l-90 307h-456l-89 -307h-368zM535 594h288l-82 285l-59 251h-4q-33 -161 -60 -251zM553 1559l-242 307h351l165 -307h-274z" />
    <glyph glyph-name="Aacute" unicode="&#xc1;" horiz-adv-x="1359" 
d="M-6 0l498 1464h376l498 -1464h-369l-90 307h-456l-89 -307h-368zM535 594h288l-82 285l-59 251h-4q-33 -161 -60 -251zM532 1559l166 307h351l-242 -307h-275z" />
    <glyph glyph-name="Acircumflex" unicode="&#xc2;" horiz-adv-x="1359" 
d="M-6 0l498 1464h376l498 -1464h-369l-90 307h-456l-89 -307h-368zM535 594h288l-82 285l-59 251h-4q-33 -161 -60 -251zM305 1559l203 307h344l203 -307h-277l-96 167h-4l-96 -167h-277z" />
    <glyph glyph-name="Atilde" unicode="&#xc3;" horiz-adv-x="1359" 
d="M-6 0l498 1464h376l498 -1464h-369l-90 307h-456l-89 -307h-368zM535 594h288l-82 285l-59 251h-4q-33 -161 -60 -251zM268 1559q0 313 262 313q59 0 107 -31q40 -26 84 -61q39 -31 67 -31q76 0 76 117h230q0 -314 -263 -314q-58 0 -106 31q-34 22 -84 62q-37 30 -68 30
q-75 0 -75 -116h-230z" />
    <glyph glyph-name="Adieresis" unicode="&#xc4;" horiz-adv-x="1359" 
d="M-6 0l498 1464h376l498 -1464h-369l-90 307h-456l-89 -307h-368zM535 594h288l-82 285l-59 251h-4q-33 -161 -60 -251zM766 1579v287h258v-287h-258zM338 1579v287h258v-287h-258z" />
    <glyph glyph-name="Aring" unicode="&#xc5;" horiz-adv-x="1359" 
d="M-6 0l498 1464h376l498 -1464h-369l-90 307h-456l-89 -307h-368zM535 594h288l-82 285l-59 251h-4q-33 -161 -60 -251zM680 1530q-91 0 -157 45t-66 129q0 83 66 130q65 46 157 46q91 0 158 -46t67 -130t-67 -129q-68 -45 -158 -45zM680 1632q32 0 52 20t20 52
q0 31 -20 53q-19 21 -52 21q-30 0 -50 -21q-20 -22 -20 -53t19 -52q18 -20 51 -20z" />
    <glyph glyph-name="AE" unicode="&#xc6;" horiz-adv-x="1943" 
d="M-20 0l612 1464h1249v-307h-559v-266h447v-307h-447v-277h586v-307h-944v590h-344l-228 -590h-372zM690 877h234v280h-125z" />
    <glyph glyph-name="Ccedilla" unicode="&#xc7;" horiz-adv-x="1462" 
d="M684 -168l47 150q-302 35 -478 242q-177 208 -177 511q0 325 216 539q217 215 552 215q155 0 299 -52t250 -155l-166 -270q-71 64 -173 107q-99 42 -194 42q-204 0 -309 -122q-105 -121 -105 -296q0 -179 108 -309q108 -131 306 -131q209 0 389 180l185 -262
q-218 -226 -539 -244l-12 -51q153 -16 153 -164q0 -102 -69 -147t-170 -45q-77 0 -146 18v179q37 -21 92 -21q78 0 78 47q0 43 -84 43z" />
    <glyph glyph-name="Egrave" unicode="&#xc8;" horiz-adv-x="1175" 
d="M154 0v1464h917v-307h-559v-266h446v-307h-446v-277h588v-307h-946zM502 1559l-242 307h350l166 -307h-274z" />
    <glyph glyph-name="Eacute" unicode="&#xc9;" horiz-adv-x="1175" 
d="M154 0v1464h917v-307h-559v-266h446v-307h-446v-277h588v-307h-946zM481 1559l166 307h350l-241 -307h-275z" />
    <glyph glyph-name="Ecircumflex" unicode="&#xca;" horiz-adv-x="1175" 
d="M154 0v1464h917v-307h-559v-266h446v-307h-446v-277h588v-307h-946zM254 1559l203 307h344l203 -307h-277l-96 167h-4l-97 -167h-276z" />
    <glyph glyph-name="Edieresis" unicode="&#xcb;" horiz-adv-x="1175" 
d="M154 0v1464h917v-307h-559v-266h446v-307h-446v-277h588v-307h-946zM715 1579v287h258v-287h-258zM287 1579v287h258v-287h-258z" />
    <glyph glyph-name="Igrave" unicode="&#xcc;" horiz-adv-x="665" 
d="M154 0v1464h358v-1464h-358zM207 1559l-242 307h350l166 -307h-274z" />
    <glyph glyph-name="Iacute" unicode="&#xcd;" horiz-adv-x="665" 
d="M154 0v1464h358v-1464h-358zM186 1559l166 307h350l-241 -307h-275z" />
    <glyph glyph-name="Icircumflex" unicode="&#xce;" horiz-adv-x="665" 
d="M154 0v1464h358v-1464h-358zM-41 1559l203 307h344l203 -307h-277l-96 167h-4l-96 -167h-277z" />
    <glyph glyph-name="Idieresis" unicode="&#xcf;" horiz-adv-x="665" 
d="M154 0v1464h358v-1464h-358zM420 1579v287h258v-287h-258zM-8 1579v287h258v-287h-258z" />
    <glyph glyph-name="Eth" unicode="&#xd0;" horiz-adv-x="1519" 
d="M164 0v582h-117v286h117v596h520q349 0 552 -193q204 -193 204 -536q0 -344 -204 -539q-205 -196 -552 -196h-520zM522 307h148q189 0 294 111t105 317q0 207 -106 314q-107 108 -293 108h-148v-289h213v-286h-213v-275z" />
    <glyph glyph-name="Ntilde" unicode="&#xd1;" horiz-adv-x="1544" 
d="M154 0v1464h362l406 -684q37 -66 55 -105q42 -88 49 -104l18 -41h5q-17 162 -17 250v684h359v-1464h-361l-407 682q-44 79 -56 105q-42 88 -49 104l-18 41h-4q16 -153 16 -250v-682h-358zM360 1559q0 313 263 313q58 0 106 -31q40 -26 84 -61q39 -31 68 -31q75 0 75 117
h230q0 -314 -262 -314q-59 0 -107 31q-34 22 -84 62q-37 30 -67 30q-76 0 -76 -116h-230z" />
    <glyph glyph-name="Ograve" unicode="&#xd2;" horiz-adv-x="1679" 
d="M74 741q0 319 215 534q214 214 551 214t551 -214q215 -215 215 -534q0 -326 -215 -546t-551 -220t-551 220t-215 546zM444 741q0 -187 112 -313q111 -125 284 -125q172 0 283 125q112 126 112 313q0 179 -112 300q-111 120 -283 120q-173 0 -284 -120
q-112 -121 -112 -300zM713 1559l-242 307h350l166 -307h-274z" />
    <glyph glyph-name="Oacute" unicode="&#xd3;" horiz-adv-x="1679" 
d="M74 741q0 319 215 534q214 214 551 214t551 -214q215 -215 215 -534q0 -326 -215 -546t-551 -220t-551 220t-215 546zM444 741q0 -187 112 -313q111 -125 284 -125q172 0 283 125q112 126 112 313q0 179 -112 300q-111 120 -283 120q-173 0 -284 -120
q-112 -121 -112 -300zM692 1559l166 307h350l-241 -307h-275z" />
    <glyph glyph-name="Ocircumflex" unicode="&#xd4;" horiz-adv-x="1679" 
d="M74 741q0 319 215 534q214 214 551 214t551 -214q215 -215 215 -534q0 -326 -215 -546t-551 -220t-551 220t-215 546zM444 741q0 -187 112 -313q111 -125 284 -125q172 0 283 125q112 126 112 313q0 179 -112 300q-111 120 -283 120q-173 0 -284 -120
q-112 -121 -112 -300zM465 1559l203 307h344l202 -307h-276l-96 167h-4l-97 -167h-276z" />
    <glyph glyph-name="Otilde" unicode="&#xd5;" horiz-adv-x="1679" 
d="M74 741q0 319 215 534q214 214 551 214t551 -214q215 -215 215 -534q0 -326 -215 -546t-551 -220t-551 220t-215 546zM444 741q0 -187 112 -313q111 -125 284 -125q172 0 283 125q112 126 112 313q0 179 -112 300q-111 120 -283 120q-173 0 -284 -120
q-112 -121 -112 -300zM428 1559q0 313 262 313q59 0 107 -31q40 -26 84 -61q39 -31 67 -31q76 0 76 117h229q0 -314 -262 -314q-58 0 -106 31q-34 22 -84 62q-37 30 -68 30q-76 0 -76 -116h-229z" />
    <glyph glyph-name="Odieresis" unicode="&#xd6;" horiz-adv-x="1679" 
d="M74 741q0 319 215 534q214 214 551 214t551 -214q215 -215 215 -534q0 -326 -215 -546t-551 -220t-551 220t-215 546zM444 741q0 -187 112 -313q111 -125 284 -125q172 0 283 125q112 126 112 313q0 179 -112 300q-111 120 -283 120q-173 0 -284 -120
q-112 -121 -112 -300zM926 1579v287h258v-287h-258zM498 1579v287h258v-287h-258z" />
    <glyph glyph-name="multiply" unicode="&#xd7;" 
d="M57 188l373 400l-373 401l189 189l366 -394l369 394l188 -189l-374 -401l374 -400l-188 -188l-369 393l-366 -393z" />
    <glyph glyph-name="Oslash" unicode="&#xd8;" horiz-adv-x="1677" 
d="M213 41l98 135q-237 220 -237 565q0 318 218 533t548 215q202 0 360 -82l84 115l143 -97l-81 -112q260 -221 260 -572q0 -324 -218 -545t-548 -221q-215 0 -389 99l-95 -131zM524 471l475 655q-78 35 -159 35q-167 0 -281 -120q-115 -121 -115 -300q0 -157 80 -270z
M651 352q88 -49 189 -49q166 0 280 125q115 126 115 313q0 168 -98 281z" />
    <glyph glyph-name="Ugrave" unicode="&#xd9;" horiz-adv-x="1499" 
d="M137 539v925h359v-925q0 -113 68 -174q70 -62 186 -62q115 0 185 62q69 61 69 174v925h358v-925q0 -251 -168 -407q-169 -157 -442 -157q-275 0 -446 157q-169 156 -169 407zM623 1559l-242 307h350l166 -307h-274z" />
    <glyph glyph-name="Uacute" unicode="&#xda;" horiz-adv-x="1499" 
d="M137 539v925h359v-925q0 -113 68 -174q70 -62 186 -62q115 0 185 62q69 61 69 174v925h358v-925q0 -251 -168 -407q-169 -157 -442 -157q-275 0 -446 157q-169 156 -169 407zM602 1559l166 307h350l-241 -307h-275z" />
    <glyph glyph-name="Ucircumflex" unicode="&#xdb;" horiz-adv-x="1499" 
d="M137 539v925h359v-925q0 -113 68 -174q70 -62 186 -62q115 0 185 62q69 61 69 174v925h358v-925q0 -251 -168 -407q-169 -157 -442 -157q-275 0 -446 157q-169 156 -169 407zM375 1559l203 307h344l202 -307h-276l-96 167h-4l-97 -167h-276z" />
    <glyph glyph-name="Udieresis" unicode="&#xdc;" horiz-adv-x="1499" 
d="M137 539v925h359v-925q0 -113 68 -174q70 -62 186 -62q115 0 185 62q69 61 69 174v925h358v-925q0 -251 -168 -407q-169 -157 -442 -157q-275 0 -446 157q-169 156 -169 407zM836 1579v287h258v-287h-258zM408 1579v287h258v-287h-258z" />
    <glyph glyph-name="Yacute" unicode="&#xdd;" horiz-adv-x="1284" 
d="M463 0v600l-483 864h407l166 -352l88 -211h4q36 98 88 211l164 352h408l-484 -864v-600h-358zM496 1559l166 307h350l-242 -307h-274z" />
    <glyph glyph-name="Thorn" unicode="&#xde;" horiz-adv-x="1288" 
d="M154 0v1464h358v-217h250q213 0 345 -141t132 -363q0 -223 -132 -365t-345 -142h-250v-236h-358zM512 543h176q90 0 138 55t48 145q0 91 -47 144t-133 53h-182v-397z" />
    <glyph glyph-name="germandbls" unicode="&#xdf;" horiz-adv-x="1277" 
d="M119 0v1079q0 193 153 301q154 109 369 109q191 0 333 -112q140 -110 140 -283q0 -70 -37 -128q-48 -76 -73 -107q-37 -47 -37 -93q0 -33 43 -73q45 -42 94 -78q50 -36 94 -110q43 -71 43 -161q0 -171 -115 -265q-114 -93 -282 -93q-161 0 -254 43v290q99 -38 194 -38
q103 0 103 86q0 30 -43 69q-45 40 -95 76q-54 39 -96 102q-43 65 -43 144q0 64 37 123q39 62 74 110q37 50 37 94q0 49 -34 79t-93 30q-158 0 -158 -139v-1055h-354z" />
    <glyph glyph-name="agrave" unicode="&#xe0;" horiz-adv-x="1132" 
d="M45 297q0 101 55 174q56 74 147 113q89 38 189 56q93 17 205 17h31v19q0 117 -150 117q-139 0 -291 -101l-122 250q73 56 197 96q128 41 249 41q219 0 345 -114t126 -316v-649h-324v63l5 66h-5q-52 -73 -136 -113q-87 -41 -177 -41q-150 0 -248 93q-96 92 -96 229z
M395 330q0 -40 27 -65q26 -25 74 -25q75 0 127 59q53 61 53 127v29h-33q-98 0 -173 -30t-75 -95zM440 1157l-241 307h350l166 -307h-275z" />
    <glyph glyph-name="aacute" unicode="&#xe1;" horiz-adv-x="1132" 
d="M45 297q0 101 55 174q56 74 147 113q89 38 189 56q93 17 205 17h31v19q0 117 -150 117q-139 0 -291 -101l-122 250q73 56 197 96q128 41 249 41q219 0 345 -114t126 -316v-649h-324v63l5 66h-5q-52 -73 -136 -113q-87 -41 -177 -41q-150 0 -248 93q-96 92 -96 229z
M395 330q0 -40 27 -65q26 -25 74 -25q75 0 127 59q53 61 53 127v29h-33q-98 0 -173 -30t-75 -95zM418 1157l166 307h350l-242 -307h-274z" />
    <glyph glyph-name="acircumflex" unicode="&#xe2;" horiz-adv-x="1132" 
d="M45 297q0 101 55 174q56 74 147 113q89 38 189 56q93 17 205 17h31v19q0 117 -150 117q-139 0 -291 -101l-122 250q73 56 197 96q128 41 249 41q219 0 345 -114t126 -316v-649h-324v63l5 66h-5q-52 -73 -136 -113q-87 -41 -177 -41q-150 0 -248 93q-96 92 -96 229z
M395 330q0 -40 27 -65q26 -25 74 -25q75 0 127 59q53 61 53 127v29h-33q-98 0 -173 -30t-75 -95zM190 1157l203 307h344l203 -307h-276l-97 168h-4l-96 -168h-277z" />
    <glyph glyph-name="atilde" unicode="&#xe3;" horiz-adv-x="1132" 
d="M45 297q0 101 55 174q56 74 147 113q89 38 189 56q93 17 205 17h31v19q0 117 -150 117q-139 0 -291 -101l-122 250q73 56 197 96q128 41 249 41q219 0 345 -114t126 -316v-649h-324v63l5 66h-5q-52 -73 -136 -113q-87 -41 -177 -41q-150 0 -248 93q-96 92 -96 229z
M395 330q0 -40 27 -65q26 -25 74 -25q75 0 127 59q53 61 53 127v29h-33q-98 0 -173 -30t-75 -95zM154 1157q0 313 262 313q60 0 106 -30q34 -22 84 -62q37 -30 68 -30q76 0 76 116h229q0 -313 -262 -313q-59 0 -107 31q-40 26 -84 61q-39 31 -67 31q-76 0 -76 -117h-229z
" />
    <glyph glyph-name="adieresis" unicode="&#xe4;" horiz-adv-x="1132" 
d="M45 297q0 101 55 174q56 74 147 113q89 38 189 56q93 17 205 17h31v19q0 117 -150 117q-139 0 -291 -101l-122 250q73 56 197 96q128 41 249 41q219 0 345 -114t126 -316v-649h-324v63l5 66h-5q-52 -73 -136 -113q-87 -41 -177 -41q-150 0 -248 93q-96 92 -96 229z
M395 330q0 -40 27 -65q26 -25 74 -25q75 0 127 59q53 61 53 127v29h-33q-98 0 -173 -30t-75 -95zM651 1178v286h258v-286h-258zM223 1178v286h258v-286h-258z" />
    <glyph glyph-name="aring" unicode="&#xe5;" horiz-adv-x="1132" 
d="M45 297q0 101 55 174q56 74 147 113q89 38 189 56q93 17 205 17h31v19q0 117 -150 117q-139 0 -291 -101l-122 250q73 56 197 96q128 41 249 41q219 0 345 -114t126 -316v-649h-324v63l5 66h-5q-52 -73 -136 -113q-87 -41 -177 -41q-150 0 -248 93q-96 92 -96 229z
M395 330q0 -40 27 -65q26 -25 74 -25q75 0 127 59q53 61 53 127v29h-33q-98 0 -173 -30t-75 -95zM565 1128q-90 0 -156 45q-67 46 -67 130q0 83 67 130q65 46 156 46t158 -46q68 -47 68 -130q0 -85 -68 -130q-67 -45 -158 -45zM565 1231q33 0 52 19q20 20 20 53q0 31 -20 53
q-19 20 -52 20q-31 0 -50 -20t-19 -53t18 -53q18 -19 51 -19z" />
    <glyph glyph-name="ae" unicode="&#xe6;" horiz-adv-x="1746" 
d="M45 315q0 92 49 157q50 67 118 101q74 37 162 57q97 22 158 26q88 6 132 6h8v14q0 117 -156 117q-133 0 -287 -101l-122 248q71 58 196 99q121 40 240 40q218 0 334 -104h4q126 104 315 104q221 0 354 -146t133 -374q0 -22 -8 -100h-665q18 -96 87 -142q70 -47 158 -47
q147 0 291 105l131 -246q-80 -71 -202 -112q-125 -42 -248 -42q-272 0 -424 185h-4q-33 -60 -133 -121q-101 -62 -263 -62q-150 0 -255 94q-103 93 -103 244zM1018 662h309q0 59 -37 105t-94 46q-139 0 -178 -151zM401 334q0 -88 105 -88q70 0 121 60t51 128v25h-35
q-95 0 -168 -33q-74 -33 -74 -92z" />
    <glyph glyph-name="ccedilla" unicode="&#xe7;" horiz-adv-x="1130" 
d="M481 -168l47 154q-220 35 -344 187q-125 154 -125 355q0 224 159 388q159 163 429 163q120 0 233 -40q115 -41 187 -119l-149 -238q-106 102 -248 102q-121 0 -186 -74q-66 -75 -66 -178q0 -104 69 -183t195 -79q143 0 289 127l129 -247q-152 -157 -408 -173l-12 -51
q154 -17 154 -164q0 -101 -70 -147q-69 -45 -170 -45q-76 0 -145 18v179q38 -21 92 -21q77 0 77 47q0 43 -83 43z" />
    <glyph glyph-name="egrave" unicode="&#xe8;" horiz-adv-x="1161" 
d="M59 528q0 239 150 395t399 156q228 0 358 -142t130 -368q0 -22 -9 -110h-665q18 -93 87 -141t159 -48q130 0 290 107l132 -248q-85 -73 -206 -113q-123 -41 -245 -41q-268 0 -424 164q-156 163 -156 389zM430 662h315q0 69 -39 112q-41 45 -106 45q-136 0 -170 -157z
M475 1157l-242 307h351l166 -307h-275z" />
    <glyph glyph-name="eacute" unicode="&#xe9;" horiz-adv-x="1161" 
d="M59 528q0 239 150 395t399 156q228 0 358 -142t130 -368q0 -22 -9 -110h-665q18 -93 87 -141t159 -48q130 0 290 107l132 -248q-85 -73 -206 -113q-123 -41 -245 -41q-268 0 -424 164q-156 163 -156 389zM430 662h315q0 69 -39 112q-41 45 -106 45q-136 0 -170 -157z
M453 1157l165 307h351l-242 -307h-274z" />
    <glyph glyph-name="ecircumflex" unicode="&#xea;" horiz-adv-x="1161" 
d="M59 528q0 239 150 395t399 156q228 0 358 -142t130 -368q0 -22 -9 -110h-665q18 -93 87 -141t159 -48q130 0 290 107l132 -248q-85 -73 -206 -113q-123 -41 -245 -41q-268 0 -424 164q-156 163 -156 389zM430 662h315q0 69 -39 112q-41 45 -106 45q-136 0 -170 -157z
M225 1157l203 307h344l203 -307h-277l-96 168h-4l-96 -168h-277z" />
    <glyph glyph-name="edieresis" unicode="&#xeb;" horiz-adv-x="1161" 
d="M59 528q0 239 150 395t399 156q228 0 358 -142t130 -368q0 -22 -9 -110h-665q18 -93 87 -141t159 -48q130 0 290 107l132 -248q-85 -73 -206 -113q-123 -41 -245 -41q-268 0 -424 164q-156 163 -156 389zM430 662h315q0 69 -39 112q-41 45 -106 45q-136 0 -170 -157z
M686 1178v286h258v-286h-258zM258 1178v286h258v-286h-258z" />
    <glyph glyph-name="igrave" unicode="&#xec;" horiz-adv-x="591" 
d="M119 0v1055h354v-1055h-354zM168 1157l-242 307h350l166 -307h-274z" />
    <glyph glyph-name="iacute" unicode="&#xed;" horiz-adv-x="591" 
d="M119 0v1055h354v-1055h-354zM147 1157l166 307h351l-242 -307h-275z" />
    <glyph glyph-name="icircumflex" unicode="&#xee;" horiz-adv-x="591" 
d="M119 0v1055h354v-1055h-354zM-80 1157l203 307h344l203 -307h-277l-96 168h-4l-96 -168h-277z" />
    <glyph glyph-name="idieresis" unicode="&#xef;" horiz-adv-x="591" 
d="M119 0v1055h354v-1055h-354zM381 1178v286h258v-286h-258zM-47 1178v286h258v-286h-258z" />
    <glyph glyph-name="eth" unicode="&#xf0;" horiz-adv-x="1202" 
d="M61 494q0 187 130 321q131 135 344 135q38 0 70 -4q44 -6 54 -8l17 -6h4q-51 78 -143 129l-394 -162v195l189 80q-104 44 -195 61l99 276q268 -57 475 -182l329 137v-194l-166 -70q261 -252 261 -622q0 -88 -18 -171q-19 -87 -59 -163q-42 -80 -104 -140
q-60 -59 -157 -95q-96 -36 -215 -36q-237 0 -379 154t-142 365zM418 483q0 -89 41 -151t129 -62q97 0 144 71q46 70 46 171q0 76 -45 122t-125 46q-92 0 -141 -56t-49 -141z" />
    <glyph glyph-name="ntilde" unicode="&#xf1;" horiz-adv-x="1282" 
d="M119 0v1055h340v-92l-4 -66h4q107 182 336 182q379 0 379 -395v-684h-355v618q0 140 -117 140q-112 0 -171 -80q-58 -79 -58 -201v-477h-354zM242 1157q0 313 262 313q60 0 106 -30q34 -22 84 -62q38 -30 68 -30q76 0 76 116h229q0 -313 -262 -313q-59 0 -107 31
q-40 26 -84 61q-39 31 -67 31q-76 0 -76 -117h-229z" />
    <glyph glyph-name="ograve" unicode="&#xf2;" horiz-adv-x="1314" 
d="M59 524q0 244 172 400q171 155 424 155q255 0 427 -154q173 -155 173 -401q0 -243 -172 -396q-173 -153 -426 -153t-426 153q-172 153 -172 396zM418 524q0 -115 69 -184q70 -70 170 -70t170 70t70 184q0 116 -70 189q-68 71 -170 71t-170 -71q-69 -72 -69 -189z
M530 1157l-241 307h350l166 -307h-275z" />
    <glyph glyph-name="oacute" unicode="&#xf3;" horiz-adv-x="1314" 
d="M59 524q0 244 172 400q171 155 424 155q255 0 427 -154q173 -155 173 -401q0 -243 -172 -396q-173 -153 -426 -153t-426 153q-172 153 -172 396zM418 524q0 -115 69 -184q70 -70 170 -70t170 70t70 184q0 116 -70 189q-68 71 -170 71t-170 -71q-69 -72 -69 -189z
M510 1157l166 307h350l-242 -307h-274z" />
    <glyph glyph-name="ocircumflex" unicode="&#xf4;" horiz-adv-x="1314" 
d="M59 524q0 244 172 400q171 155 424 155q255 0 427 -154q173 -155 173 -401q0 -243 -172 -396q-173 -153 -426 -153t-426 153q-172 153 -172 396zM418 524q0 -115 69 -184q70 -70 170 -70t170 70t70 184q0 116 -70 189q-68 71 -170 71t-170 -71q-69 -72 -69 -189z
M283 1157l202 307h344l203 -307h-276l-97 168h-4l-96 -168h-276z" />
    <glyph glyph-name="otilde" unicode="&#xf5;" horiz-adv-x="1314" 
d="M59 524q0 244 172 400q171 155 424 155q255 0 427 -154q173 -155 173 -401q0 -243 -172 -396q-173 -153 -426 -153t-426 153q-172 153 -172 396zM418 524q0 -115 69 -184q70 -70 170 -70t170 70t70 184q0 116 -70 189q-68 71 -170 71t-170 -71q-69 -72 -69 -189z
M246 1157q0 313 262 313q60 0 106 -30q34 -22 84 -62q38 -30 68 -30q76 0 76 116h229q0 -313 -262 -313q-59 0 -107 31q-40 26 -84 61q-39 31 -67 31q-76 0 -76 -117h-229z" />
    <glyph glyph-name="odieresis" unicode="&#xf6;" horiz-adv-x="1314" 
d="M59 524q0 244 172 400q171 155 424 155q255 0 427 -154q173 -155 173 -401q0 -243 -172 -396q-173 -153 -426 -153t-426 153q-172 153 -172 396zM418 524q0 -115 69 -184q70 -70 170 -70t170 70t70 184q0 116 -70 189q-68 71 -170 71t-170 -71q-69 -72 -69 -189z
M743 1178v286h258v-286h-258zM315 1178v286h258v-286h-258z" />
    <glyph glyph-name="divide" unicode="&#xf7;" 
d="M465 901v277h299v-277h-299zM55 455v266h1119v-266h-1119zM465 0v276h299v-276h-299z" />
    <glyph glyph-name="oslash" unicode="&#xf8;" horiz-adv-x="1314" 
d="M178 -8l80 112q-199 157 -199 420q0 244 172 400q171 155 424 155q143 0 269 -53l86 119l135 -92l-82 -113q192 -159 192 -416q0 -243 -172 -396q-173 -153 -426 -153q-133 0 -254 48l-90 -125zM457 379l282 391q-43 14 -82 14q-102 0 -170 -71q-69 -72 -69 -189
q0 -83 39 -145zM588 279q36 -9 69 -9q100 0 170 70t70 184q0 76 -33 138z" />
    <glyph glyph-name="ugrave" unicode="&#xf9;" horiz-adv-x="1271" 
d="M109 371v684h354v-619q0 -139 112 -139q109 0 166 83q58 84 58 208v467h354v-1055h-340v92l4 66h-4q-43 -84 -133 -133q-91 -50 -197 -50q-170 0 -273 94q-101 92 -101 302zM504 1157l-242 307h350l166 -307h-274z" />
    <glyph glyph-name="uacute" unicode="&#xfa;" horiz-adv-x="1271" 
d="M109 371v684h354v-619q0 -139 112 -139q109 0 166 83q58 84 58 208v467h354v-1055h-340v92l4 66h-4q-43 -84 -133 -133q-91 -50 -197 -50q-170 0 -273 94q-101 92 -101 302zM483 1157l166 307h350l-241 -307h-275z" />
    <glyph glyph-name="ucircumflex" unicode="&#xfb;" horiz-adv-x="1271" 
d="M109 371v684h354v-619q0 -139 112 -139q109 0 166 83q58 84 58 208v467h354v-1055h-340v92l4 66h-4q-43 -84 -133 -133q-91 -50 -197 -50q-170 0 -273 94q-101 92 -101 302zM256 1157l203 307h344l203 -307h-277l-96 168h-4l-97 -168h-276z" />
    <glyph glyph-name="udieresis" unicode="&#xfc;" horiz-adv-x="1271" 
d="M109 371v684h354v-619q0 -139 112 -139q109 0 166 83q58 84 58 208v467h354v-1055h-340v92l4 66h-4q-43 -84 -133 -133q-91 -50 -197 -50q-170 0 -273 94q-101 92 -101 302zM717 1178v286h258v-286h-258zM289 1178v286h258v-286h-258z" />
    <glyph glyph-name="yacute" unicode="&#xfd;" horiz-adv-x="1148" 
d="M129 -96q57 -39 109 -39q127 0 170 106l20 49l-448 1035h401l156 -486l38 -163h5q28 135 34 157l134 492h387l-433 -1168q-62 -164 -181 -240q-121 -77 -259 -77q-62 0 -123 18q-59 17 -92 37l-31 19zM430 1155l166 307h350l-241 -307h-275z" />
    <glyph glyph-name="thorn" unicode="&#xfe;" horiz-adv-x="1292" 
d="M119 -410v1874h354v-403l-4 -90h4q99 108 275 108q215 0 349 -156q134 -157 134 -395q0 -237 -134 -395t-349 -158q-186 0 -275 99h-4q4 -33 4 -90v-394h-354zM463 526q0 -256 213 -256q90 0 144 75t54 183q0 110 -54 183t-144 73q-213 0 -213 -258z" />
    <glyph glyph-name="ydieresis" unicode="&#xff;" horiz-adv-x="1148" 
d="M129 -96q57 -39 109 -39q127 0 170 106l20 49l-448 1035h401l156 -486l38 -163h5q28 135 34 157l134 492h387l-433 -1168q-62 -164 -181 -240q-121 -77 -259 -77q-62 0 -123 18q-59 17 -92 37l-31 19zM664 1176v286h258v-286h-258zM236 1176v286h258v-286h-258z" />
    <glyph glyph-name="Amacron" unicode="&#x100;" horiz-adv-x="1359" 
d="M-6 0l498 1464h376l498 -1464h-369l-90 307h-456l-89 -307h-368zM535 594h288l-82 285l-59 251h-4q-33 -161 -60 -251zM399 1602v229h564v-229h-564z" />
    <glyph glyph-name="amacron" unicode="&#x101;" horiz-adv-x="1132" 
d="M45 297q0 101 55 174q56 74 147 113q89 38 189 56q93 17 205 17h31v19q0 117 -150 117q-139 0 -291 -101l-122 250q73 56 197 96q128 41 249 41q219 0 345 -114t126 -316v-649h-324v63l5 66h-5q-52 -73 -136 -113q-87 -41 -177 -41q-150 0 -248 93q-96 92 -96 229z
M395 330q0 -40 27 -65q26 -25 74 -25q75 0 127 59q53 61 53 127v29h-33q-98 0 -173 -30t-75 -95zM285 1200v229h563v-229h-563z" />
    <glyph glyph-name="Abreve" unicode="&#x102;" horiz-adv-x="1359" 
d="M-6 0l498 1464h376l498 -1464h-369l-90 307h-456l-89 -307h-368zM535 594h288l-82 285l-59 251h-4q-33 -161 -60 -251zM680 1548q-149 0 -253 80q-103 79 -103 217v21h239v-23q0 -58 35 -88q36 -31 82 -31t82 31q35 30 35 88v23h239v-21q0 -138 -103 -217
q-104 -80 -253 -80z" />
    <glyph glyph-name="abreve" unicode="&#x103;" horiz-adv-x="1132" 
d="M45 297q0 101 55 174q56 74 147 113q89 38 189 56q93 17 205 17h31v19q0 117 -150 117q-139 0 -291 -101l-122 250q73 56 197 96q128 41 249 41q219 0 345 -114t126 -316v-649h-324v63l5 66h-5q-52 -73 -136 -113q-87 -41 -177 -41q-150 0 -248 93q-96 92 -96 229z
M395 330q0 -40 27 -65q26 -25 74 -25q75 0 127 59q53 61 53 127v29h-33q-98 0 -173 -30t-75 -95zM565 1147q-149 0 -253 80q-103 79 -103 217v20h240v-22q0 -58 34 -88q36 -31 82 -31t82 31q35 30 35 88v22h240v-20q0 -137 -104 -217t-253 -80z" />
    <glyph glyph-name="Aogonek" unicode="&#x104;" horiz-adv-x="1359" 
d="M-6 0l498 1464h376l498 -1464q-88 -82 -88 -125q0 -21 19 -33q20 -13 38 -14l21 -4l-86 -254q-27 4 -29 4q-21 2 -65 16q-51 17 -83 35q-36 21 -66 60t-30 88q0 114 131 227h-131l-90 307h-456l-89 -307h-368zM535 594h288l-82 285l-59 251h-4q-33 -161 -60 -251z" />
    <glyph glyph-name="aogonek" unicode="&#x105;" horiz-adv-x="1132" 
d="M45 297q0 101 55 174q56 74 147 113q89 38 189 56q93 17 205 17h31v19q0 117 -150 117q-139 0 -291 -101l-122 250q73 56 197 96q128 41 249 41q219 0 345 -114t126 -316v-649q-88 -82 -88 -125q0 -21 19 -33q20 -13 38 -14l21 -4l-86 -254q-27 4 -29 4q-21 2 -65 16
q-51 17 -83 35q-36 21 -66 60t-30 88q0 114 131 227h-86v63l5 66h-5q-52 -73 -136 -113q-87 -41 -177 -41q-150 0 -248 93q-96 92 -96 229zM395 330q0 -40 27 -65q26 -25 74 -25q75 0 127 59q53 61 53 127v29h-33q-98 0 -173 -30t-75 -95z" />
    <glyph glyph-name="Cacute" unicode="&#x106;" horiz-adv-x="1462" 
d="M76 735q0 325 216 539q217 215 552 215q155 0 299 -52t250 -155l-166 -270q-71 64 -173 107q-99 42 -194 42q-204 0 -309 -122q-105 -121 -105 -296q0 -179 108 -309q108 -131 306 -131q209 0 389 180l185 -262q-237 -246 -590 -246q-348 0 -558 214q-210 215 -210 546z
M676 1559l166 307h350l-242 -307h-274z" />
    <glyph glyph-name="cacute" unicode="&#x107;" horiz-adv-x="1130" 
d="M59 528q0 224 159 388q159 163 429 163q120 0 233 -40q115 -41 187 -119l-149 -238q-106 102 -248 102q-121 0 -186 -74q-66 -75 -66 -178q0 -104 69 -183t195 -79q143 0 289 127l129 -247q-79 -81 -200 -127q-125 -48 -253 -48q-270 0 -429 162t-159 391zM459 1157
l166 307h350l-242 -307h-274z" />
    <glyph glyph-name="Ccircumflex" unicode="&#x108;" horiz-adv-x="1462" 
d="M76 735q0 325 216 539q217 215 552 215q155 0 299 -52t250 -155l-166 -270q-71 64 -173 107q-99 42 -194 42q-204 0 -309 -122q-105 -121 -105 -296q0 -179 108 -309q108 -131 306 -131q209 0 389 180l185 -262q-237 -246 -590 -246q-348 0 -558 214q-210 215 -210 546z
M449 1559l202 307h344l203 -307h-276l-97 167h-4l-96 -167h-276z" />
    <glyph glyph-name="ccircumflex" unicode="&#x109;" horiz-adv-x="1130" 
d="M59 528q0 224 159 388q159 163 429 163q120 0 233 -40q115 -41 187 -119l-149 -238q-106 102 -248 102q-121 0 -186 -74q-66 -75 -66 -178q0 -104 69 -183t195 -79q143 0 289 127l129 -247q-79 -81 -200 -127q-125 -48 -253 -48q-270 0 -429 162t-159 391zM231 1157
l203 307h344l203 -307h-276l-97 168h-4l-96 -168h-277z" />
    <glyph glyph-name="Cdotaccent" unicode="&#x10a;" horiz-adv-x="1462" 
d="M76 735q0 325 216 539q217 215 552 215q155 0 299 -52t250 -155l-166 -270q-71 64 -173 107q-99 42 -194 42q-204 0 -309 -122q-105 -121 -105 -296q0 -179 108 -309q108 -131 306 -131q209 0 389 180l185 -262q-237 -246 -590 -246q-348 0 -558 214q-210 215 -210 546z
M678 1595v271h293v-271h-293z" />
    <glyph glyph-name="cdotaccent" unicode="&#x10b;" horiz-adv-x="1130" 
d="M59 528q0 224 159 388q159 163 429 163q120 0 233 -40q115 -41 187 -119l-149 -238q-106 102 -248 102q-121 0 -186 -74q-66 -75 -66 -178q0 -104 69 -183t195 -79q143 0 289 127l129 -247q-79 -81 -200 -127q-125 -48 -253 -48q-270 0 -429 162t-159 391zM461 1194v270
h293v-270h-293z" />
    <glyph glyph-name="Ccaron" unicode="&#x10c;" horiz-adv-x="1462" 
d="M76 735q0 325 216 539q217 215 552 215q155 0 299 -52t250 -155l-166 -270q-71 64 -173 107q-99 42 -194 42q-204 0 -309 -122q-105 -121 -105 -296q0 -179 108 -309q108 -131 306 -131q209 0 389 180l185 -262q-237 -246 -590 -246q-348 0 -558 214q-210 215 -210 546z
M651 1559l-202 307h276l96 -168h4l97 168h276l-203 -307h-344z" />
    <glyph glyph-name="ccaron" unicode="&#x10d;" horiz-adv-x="1130" 
d="M59 528q0 224 159 388q159 163 429 163q120 0 233 -40q115 -41 187 -119l-149 -238q-106 102 -248 102q-121 0 -186 -74q-66 -75 -66 -178q0 -104 69 -183t195 -79q143 0 289 127l129 -247q-79 -81 -200 -127q-125 -48 -253 -48q-270 0 -429 162t-159 391zM434 1157
l-203 307h277l96 -168h4l97 168h276l-203 -307h-344z" />
    <glyph glyph-name="Dcaron" unicode="&#x10e;" horiz-adv-x="1509" 
d="M154 0v1464h520q349 0 552 -193q204 -193 204 -536q0 -344 -204 -539q-205 -196 -552 -196h-520zM512 307h147q189 0 294 111q106 112 106 317t-107 314q-106 108 -293 108h-147v-850zM530 1559l-202 307h276l96 -168h5l96 168h276l-203 -307h-344z" />
    <glyph glyph-name="dcaron" unicode="&#x10f;" horiz-adv-x="1337" 
d="M63 528q0 247 135 400q133 151 347 151q192 0 276 -84h4q-2 28 -2 47v422h355v-1464h-332v70l2 59h-4q-101 -154 -305 -154q-215 0 -345 153q-131 154 -131 400zM420 528q0 -116 57 -188t150 -72q87 0 147 66t60 194q0 102 -55 178q-53 74 -152 74q-88 0 -148 -67
q-59 -66 -59 -185zM1272 1464h278q15 -60 15 -118q0 -95 -58 -211h-252q41 120 41 190q0 67 -24 139z" />
    <glyph glyph-name="Dcroat" unicode="&#x110;" horiz-adv-x="1519" 
d="M164 0v582h-117v286h117v596h520q349 0 552 -193q204 -193 204 -536q0 -344 -204 -539q-205 -196 -552 -196h-520zM522 307h148q189 0 294 111t105 317q0 207 -106 314q-107 108 -293 108h-148v-289h213v-286h-213v-275z" />
    <glyph glyph-name="dcroat" unicode="&#x111;" horiz-adv-x="1296" 
d="M63 528q0 247 135 400q133 151 347 151q193 0 276 -84h4q-2 28 -2 47v93h-258v194h258v135h355v-135h135v-194h-135v-1135h-332v70l2 59h-4q-109 -154 -305 -154q-215 0 -345 153q-131 154 -131 400zM420 528q0 -116 57 -188t150 -72q87 0 147 66t60 194q0 102 -55 178
q-53 74 -152 74q-88 0 -148 -67q-59 -66 -59 -185z" />
    <glyph glyph-name="Emacron" unicode="&#x112;" horiz-adv-x="1175" 
d="M154 0v1464h917v-307h-559v-266h446v-307h-446v-277h588v-307h-946zM348 1602v229h563v-229h-563z" />
    <glyph glyph-name="emacron" unicode="&#x113;" horiz-adv-x="1161" 
d="M59 528q0 239 150 395t399 156q228 0 358 -142t130 -368q0 -22 -9 -110h-665q18 -93 87 -141t159 -48q130 0 290 107l132 -248q-85 -73 -206 -113q-123 -41 -245 -41q-268 0 -424 164q-156 163 -156 389zM430 662h315q0 69 -39 112q-41 45 -106 45q-136 0 -170 -157z
M319 1200v230h564v-230h-564z" />
    <glyph glyph-name="Ebreve" unicode="&#x114;" horiz-adv-x="1175" 
d="M154 0v1464h917v-307h-559v-266h446v-307h-446v-277h588v-307h-946zM629 1548q-149 0 -253 80t-104 217v21h240v-23q0 -58 35 -88q36 -31 82 -31t82 31q34 30 34 88v23h240v-21q0 -138 -103 -217q-104 -80 -253 -80z" />
    <glyph glyph-name="ebreve" unicode="&#x115;" horiz-adv-x="1161" 
d="M59 528q0 239 150 395t399 156q228 0 358 -142t130 -368q0 -22 -9 -110h-665q18 -93 87 -141t159 -48q130 0 290 107l132 -248q-85 -73 -206 -113q-123 -41 -245 -41q-268 0 -424 164q-156 163 -156 389zM430 662h315q0 69 -39 112q-41 45 -106 45q-136 0 -170 -157z
M600 1147q-149 0 -253 80q-103 79 -103 217v20h239v-22q0 -58 35 -88q36 -31 82 -31t82 31q35 30 35 88v22h239v-20q0 -138 -103 -217q-104 -80 -253 -80z" />
    <glyph glyph-name="Edotaccent" unicode="&#x116;" horiz-adv-x="1175" 
d="M154 0v1464h917v-307h-559v-266h446v-307h-446v-277h588v-307h-946zM483 1595v271h293v-271h-293z" />
    <glyph glyph-name="edotaccent" unicode="&#x117;" horiz-adv-x="1161" 
d="M59 528q0 239 150 395t399 156q228 0 358 -142t130 -368q0 -22 -9 -110h-665q18 -93 87 -141t159 -48q130 0 290 107l132 -248q-85 -73 -206 -113q-123 -41 -245 -41q-268 0 -424 164q-156 163 -156 389zM430 662h315q0 69 -39 112q-41 45 -106 45q-136 0 -170 -157z
M455 1194v270h293v-270h-293z" />
    <glyph glyph-name="Eogonek" unicode="&#x118;" horiz-adv-x="1175" 
d="M154 0v1464h917v-307h-559v-266h446v-307h-446v-277h588v-307q-88 -82 -88 -125q0 -21 19 -33q20 -13 38 -14l21 -4l-86 -254q-27 4 -29 4q-22 2 -66 16q-51 17 -83 35q-34 20 -65 60q-30 39 -30 88q0 116 141 227h-718z" />
    <glyph glyph-name="eogonek" unicode="&#x119;" horiz-adv-x="1161" 
d="M59 528q0 239 150 395t399 156q228 0 358 -142t130 -368l-9 -110h-665q18 -93 87 -141t159 -48q138 0 290 107l129 -246q-16 -16 -79 -64q-66 -50 -102 -95q-38 -47 -38 -97q0 -21 20 -33q20 -13 38 -14l20 -4l-86 -254q-27 4 -29 4q-21 2 -65 16q-51 17 -83 35
q-36 21 -66 60q-29 38 -29 88q0 111 135 211q-63 -9 -84 -9q-268 0 -424 164q-156 163 -156 389zM430 661h315q0 66 -38 111q-39 47 -107 47q-132 0 -170 -158z" />
    <glyph glyph-name="Ecaron" unicode="&#x11a;" horiz-adv-x="1175" 
d="M154 0v1464h917v-307h-559v-266h446v-307h-446v-277h588v-307h-946zM457 1559l-203 307h276l97 -168h4l96 168h277l-203 -307h-344z" />
    <glyph glyph-name="ecaron" unicode="&#x11b;" horiz-adv-x="1161" 
d="M59 528q0 239 150 395t399 156q228 0 358 -142t130 -368q0 -22 -9 -110h-665q18 -93 87 -141t159 -48q130 0 290 107l132 -248q-85 -73 -206 -113q-123 -41 -245 -41q-268 0 -424 164q-156 163 -156 389zM430 662h315q0 69 -39 112q-41 45 -106 45q-136 0 -170 -157z
M428 1157l-203 307h277l96 -168h4l96 168h277l-203 -307h-344z" />
    <glyph glyph-name="Gcircumflex" unicode="&#x11c;" horiz-adv-x="1583" 
d="M76 735q0 322 218 538t550 216q342 0 563 -195l-172 -268q-63 57 -164 96t-192 39q-217 0 -325 -118q-108 -119 -108 -295q0 -202 122 -324q121 -121 298 -121q160 0 297 107v112h-207v305h525v-827h-299v41l2 61h-4q-67 -58 -171 -92q-107 -35 -214 -35q-295 0 -507 207
t-212 553zM449 1559l202 307h344l203 -307h-276l-97 167h-4l-96 -167h-276z" />
    <glyph glyph-name="gcircumflex" unicode="&#x11d;" horiz-adv-x="1280" 
d="M266 -68q138 -67 297 -67q244 0 244 203v34l2 39h-4q-91 -110 -264 -110q-227 0 -351 155t-124 375q0 219 122 368q123 150 351 150q184 0 286 -102h6q-2 16 -2 24v54h332v-959q0 -138 -51 -243q-51 -106 -139 -165q-90 -61 -190 -89q-104 -29 -216 -29q-220 0 -399 94z
M422 573q0 -107 51 -177t152 -70q83 0 136 52q54 52 54 179q0 227 -205 227q-90 0 -139 -58t-49 -153zM248 1157l203 307h344l202 -307h-276l-96 168h-4l-97 -168h-276z" />
    <glyph glyph-name="Gbreve" unicode="&#x11e;" horiz-adv-x="1583" 
d="M76 735q0 322 218 538t550 216q342 0 563 -195l-172 -268q-63 57 -164 96t-192 39q-217 0 -325 -118q-108 -119 -108 -295q0 -202 122 -324q121 -121 298 -121q160 0 297 107v112h-207v305h525v-827h-299v41l2 61h-4q-67 -58 -171 -92q-107 -35 -214 -35q-295 0 -507 207
t-212 553zM823 1548q-149 0 -253 80q-103 79 -103 217v21h240v-23q0 -58 34 -88q36 -31 82 -31t82 31q35 30 35 88v23h240v-21q0 -137 -104 -217t-253 -80z" />
    <glyph glyph-name="gbreve" unicode="&#x11f;" horiz-adv-x="1280" 
d="M266 -68q138 -67 297 -67q244 0 244 203v34l2 39h-4q-91 -110 -264 -110q-227 0 -351 155t-124 375q0 219 122 368q123 150 351 150q184 0 286 -102h6q-2 16 -2 24v54h332v-959q0 -138 -51 -243q-51 -106 -139 -165q-90 -61 -190 -89q-104 -29 -216 -29q-220 0 -399 94z
M422 573q0 -107 51 -177t152 -70q83 0 136 52q54 52 54 179q0 227 -205 227q-90 0 -139 -58t-49 -153zM623 1147q-149 0 -253 80t-104 217v20h240v-22q0 -58 35 -88q36 -31 82 -31t82 31q34 30 34 88v22h240v-20q0 -138 -103 -217q-104 -80 -253 -80z" />
    <glyph glyph-name="Gdotaccent" unicode="&#x120;" horiz-adv-x="1583" 
d="M76 735q0 322 218 538t550 216q342 0 563 -195l-172 -268q-63 57 -164 96t-192 39q-217 0 -325 -118q-108 -119 -108 -295q0 -202 122 -324q121 -121 298 -121q160 0 297 107v112h-207v305h525v-827h-299v41l2 61h-4q-67 -58 -171 -92q-107 -35 -214 -35q-295 0 -507 207
t-212 553zM678 1595v271h293v-271h-293z" />
    <glyph glyph-name="gdotaccent" unicode="&#x121;" horiz-adv-x="1280" 
d="M266 -68q138 -67 297 -67q244 0 244 203v34l2 39h-4q-91 -110 -264 -110q-227 0 -351 155t-124 375q0 219 122 368q123 150 351 150q184 0 286 -102h6q-2 16 -2 24v54h332v-959q0 -138 -51 -243q-51 -106 -139 -165q-90 -61 -190 -89q-104 -29 -216 -29q-220 0 -399 94z
M422 573q0 -107 51 -177t152 -70q83 0 136 52q54 52 54 179q0 227 -205 227q-90 0 -139 -58t-49 -153zM477 1194v270h293v-270h-293z" />
    <glyph glyph-name="Gcommaaccent" unicode="&#x122;" horiz-adv-x="1583" 
d="M76 735q0 322 218 538t550 216q342 0 563 -195l-172 -268q-63 57 -164 96t-192 39q-217 0 -325 -118q-108 -119 -108 -295q0 -202 122 -324q121 -121 298 -121q160 0 297 107v112h-207v305h525v-827h-299v41l2 61h-4q-67 -58 -171 -92q-107 -35 -214 -35q-295 0 -507 207
t-212 553zM649 -100h279q14 -56 14 -119q0 -97 -57 -211h-252q41 120 41 190q0 65 -25 140z" />
    <glyph glyph-name="gcommaaccent" unicode="&#x123;" horiz-adv-x="1280" 
d="M266 -68q138 -67 297 -67q244 0 244 203v34l2 39h-4q-91 -110 -264 -110q-227 0 -351 155t-124 375q0 219 122 368q123 150 351 150q184 0 286 -102h6q-2 16 -2 24v54h332v-959q0 -138 -51 -243q-51 -106 -139 -165q-90 -61 -190 -89q-104 -29 -216 -29q-220 0 -399 94z
M422 573q0 -107 51 -177t152 -70q83 0 136 52q54 52 54 179q0 227 -205 227q-90 0 -139 -58t-49 -153zM768 1147h-276q-15 57 -15 115q0 92 55 202h252q-41 -118 -41 -182q0 -65 25 -135z" />
    <glyph glyph-name="Hcircumflex" unicode="&#x124;" horiz-adv-x="1556" 
d="M154 0v1464h358v-585h532v585h359v-1464h-359v573h-532v-573h-358zM403 1559l203 307h344l203 -307h-276l-97 167h-4l-96 -167h-277z" />
    <glyph glyph-name="hcircumflex" unicode="&#x125;" horiz-adv-x="1282" 
d="M119 0v1464h354v-463l-4 -90h4q45 78 131 123q85 45 191 45q379 0 379 -395v-684h-355v618q0 140 -117 140q-110 0 -170 -78q-59 -77 -59 -205v-475h-354zM-78 1559l203 307h344l203 -307h-277l-96 167h-4l-96 -167h-277z" />
    <glyph glyph-name="Hbar" unicode="&#x126;" horiz-adv-x="1564" 
d="M168 0v1059h-135v219h135v186h367v-186h495v186h367v-186h133v-219h-133v-1059h-367v573h-495v-573h-367zM535 879h495v180h-495v-180z" />
    <glyph glyph-name="hbar" unicode="&#x127;" horiz-adv-x="1282" 
d="M119 0v1135h-119v194h119v135h354v-135h275v-194h-275v-134l-4 -90h4q45 78 131 123q85 45 191 45q379 0 379 -395v-684h-355v618q0 140 -117 140q-110 0 -170 -80q-59 -78 -59 -201v-477h-354z" />
    <glyph glyph-name="Itilde" unicode="&#x128;" horiz-adv-x="665" 
d="M154 0v1464h358v-1464h-358zM-78 1559q0 313 262 313q59 0 107 -31q40 -26 84 -61q39 -31 67 -31q76 0 76 117h230q0 -314 -263 -314q-58 0 -106 31q-34 22 -84 62q-37 30 -68 30q-75 0 -75 -116h-230z" />
    <glyph glyph-name="itilde" unicode="&#x129;" horiz-adv-x="591" 
d="M119 0v1055h354v-1055h-354zM-117 1157q0 313 262 313q60 0 107 -30q34 -22 84 -62q37 -30 67 -30q76 0 76 116h230q0 -313 -263 -313q-58 0 -106 31q-40 26 -84 61q-39 31 -68 31q-75 0 -75 -117h-230z" />
    <glyph glyph-name="Imacron" unicode="&#x12a;" horiz-adv-x="665" 
d="M154 0v1464h358v-1464h-358zM53 1602v229h563v-229h-563z" />
    <glyph glyph-name="imacron" unicode="&#x12b;" horiz-adv-x="591" 
d="M119 0v1055h354v-1055h-354zM14 1200v230h564v-230h-564z" />
    <glyph glyph-name="Ibreve" unicode="&#x12c;" horiz-adv-x="665" 
d="M154 0v1464h358v-1464h-358zM334 1548q-149 0 -253 80t-104 217v21h240v-23q0 -58 35 -88q36 -31 82 -31t82 31q35 30 35 88v23h239v-21q0 -138 -103 -217q-104 -80 -253 -80z" />
    <glyph glyph-name="ibreve" unicode="&#x12d;" horiz-adv-x="591" 
d="M119 0v1055h354v-1055h-354zM295 1147q-149 0 -253 80q-103 79 -103 217v20h239v-22q0 -58 35 -88q36 -31 82 -31t82 31q35 30 35 88v22h239v-20q0 -138 -103 -217q-104 -80 -253 -80z" />
    <glyph glyph-name="Iogonek" unicode="&#x12e;" horiz-adv-x="665" 
d="M154 0v1464h358v-1464q-88 -82 -88 -125q0 -21 19 -33q20 -13 40 -14l19 -4l-86 -254q-27 4 -29 4q-21 2 -65 16q-51 17 -83 35q-36 21 -66 60t-30 88q0 114 131 227h-120z" />
    <glyph glyph-name="iogonek" unicode="&#x12f;" horiz-adv-x="591" 
d="M119 0v1055h354v-1055q-88 -82 -88 -125q0 -21 19 -33q20 -13 38 -14l21 -4l-86 -254q-11 0 -29 3q-25 4 -65 17q-51 17 -83 35q-36 21 -66 60t-30 90q0 111 132 225h-117zM123 1188v276h346v-276h-346z" />
    <glyph glyph-name="Idotaccent" unicode="&#x130;" horiz-adv-x="665" 
d="M154 0v1464h358v-1464h-358zM188 1595v271h293v-271h-293z" />
    <glyph glyph-name="dotlessi" unicode="&#x131;" horiz-adv-x="591" 
d="M119 0v1055h354v-1055h-354z" />
    <glyph glyph-name="IJ" unicode="&#x132;" horiz-adv-x="1394" 
d="M651 -8v323q85 0 162 57q76 57 76 181v911h366v-915q0 -135 -37 -236q-36 -99 -97 -161q-59 -61 -141 -98q-84 -38 -161 -50q-78 -12 -168 -12zM154 0v1464h358v-1464h-358z" />
    <glyph glyph-name="ij" unicode="&#x133;" horiz-adv-x="1183" 
d="M123 1188v276h346v-276h-346zM119 0v1055h354v-1055h-354zM715 1188v276h346v-276h-346zM711 8v1047h354v-1082q0 -102 -37 -177q-39 -79 -89 -118q-53 -41 -125 -65q-74 -25 -129 -32q-53 -7 -116 -7q-49 0 -94 6v295q22 -2 45 -2q191 0 191 135z" />
    <glyph glyph-name="Jcircumflex" unicode="&#x134;" horiz-adv-x="1159" 
d="M37 451v106h358v-78q0 -176 133 -176q62 0 97 39q34 38 34 117v698h-393v307h752v-1013q0 -227 -146 -352q-145 -124 -344 -124q-200 0 -346 125q-145 124 -145 351zM258 1559l203 307h344l203 -307h-277l-96 167h-4l-96 -167h-277z" />
    <glyph glyph-name="jcircumflex" unicode="&#x135;" horiz-adv-x="591" 
d="M-61 1157l202 307h312l202 -307h-260l-96 168h-4l-96 -168h-260zM119 8v1047h354v-1082q0 -102 -37 -177q-39 -79 -89 -118q-53 -41 -125 -65q-74 -25 -129 -32q-53 -7 -116 -7q-47 0 -94 6v295q16 -2 45 -2q191 0 191 135z" />
    <glyph glyph-name="Kcommaaccent" unicode="&#x136;" horiz-adv-x="1382" 
d="M154 0v1464h358v-565h147l304 565h385l-396 -700v-4l418 -760h-401l-310 594h-147v-594h-358zM555 -100h279q14 -56 14 -119q0 -97 -57 -211h-252q41 120 41 190q0 65 -25 140z" />
    <glyph glyph-name="kcommaaccent" unicode="&#x137;" horiz-adv-x="1210" 
d="M119 0v1464h354v-757h100l209 348h385l-309 -480v-4l352 -571h-403l-223 410h-111v-410h-354zM477 -100h279q14 -56 14 -119q0 -97 -57 -211h-252q41 120 41 190q0 65 -25 140z" />
    <glyph glyph-name="kgreenlandic" unicode="&#x138;" horiz-adv-x="1206" 
d="M119 0v1055h354v-369h100l215 369h386l-316 -500v-4l340 -551h-410l-204 389h-111v-389h-354z" />
    <glyph glyph-name="Lacute" unicode="&#x139;" horiz-adv-x="1130" 
d="M154 0v1464h358v-1157h598v-307h-956zM186 1559l166 307h350l-241 -307h-275z" />
    <glyph glyph-name="lacute" unicode="&#x13a;" horiz-adv-x="659" 
d="M117 389v1075h354v-1028q0 -77 20 -106t78 -29q21 0 43 2v-307q-74 -6 -106 -6q-84 0 -142 13q-63 14 -121 52q-60 39 -93 123t-33 211zM147 1559l166 307h351l-242 -307h-275z" />
    <glyph glyph-name="Lcommaaccent" unicode="&#x13b;" horiz-adv-x="1130" 
d="M154 0v1464h358v-1157h598v-307h-956zM496 -100h278q14 -56 14 -119q0 -97 -57 -211h-252q41 120 41 190q0 68 -24 140z" />
    <glyph glyph-name="lcommaaccent" unicode="&#x13c;" horiz-adv-x="659" 
d="M117 389v1075h354v-1028q0 -77 20 -106t78 -29q21 0 43 2v-307q-74 -6 -106 -6q-84 0 -142 13q-63 14 -121 52q-60 39 -93 123t-33 211zM231 -100h279q14 -56 14 -119q0 -97 -57 -211h-252q41 120 41 190q0 65 -25 140z" />
    <glyph glyph-name="Lcaron" unicode="&#x13d;" horiz-adv-x="1132" 
d="M154 0v1464h358v-1157h598v-307h-956zM655 1464h279q14 -56 14 -118q0 -97 -57 -211h-252q41 120 41 190q0 64 -25 139z" />
    <glyph glyph-name="lcaron" unicode="&#x13e;" horiz-adv-x="700" 
d="M117 389v1075h354v-1028q0 -77 20 -106t78 -29q21 0 43 2v-307q-74 -6 -106 -6q-84 0 -142 13q-63 14 -121 52q-60 39 -93 123t-33 211zM567 1464h279q14 -56 14 -118q0 -97 -57 -211h-252q41 120 41 190q0 64 -25 139z" />
    <glyph glyph-name="Ldot" unicode="&#x13f;" horiz-adv-x="1134" 
d="M154 0v1464h358v-1157h598v-307h-956zM702 645v336h324v-336h-324z" />
    <glyph glyph-name="ldot" unicode="&#x140;" horiz-adv-x="1013" 
d="M117 389v1075h354v-1028q0 -77 20 -106t78 -29q21 0 43 2v-307q-74 -6 -106 -6q-84 0 -142 13q-63 14 -121 52q-60 39 -93 123t-33 211zM639 645v336h324v-336h-324z" />
    <glyph glyph-name="Lslash" unicode="&#x141;" horiz-adv-x="1138" 
d="M162 0v420l-107 -62v340l107 62v704h358v-499l207 118v-340l-207 -118v-318h598v-307h-956z" />
    <glyph glyph-name="lslash" unicode="&#x142;" horiz-adv-x="684" 
d="M37 399v340l102 60v665h355v-463l141 82v-340l-141 -81v-226q0 -78 19 -106q20 -29 79 -29l43 2v-307q-49 -6 -107 -6q-84 0 -142 13q-63 14 -121 52q-60 39 -93 123t-33 211v70z" />
    <glyph glyph-name="Nacute" unicode="&#x143;" horiz-adv-x="1544" 
d="M154 0v1464h362l406 -684q37 -66 55 -105q42 -88 49 -104l18 -41h5q-17 162 -17 250v684h359v-1464h-361l-407 682q-44 79 -56 105q-42 88 -49 104l-18 41h-4q16 -153 16 -250v-682h-358zM625 1559l166 307h350l-242 -307h-274z" />
    <glyph glyph-name="nacute" unicode="&#x144;" horiz-adv-x="1282" 
d="M119 0v1055h340v-92l-4 -66h4q107 182 336 182q379 0 379 -395v-684h-355v618q0 140 -117 140q-112 0 -171 -80q-58 -79 -58 -201v-477h-354zM506 1157l166 307h350l-242 -307h-274z" />
    <glyph glyph-name="Ncommaaccent" unicode="&#x145;" horiz-adv-x="1544" 
d="M154 0v1464h362l406 -684q37 -66 55 -105q42 -88 49 -104l18 -41h5q-17 162 -17 250v684h359v-1464h-361l-407 682q-44 79 -56 105q-42 88 -49 104l-18 41h-4q16 -153 16 -250v-682h-358zM627 -100h278q15 -60 15 -119q0 -95 -58 -211h-252q41 120 41 190q0 68 -24 140z
" />
    <glyph glyph-name="ncommaaccent" unicode="&#x146;" horiz-adv-x="1282" 
d="M119 0v1055h340v-92l-4 -66h4q107 182 336 182q379 0 379 -395v-684h-355v618q0 140 -117 140q-112 0 -171 -80q-58 -79 -58 -201v-477h-354zM494 -100h278q14 -56 14 -119q0 -97 -57 -211h-252q41 120 41 190q0 68 -24 140z" />
    <glyph glyph-name="Ncaron" unicode="&#x147;" horiz-adv-x="1544" 
d="M154 0v1464h362l406 -684q37 -66 55 -105q42 -88 49 -104l18 -41h5q-17 162 -17 250v684h359v-1464h-361l-407 682q-44 79 -56 105q-42 88 -49 104l-18 41h-4q16 -153 16 -250v-682h-358zM600 1559l-203 307h277l96 -168h4l96 168h277l-203 -307h-344z" />
    <glyph glyph-name="ncaron" unicode="&#x148;" horiz-adv-x="1282" 
d="M119 0v1055h340v-92l-4 -66h4q107 182 336 182q379 0 379 -395v-684h-355v618q0 140 -117 140q-112 0 -171 -80q-58 -79 -58 -201v-477h-354zM481 1157l-202 307h276l96 -168h4l97 168h276l-203 -307h-344z" />
    <glyph glyph-name="napostrophe" unicode="&#x149;" horiz-adv-x="1282" 
d="M119 0v1055h340v-92l-4 -66h4q107 182 336 182q379 0 379 -395v-684h-355v618q0 140 -117 140q-112 0 -171 -80q-58 -79 -58 -201v-477h-354zM-74 1464h279q14 -56 14 -118q0 -97 -57 -211h-252q41 120 41 190q0 64 -25 139z" />
    <glyph glyph-name="Eng" unicode="&#x14a;" horiz-adv-x="1542" 
d="M154 0v1464h362l406 -684q37 -66 55 -105q42 -88 49 -104l18 -41h5q-17 162 -17 250v684h359v-1327q0 -132 -38 -235q-37 -100 -97 -162q-58 -59 -141 -97q-87 -40 -161 -51q-78 -12 -168 -12v324q56 0 134 33q77 33 98 83l-395 662q-44 79 -56 105q-42 88 -49 104
l-18 41h-4q16 -153 16 -250v-682h-358z" />
    <glyph glyph-name="eng" unicode="&#x14b;" horiz-adv-x="1282" 
d="M119 0v1055h340v-133l-2 -25h4q107 182 334 182q379 0 379 -395v-711q0 -102 -37 -177q-39 -79 -89 -118q-53 -41 -125 -65q-74 -25 -129 -32q-53 -7 -116 -7l-94 6v295q24 -2 45 -2q190 0 190 135v610q0 140 -117 140q-112 0 -171 -80q-58 -79 -58 -201v-477h-354z" />
    <glyph glyph-name="Omacron" unicode="&#x14c;" horiz-adv-x="1679" 
d="M74 741q0 319 215 534q214 214 551 214t551 -214q215 -215 215 -534q0 -326 -215 -546t-551 -220t-551 220t-215 546zM444 741q0 -187 112 -313q111 -125 284 -125q172 0 283 125q112 126 112 313q0 179 -112 300q-111 120 -283 120q-173 0 -284 -120
q-112 -121 -112 -300zM559 1602v229h563v-229h-563z" />
    <glyph glyph-name="omacron" unicode="&#x14d;" horiz-adv-x="1314" 
d="M59 524q0 244 172 400q171 155 424 155q255 0 427 -154q173 -155 173 -401q0 -243 -172 -396q-173 -153 -426 -153t-426 153q-172 153 -172 396zM418 524q0 -115 69 -184q70 -70 170 -70t170 70t70 184q0 116 -70 189q-68 71 -170 71t-170 -71q-69 -72 -69 -189z
M377 1200v230h563v-230h-563z" />
    <glyph glyph-name="Obreve" unicode="&#x14e;" horiz-adv-x="1679" 
d="M74 741q0 319 215 534q214 214 551 214t551 -214q215 -215 215 -534q0 -326 -215 -546t-551 -220t-551 220t-215 546zM444 741q0 -187 112 -313q111 -125 284 -125q172 0 283 125q112 126 112 313q0 179 -112 300q-111 120 -283 120q-173 0 -284 -120
q-112 -121 -112 -300zM840 1548q-149 0 -253 80t-104 217v21h240v-23q0 -58 35 -88q36 -31 82 -31t82 31q34 30 34 88v23h240v-21q0 -138 -103 -217q-104 -80 -253 -80z" />
    <glyph glyph-name="obreve" unicode="&#x14f;" horiz-adv-x="1314" 
d="M59 524q0 244 172 400q171 155 424 155q255 0 427 -154q173 -155 173 -401q0 -243 -172 -396q-173 -153 -426 -153t-426 153q-172 153 -172 396zM418 524q0 -115 69 -184q70 -70 170 -70t170 70t70 184q0 116 -70 189q-68 71 -170 71t-170 -71q-69 -72 -69 -189z
M657 1147q-149 0 -253 80q-103 79 -103 217v20h240v-22q0 -58 34 -88q36 -31 82 -31t82 31q35 30 35 88v22h240v-20q0 -137 -104 -217t-253 -80z" />
    <glyph glyph-name="Ohungarumlaut" unicode="&#x150;" horiz-adv-x="1679" 
d="M74 741q0 319 215 534q214 214 551 214t551 -214q215 -215 215 -534q0 -326 -215 -546t-551 -220t-551 220t-215 546zM444 741q0 -187 112 -313q111 -125 284 -125q172 0 283 125q112 126 112 313q0 179 -112 300q-111 120 -283 120q-173 0 -284 -120
q-112 -121 -112 -300zM893 1559l166 307h334l-242 -307h-258zM467 1559l156 307h284l-162 -307h-278z" />
    <glyph glyph-name="ohungarumlaut" unicode="&#x151;" horiz-adv-x="1314" 
d="M59 524q0 244 172 400q171 155 424 155q255 0 427 -154q173 -155 173 -401q0 -243 -172 -396q-173 -153 -426 -153t-426 153q-172 153 -172 396zM418 524q0 -115 69 -184q70 -70 170 -70t170 70t70 184q0 116 -70 189q-68 71 -170 71t-170 -71q-69 -72 -69 -189z
M711 1157l166 307h333l-241 -307h-258zM285 1157l155 307h285l-162 -307h-278z" />
    <glyph glyph-name="OE" unicode="&#x152;" horiz-adv-x="2027" 
d="M72 735q0 315 230 530q231 216 556 216q71 0 154 -8q94 -9 116 -9h795v-307h-559v-266h446v-307h-446v-277h590v-307h-826q-33 0 -116 -8t-154 -8q-325 0 -556 219q-230 218 -230 532zM442 735q0 -185 121 -315q122 -131 295 -131q40 0 78 3q39 3 53 7l17 4v858
q-57 15 -148 15q-173 0 -295 -128q-121 -127 -121 -313z" />
    <glyph glyph-name="oe" unicode="&#x153;" horiz-adv-x="1996" 
d="M59 524q0 244 168 400q167 155 416 155q140 0 233 -42q91 -41 175 -122h4q74 82 159 122q88 42 230 42q227 0 357 -142t130 -368l-8 -110h-663q18 -89 87 -138q71 -51 156 -51q143 0 291 107l131 -248q-85 -73 -207 -114q-120 -40 -243 -40q-150 0 -243 45
q-90 44 -169 130h-4q-84 -86 -177 -130q-94 -45 -237 -45q-250 0 -418 153t-168 396zM1266 662h309q-1 58 -39 105q-37 46 -96 46q-137 0 -174 -151zM416 524q0 -115 69 -184q70 -70 170 -70t170 70t70 184q0 116 -70 189q-68 71 -170 71t-170 -71q-69 -72 -69 -189z" />
    <glyph glyph-name="Racute" unicode="&#x154;" horiz-adv-x="1347" 
d="M154 0v1464h510q195 0 284 -34q127 -49 199 -159q72 -109 72 -267q0 -122 -58 -235t-162 -165v-4q24 -31 56 -88l284 -512h-399l-260 494h-168v-494h-358zM512 801h156q87 0 137 47q49 46 49 133q0 121 -86 156q-44 20 -135 20h-121v-356zM502 1559l166 307h350
l-242 -307h-274z" />
    <glyph glyph-name="racute" unicode="&#x155;" horiz-adv-x="872" 
d="M119 0v1055h340v-178l-4 -66h4q34 108 128 186q92 76 208 76q20 0 41 -4v-348q-18 6 -72 6q-144 0 -217 -84q-74 -85 -74 -233v-410h-354zM365 1155l165 307h351l-242 -307h-274z" />
    <glyph glyph-name="Rcommaaccent" unicode="&#x156;" horiz-adv-x="1347" 
d="M154 0v1464h510q195 0 284 -34q127 -49 199 -159q72 -109 72 -267q0 -122 -58 -235t-162 -165v-4q24 -31 56 -88l284 -512h-399l-260 494h-168v-494h-358zM512 801h156q87 0 137 47q49 46 49 133q0 121 -86 156q-44 20 -135 20h-121v-356zM547 -100h278q15 -60 15 -119
q0 -95 -58 -211h-252q41 120 41 190q0 68 -24 140z" />
    <glyph glyph-name="rcommaaccent" unicode="&#x157;" horiz-adv-x="872" 
d="M119 0v1055h340v-178l-4 -66h4q34 108 128 186q92 76 208 76q20 0 41 -4v-348q-18 6 -72 6q-144 0 -217 -84q-74 -85 -74 -233v-410h-354zM152 -100h278q14 -56 14 -119q0 -97 -57 -211h-252q41 120 41 190q0 68 -24 140z" />
    <glyph glyph-name="Rcaron" unicode="&#x158;" horiz-adv-x="1347" 
d="M154 0v1464h510q195 0 284 -34q127 -49 199 -159q72 -109 72 -267q0 -122 -58 -235t-162 -165v-4q24 -31 56 -88l284 -512h-399l-260 494h-168v-494h-358zM512 801h156q87 0 137 47q49 46 49 133q0 121 -86 156q-44 20 -135 20h-121v-356zM477 1559l-203 307h277l96 -168
h4l97 168h276l-203 -307h-344z" />
    <glyph glyph-name="rcaron" unicode="&#x159;" horiz-adv-x="872" 
d="M119 0v1055h340v-178l-4 -66h4q34 108 128 186q92 76 208 76q20 0 41 -4v-348q-18 6 -72 6q-144 0 -217 -84q-74 -85 -74 -233v-410h-354zM340 1155l-203 307h277l96 -168h4l96 168h277l-203 -307h-344z" />
    <glyph glyph-name="Sacute" unicode="&#x15a;" horiz-adv-x="1177" 
d="M53 184l189 273q69 -62 166 -107q96 -45 186 -45q71 0 112 29q39 27 39 74q0 46 -48 87q-46 38 -119 66q-72 27 -156 69q-81 40 -156 89q-71 46 -120 130q-48 83 -48 191q0 200 149 325q148 124 382 124q273 0 458 -166l-151 -293q-60 53 -152 92q-87 37 -172 37
q-76 0 -116 -29q-39 -28 -39 -75t48 -86q49 -40 120 -65q76 -27 155 -65q90 -43 156 -86q72 -47 120 -129q48 -83 48 -192q0 -196 -138 -326q-139 -131 -382 -131q-143 0 -288 54q-140 52 -243 155zM442 1559l166 307h350l-241 -307h-275z" />
    <glyph glyph-name="sacute" unicode="&#x15b;" horiz-adv-x="964" 
d="M39 131l151 231q127 -106 287 -106q96 0 96 55q0 31 -51 55t-123 48t-144 60t-124 106q-51 69 -51 165q0 158 124 246t314 88q228 0 377 -121l-121 -245q-44 36 -122 61q-80 25 -144 25q-98 0 -98 -51q0 -27 36 -47q37 -21 92 -36q45 -13 118 -43q64 -27 119 -62t91 -96
q37 -62 37 -142q0 -152 -118 -249q-119 -98 -316 -98q-256 0 -430 156zM322 1157l165 307h351l-242 -307h-274z" />
    <glyph glyph-name="Scircumflex" unicode="&#x15c;" horiz-adv-x="1177" 
d="M53 184l189 273q69 -62 166 -107q96 -45 186 -45q71 0 112 29q39 27 39 74q0 46 -48 87q-46 38 -119 66q-72 27 -156 69q-81 40 -156 89q-71 46 -120 130q-48 83 -48 191q0 200 149 325q148 124 382 124q273 0 458 -166l-151 -293q-60 53 -152 92q-87 37 -172 37
q-76 0 -116 -29q-39 -28 -39 -75t48 -86q49 -40 120 -65q76 -27 155 -65q90 -43 156 -86q72 -47 120 -129q48 -83 48 -192q0 -196 -138 -326q-139 -131 -382 -131q-143 0 -288 54q-140 52 -243 155zM215 1559l203 307h344l203 -307h-277l-96 167h-4l-96 -167h-277z" />
    <glyph glyph-name="scircumflex" unicode="&#x15d;" horiz-adv-x="964" 
d="M39 131l151 231q127 -106 287 -106q96 0 96 55q0 31 -51 55t-123 48t-144 60t-124 106q-51 69 -51 165q0 158 124 246t314 88q228 0 377 -121l-121 -245q-44 36 -122 61q-80 25 -144 25q-98 0 -98 -51q0 -27 36 -47q37 -21 92 -36q45 -13 118 -43q64 -27 119 -62t91 -96
q37 -62 37 -142q0 -152 -118 -249q-119 -98 -316 -98q-256 0 -430 156zM96 1157l203 307h344l203 -307h-277l-96 168h-4l-96 -168h-277z" />
    <glyph glyph-name="Scedilla" unicode="&#x15e;" horiz-adv-x="1179" 
d="M461 -168l45 148q-276 27 -453 204l189 273q69 -62 166 -107q96 -45 186 -45q71 0 112 29q39 27 39 74q0 46 -48 87q-46 38 -119 66q-72 27 -156 69q-81 40 -156 89q-71 46 -120 130q-48 83 -48 191q0 200 149 325q148 124 382 124q273 0 458 -166l-151 -293
q-60 53 -152 92q-87 37 -172 37q-76 0 -116 -29q-39 -28 -39 -75t48 -86q49 -40 120 -65q76 -27 155 -65q90 -43 156 -86q72 -47 120 -129q48 -83 48 -192q0 -173 -115 -300q-114 -126 -317 -150l-13 -56q154 -17 154 -164q0 -101 -70 -147q-69 -45 -170 -45q-73 0 -145 18
v179q38 -21 92 -21q78 0 78 47q0 43 -84 43z" />
    <glyph glyph-name="scedilla" unicode="&#x15f;" horiz-adv-x="968" 
d="M328 -168l47 152q-199 27 -332 147l152 231q127 -106 286 -106q97 0 97 55q0 31 -52 55q-51 24 -123 48t-144 60t-124 106q-51 69 -51 165q0 158 124 246t314 88q228 0 377 -121l-121 -245q-44 36 -122 61q-80 25 -144 25q-98 0 -98 -51q0 -26 37 -47q38 -21 91 -36
q45 -13 118 -43q64 -27 119 -62t91 -96q37 -62 37 -142q0 -138 -99 -233q-98 -94 -269 -109l-13 -54q154 -17 154 -164q0 -101 -70 -147q-69 -45 -170 -45q-76 0 -145 18v179q37 -21 92 -21q78 0 78 47q0 43 -84 43z" />
    <glyph glyph-name="Scaron" unicode="&#x160;" horiz-adv-x="1177" 
d="M53 184l189 273q69 -62 166 -107q96 -45 186 -45q71 0 112 29q39 27 39 74q0 46 -48 87q-46 38 -119 66q-72 27 -156 69q-81 40 -156 89q-71 46 -120 130q-48 83 -48 191q0 200 149 325q148 124 382 124q273 0 458 -166l-151 -293q-60 53 -152 92q-87 37 -172 37
q-76 0 -116 -29q-39 -28 -39 -75t48 -86q49 -40 120 -65q76 -27 155 -65q90 -43 156 -86q72 -47 120 -129q48 -83 48 -192q0 -196 -138 -326q-139 -131 -382 -131q-143 0 -288 54q-140 52 -243 155zM418 1559l-203 307h277l96 -168h4l96 168h277l-203 -307h-344z" />
    <glyph glyph-name="scaron" unicode="&#x161;" horiz-adv-x="964" 
d="M39 131l151 231q127 -106 287 -106q96 0 96 55q0 31 -51 55t-123 48t-144 60t-124 106q-51 69 -51 165q0 158 124 246t314 88q228 0 377 -121l-121 -245q-44 36 -122 61q-80 25 -144 25q-98 0 -98 -51q0 -27 36 -47q37 -21 92 -36q45 -13 118 -43q64 -27 119 -62t91 -96
q37 -62 37 -142q0 -152 -118 -249q-119 -98 -316 -98q-256 0 -430 156zM299 1157l-203 307h277l96 -168h4l96 168h277l-203 -307h-344z" />
    <glyph glyph-name="Tcommaaccent" unicode="&#x162;" horiz-adv-x="1296" 
d="M469 0v1157h-444v307h1247v-307h-445v-1157h-102l-18 -74q153 -16 153 -164q0 -102 -69 -147t-170 -45q-74 0 -146 18v179q37 -21 92 -21q78 0 78 47q0 43 -84 43l-53 -4l53 168h-92z" />
    <glyph glyph-name="tcommaaccent" unicode="&#x163;" horiz-adv-x="841" 
d="M319 -168l68 213q-207 99 -207 344v371h-135v276h145v303h345v-303h221v-276h-221v-324q0 -135 188 -135q17 0 47 2v-307q-80 -6 -96 -6q-78 0 -137 10l-19 -74q154 -17 154 -164q0 -101 -70 -147q-69 -45 -170 -45q-76 0 -145 18v179q37 -21 92 -21q78 0 78 47
q0 43 -84 43z" />
    <glyph glyph-name="Tcaron" unicode="&#x164;" horiz-adv-x="1296" 
d="M469 0v1157h-444v307h1247v-307h-445v-1157h-358zM475 1559l-203 307h277l96 -168h4l96 168h277l-203 -307h-344z" />
    <glyph glyph-name="tcaron" unicode="&#x165;" horiz-adv-x="841" 
d="M180 389v371h-135v276h145v303h345v-303h221v-276h-221v-324q0 -135 188 -135q17 0 47 2v-307q-80 -6 -96 -6q-43 0 -95 5q-51 5 -107 19q-61 15 -108 43q-48 28 -92 71q-42 41 -67 110q-25 70 -25 151zM621 1464h278q14 -53 14 -110q0 -91 -57 -199h-252q41 114 41 178
q0 65 -24 131z" />
    <glyph glyph-name="Tbar" unicode="&#x166;" horiz-adv-x="1318" 
d="M479 0v557h-291v260h291v340h-444v307h1247v-307h-444v-340h303v-260h-303v-557h-359z" />
    <glyph glyph-name="tbar" unicode="&#x167;" horiz-adv-x="847" 
d="M29 428v219h157v113h-135v276h146v303h344v-303h221v-276h-221v-113h198v-219h-198v-10q0 -66 59 -91q61 -26 129 -26l47 2v-307q-39 -6 -96 -6q-43 0 -95 5q-51 5 -107 19q-61 15 -108 43q-45 27 -91 71q-44 42 -68 110q-25 70 -25 151v39h-157z" />
    <glyph glyph-name="Utilde" unicode="&#x168;" horiz-adv-x="1499" 
d="M137 539v925h359v-925q0 -113 68 -174q70 -62 186 -62q115 0 185 62q69 61 69 174v925h358v-925q0 -251 -168 -407q-169 -157 -442 -157q-275 0 -446 157q-169 156 -169 407zM338 1559q0 313 262 313q59 0 107 -31q40 -26 84 -61q39 -31 67 -31q76 0 76 117h229
q0 -314 -262 -314q-58 0 -106 31q-34 22 -84 62q-37 30 -68 30q-76 0 -76 -116h-229z" />
    <glyph glyph-name="utilde" unicode="&#x169;" horiz-adv-x="1271" 
d="M109 371v684h354v-619q0 -139 112 -139q109 0 166 83q58 84 58 208v467h354v-1055h-340v92l4 66h-4q-43 -84 -133 -133q-91 -50 -197 -50q-170 0 -273 94q-101 92 -101 302zM219 1157q0 313 262 313q61 0 107 -30q34 -22 84 -62q37 -30 67 -30q76 0 76 116h229
q0 -313 -262 -313q-58 0 -106 31q-40 26 -84 61q-39 31 -68 31q-75 0 -75 -117h-230z" />
    <glyph glyph-name="Umacron" unicode="&#x16a;" horiz-adv-x="1499" 
d="M137 539v925h359v-925q0 -113 68 -174q70 -62 186 -62q115 0 185 62q69 61 69 174v925h358v-925q0 -251 -168 -407q-169 -157 -442 -157q-275 0 -446 157q-169 156 -169 407zM469 1602v229h563v-229h-563z" />
    <glyph glyph-name="umacron" unicode="&#x16b;" horiz-adv-x="1271" 
d="M109 371v684h354v-619q0 -139 112 -139q109 0 166 83q58 84 58 208v467h354v-1055h-340v92l4 66h-4q-43 -84 -133 -133q-91 -50 -197 -50q-170 0 -273 94q-101 92 -101 302zM350 1200v230h563v-230h-563z" />
    <glyph glyph-name="Ubreve" unicode="&#x16c;" horiz-adv-x="1499" 
d="M137 539v925h359v-925q0 -113 68 -174q70 -62 186 -62q115 0 185 62q69 61 69 174v925h358v-925q0 -251 -168 -407q-169 -157 -442 -157q-275 0 -446 157q-169 156 -169 407zM750 1548q-149 0 -253 80t-104 217v21h240v-23q0 -58 35 -88q36 -31 82 -31q45 0 81 31
q35 30 35 88v23h240v-21q0 -137 -104 -217t-252 -80z" />
    <glyph glyph-name="ubreve" unicode="&#x16d;" horiz-adv-x="1271" 
d="M109 371v684h354v-619q0 -139 112 -139q109 0 166 83q58 84 58 208v467h354v-1055h-340v92l4 66h-4q-43 -84 -133 -133q-91 -50 -197 -50q-170 0 -273 94q-101 92 -101 302zM631 1147q-149 0 -253 80t-104 217v20h240v-22q0 -58 35 -88q36 -31 82 -31t82 31q35 30 35 88
v22h239v-20q0 -138 -103 -217q-104 -80 -253 -80z" />
    <glyph glyph-name="Uring" unicode="&#x16e;" horiz-adv-x="1499" 
d="M137 539v925h359v-925q0 -113 68 -174q70 -62 186 -62q115 0 185 62q69 61 69 174v925h358v-925q0 -251 -168 -407q-169 -157 -442 -157q-275 0 -446 157q-169 156 -169 407zM750 1530q-91 0 -157 45q-67 46 -67 129t67 130q65 46 157 46q90 0 157 -46q68 -47 68 -130
q0 -84 -68 -129q-67 -45 -157 -45zM750 1632q32 0 52 20q19 19 19 52t-19 53q-20 21 -52 21t-51 -21q-19 -20 -19 -53q0 -32 18 -52t52 -20z" />
    <glyph glyph-name="uring" unicode="&#x16f;" horiz-adv-x="1271" 
d="M109 371v684h354v-619q0 -139 112 -139q109 0 166 83q58 84 58 208v467h354v-1055h-340v92l4 66h-4q-43 -84 -133 -133q-91 -50 -197 -50q-170 0 -273 94q-101 92 -101 302zM631 1128q-90 0 -157 46q-66 45 -66 129q0 83 66 130q65 46 157 46q90 0 157 -46
q68 -47 68 -130q0 -84 -68 -129q-69 -46 -157 -46zM631 1231q33 0 52 19t19 53q0 33 -19 53t-52 20q-31 0 -50 -20q-20 -22 -20 -53q0 -32 19 -53q18 -19 51 -19z" />
    <glyph glyph-name="Uhungarumlaut" unicode="&#x170;" horiz-adv-x="1499" 
d="M137 539v925h359v-925q0 -113 68 -174q70 -62 186 -62q115 0 185 62q69 61 69 174v925h358v-925q0 -251 -168 -407q-169 -157 -442 -157q-275 0 -446 157q-169 156 -169 407zM803 1559l166 307h334l-242 -307h-258zM377 1559l155 307h285l-162 -307h-278z" />
    <glyph glyph-name="uhungarumlaut" unicode="&#x171;" horiz-adv-x="1271" 
d="M109 371v684h354v-619q0 -139 112 -139q109 0 166 83q58 84 58 208v467h354v-1055h-340v92l4 66h-4q-43 -84 -133 -133q-91 -50 -197 -50q-170 0 -273 94q-101 92 -101 302zM684 1157l166 307h334l-242 -307h-258zM258 1157l156 307h284l-161 -307h-279z" />
    <glyph glyph-name="Uogonek" unicode="&#x172;" horiz-adv-x="1503" 
d="M139 539v925h359v-925q0 -113 68 -174q70 -62 186 -62q115 0 185 62q69 61 69 174v925h358v-925q0 -94 -23 -174t-69 -139q-45 -58 -83 -93q-41 -38 -97 -80q-24 -17 -38 -28q-29 -23 -38 -29l-31 -25q-24 -19 -29 -25l-7 -9q-7 -9 -12 -14q-10 -12 -15 -24
q-4 -11 -4 -24q0 -21 19 -33q20 -13 38 -14l20 -4l-86 -254l-28 4q-22 2 -66 16q-51 17 -83 35q-34 20 -65 60q-30 39 -30 88q0 58 35 116t86 88q-22 -2 -31 -2q-81 0 -164 21q-85 22 -159 65q-76 44 -135 110q-57 63 -94 160q-36 94 -36 208z" />
    <glyph glyph-name="uogonek" unicode="&#x173;" horiz-adv-x="1271" 
d="M109 371v684h354v-619q0 -139 112 -139q109 0 166 83q58 84 58 208v467h354v-1055q-88 -82 -88 -125q0 -21 19 -33q20 -13 38 -14l21 -4l-86 -254q-27 4 -29 4q-21 2 -65 16q-51 17 -83 35q-36 21 -66 60t-30 88q0 114 131 227h-102v92l4 66h-4q-43 -84 -133 -133
q-91 -50 -197 -50q-170 0 -273 94q-101 92 -101 302z" />
    <glyph glyph-name="Wcircumflex" unicode="&#x174;" horiz-adv-x="2004" 
d="M383 0l-356 1464h376l185 -915q10 -54 13 -79q5 -42 5 -56v-19h4q1 60 25 154l225 915h289l219 -915q9 -34 16 -79q1 -9 3.5 -22t4 -21t1.5 -13v-19h4q0 64 18 154l201 915h371l-371 -1464h-399l-185 739l-28 172h-5q-6 -80 -28 -172l-185 -739h-403zM625 1559l202 307
h344l203 -307h-276l-97 167h-4l-96 -167h-276z" />
    <glyph glyph-name="wcircumflex" unicode="&#x175;" horiz-adv-x="1712" 
d="M317 0l-294 1055h372l131 -623l13 -110h4q5 62 18 110l146 623h303l145 -623l16 -110h5q1 50 14 110l131 623h369l-295 -1055h-396l-118 487l-21 113h-4q-7 -63 -20 -113l-119 -487h-400zM483 1157l203 307h344l203 -307h-277l-96 168h-4l-96 -168h-277z" />
    <glyph glyph-name="Ycircumflex" unicode="&#x176;" horiz-adv-x="1284" 
d="M463 0v600l-483 864h407l166 -352l88 -211h4q36 98 88 211l164 352h408l-484 -864v-600h-358zM268 1559l203 307h344l203 -307h-277l-96 167h-4l-96 -167h-277z" />
    <glyph glyph-name="ycircumflex" unicode="&#x177;" horiz-adv-x="1148" 
d="M129 -96q57 -39 109 -39q127 0 170 106l20 49l-448 1035h401l156 -486l38 -163h5q28 135 34 157l134 492h387l-433 -1168q-62 -164 -181 -240q-121 -77 -259 -77q-62 0 -123 18q-59 17 -92 37l-31 19zM203 1155l203 307h344l202 -307h-276l-96 168h-5l-96 -168h-276z" />
    <glyph glyph-name="Ydieresis" unicode="&#x178;" horiz-adv-x="1284" 
d="M463 0v600l-483 864h407l166 -352l88 -211h4q36 98 88 211l164 352h408l-484 -864v-600h-358zM729 1579v287h258v-287h-258zM301 1579v287h258v-287h-258z" />
    <glyph glyph-name="Zacute" unicode="&#x179;" horiz-adv-x="1300" 
d="M76 0v225l565 801q28 40 56 74q22 28 42 47l15 12v4q-47 -6 -113 -6h-539v307h1106v-221l-567 -805q-23 -33 -56 -73q-29 -36 -42 -46l-15 -14v-4q46 6 113 6h578v-307h-1143zM524 1559l166 307h350l-241 -307h-275z" />
    <glyph glyph-name="zacute" unicode="&#x17a;" horiz-adv-x="1114" 
d="M70 0v176l387 486q24 28 47 53q30 32 33 35l12 8v4q-24 -4 -92 -4h-371v297h942v-178l-385 -486q-23 -28 -46 -52q-20 -20 -36 -34l-12 -10v-4q27 6 94 6h395v-297h-968zM397 1157l166 307h350l-241 -307h-275z" />
    <glyph glyph-name="Zdotaccent" unicode="&#x17b;" horiz-adv-x="1300" 
d="M76 0v225l565 801q28 40 56 74q22 28 42 47l15 12v4q-47 -6 -113 -6h-539v307h1106v-221l-567 -805q-23 -33 -56 -73q-29 -36 -42 -46l-15 -14v-4q46 6 113 6h578v-307h-1143zM526 1595v271h293v-271h-293z" />
    <glyph glyph-name="zdotaccent" unicode="&#x17c;" horiz-adv-x="1114" 
d="M70 0v176l387 486q24 28 47 53q30 32 33 35l12 8v4q-24 -4 -92 -4h-371v297h942v-178l-385 -486q-23 -28 -46 -52q-20 -20 -36 -34l-12 -10v-4q27 6 94 6h395v-297h-968zM399 1194v270h293v-270h-293z" />
    <glyph glyph-name="Zcaron" unicode="&#x17d;" horiz-adv-x="1300" 
d="M76 0v225l565 801q28 40 56 74q22 28 42 47l15 12v4q-47 -6 -113 -6h-539v307h1106v-221l-567 -805q-23 -33 -56 -73q-29 -36 -42 -46l-15 -14v-4q46 6 113 6h578v-307h-1143zM500 1559l-203 307h276l97 -168h4l96 168h277l-203 -307h-344z" />
    <glyph glyph-name="zcaron" unicode="&#x17e;" horiz-adv-x="1114" 
d="M70 0v176l387 486q24 28 47 53q30 32 33 35l12 8v4q-24 -4 -92 -4h-371v297h942v-178l-385 -486q-23 -28 -46 -52q-20 -20 -36 -34l-12 -10v-4q27 6 94 6h395v-297h-968zM373 1157l-203 307h276l97 -168h4l96 168h277l-203 -307h-344z" />
    <glyph glyph-name="longs" unicode="&#x17f;" horiz-adv-x="708" 
d="M195 0v760h-129v276h129v43q0 99 34 173t85 116q52 42 121 66q68 23 127 31q61 8 116 8l106 -7v-299q-21 4 -57 4q-70 0 -124 -24t-54 -84v-1063h-354z" />
    <glyph glyph-name="florin" unicode="&#x192;" 
d="M59 57q104 -14 144 -14q176 0 188 131l39 461h-127v276h152l18 185q10 98 51 173q39 73 94 115q55 43 124 66q73 25 128 32q53 7 119 7l180 -16v-299q-115 14 -155 14q-179 0 -191 -131l-14 -146h195v-276h-220l-43 -500q-7 -96 -49 -173q-41 -75 -95 -116
q-55 -41 -125 -65q-73 -25 -128 -32q-53 -7 -117 -7l-168 16v299z" />
    <glyph glyph-name="Scommaaccent" unicode="&#x218;" horiz-adv-x="1177" 
d="M53 184l189 273q69 -62 166 -107q96 -45 186 -45q71 0 112 29q39 27 39 74q0 46 -48 87q-46 38 -119 66q-72 27 -156 69q-81 40 -156 89q-71 46 -120 130q-48 83 -48 191q0 200 149 325q148 124 382 124q273 0 458 -166l-151 -293q-60 53 -152 92q-87 37 -172 37
q-76 0 -116 -29q-39 -28 -39 -75t48 -86q49 -40 120 -65q76 -27 155 -65q90 -43 156 -86q72 -47 120 -129q48 -83 48 -192q0 -196 -138 -326q-139 -131 -382 -131q-143 0 -288 54q-140 52 -243 155zM426 -100h279q14 -56 14 -119q0 -97 -57 -211h-252q41 120 41 190
q0 65 -25 140z" />
    <glyph glyph-name="scommaaccent" unicode="&#x219;" horiz-adv-x="964" 
d="M39 131l151 231q127 -106 287 -106q96 0 96 55q0 31 -51 55t-123 48t-144 60t-124 106q-51 69 -51 165q0 158 124 246t314 88q228 0 377 -121l-121 -245q-44 36 -122 61q-80 25 -144 25q-98 0 -98 -51q0 -27 36 -47q37 -21 92 -36q45 -13 118 -43q64 -27 119 -62t91 -96
q37 -62 37 -142q0 -152 -118 -249q-119 -98 -316 -98q-256 0 -430 156zM315 -100h279q14 -56 14 -119q0 -97 -57 -211h-252q41 120 41 190q0 65 -25 140z" />
    <glyph glyph-name="uni021A" unicode="&#x21a;" horiz-adv-x="1296" 
d="M469 0v1157h-444v307h1247v-307h-445v-1157h-358zM489 -100h279q14 -56 14 -119q0 -97 -57 -211h-252q41 120 41 190q0 65 -25 140z" />
    <glyph glyph-name="uni021B" unicode="&#x21b;" horiz-adv-x="841" 
d="M180 389v371h-135v276h145v303h345v-303h221v-276h-221v-324q0 -135 188 -135q17 0 47 2v-307q-80 -6 -96 -6q-43 0 -95 5q-51 5 -107 19q-61 15 -108 43q-48 28 -92 71q-42 41 -67 110q-25 70 -25 151zM328 -100h278q15 -60 15 -119q0 -95 -58 -211h-252q41 120 41 190
q0 68 -24 140z" />
    <glyph glyph-name="circumflex" unicode="&#x2c6;" horiz-adv-x="995" 
d="M123 1559l203 307h344l202 -307h-276l-96 167h-4l-97 -167h-276z" />
    <glyph glyph-name="caron" unicode="&#x2c7;" horiz-adv-x="995" 
d="M326 1559l-203 307h276l97 -168h4l96 168h276l-202 -307h-344z" />
    <glyph glyph-name="breve" unicode="&#x2d8;" horiz-adv-x="991" 
d="M496 1548q-149 0 -253 80t-104 217v21h240v-23q0 -58 35 -88q36 -31 82 -31t82 31q34 30 34 88v23h240v-21q0 -138 -103 -217q-104 -80 -253 -80z" />
    <glyph glyph-name="dotaccent" unicode="&#x2d9;" horiz-adv-x="993" 
d="M350 1595v271h293v-271h-293z" />
    <glyph glyph-name="ring" unicode="&#x2da;" horiz-adv-x="993" 
d="M496 1530q-91 0 -157 45q-67 46 -67 129t67 130q65 46 157 46q90 0 157 -46q68 -47 68 -130q0 -84 -68 -129t-157 -45zM496 1632q32 0 52 20q19 19 19 52t-19 53q-19 21 -52 21q-32 0 -51 -21q-19 -20 -19 -53q0 -32 18 -52t52 -20z" />
    <glyph glyph-name="ogonek" unicode="&#x2db;" horiz-adv-x="995" 
d="M299 -227q0 73 53 144q52 70 107 106l53 34l184 -28q-116 -100 -116 -154q0 -21 19 -33q20 -13 40 -14l18 -4l-86 -254q-2 0 -7 1t-10.5 2t-10.5 1q-22 2 -66 16q-51 17 -83 35q-34 20 -65 60q-30 39 -30 88z" />
    <glyph glyph-name="tilde" unicode="&#x2dc;" horiz-adv-x="993" 
d="M84 1559q0 313 262 313q59 0 107 -31q40 -26 84 -61q39 -31 67 -31q76 0 76 117h229q0 -314 -262 -314q-58 0 -106 31q-34 22 -84 62q-38 30 -68 30q-76 0 -76 -116h-229z" />
    <glyph glyph-name="hungarumlaut" unicode="&#x2dd;" horiz-adv-x="993" 
d="M461 1559l166 307h334l-242 -307h-258zM35 1559l155 307h285l-162 -307h-278z" />
    <glyph glyph-name="uni0400" unicode="&#x400;" horiz-adv-x="1179" 
d="M154 0v1464h917v-307h-559v-266h446v-307h-446v-277h588v-307h-946zM541 1559l-242 307h350l166 -307h-274z" />
    <glyph glyph-name="uni0401" unicode="&#x401;" horiz-adv-x="1179" 
d="M154 0v1464h917v-307h-559v-266h446v-307h-446v-277h588v-307h-946zM709 1579v287h258v-287h-258zM281 1579v287h258v-287h-258z" />
    <glyph glyph-name="uni0402" unicode="&#x402;" horiz-adv-x="1558" 
d="M385 0v1157h-360v307h1161v-307h-443v-227l-4 -66h4q149 70 336 70q197 0 320 -128t123 -327q0 -210 -123 -357t-344 -147q-39 0 -99 7v297q32 -5 48 -5q54 0 106 41q51 41 51 131q0 80 -49 126t-127 46q-68 0 -126 -13q-66 -15 -89 -27l-27 -13v-565h-358z" />
    <glyph glyph-name="uni0403" unicode="&#x403;" horiz-adv-x="1071" 
d="M154 0v1464h897v-307h-539v-1157h-358zM403 1559l166 307h351l-242 -307h-275z" />
    <glyph glyph-name="uni0404" unicode="&#x404;" horiz-adv-x="1466" 
d="M76 735q0 323 208 538q208 216 560 216q98 0 195 -22q90 -20 155 -52q66 -32 109 -60q48 -31 69 -52l21 -21l-166 -270q-18 16 -51 42q-30 23 -129 68q-95 43 -187 43q-161 0 -263 -81q-101 -80 -138 -207h604v-287h-604q72 -291 401 -291q97 0 199 41q97 39 151 82
l52 43l174 -254q-7 -9 -25 -26q-17 -16 -74 -56q-63 -45 -120 -72q-65 -31 -165 -56q-104 -26 -208 -26q-339 0 -554 215q-214 214 -214 545z" />
    <glyph glyph-name="uni0405" unicode="&#x405;" horiz-adv-x="1177" 
d="M53 184l189 273q69 -62 166 -107q96 -45 186 -45q71 0 112 29q39 27 39 74q0 46 -48 87q-46 38 -119 66q-72 27 -156 69q-81 40 -156 89q-71 46 -120 130q-48 83 -48 191q0 200 149 325q148 124 382 124q273 0 458 -166l-151 -293q-60 53 -152 92q-87 37 -172 37
q-76 0 -116 -29q-39 -28 -39 -75t48 -86q49 -40 120 -65q76 -27 155 -65q90 -43 156 -86q72 -47 120 -129q48 -83 48 -192q0 -196 -138 -326q-139 -131 -382 -131q-143 0 -288 54q-140 52 -243 155z" />
    <glyph glyph-name="uni0406" unicode="&#x406;" horiz-adv-x="665" 
d="M154 0v1464h358v-1464h-358z" />
    <glyph glyph-name="uni0407" unicode="&#x407;" horiz-adv-x="665" 
d="M154 0v1464h358v-1464h-358zM420 1579v287h258v-287h-258zM-8 1579v287h258v-287h-258z" />
    <glyph glyph-name="uni0408" unicode="&#x408;" horiz-adv-x="1159" 
d="M37 451v106h358v-78q0 -176 133 -176q62 0 97 39q34 38 34 117v698h-393v307h752v-1013q0 -227 -146 -352q-145 -124 -344 -124q-200 0 -346 125q-145 124 -145 351z" />
    <glyph glyph-name="uni0409" unicode="&#x409;" horiz-adv-x="2037" 
d="M37 -10v325q94 4 152 50q56 44 91 173q33 122 33 355v571h965v-534h250q212 0 345 -131q132 -131 132 -336t-132 -334t-345 -129h-608v1157h-242v-264q0 -179 -18 -312q-19 -140 -60 -248q-43 -113 -116 -186q-70 -70 -184 -113q-112 -43 -263 -44zM1278 307h182
q86 0 133 42t47 114q0 73 -48 116q-49 44 -138 44h-176v-316z" />
    <glyph glyph-name="uni040A" unicode="&#x40a;" horiz-adv-x="2121" 
d="M154 0v1464h358v-544h492v544h358v-544h250q211 0 344 -130t133 -331q0 -204 -132 -331q-133 -128 -345 -128h-608v612h-492v-612h-358zM1362 307h182q86 0 133 41t47 111q0 69 -48 111t-138 42h-176v-305z" />
    <glyph glyph-name="uni040B" unicode="&#x40b;" horiz-adv-x="1570" 
d="M385 0v1157h-360v307h1161v-307h-443v-227l-4 -66h4q172 70 330 70q218 0 323 -130t105 -347v-457h-366v403q0 215 -191 215q-109 0 -201 -53v-565h-358z" />
    <glyph glyph-name="uni040C" unicode="&#x40c;" horiz-adv-x="1382" 
d="M154 0v1464h358v-565h147l304 565h385l-396 -700v-4l418 -760h-401l-310 594h-147v-594h-358zM575 1559l166 307h351l-242 -307h-275z" />
    <glyph glyph-name="uni040D" unicode="&#x40d;" horiz-adv-x="1544" 
d="M154 0v1464h358v-684l-16 -250h4q68 157 123 250l405 684h363v-1464h-359v682l17 250h-5q-70 -163 -122 -250l-408 -682h-360zM666 1559l-242 307h350l166 -307h-274z" />
    <glyph glyph-name="uni040E" unicode="&#x40e;" horiz-adv-x="1292" 
d="M111 86l155 268q88 -73 162 -73q88 0 117 75l-565 1108h393l243 -526l80 -197h4q21 86 58 195l180 528h377l-432 -1097q-27 -70 -63 -137q-31 -57 -84 -121q-55 -65 -126 -99q-75 -35 -166 -35q-176 0 -333 111zM666 1530q-165 0 -277 84q-113 84 -113 229v23h263v-25
q0 -60 38 -90q39 -31 89 -31q48 0 88 31q39 30 39 90v25h260v-23q0 -145 -113 -229q-112 -84 -274 -84z" />
    <glyph glyph-name="uni040F" unicode="&#x40f;" horiz-adv-x="1531" 
d="M154 0v1464h358v-1159h508v1159h358v-1464h-452v-287h-318v287h-454z" />
    <glyph glyph-name="uni0410" unicode="&#x410;" horiz-adv-x="1359" 
d="M-6 0l498 1464h376l498 -1464h-369l-90 307h-456l-89 -307h-368zM535 594h288l-82 285l-59 251h-4q-33 -161 -60 -251z" />
    <glyph glyph-name="uni0411" unicode="&#x411;" horiz-adv-x="1296" 
d="M154 0v1464h952v-307h-594v-227h250q212 0 345 -131q132 -131 132 -336t-132 -334t-345 -129h-608zM512 307h182q86 0 133 42t47 114q0 73 -48 116q-49 44 -138 44h-176v-316z" />
    <glyph glyph-name="uni0412" unicode="&#x412;" horiz-adv-x="1325" 
d="M154 0v1464h538q226 0 362 -99t136 -284q0 -93 -45 -179q-45 -85 -125 -132v-4q115 -34 173 -128q56 -91 56 -202q0 -224 -157 -330t-400 -106h-538zM512 897h184q64 0 97 39q32 38 32 96q0 57 -33 90q-35 35 -102 35h-178v-260zM512 307h215q74 0 115 44t41 110
q0 65 -39 107t-115 42h-217v-303z" />
    <glyph glyph-name="uni0413" unicode="&#x413;" horiz-adv-x="1071" 
d="M154 0v1464h897v-307h-539v-1157h-358z" />
    <glyph glyph-name="uni0414" unicode="&#x414;" horiz-adv-x="1581" 
d="M535 305h452v852h-293v-67q0 -200 -38 -416q-38 -214 -121 -369zM16 305h152q186 324 186 813v346h992v-1159h163v-592h-317v287h-846v-287h-330v592z" />
    <glyph glyph-name="uni0415" unicode="&#x415;" horiz-adv-x="1179" 
d="M154 0v1464h917v-307h-559v-266h446v-307h-446v-277h588v-307h-946z" />
    <glyph glyph-name="uni0416" unicode="&#x416;" horiz-adv-x="2033" 
d="M12 0l394 760v4l-363 700h385l270 -565h140v565h358v-565h139l271 565h385l-363 -700v-4l393 -760h-401l-285 594h-139v-594h-358v594h-140l-284 -594h-402z" />
    <glyph glyph-name="uni0417" unicode="&#x417;" horiz-adv-x="1165" 
d="M31 199l186 235q149 -145 311 -145q193 0 193 164q0 143 -172 143h-176v285h143q78 0 124 43t46 104q0 70 -46 112t-126 42q-152 0 -303 -121l-137 256q206 172 508 172q114 0 218 -42t177 -139q74 -98 74 -233q0 -206 -191 -319v-4q107 -38 168 -122q62 -86 62 -204
q0 -207 -152 -329t-371 -122q-318 0 -536 224z" />
    <glyph glyph-name="uni0418" unicode="&#x418;" horiz-adv-x="1544" 
d="M154 0v1464h358v-684l-16 -250h4q68 157 123 250l405 684h363v-1464h-359v682l17 250h-5q-70 -163 -122 -250l-408 -682h-360z" />
    <glyph glyph-name="uni0419" unicode="&#x419;" horiz-adv-x="1544" 
d="M793 1530q-165 0 -277 84q-113 84 -113 229v23h263v-25q0 -60 37 -90q39 -31 90 -31q48 0 88 31q39 30 39 90v25h260v-23q0 -145 -113 -229t-274 -84zM154 0v1464h358v-684l-16 -250h4q68 157 123 250l405 684h363v-1464h-359v682l17 250h-5q-70 -163 -122 -250
l-408 -682h-360z" />
    <glyph glyph-name="uni041A" unicode="&#x41a;" horiz-adv-x="1382" 
d="M154 0v1464h358v-565h147l304 565h385l-396 -700v-4l418 -760h-401l-310 594h-147v-594h-358z" />
    <glyph glyph-name="uni041B" unicode="&#x41b;" horiz-adv-x="1462" 
d="M33 309q93 12 154 68q61 57 100 205q39 150 39 401v481h983v-1464h-359v1157h-284v-178q0 -526 -158 -761q-158 -234 -475 -234v325z" />
    <glyph glyph-name="uni041C" unicode="&#x41c;" horiz-adv-x="1789" 
d="M96 0l121 1464h389l213 -618l74 -242h4q39 143 74 242l213 618h389l119 -1464h-359l-45 659q-4 44 -4 111q0 48 2 98l2 37h-4q-59 -181 -82 -246l-153 -423h-308l-153 423l-82 246h-4q8 -135 0 -246l-45 -659h-361z" />
    <glyph glyph-name="uni041D" unicode="&#x41d;" horiz-adv-x="1556" 
d="M154 0v1464h358v-585h532v585h359v-1464h-359v573h-532v-573h-358z" />
    <glyph glyph-name="uni041E" unicode="&#x41e;" horiz-adv-x="1679" 
d="M74 741q0 318 218 533t548 215t548 -215t218 -533q0 -324 -218 -545t-548 -221t-548 221t-218 545zM444 741q0 -185 115 -312q114 -126 281 -126q166 0 280 126q115 127 115 312q0 176 -115 299q-114 121 -280 121q-167 0 -281 -121q-115 -123 -115 -299z" />
    <glyph glyph-name="uni041F" unicode="&#x41f;" horiz-adv-x="1544" 
d="M154 0v1464h1237v-1464h-359v1159h-520v-1159h-358z" />
    <glyph glyph-name="uni0420" unicode="&#x420;" horiz-adv-x="1280" 
d="M154 0v1464h608q213 0 345 -141t132 -362q0 -223 -132 -366q-132 -142 -345 -142h-250v-453h-358zM512 760h176q90 0 138 55t48 146q0 90 -47 143t-133 53h-182v-397z" />
    <glyph glyph-name="uni0421" unicode="&#x421;" horiz-adv-x="1462" 
d="M76 735q0 325 216 539q217 215 552 215q155 0 299 -52t250 -155l-166 -270q-71 64 -173 107q-99 42 -194 42q-204 0 -309 -122q-105 -121 -105 -296q0 -179 108 -309q108 -131 306 -131q209 0 389 180l185 -262q-237 -246 -590 -246q-348 0 -558 214q-210 215 -210 546z
" />
    <glyph glyph-name="uni0422" unicode="&#x422;" horiz-adv-x="1300" 
d="M471 0v1157h-444v307h1247v-307h-445v-1157h-358z" />
    <glyph glyph-name="uni0423" unicode="&#x423;" horiz-adv-x="1292" 
d="M111 86l155 268q88 -73 162 -73q88 0 117 75l-565 1108h393l243 -526l80 -197h4q21 86 58 195l180 528h377l-432 -1097q-27 -70 -63 -137q-31 -57 -84 -121q-55 -65 -126 -99q-75 -35 -166 -35q-176 0 -333 111z" />
    <glyph glyph-name="uni0424" unicode="&#x424;" horiz-adv-x="1771" 
d="M51 782q0 260 182 432t474 172v150h358v-150q291 0 473 -172t182 -432q0 -269 -182 -445q-183 -177 -473 -177v-185h-358v185q-291 0 -474 177q-182 176 -182 445zM1065 459q123 0 207 94q84 95 84 229q0 128 -84 216q-84 89 -207 89v-628zM416 782q0 -134 84 -229
q84 -94 207 -94v628q-123 0 -207 -89q-84 -88 -84 -216z" />
    <glyph glyph-name="uni0425" unicode="&#x425;" horiz-adv-x="1349" 
d="M16 0l445 727l-447 737h408l160 -301l90 -188h4q37 90 90 188l162 301h407l-448 -737l446 -727h-399l-168 307l-90 182h-4q-40 -92 -90 -182l-168 -307h-398z" />
    <glyph glyph-name="uni0426" unicode="&#x426;" horiz-adv-x="1624" 
d="M154 0v1464h358v-1159h508v1159h358v-1159h181v-592h-318v287h-1087z" />
    <glyph glyph-name="uni0427" unicode="&#x427;" horiz-adv-x="1417" 
d="M537 518q-228 0 -343 121q-116 122 -116 338v487h366v-403q0 -217 195 -217q146 0 258 67v553h367v-1464h-367v530l4 66h-4q-183 -78 -360 -78z" />
    <glyph glyph-name="uni0428" unicode="&#x428;" horiz-adv-x="2119" 
d="M154 0v1464h358v-1159h369v1159h358v-1159h369v1159h358v-1464h-1812z" />
    <glyph glyph-name="uni0429" unicode="&#x429;" horiz-adv-x="2211" 
d="M154 0v1464h358v-1159h369v1159h358v-1159h369v1159h358v-1159h180v-592h-317v287h-1675z" />
    <glyph glyph-name="uni042A" unicode="&#x42a;" horiz-adv-x="1505" 
d="M379 0v1157h-369v307h727v-452h250q213 0 345 -143t132 -365t-132 -363t-345 -141h-608zM737 307h183q86 0 133 53t47 144q0 90 -48 145q-48 56 -139 56h-176v-398z" />
    <glyph glyph-name="uni042B" unicode="&#x42b;" horiz-adv-x="1894" 
d="M1382 0v1464h359v-1464h-359zM154 0v1464h358v-452h229q213 0 345 -143q133 -144 133 -365t-133 -363q-132 -141 -345 -141h-587zM512 307h162q86 0 133 53t47 144q0 90 -48 145q-48 56 -138 56h-156v-398z" />
    <glyph glyph-name="uni042C" unicode="&#x42c;" horiz-adv-x="1280" 
d="M154 0v1464h358v-452h250q213 0 345 -143t132 -365t-132 -363t-345 -141h-608zM512 307h182q86 0 133 53t47 144q0 90 -48 145q-48 56 -138 56h-176v-398z" />
    <glyph glyph-name="uni042D" unicode="&#x42d;" horiz-adv-x="1466" 
d="M41 201l176 256q179 -158 404 -158q157 0 258 81t131 210h-604v287h606q-30 127 -133 208q-103 80 -258 80q-202 0 -392 -164l-166 271q208 217 572 217q347 0 553 -215q205 -214 205 -535q0 -332 -217 -548q-218 -216 -558 -216q-318 0 -577 226z" />
    <glyph glyph-name="uni042E" unicode="&#x42e;" horiz-adv-x="2271" 
d="M154 0v1464h358v-585h195q45 268 246 439t491 171q324 0 539 -215t215 -533q0 -324 -215 -545t-539 -221q-280 0 -479 167q-200 168 -252 431h-201v-573h-358zM1061 741q0 -187 110 -312q111 -126 273 -126q161 0 272 126t111 312q0 177 -111 299q-111 121 -272 121
q-162 0 -273 -121q-110 -120 -110 -299z" />
    <glyph glyph-name="uni042F" unicode="&#x42f;" horiz-adv-x="1335" 
d="M16 0l281 471l55 88v4q-235 130 -235 434q0 164 73 274q75 113 197 159q89 34 285 34h510v-1464h-359v494h-131l-276 -494h-400zM668 791h155v366h-121q-120 0 -172 -41q-49 -40 -49 -137q0 -188 187 -188z" />
    <glyph glyph-name="uni0430" unicode="&#x430;" horiz-adv-x="1130" 
d="M43 297q0 101 55 174q56 74 147 113q89 38 189 56q93 17 205 17h31v19q0 117 -150 117q-139 0 -291 -101l-123 250q72 56 198 96q128 41 249 41q219 0 345 -114t126 -316v-649h-324v63l5 66h-5q-52 -73 -136 -113q-87 -41 -177 -41q-150 0 -248 93q-96 92 -96 229z
M393 330q0 -40 27 -65q26 -25 74 -25q75 0 127 59q53 61 53 127v29h-33q-98 0 -173 -30t-75 -95z" />
    <glyph glyph-name="uni0431" unicode="&#x431;" horiz-adv-x="1253" 
d="M72 631q0 319 138 502q137 181 449 288l342 115l101 -285l-397 -127q-82 -28 -137 -53q-52 -24 -99 -77q-48 -54 -49 -124h4q119 101 309 101q209 0 332 -134t123 -350q0 -223 -150 -367q-151 -145 -395 -145q-278 0 -425 179q-146 177 -146 477zM424 481q0 -98 59 -157
q60 -60 146 -60q85 0 145 60t60 157q0 101 -60 162q-60 62 -145 62q-86 0 -146 -62q-59 -60 -59 -162z" />
    <glyph glyph-name="uni0432" unicode="&#x432;" horiz-adv-x="1159" 
d="M119 0v1055h575q164 0 261 -72q98 -72 98 -205q0 -69 -33 -132q-33 -62 -90 -97v-2q85 -27 125 -91q41 -65 41 -143q0 -161 -114 -237q-113 -76 -288 -76h-575zM473 639h133q47 0 71 30q23 29 23 74q0 41 -24 67t-74 26h-129v-197zM473 221h156q52 0 83 31q29 29 29 74
q0 46 -28 75q-29 31 -82 31h-158v-211z" />
    <glyph glyph-name="uni0433" unicode="&#x433;" horiz-adv-x="892" 
d="M119 0v1055h743v-297h-389v-758h-354z" />
    <glyph glyph-name="uni0434" unicode="&#x434;" horiz-adv-x="1333" 
d="M508 281h276v493h-182v-39q0 -275 -94 -454zM29 281h131q108 185 108 520v254h871v-774h151v-527h-315v246h-619v-246h-327v527z" />
    <glyph glyph-name="uni0435" unicode="&#x435;" horiz-adv-x="1161" 
d="M59 528q0 239 150 395t399 156q228 0 358 -142t130 -368q0 -22 -9 -110h-665q18 -93 87 -141t159 -48q130 0 290 107l132 -248q-85 -73 -206 -113q-123 -41 -245 -41q-268 0 -424 164q-156 163 -156 389zM430 662h315q0 69 -39 112q-41 45 -106 45q-136 0 -170 -157z" />
    <glyph glyph-name="uni0436" unicode="&#x436;" horiz-adv-x="1712" 
d="M14 0l297 545v4l-274 506h364l195 -375h94v375h330v-375h96l195 375h364l-274 -506v-4l297 -545h-383l-189 383h-106v-383h-330v383h-104l-189 -383h-383z" />
    <glyph glyph-name="uni0437" unicode="&#x437;" horiz-adv-x="968" 
d="M31 131l141 221q53 -48 122 -79t132 -31q127 0 127 92q0 42 -24 65q-25 23 -91 23h-129v233h107q106 0 106 82q0 84 -110 84q-114 0 -250 -80l-103 220q172 118 426 118q167 0 279 -80q110 -79 110 -213q0 -165 -131 -237v-4q164 -77 164 -234q0 -162 -121 -249
q-122 -87 -315 -87q-122 0 -239 40q-118 40 -201 116z" />
    <glyph glyph-name="uni0438" unicode="&#x438;" horiz-adv-x="1265" 
d="M119 0v1055h334v-465q0 -58 -4 -105h4q14 34 57 105l293 465h344v-1055h-334v461q0 70 4 106h-4q-5 -14 -57 -104l-293 -463h-344z" />
    <glyph glyph-name="uni0439" unicode="&#x439;" horiz-adv-x="1265" 
d="M635 1128q-165 0 -277 84t-112 230v22h262v-24q0 -60 38 -90q39 -31 89 -31q48 0 88 31q39 30 39 90v24h260v-22q0 -146 -113 -230t-274 -84zM119 0v1055h334v-465q0 -58 -4 -105h4q14 34 57 105l293 465h344v-1055h-334v461q0 70 4 106h-4q-5 -14 -57 -104l-293 -463
h-344z" />
    <glyph glyph-name="uni043A" unicode="&#x43a;" horiz-adv-x="1210" 
d="M119 0v1055h354v-371h100l209 371h385l-309 -502v-4l352 -549h-403l-223 387h-111v-387h-354z" />
    <glyph glyph-name="uni043B" unicode="&#x43b;" horiz-adv-x="1222" 
d="M41 -10v309q35 5 57 13q26 10 54 35t46 69q16 40 29 120q13 83 13 181v338h864v-1055h-354v774h-177v-59q0 -350 -120 -537q-121 -188 -412 -188z" />
    <glyph glyph-name="uni043C" unicode="&#x43c;" horiz-adv-x="1562" 
d="M74 0l100 1055h410l155 -463l41 -123h2q6 18 21 61t22 62l156 463h408l100 -1055h-340l-25 485l2 181h-4q-30 -90 -57 -156l-139 -369h-287l-139 369l-62 156h-4l2 -181l-24 -485h-338z" />
    <glyph glyph-name="uni043D" unicode="&#x43d;" horiz-adv-x="1271" 
d="M119 0v1055h354v-373h326v373h354v-1055h-354v385h-326v-385h-354z" />
    <glyph glyph-name="uni043E" unicode="&#x43e;" horiz-adv-x="1314" 
d="M59 524q0 244 172 400q171 155 424 155q255 0 427 -154q173 -155 173 -401q0 -243 -172 -396q-173 -153 -426 -153t-426 153q-172 153 -172 396zM418 524q0 -115 69 -184q70 -70 170 -70t170 70t70 184q0 116 -70 189q-68 71 -170 71t-170 -71q-69 -72 -69 -189z" />
    <glyph glyph-name="uni043F" unicode="&#x43f;" horiz-adv-x="1259" 
d="M119 0v1055h1022v-1055h-355v758h-313v-758h-354z" />
    <glyph glyph-name="uni0440" unicode="&#x440;" horiz-adv-x="1296" 
d="M119 -410v1465h319v-54l-4 -67h4q108 145 320 145q215 0 345 -152t130 -401q0 -248 -139 -399q-140 -152 -353 -152q-150 0 -268 101h-4q4 -33 4 -90v-396h-354zM463 520q0 -102 54 -177t153 -75q87 0 147 68t60 184t-58 189q-56 71 -149 71q-89 0 -148 -65t-59 -195z
" />
    <glyph glyph-name="uni0441" unicode="&#x441;" horiz-adv-x="1130" 
d="M59 528q0 224 159 388q159 163 429 163q120 0 233 -40q115 -41 187 -119l-149 -238q-106 102 -248 102q-121 0 -186 -74q-66 -75 -66 -178q0 -104 69 -183t195 -79q143 0 289 127l129 -247q-79 -81 -200 -127q-125 -48 -253 -48q-270 0 -429 162t-159 391z" />
    <glyph glyph-name="uni0442" unicode="&#x442;" horiz-adv-x="1056" 
d="M350 0v758h-319v297h995v-297h-321v-758h-355z" />
    <glyph glyph-name="uni0443" unicode="&#x443;" horiz-adv-x="1148" 
d="M129 -96q57 -39 109 -39q127 0 170 106l20 49l-448 1035h401l156 -486l38 -163h5q28 135 34 157l134 492h387l-433 -1168q-62 -164 -181 -240q-121 -77 -259 -77q-62 0 -123 18q-59 17 -92 37l-31 19z" />
    <glyph glyph-name="uni0444" unicode="&#x444;" horiz-adv-x="1607" 
d="M61 524q0 240 165 395q164 154 411 160v355h334v-355q246 -6 410 -160q165 -154 165 -395q0 -238 -165 -389q-166 -153 -410 -160v-385h-334v385q-245 7 -411 160q-165 151 -165 389zM971 254q100 7 167 81q66 72 66 189q0 119 -66 194t-167 83v-547zM403 524
q0 -116 67 -189q67 -74 167 -81v547q-101 -8 -167 -83q-67 -76 -67 -194z" />
    <glyph glyph-name="uni0445" unicode="&#x445;" horiz-adv-x="1126" 
d="M23 0l331 522l-340 533h400l114 -236l33 -69h4q29 61 33 69l115 236h399l-338 -533l332 -522h-389l-127 238l-25 53h-4q-20 -47 -24 -53l-125 -238h-389z" />
    <glyph glyph-name="uni0446" unicode="&#x446;" horiz-adv-x="1323" 
d="M119 0v1055h354v-758h299v758h354v-758h152v-543h-315v246h-844z" />
    <glyph glyph-name="uni0447" unicode="&#x447;" horiz-adv-x="1179" 
d="M422 324q-147 0 -253 86t-106 276v369h349v-301q0 -142 135 -142q87 0 160 52v391h354v-1055h-354v330l2 49h-4q-122 -55 -283 -55z" />
    <glyph glyph-name="uni0448" unicode="&#x448;" horiz-adv-x="1714" 
d="M119 0v1055h334v-758h237v758h334v-758h238v758h333v-1055h-1476z" />
    <glyph glyph-name="uni0449" unicode="&#x449;" horiz-adv-x="1792" 
d="M119 0v1055h334v-758h237v758h334v-758h238v758h333v-758h152v-543h-315v246h-1313z" />
    <glyph glyph-name="uni044A" unicode="&#x44a;" horiz-adv-x="1259" 
d="M281 0v758h-267v297h621v-330h172q214 0 315 -98q103 -100 103 -267t-103 -264q-102 -96 -315 -96h-526zM635 231h106q62 0 96 37q33 36 33 94q0 59 -34 96q-35 38 -101 38h-100v-265z" />
    <glyph glyph-name="uni044B" unicode="&#x44b;" horiz-adv-x="1644" 
d="M1171 0v1055h355v-1055h-355zM119 0v1055h354v-330h160q214 0 315 -98q103 -100 103 -267t-103 -264q-102 -96 -315 -96h-514zM473 231h94q62 0 96 37q33 36 33 94q0 59 -34 96q-35 38 -101 38h-88v-265z" />
    <glyph glyph-name="uni044C" unicode="&#x44c;" horiz-adv-x="1099" 
d="M119 0v1055h354v-330h172q215 0 316 -98q102 -99 102 -267t-102 -264t-316 -96h-526zM473 231h107q61 0 95 37t34 94q0 58 -35 96t-101 38h-100v-265z" />
    <glyph glyph-name="uni044D" unicode="&#x44d;" horiz-adv-x="1126" 
d="M33 127l123 238q141 -115 299 -115q105 0 175 45q70 44 97 119h-397v233h399q-29 74 -96 116t-164 42q-158 0 -274 -100l-144 229q75 70 194 108q117 37 242 37q271 0 425 -161q155 -163 155 -390q0 -229 -159 -391t-429 -162q-262 0 -446 152z" />
    <glyph glyph-name="uni044E" unicode="&#x44e;" horiz-adv-x="1816" 
d="M119 0v1055h354v-381h148q45 187 195 296q149 109 358 109q250 0 416 -154q167 -155 167 -401q0 -243 -166 -396q-167 -153 -415 -153q-213 0 -366 114q-154 115 -194 304h-143v-393h-354zM952 524q0 -114 64 -184t160 -70q95 0 159 70t64 184q0 116 -64 189
q-62 71 -159 71q-98 0 -160 -71q-64 -73 -64 -189z" />
    <glyph glyph-name="uni044F" unicode="&#x44f;" horiz-adv-x="1142" 
d="M18 0l213 319l50 64v2q-88 45 -139 128q-52 85 -52 185q0 166 103 261q104 96 278 96h553v-1055h-354v322h-74l-203 -322h-375zM586 557h84v279h-86q-142 0 -142 -136q0 -143 144 -143z" />
    <glyph glyph-name="uni0450" unicode="&#x450;" horiz-adv-x="1161" 
d="M59 528q0 239 150 395t399 156q228 0 358 -142t130 -368q0 -22 -9 -110h-665q18 -93 87 -141t159 -48q130 0 290 107l132 -248q-85 -73 -206 -113q-123 -41 -245 -41q-268 0 -424 164q-156 163 -156 389zM430 662h315q0 69 -39 112q-41 45 -106 45q-136 0 -170 -157z
M500 1157l-242 307h350l166 -307h-274z" />
    <glyph glyph-name="uni0451" unicode="&#x451;" horiz-adv-x="1161" 
d="M59 528q0 239 150 395t399 156q228 0 358 -142t130 -368q0 -22 -9 -110h-665q18 -93 87 -141t159 -48q130 0 290 107l132 -248q-85 -73 -206 -113q-123 -41 -245 -41q-268 0 -424 164q-156 163 -156 389zM430 662h315q0 69 -39 112q-41 45 -106 45q-136 0 -170 -157z
M688 1178v286h258v-286h-258zM260 1178v286h258v-286h-258z" />
    <glyph glyph-name="uni0452" unicode="&#x452;" horiz-adv-x="1284" 
d="M119 0v1069h-121v236h121v159h354v-159h334v-236h-334v-205l-4 -90h4q45 78 131 123q85 45 191 45q379 0 379 -395v-492q0 -136 -49 -240q-48 -102 -125 -150t-148 -69q-75 -22 -143 -22l-125 6v297q31 -4 75 -4q160 0 160 186v422q0 140 -117 140q-159 0 -210 -156
q-19 -55 -19 -135v-330h-354z" />
    <glyph glyph-name="uni0453" unicode="&#x453;" horiz-adv-x="892" 
d="M119 0v1055h743v-297h-389v-758h-354zM303 1157l166 307h350l-241 -307h-275z" />
    <glyph glyph-name="uni0454" unicode="&#x454;" horiz-adv-x="1134" 
d="M59 528q0 224 159 388q159 163 429 163q82 0 157 -15q72 -14 122 -37q49 -22 83 -42q38 -22 52 -35l14 -16l-147 -236q-4 3 -15.5 12.5t-18.5 15.5q-20 17 -91 45q-72 28 -139 28q-207 0 -267 -152h400v-233h-398q62 -164 279 -164q74 0 151 33t113 65l39 33l125 -244
q-2 -2 -9 -7.5t-11 -9.5q-14 -12 -57 -39q-49 -30 -93 -49q-51 -21 -128 -39q-80 -18 -161 -18q-270 0 -429 162t-159 391z" />
    <glyph glyph-name="uni0455" unicode="&#x455;" horiz-adv-x="964" 
d="M39 131l151 231q127 -106 287 -106q96 0 96 55q0 31 -51 55t-123 48t-144 60t-124 106q-51 69 -51 165q0 158 124 246t314 88q228 0 377 -121l-121 -245q-44 36 -122 61q-80 25 -144 25q-98 0 -98 -51q0 -27 36 -47q37 -21 92 -36q45 -13 118 -43q64 -27 119 -62t91 -96
q37 -62 37 -142q0 -152 -118 -249q-119 -98 -316 -98q-256 0 -430 156z" />
    <glyph glyph-name="uni0456" unicode="&#x456;" horiz-adv-x="591" 
d="M123 1188v276h346v-276h-346zM119 0v1055h354v-1055h-354z" />
    <glyph glyph-name="uni0457" unicode="&#x457;" horiz-adv-x="591" 
d="M119 0v1055h354v-1055h-354zM383 1178v286h258v-286h-258zM-45 1178v286h258v-286h-258z" />
    <glyph glyph-name="uni0458" unicode="&#x458;" horiz-adv-x="591" 
d="M123 1188v276h346v-276h-346zM119 8v1047h354v-1082q0 -102 -37 -177q-39 -79 -89 -118q-53 -41 -125 -65q-74 -25 -129 -32q-53 -7 -116 -7q-47 0 -94 6v295q22 -2 45 -2q191 0 191 135z" />
    <glyph glyph-name="uni0459" unicode="&#x459;" horiz-adv-x="1679" 
d="M41 -10v309q49 7 76 20q29 15 63 53q32 37 49 120q17 85 17 204v359h819v-363h164q214 0 315 -94q103 -95 103 -258q0 -159 -103 -250q-102 -90 -315 -90h-518v774h-133v-63q0 -369 -119 -545t-418 -176zM1065 231h115q60 0 95 30q34 30 34 79q0 53 -35 86
q-34 33 -100 33h-109v-228z" />
    <glyph glyph-name="uni045A" unicode="&#x45a;" horiz-adv-x="1779" 
d="M119 0v1055h354v-359h338v359h354v-363h164q215 0 316 -94q102 -94 102 -258q0 -160 -102 -250t-316 -90h-518v424h-338v-424h-354zM1165 231h115q60 0 95 30q34 30 34 79q0 53 -35 86q-34 33 -100 33h-109v-228z" />
    <glyph glyph-name="uni045B" unicode="&#x45b;" horiz-adv-x="1284" 
d="M119 0v1069h-121v236h121v159h354v-159h334v-236h-334v-203l-4 -90h4q45 78 131 123q85 45 191 45q379 0 379 -395v-549h-355v483q0 140 -117 140q-159 0 -210 -156q-19 -55 -19 -135v-332h-354z" />
    <glyph glyph-name="uni045C" unicode="&#x45c;" horiz-adv-x="1210" 
d="M119 0v1055h354v-371h100l209 371h385l-309 -502v-4l352 -549h-403l-223 387h-111v-387h-354zM457 1157l166 307h350l-242 -307h-274z" />
    <glyph glyph-name="uni045D" unicode="&#x45d;" horiz-adv-x="1265" 
d="M119 0v1055h334v-465q0 -58 -4 -105h4q14 34 57 105l293 465h344v-1055h-334v461q0 70 4 106h-4q-5 -14 -57 -104l-293 -463h-344zM524 1157l-241 307h350l166 -307h-275z" />
    <glyph glyph-name="uni045E" unicode="&#x45e;" horiz-adv-x="1148" 
d="M580 1128q-164 0 -277 84t-113 230v22h263v-24q0 -60 37 -90q39 -31 90 -31q48 0 88 31q39 30 39 90v24h260v-22q0 -146 -113 -230t-274 -84zM129 -96q57 -39 109 -39q127 0 170 106l20 49l-448 1035h401l156 -486l38 -163h5q28 135 34 157l134 492h387l-433 -1168
q-62 -164 -181 -240q-121 -77 -259 -77q-62 0 -123 18q-59 17 -92 37l-31 19z" />
    <glyph glyph-name="uni045F" unicode="&#x45f;" horiz-adv-x="1245" 
d="M119 0v1055h354v-758h299v758h354v-1055h-346v-246h-315v246h-346z" />
    <glyph glyph-name="uni0462" unicode="&#x462;" horiz-adv-x="1468" 
d="M342 0v1104h-328v266h336v166h350v-166h418v-266h-418v-174h250q212 0 345 -131q132 -131 132 -336t-132 -334t-345 -129h-608zM700 307h183q87 0 133 42q47 42 47 114q0 73 -48 116q-49 44 -138 44h-177v-316z" />
    <glyph glyph-name="uni0463" unicode="&#x463;" horiz-adv-x="1224" 
d="M240 0v934h-250v248h248v282h354v-282h330v-248h-328v-209h184q215 0 316 -98q102 -99 102 -267t-102 -264t-316 -96h-538zM594 231h119q61 0 95 37t34 94q0 58 -35 96t-100 38h-113v-265z" />
    <glyph glyph-name="uni0472" unicode="&#x472;" horiz-adv-x="1679" 
d="M74 741q0 318 218 533t548 215t548 -215t218 -533q0 -324 -218 -545t-548 -221t-548 221t-218 545zM842 289q136 0 240 85q107 87 145 224h-774q40 -138 146 -224q104 -85 243 -85zM842 1171q-139 0 -247 -84q-106 -83 -144 -219h780q-39 134 -146 219q-107 84 -243 84z
" />
    <glyph glyph-name="uni0473" unicode="&#x473;" horiz-adv-x="1314" 
d="M59 524q0 244 172 400q171 155 424 155q255 0 427 -154q173 -155 173 -401q0 -243 -172 -396q-173 -153 -426 -153t-426 153q-172 153 -172 396zM662 227q93 0 167 56q76 57 99 153h-539q24 -97 99 -153q76 -56 174 -56zM662 825q-96 0 -167 -52q-74 -54 -102 -144h529
q-27 91 -99 143q-73 53 -161 53z" />
    <glyph glyph-name="uni0474" unicode="&#x474;" horiz-adv-x="1429" 
d="M506 0l-518 1464h389l258 -833q5 -16 26 -101q19 -76 23 -96l6 -39h4q26 141 56 236l225 715q23 68 59 93q37 25 113 25h256v-307h-51q-43 0 -61 -17q-19 -18 -36 -63l-376 -1077h-373z" />
    <glyph glyph-name="uni0475" unicode="&#x475;" 
d="M369 0l-365 1055h373l164 -561l39 -183h4q19 116 39 183l106 362q30 111 85 155t161 44h219v-297h-49q-50 0 -75 -19q-23 -17 -44 -77l-225 -662h-432z" />
    <glyph glyph-name="uni048A" unicode="&#x48a;" horiz-adv-x="1685" 
d="M154 0v1464h358v-684l-16 -250h4q68 157 123 250l405 684h363v-1157h278v-186l-182 -408h-240l68 287h-283v682l17 250h-5q-70 -163 -122 -250l-408 -682h-360zM797 1530q-165 0 -277 84t-112 229v23h262v-25q0 -60 38 -90q39 -31 89 -31q48 0 88 31q39 30 39 90v25h260
v-23q0 -145 -113 -229t-274 -84z" />
    <glyph glyph-name="uni048B" unicode="&#x48b;" horiz-adv-x="1427" 
d="M119 0v1055h334v-465q0 -58 -4 -105h4q14 34 57 105l293 465h344v-758h256v-176l-162 -367h-227l57 246h-258v461q0 70 4 106h-4q-5 -14 -57 -104l-293 -463h-344zM647 1128q-163 0 -276 84t-113 230v22h262v-24q0 -60 38 -90q39 -31 89 -31q48 0 88 31q39 30 39 90v24
h260v-22q0 -146 -112 -230t-275 -84z" />
    <glyph glyph-name="uni048C" unicode="&#x48c;" horiz-adv-x="1466" 
d="M340 0v1120h-328v266h336v150h350v-150h418v-266h-418v-190h250q212 0 345 -131q132 -131 132 -336t-132 -334t-345 -129h-608zM698 307h183q87 0 133 42q47 42 47 114q0 73 -48 116q-49 44 -139 44h-176v-316z" />
    <glyph glyph-name="uni048D" unicode="&#x48d;" horiz-adv-x="1224" 
d="M240 0v934h-250v248h248v282h354v-282h330v-248h-328v-209h184q215 0 316 -98q102 -99 102 -267t-102 -264t-316 -96h-538zM594 231h119q61 0 95 37t34 94q0 58 -35 96t-100 38h-113v-265z" />
    <glyph glyph-name="uni048E" unicode="&#x48e;" horiz-adv-x="1310" 
d="M154 0v1464h608q213 0 345 -141t132 -362q0 -230 -139 -373l110 -131l-157 -133l-131 153q-74 -24 -160 -24h-250v-453h-358zM606 854l158 133l127 -151q18 45 18 104q0 100 -50 159q-49 58 -146 58h-201v-436h195h10z" />
    <glyph glyph-name="uni048F" unicode="&#x48f;" horiz-adv-x="1306" 
d="M119 -410v1465h319v-54l-4 -67h4q2 2 6.5 7t6.5 8q9 11 36 35q28 25 62 45q35 21 89 35q57 15 120 15q215 0 345 -152t130 -401q0 -242 -133 -391l106 -127l-157 -129l-113 135q-94 -39 -195 -39q-74 0 -143 26q-66 25 -96 50l-29 25h-4q4 -33 4 -90v-396h-354zM608 406
l158 129l121 -146q22 50 22 119q0 126 -60 199t-163 73q-101 0 -162 -67t-61 -205q0 -106 57 -181t166 -75q20 0 45 4z" />
    <glyph glyph-name="uni0490" unicode="&#x490;" horiz-adv-x="1103" 
d="M154 0v1464h643v246h286v-553h-571v-1157h-358z" />
    <glyph glyph-name="uni0491" unicode="&#x491;" horiz-adv-x="923" 
d="M119 0v1055h508v245h268v-542h-422v-758h-354z" />
    <glyph glyph-name="uni0492" unicode="&#x492;" horiz-adv-x="1089" 
d="M162 0v575h-115v246h115v643h897v-307h-539v-336h318v-246h-318v-575h-358z" />
    <glyph glyph-name="uni0493" unicode="&#x493;" horiz-adv-x="917" 
d="M135 0v362h-123v216h123v477h744v-297h-390v-180h248v-216h-248v-362h-354z" />
    <glyph glyph-name="uni0494" unicode="&#x494;" horiz-adv-x="1331" 
d="M154 0v1464h899v-307h-541v-315q99 32 238 32q266 0 399 -167t133 -433q0 -663 -602 -663v287q113 0 168 80t55 296q0 143 -56 218t-192 75q-69 0 -143 -24v-543h-358z" />
    <glyph glyph-name="uni0495" unicode="&#x495;" horiz-adv-x="1114" 
d="M119 0v1055h780v-279h-426v-194q80 30 189 30q199 0 307 -127q108 -128 108 -329q0 -367 -348 -586l-166 240q69 40 122 119q54 81 54 200q0 201 -168 201q-56 0 -98 -25v-305h-354z" />
    <glyph glyph-name="uni0496" unicode="&#x496;" horiz-adv-x="2134" 
d="M12 0l394 760v4l-363 700h385l270 -565h140v565h358v-565h139l271 565h385l-363 -700v-4l236 -455h235v-592h-317v287h-162l-285 594h-139v-594h-358v594h-140l-284 -594h-402z" />
    <glyph glyph-name="uni0497" unicode="&#x497;" horiz-adv-x="1816" 
d="M14 0l297 545v4l-274 506h364l195 -375h94v375h330v-375h96l195 375h364l-274 -506v-4l135 -248h242v-543h-314v246h-149l-189 383h-106v-383h-330v383h-104l-189 -383h-383z" />
    <glyph glyph-name="uni0498" unicode="&#x498;" horiz-adv-x="1167" 
d="M31 199l186 235q149 -145 311 -145q193 0 193 164q0 143 -172 143h-176v285h143q78 0 124 43t46 104q0 70 -46 112t-126 42q-152 0 -303 -121l-137 256q206 172 508 172q114 0 218 -42t177 -139q74 -98 74 -233q0 -206 -191 -319v-4q107 -38 168 -122q62 -86 62 -204
q0 -164 -99 -276q-100 -114 -258 -154v-283h-317v279q-226 41 -385 207z" />
    <glyph glyph-name="uni0499" unicode="&#x499;" horiz-adv-x="970" 
d="M31 131l141 221q53 -48 122 -79t132 -31q127 0 127 92q0 42 -24 65q-25 23 -91 23h-129v233h107q106 0 106 82q0 84 -110 84q-114 0 -250 -80l-103 220q172 118 426 118q167 0 279 -80q110 -79 110 -213q0 -165 -131 -237v-4q164 -77 164 -234q0 -123 -71 -203
q-73 -82 -197 -112v-242h-307v236q-184 33 -301 141z" />
    <glyph glyph-name="uni049A" unicode="&#x49a;" horiz-adv-x="1472" 
d="M154 0v1464h358v-565h147l304 565h385l-396 -700v-4l250 -455h234v-592h-318v287h-149l-310 594h-147v-594h-358z" />
    <glyph glyph-name="uni049B" unicode="&#x49b;" horiz-adv-x="1300" 
d="M119 0v1055h354v-371h100l209 371h385l-309 -502v-4l162 -252h242v-543h-314v246h-141l-223 387h-111v-387h-354z" />
    <glyph glyph-name="uni049C" unicode="&#x49c;" horiz-adv-x="1646" 
d="M154 0v1464h358v-565h104v217h246v-217h62l303 565h385l-395 -700v-4l417 -760h-401l-309 594h-62v-223h-246v223h-104v-594h-358z" />
    <glyph glyph-name="uni049D" unicode="&#x49d;" horiz-adv-x="1415" 
d="M119 0v1055h354v-371h68v190h204v-190h33l209 371h385l-309 -502v-4l352 -549h-403l-224 387h-43v-192h-204v192h-68v-387h-354z" />
    <glyph glyph-name="uni049E" unicode="&#x49e;" horiz-adv-x="1388" 
d="M61 1055v229h99v180h358v-180h144v-229h-144v-156h148l303 565h385l-396 -700v-4l418 -760h-401l-309 594h-148v-594h-358v1055h-99z" />
    <glyph glyph-name="uni049F" unicode="&#x49f;" horiz-adv-x="1210" 
d="M119 0v1079h-123v226h123v159h354v-159h168v-226h-168v-395h100l209 371h385l-309 -502v-4l352 -549h-403l-223 387h-111v-387h-354z" />
    <glyph glyph-name="uni04A0" unicode="&#x4a0;" horiz-adv-x="1638" 
d="M410 0v1157h-379v307h737v-565h147l304 565h385l-396 -700v-4l418 -760h-401l-310 594h-147v-594h-358z" />
    <glyph glyph-name="uni04A1" unicode="&#x4a1;" horiz-adv-x="1372" 
d="M281 0v758h-267v297h621v-371h100l209 371h385l-309 -502v-4l352 -549h-403l-224 387h-110v-387h-354z" />
    <glyph glyph-name="uni04A2" unicode="&#x4a2;" horiz-adv-x="1665" 
d="M154 0v1464h358v-585h532v585h359v-1159h233v-592h-317v287h-275v573h-532v-573h-358z" />
    <glyph glyph-name="uni04A3" unicode="&#x4a3;" horiz-adv-x="1390" 
d="M119 0v1055h354v-373h326v373h354v-758h201v-543h-314v246h-241v385h-326v-385h-354z" />
    <glyph glyph-name="uni04A4" unicode="&#x4a4;" horiz-adv-x="1961" 
d="M154 0v1464h358v-585h532v585h898v-307h-539v-1157h-359v573h-532v-573h-358z" />
    <glyph glyph-name="uni04A5" unicode="&#x4a5;" horiz-adv-x="1556" 
d="M119 0v1055h354v-373h326v373h727v-297h-373v-758h-354v385h-326v-385h-354z" />
    <glyph glyph-name="uni04A6" unicode="&#x4a6;" horiz-adv-x="2058" 
d="M154 0v1464h1093v-602q102 33 238 33q265 0 399 -173q133 -172 133 -448q0 -337 -145 -500t-457 -163v287q113 0 168 80t55 296q0 164 -56 248q-57 86 -191 86q-45 0 -144 -24v-584h-358v1161h-377v-1161h-358z" />
    <glyph glyph-name="uni04A7" unicode="&#x4a7;" horiz-adv-x="1769" 
d="M119 0v1055h973v-389q81 36 192 36q191 0 320 -133t129 -368q0 -195 -94 -362q-92 -163 -255 -269l-165 240q70 44 122 139q54 99 54 233q0 232 -187 232q-64 0 -116 -27v-387h-355v758h-264v-758h-354z" />
    <glyph glyph-name="uni04A8" unicode="&#x4a8;" horiz-adv-x="1937" 
d="M76 764q0 151 43 277q45 130 113 215q70 86 138 142q65 53 140 93l166 -324q-240 -153 -240 -419q0 -181 111 -313t332 -132q35 0 82 4q-224 230 -224 543q0 262 151 439q150 175 404 175t401 -172q146 -171 146 -407q0 -153 -66 -308q-65 -152 -186 -282q54 -8 119 -8
h117v-287h-123q-200 0 -395 82q-208 -107 -437 -107q-337 0 -565 216q-227 215 -227 573zM1108 856q0 -256 160 -410q94 83 147 199q53 115 53 234q0 107 -44 184q-43 76 -136 76q-86 0 -133 -73t-47 -210z" />
    <glyph glyph-name="uni04A9" unicode="&#x4a9;" horiz-adv-x="1675" 
d="M59 551q0 204 110 338q109 133 255 190l127 -280q-77 -39 -123 -109q-45 -69 -45 -147q0 -111 83 -203t243 -92q47 0 67 4q-155 151 -155 364q0 201 134 332t357 131q218 0 342 -121q125 -122 125 -286q0 -211 -195 -412q32 -2 78 -2h146v-258h-125q-192 0 -381 63
q-188 -88 -395 -88q-285 0 -466 159q-182 159 -182 417zM948 625q0 -164 129 -260q174 117 174 282q0 75 -37 121q-38 47 -112 47q-79 0 -117 -53q-37 -52 -37 -137z" />
    <glyph glyph-name="uni04AA" unicode="&#x4aa;" horiz-adv-x="1462" 
d="M76 735q0 325 216 539q217 215 552 215q155 0 299 -52t250 -155l-166 -270q-71 64 -173 107q-99 42 -194 42q-204 0 -309 -122q-105 -121 -105 -296q0 -179 108 -309q108 -131 306 -131q209 0 389 180l185 -262q-195 -204 -476 -237v-271h-317v285q-263 60 -414 259
t-151 478z" />
    <glyph glyph-name="uni04AB" unicode="&#x4ab;" horiz-adv-x="1130" 
d="M59 528q0 224 159 388q159 163 429 163q120 0 233 -40q115 -41 187 -119l-149 -238q-106 102 -248 102q-121 0 -186 -74q-66 -75 -66 -178q0 -104 69 -183t195 -79q143 0 289 127l129 -248q-122 -126 -326 -161v-234h-307v244q-192 51 -300 198t-108 332z" />
    <glyph glyph-name="uni04AC" unicode="&#x4ac;" horiz-adv-x="1310" 
d="M467 0v1157h-444v307h1247v-307h-445v-852h234v-592h-318v287h-274z" />
    <glyph glyph-name="uni04AD" unicode="&#x4ad;" horiz-adv-x="1075" 
d="M350 0v758h-319v297h995v-297h-321v-461h200v-543h-313v246h-242z" />
    <glyph glyph-name="uni04AE" unicode="&#x4ae;" horiz-adv-x="1255" 
d="M449 0v600l-484 864h408l166 -352l88 -211h4q36 98 88 211l164 352h407l-483 -864v-600h-358z" />
    <glyph glyph-name="uni04AF" unicode="&#x4af;" horiz-adv-x="1157" 
d="M403 0l-403 1055h373l164 -520l38 -179h5q20 120 38 179l162 520h375l-399 -1055v-410h-353v410z" />
    <glyph glyph-name="uni04B0" unicode="&#x4b0;" horiz-adv-x="1257" 
d="M238 387v246h194l-465 831h408l166 -352l88 -211h4q36 98 88 211l164 352h407l-465 -831h220v-246h-238v-387h-358v387h-213z" />
    <glyph glyph-name="uni04B1" unicode="&#x4b1;" horiz-adv-x="1155" 
d="M158 0v225h159l-317 830h373l164 -520l38 -179h5q20 120 38 179l162 520h375l-315 -830h161v-225h-245v-410h-353v410h-245z" />
    <glyph glyph-name="uni04B2" unicode="&#x4b2;" horiz-adv-x="1437" 
d="M16 0l445 727l-447 737h408l160 -301l90 -188h4q37 90 90 188l162 301h407l-448 -737l258 -422h252v-592h-318v287h-145l-168 307l-90 182h-4q-40 -92 -90 -182l-168 -307h-398z" />
    <glyph glyph-name="uni04B3" unicode="&#x4b3;" horiz-adv-x="1206" 
d="M23 0l331 522l-340 533h400l114 -236l33 -69h4q29 61 33 69l115 236h399l-338 -533l144 -225h241v-543h-313v246h-129l-127 238l-25 53h-4q-20 -47 -24 -53l-125 -238h-389z" />
    <glyph glyph-name="uni04B4" unicode="&#x4b4;" horiz-adv-x="1906" 
d="M410 0v1157h-379v307h1116v-307h-379v-852h541v1159h358v-1159h201v-592h-318v287h-1140z" />
    <glyph glyph-name="uni04B5" unicode="&#x4b5;" horiz-adv-x="1566" 
d="M268 0v758h-233v297h823v-297h-235v-461h381v758h354v-758h168v-541h-316v244h-942z" />
    <glyph glyph-name="uni04B6" unicode="&#x4b6;" horiz-adv-x="1525" 
d="M537 518q-228 0 -343 121q-116 122 -116 338v487h366v-403q0 -217 195 -217q146 0 258 67v553h367v-1159h233v-592h-317v287h-283v530l4 66h-4q-183 -78 -360 -78z" />
    <glyph glyph-name="uni04B7" unicode="&#x4b7;" horiz-adv-x="1296" 
d="M422 324q-147 0 -253 86t-106 276v369h349v-301q0 -142 135 -142q87 0 160 52v391h354v-758h199v-543h-314v246h-239v330l2 49h-4q-122 -55 -283 -55z" />
    <glyph glyph-name="uni04B8" unicode="&#x4b8;" horiz-adv-x="1495" 
d="M573 535q-249 0 -373 120q-126 121 -126 338v471h366v-403q0 -184 146 -211v266h245v-254q90 21 144 49v553h366v-1464h-366v547l4 65h-4q-54 -21 -144 -45v-227h-245v195h-13z" />
    <glyph glyph-name="uni04B9" unicode="&#x4b9;" horiz-adv-x="1302" 
d="M518 174v158h-55q-167 0 -283 85q-117 85 -117 269v369h349v-301q0 -104 106 -131v231h205v-229q61 15 106 39v391h355v-1055h-355v350l2 49h-2q-37 -17 -106 -34v-191h-205z" />
    <glyph glyph-name="uni04BA" unicode="&#x4ba;" horiz-adv-x="1345" 
d="M154 0v1464h358v-534l-4 -66h4q172 70 330 70q217 0 322 -130q106 -132 106 -347v-457h-367v403q0 215 -190 215q-109 0 -201 -53v-565h-358z" />
    <glyph glyph-name="uni04BB" unicode="&#x4bb;" horiz-adv-x="1282" 
d="M119 0v1464h354v-463l-4 -90h4q45 78 131 123q85 45 191 45q379 0 379 -395v-684h-355v618q0 140 -117 140q-110 0 -170 -78q-59 -77 -59 -205v-475h-354z" />
    <glyph glyph-name="uni04BC" unicode="&#x4bc;" horiz-adv-x="1880" 
d="M45 1079q0 111 18 187l15 61h317l-16 -65q-17 -74 -17 -138q0 -89 25 -150q24 -60 96 -67q49 278 240 430t434 152q307 0 476 -198q169 -197 169 -509l-12 -147h-944q27 -149 130 -240q104 -92 265 -92q108 0 214 47q103 46 165 103l166 -271q-230 -207 -594 -207
q-284 0 -485 186t-234 476q-200 5 -313 112q-115 109 -115 330zM846 907h598q0 121 -75 195q-76 74 -212 74q-133 0 -219 -87q-86 -88 -92 -182z" />
    <glyph glyph-name="uni04BD" unicode="&#x4bd;" horiz-adv-x="1470" 
d="M37 836q0 65 16 139h273q-17 -68 -17 -121q0 -140 78 -168q45 179 185 286t346 107q227 0 357 -142t130 -368l-8 -110h-666q18 -93 87 -141t159 -48q68 0 140 27q77 29 112 53l39 27l131 -248q-18 -17 -54 -42q-37 -26 -154 -69t-243 -43q-247 0 -401 142t-176 346
q-334 15 -334 373zM739 661h310q0 62 -39 107t-101 45q-132 0 -170 -152z" />
    <glyph glyph-name="uni04BE" unicode="&#x4be;" horiz-adv-x="1884" 
d="M47 1079q0 106 19 187l14 61h317l-16 -65q-16 -70 -16 -138q0 -92 24 -150q24 -60 96 -67q49 278 240 430t434 152q307 0 476 -198q169 -197 169 -509l-12 -147h-944q27 -149 130 -240q104 -92 265 -92q108 0 214 47q103 46 165 103l166 -271q-193 -170 -473 -200v-269
h-318v289q-211 60 -353 229t-169 406q-200 5 -313 112q-115 109 -115 330zM848 907h598q0 121 -75 195q-76 74 -212 74q-133 0 -219 -87q-86 -88 -92 -182z" />
    <glyph glyph-name="uni04BF" unicode="&#x4bf;" horiz-adv-x="1470" 
d="M37 836q0 65 16 139h273q-17 -68 -17 -121q0 -140 78 -168q45 179 185 286t346 107q227 0 357 -142t130 -368l-8 -110h-666q18 -93 87 -141t159 -48q68 0 140 27q77 29 112 53l39 27l131 -248q-15 -12 -42 -33q-22 -17 -119 -60q-87 -38 -187 -54v-228h-308v252
q-159 51 -257 176q-97 124 -115 281q-334 15 -334 373zM739 661h310q0 62 -39 107t-101 45q-132 0 -170 -152z" />
    <glyph glyph-name="uni04C0" unicode="&#x4c0;" horiz-adv-x="661" 
d="M154 0v1464h354v-1464h-354z" />
    <glyph glyph-name="uni04C1" unicode="&#x4c1;" horiz-adv-x="2033" 
d="M12 0l394 760v4l-363 700h385l270 -565h140v565h358v-565h139l271 565h385l-363 -700v-4l393 -760h-401l-285 594h-139v-594h-358v594h-140l-284 -594h-402zM1034 1530q-164 0 -276 84q-113 84 -113 229v23h262v-25q0 -60 38 -90q39 -31 89 -31q48 0 88 31q39 30 39 90
v25h260v-23q0 -145 -112 -229q-113 -84 -275 -84z" />
    <glyph glyph-name="uni04C2" unicode="&#x4c2;" horiz-adv-x="1712" 
d="M14 0l297 545v4l-274 506h364l195 -375h94v375h330v-375h96l195 375h364l-274 -506v-4l297 -545h-383l-189 383h-106v-383h-330v383h-104l-189 -383h-383zM858 1128q-164 0 -276 84q-113 84 -113 230v22h262v-24q0 -60 38 -90q39 -31 89 -31q48 0 88 31q39 30 39 90v24
h260v-22q0 -146 -112 -230q-113 -84 -275 -84z" />
    <glyph glyph-name="uni04C3" unicode="&#x4c3;" horiz-adv-x="1415" 
d="M154 0v1464h358v-565h147l304 565h385l-353 -624q53 -18 106 -56t106 -101q53 -64 88 -172q34 -106 34 -241q0 -137 -33 -254q-34 -120 -98 -209q-66 -92 -175 -144q-108 -52 -251 -52v297q78 0 128 77t50 255q0 170 -66 266t-247 96h-125v-602h-358z" />
    <glyph glyph-name="uni04C4" unicode="&#x4c4;" horiz-adv-x="1212" 
d="M119 0v1055h354v-371h100l209 371h385l-284 -465v-4q132 -56 197 -175q67 -122 67 -272q0 -196 -104 -344t-246 -225l-164 240q180 88 180 327q0 104 -59 176q-60 74 -191 74h-90v-387h-354z" />
    <glyph glyph-name="uni04C5" unicode="&#x4c5;" horiz-adv-x="1603" 
d="M33 309q93 12 154 68q61 57 100 205q39 150 39 401v481h983v-1157h278v-186l-182 -408h-240l68 287h-283v1157h-284v-178q0 -526 -158 -761q-158 -234 -475 -234v325z" />
    <glyph glyph-name="uni04C6" unicode="&#x4c6;" horiz-adv-x="1366" 
d="M41 -10v309q35 5 57 13q26 10 54 35t46 69q16 40 29 120q13 83 13 181v338h864v-758h235v-176l-161 -367h-228l58 246h-258v774h-177v-59q0 -350 -120 -537q-121 -188 -412 -188z" />
    <glyph glyph-name="uni04C7" unicode="&#x4c7;" horiz-adv-x="1556" 
d="M154 0v1464h358v-585h532v585h359l2 -1259q1 -150 -30 -261q-31 -110 -83 -177q-51 -66 -125 -105q-72 -38 -148 -49q-72 -10 -163 -4v301q90 0 139 58t49 229v376h-532v-573h-358z" />
    <glyph glyph-name="uni04C8" unicode="&#x4c8;" horiz-adv-x="1271" 
d="M119 0v1055h354v-373h326v373h354v-916q0 -205 -81 -329q-83 -128 -259 -240l-184 246q92 57 131 125t39 196v248h-326v-385h-354z" />
    <glyph glyph-name="uni04C9" unicode="&#x4c9;" horiz-adv-x="1697" 
d="M154 0v1464h358v-585h532v585h359v-1157h278v-186l-182 -408h-239l67 287h-283v573h-532v-573h-358z" />
    <glyph glyph-name="uni04CA" unicode="&#x4ca;" horiz-adv-x="1415" 
d="M119 0v1055h354v-373h326v373h354v-758h236v-176l-162 -367h-228l58 246h-258v385h-326v-385h-354z" />
    <glyph glyph-name="uni04CB" unicode="&#x4cb;" horiz-adv-x="1415" 
d="M535 518q-229 0 -344 121t-115 338v487h366v-403q0 -217 195 -217q146 0 258 67v553h367v-1464h-283v-287h-317v592h233v225l4 66h-4q-183 -78 -360 -78z" />
    <glyph glyph-name="uni04CC" unicode="&#x4cc;" horiz-adv-x="1175" 
d="M502 215h200v168l3 49h-3q-138 -67 -305 -67q-140 0 -238 85q-100 86 -100 269v336h349v-269q0 -141 135 -141q87 0 159 51v359h355v-1055h-242v-246h-313v461z" />
    <glyph glyph-name="uni04CD" unicode="&#x4cd;" horiz-adv-x="1953" 
d="M96 0l121 1464h389l213 -618l74 -242h4q39 143 74 242l213 618h389l94 -1157h283v-186l-183 -408h-239l67 287h-262l-45 659q-4 44 -4 111q0 48 2 98l2 37h-4q-59 -181 -82 -246l-153 -423h-308l-153 423l-82 246h-4q8 -135 0 -246l-45 -659h-361z" />
    <glyph glyph-name="uni04CE" unicode="&#x4ce;" horiz-adv-x="1734" 
d="M74 0l100 1055h410l155 -463l41 -123h2q6 18 21 61t22 62l156 463h408l71 -758h258v-176l-162 -367h-227l57 246h-237l-25 485l2 181h-4q-30 -90 -57 -156l-139 -369h-287l-139 369l-62 156h-4l2 -181l-24 -485h-338z" />
    <glyph glyph-name="uni04CF" unicode="&#x4cf;" horiz-adv-x="591" 
d="M119 0v1464h354v-1464h-354z" />
    <glyph glyph-name="uni04D0" unicode="&#x4d0;" horiz-adv-x="1359" 
d="M-6 0l498 1464h376l498 -1464h-369l-90 307h-456l-89 -307h-368zM535 594h288l-82 285l-59 251h-4q-33 -161 -60 -251zM676 1530q-164 0 -277 84q-112 84 -112 229v23h262v-25q0 -60 38 -90q39 -31 89 -31q48 0 88 31q39 30 39 90v25h260v-23q0 -145 -113 -229
q-112 -84 -274 -84z" />
    <glyph glyph-name="uni04D1" unicode="&#x4d1;" horiz-adv-x="1132" 
d="M45 297q0 101 55 174q56 74 147 113q89 38 189 56q93 17 205 17h31v19q0 117 -150 117q-139 0 -291 -101l-122 250q73 56 197 96q128 41 249 41q219 0 345 -114t126 -316v-649h-324v63l5 66h-5q-52 -73 -136 -113q-87 -41 -177 -41q-150 0 -248 93q-96 92 -96 229z
M395 330q0 -40 27 -65q26 -25 74 -25q75 0 127 59q53 61 53 127v29h-33q-98 0 -173 -30t-75 -95zM592 1128q-164 0 -277 84q-112 84 -112 230v22h262v-24q0 -60 38 -90q39 -31 89 -31q48 0 88 31q39 30 39 90v24h260v-22q0 -146 -113 -230q-112 -84 -274 -84z" />
    <glyph glyph-name="uni04D2" unicode="&#x4d2;" horiz-adv-x="1359" 
d="M-6 0l498 1464h376l498 -1464h-369l-90 307h-456l-89 -307h-368zM535 594h288l-82 285l-59 251h-4q-33 -161 -60 -251zM766 1579v287h258v-287h-258zM338 1579v287h258v-287h-258z" />
    <glyph glyph-name="uni04D3" unicode="&#x4d3;" horiz-adv-x="1132" 
d="M45 297q0 101 55 174q56 74 147 113q89 38 189 56q93 17 205 17h31v19q0 117 -150 117q-139 0 -291 -101l-122 250q73 56 197 96q128 41 249 41q219 0 345 -114t126 -316v-649h-324v63l5 66h-5q-52 -73 -136 -113q-87 -41 -177 -41q-150 0 -248 93q-96 92 -96 229z
M395 330q0 -40 27 -65q26 -25 74 -25q75 0 127 59q53 61 53 127v29h-33q-98 0 -173 -30t-75 -95zM651 1178v286h258v-286h-258zM223 1178v286h258v-286h-258z" />
    <glyph glyph-name="uni04D4" unicode="&#x4d4;" horiz-adv-x="1945" 
d="M-23 0l613 1464h1249v-307h-559v-266h446v-307h-446v-277h586v-307h-944v590h-344l-228 -590h-373zM688 877h234v280h-125z" />
    <glyph glyph-name="uni04D5" unicode="&#x4d5;" horiz-adv-x="1746" 
d="M45 315q0 92 49 157q50 67 118 101q74 37 162 57q97 22 158 26q88 6 132 6h8v14q0 117 -156 117q-133 0 -287 -101l-122 248q71 58 196 99q121 40 240 40q218 0 334 -104h4q126 104 315 104q221 0 354 -146t133 -374q0 -22 -8 -100h-665q18 -96 87 -142q70 -47 158 -47
q147 0 291 105l131 -246q-80 -71 -202 -112q-125 -42 -248 -42q-272 0 -424 185h-4q-33 -60 -133 -121q-101 -62 -263 -62q-150 0 -255 94q-103 93 -103 244zM1018 662h309q0 59 -37 105t-94 46q-139 0 -178 -151zM401 334q0 -88 105 -88q70 0 121 60t51 128v25h-35
q-95 0 -168 -33q-74 -33 -74 -92z" />
    <glyph glyph-name="uni04D6" unicode="&#x4d6;" horiz-adv-x="1179" 
d="M154 0v1464h917v-307h-559v-266h446v-307h-446v-277h588v-307h-946zM627 1530q-164 0 -277 84q-112 84 -112 229v23h262v-25q0 -60 38 -90q39 -31 89 -31q48 0 88 31q39 30 39 90v25h260v-23q0 -145 -113 -229t-274 -84z" />
    <glyph glyph-name="uni04D7" unicode="&#x4d7;" horiz-adv-x="1161" 
d="M59 528q0 239 150 395t399 156q228 0 358 -142t130 -368q0 -22 -9 -110h-665q18 -93 87 -141t159 -48q130 0 290 107l132 -248q-85 -73 -206 -113q-123 -41 -245 -41q-268 0 -424 164q-156 163 -156 389zM430 662h315q0 69 -39 112q-41 45 -106 45q-136 0 -170 -157z
M604 1128q-164 0 -276 84q-113 84 -113 230v22h262v-24q0 -60 38 -90q39 -31 89 -31q48 0 88 31q39 30 39 90v24h260v-22q0 -146 -112 -230q-113 -84 -275 -84z" />
    <glyph glyph-name="uni04D8" unicode="&#x4d8;" horiz-adv-x="1490" 
d="M80 682l12 168h944q-24 142 -122 227q-98 84 -252 84q-113 0 -225 -47q-113 -47 -175 -102l-166 270q241 207 615 207q208 0 373 -111q166 -112 248 -281q83 -172 83 -366q0 -331 -194 -543q-195 -213 -496 -213q-307 0 -476 198q-169 197 -169 509zM438 578
q0 -130 75 -210q75 -79 212 -79q141 0 223 79t88 210h-598z" />
    <glyph glyph-name="uni04D9" unicode="&#x4d9;" horiz-adv-x="1161" 
d="M61 487l9 127h669q-18 96 -86 143q-67 46 -159 46q-64 0 -139 -25q-69 -23 -113 -49l-39 -27l-123 240q203 137 465 137t409 -159q148 -160 148 -394q0 -238 -150 -394q-151 -157 -399 -157q-231 0 -362 144q-130 143 -130 368zM428 420q0 -85 37 -131q38 -47 96 -47
q77 0 124 48q46 47 46 130h-303z" />
    <glyph glyph-name="uni04DA" unicode="&#x4da;" horiz-adv-x="1490" 
d="M80 682l12 168h944q-24 142 -122 227q-98 84 -252 84q-113 0 -225 -47q-113 -47 -175 -102l-166 270q241 207 615 207q208 0 373 -111q166 -112 248 -281q83 -172 83 -366q0 -331 -194 -543q-195 -213 -496 -213q-307 0 -476 198q-169 197 -169 509zM438 578
q0 -130 75 -210q75 -79 212 -79q141 0 223 79t88 210h-598zM801 1579v287h258v-287h-258zM373 1579v287h258v-287h-258z" />
    <glyph glyph-name="uni04DB" unicode="&#x4db;" horiz-adv-x="1161" 
d="M623 1178v286h258v-286h-258zM195 1178v286h258v-286h-258zM61 487l9 127h669q-18 96 -86 143q-67 46 -159 46q-64 0 -139 -25q-69 -23 -113 -49l-39 -27l-123 240q203 137 465 137t409 -159q148 -160 148 -394q0 -238 -150 -394q-151 -157 -399 -157q-231 0 -362 144
q-130 143 -130 368zM428 420q0 -85 37 -131q38 -47 96 -47q77 0 124 48q46 47 46 130h-303z" />
    <glyph glyph-name="uni04DC" unicode="&#x4dc;" horiz-adv-x="2033" 
d="M12 0l394 760v4l-363 700h385l270 -565h140v565h358v-565h139l271 565h385l-363 -700v-4l393 -760h-401l-285 594h-139v-594h-358v594h-140l-284 -594h-402zM1116 1579v287h258v-287h-258zM688 1579v287h258v-287h-258z" />
    <glyph glyph-name="uni04DD" unicode="&#x4dd;" horiz-adv-x="1712" 
d="M14 0l297 545v4l-274 506h364l195 -375h94v375h330v-375h96l195 375h364l-274 -506v-4l297 -545h-383l-189 383h-106v-383h-330v383h-104l-189 -383h-383zM942 1178v286h258v-286h-258zM514 1178v286h258v-286h-258z" />
    <glyph glyph-name="uni04DE" unicode="&#x4de;" horiz-adv-x="1165" 
d="M31 199l186 235q149 -145 311 -145q193 0 193 164q0 143 -172 143h-176v285h143q78 0 124 43t46 104q0 70 -46 112t-126 42q-152 0 -303 -121l-137 256q206 172 508 172q114 0 218 -42t177 -139q74 -98 74 -233q0 -206 -191 -319v-4q107 -38 168 -122q62 -86 62 -204
q0 -207 -152 -329t-371 -122q-318 0 -536 224zM651 1579v287h258v-287h-258zM223 1579v287h258v-287h-258z" />
    <glyph glyph-name="uni04DF" unicode="&#x4df;" horiz-adv-x="968" 
d="M31 131l141 221q53 -48 122 -79t132 -31q127 0 127 92q0 42 -24 65q-25 23 -91 23h-129v233h107q106 0 106 82q0 84 -110 84q-114 0 -250 -80l-103 220q172 118 426 118q167 0 279 -80q110 -79 110 -213q0 -165 -131 -237v-4q164 -77 164 -234q0 -162 -121 -249
q-122 -87 -315 -87q-122 0 -239 40q-118 40 -201 116zM539 1178v286h258v-286h-258zM111 1178v286h258v-286h-258z" />
    <glyph glyph-name="uni04E0" unicode="&#x4e0;" horiz-adv-x="1112" 
d="M160 350q59 -36 145 -59q92 -25 164 -25q101 0 162 47q59 46 59 125q0 120 -149 135q-37 5 -328 5v225l291 301q18 18 41 35q24 17 37 24l12 6v5q-66 -7 -123 -7h-383v297h893v-280l-307 -293l-62 -49v-4q90 -6 162 -25q262 -72 262 -371q0 -226 -157 -344t-387 -118
q-248 0 -437 116z" />
    <glyph glyph-name="uni04E1" unicode="&#x4e1;" horiz-adv-x="1036" 
d="M111 -59q62 -37 145 -60q88 -24 164 -24q101 0 162 47q59 46 59 125q0 120 -149 135q-29 4 -328 4v225l291 301q19 18 41 35q30 22 36 25l13 6v4q-57 -6 -123 -6h-383v297h893v-281l-307 -293l-62 -49v-4q90 -6 162 -25q262 -72 262 -370q0 -225 -158 -344t-387 -119
q-246 0 -436 117z" />
    <glyph glyph-name="uni04E2" unicode="&#x4e2;" horiz-adv-x="1544" 
d="M154 0v1464h358v-684l-16 -250h4q68 157 123 250l405 684h363v-1464h-359v682l17 250h-5q-70 -163 -122 -250l-408 -682h-360zM528 1602v229h564v-229h-564z" />
    <glyph glyph-name="uni04E3" unicode="&#x4e3;" horiz-adv-x="1265" 
d="M119 0v1055h334v-465q0 -58 -4 -105h4q14 34 57 105l293 465h344v-1055h-334v461q0 70 4 106h-4q-5 -14 -57 -104l-293 -463h-344zM365 1200v230h563v-230h-563z" />
    <glyph glyph-name="uni04E4" unicode="&#x4e4;" horiz-adv-x="1544" 
d="M154 0v1464h358v-684l-16 -250h4q68 157 123 250l405 684h363v-1464h-359v682l17 250h-5q-70 -163 -122 -250l-408 -682h-360zM862 1579v287h258v-287h-258zM434 1579v287h258v-287h-258z" />
    <glyph glyph-name="uni04E5" unicode="&#x4e5;" horiz-adv-x="1265" 
d="M119 0v1055h334v-465q0 -58 -4 -105h4q14 34 57 105l293 465h344v-1055h-334v461q0 70 4 106h-4q-5 -14 -57 -104l-293 -463h-344zM721 1178v286h258v-286h-258zM293 1178v286h258v-286h-258z" />
    <glyph glyph-name="uni04E6" unicode="&#x4e6;" horiz-adv-x="1679" 
d="M74 741q0 319 215 534q214 214 551 214t551 -214q215 -215 215 -534q0 -326 -215 -546t-551 -220t-551 220t-215 546zM444 741q0 -187 112 -313q111 -125 284 -125q172 0 283 125q112 126 112 313q0 179 -112 300q-111 120 -283 120q-173 0 -284 -120
q-112 -121 -112 -300zM924 1579v287h258v-287h-258zM496 1579v287h258v-287h-258z" />
    <glyph glyph-name="uni04E7" unicode="&#x4e7;" horiz-adv-x="1314" 
d="M59 524q0 244 172 400q171 155 424 155q255 0 427 -154q173 -155 173 -401q0 -243 -172 -396q-173 -153 -426 -153t-426 153q-172 153 -172 396zM418 524q0 -115 69 -184q70 -70 170 -70t170 70t70 184q0 116 -70 189q-68 71 -170 71t-170 -71q-69 -72 -69 -189z
M743 1178v286h258v-286h-258zM315 1178v286h258v-286h-258z" />
    <glyph glyph-name="uni04E8" unicode="&#x4e8;" horiz-adv-x="1679" 
d="M74 741q0 318 218 533t548 215t548 -215t218 -533q0 -324 -218 -545t-548 -221t-548 221t-218 545zM842 289q136 0 240 85q107 87 145 224h-774q40 -138 146 -224q104 -85 243 -85zM842 1171q-139 0 -247 -84q-106 -83 -144 -219h780q-39 134 -146 219q-107 84 -243 84z
" />
    <glyph glyph-name="uni04E9" unicode="&#x4e9;" horiz-adv-x="1314" 
d="M59 524q0 244 172 400q171 155 424 155q255 0 427 -154q173 -155 173 -401q0 -243 -172 -396q-173 -153 -426 -153t-426 153q-172 153 -172 396zM662 227q93 0 167 56q76 57 99 153h-539q24 -97 99 -153q76 -56 174 -56zM662 825q-96 0 -167 -52q-74 -54 -102 -144h529
q-27 91 -99 143q-73 53 -161 53z" />
    <glyph glyph-name="uni04EA" unicode="&#x4ea;" horiz-adv-x="1679" 
d="M74 741q0 318 218 533t548 215t548 -215t218 -533q0 -324 -218 -545t-548 -221t-548 221t-218 545zM842 289q136 0 240 85q107 87 145 224h-774q40 -138 146 -224q104 -85 243 -85zM842 1171q-139 0 -247 -84q-106 -83 -144 -219h780q-39 134 -146 219q-107 84 -243 84z
M496 1579v287h258v-287h-258zM924 1579v287h258v-287h-258z" />
    <glyph glyph-name="uni04EB" unicode="&#x4eb;" horiz-adv-x="1314" 
d="M59 524q0 244 172 400q171 155 424 155q255 0 427 -154q173 -155 173 -401q0 -243 -172 -396q-173 -153 -426 -153t-426 153q-172 153 -172 396zM662 227q93 0 167 56q76 57 99 153h-539q24 -97 99 -153q76 -56 174 -56zM662 825q-96 0 -167 -52q-74 -54 -102 -144h529
q-27 91 -99 143q-73 53 -161 53zM315 1178v286h258v-286h-258zM743 1178v286h258v-286h-258z" />
    <glyph glyph-name="uni04EC" unicode="&#x4ec;" horiz-adv-x="1466" 
d="M41 201l176 256q179 -158 404 -158q157 0 258 81t131 210h-604v287h606q-30 127 -133 208q-103 80 -258 80q-202 0 -392 -164l-166 271q208 217 572 217q347 0 553 -215q205 -214 205 -535q0 -332 -217 -548q-218 -216 -558 -216q-318 0 -577 226zM752 1579v287h258v-287
h-258zM324 1579v287h258v-287h-258z" />
    <glyph glyph-name="uni04ED" unicode="&#x4ed;" horiz-adv-x="1126" 
d="M33 127l123 238q141 -115 299 -115q105 0 175 45q70 44 97 119h-397v233h399q-29 74 -96 116t-164 42q-158 0 -274 -100l-144 229q75 70 194 108q117 37 242 37q271 0 425 -161q155 -163 155 -390q0 -229 -159 -391t-429 -162q-262 0 -446 152zM610 1178v286h258v-286
h-258zM182 1178v286h258v-286h-258z" />
    <glyph glyph-name="uni04EE" unicode="&#x4ee;" horiz-adv-x="1292" 
d="M371 1602v229h563v-229h-563zM111 86l155 268q88 -73 162 -73q88 0 117 75l-565 1108h393l243 -526l80 -197h4q21 86 58 195l180 528h377l-432 -1097q-27 -70 -63 -137q-31 -57 -84 -121q-55 -65 -126 -99q-75 -35 -166 -35q-176 0 -333 111z" />
    <glyph glyph-name="uni04EF" unicode="&#x4ef;" horiz-adv-x="1148" 
d="M129 -96q57 -39 109 -39q127 0 170 106l20 49l-448 1035h401l156 -486l38 -163h5q28 135 34 157l134 492h387l-433 -1168q-62 -164 -181 -240q-121 -77 -259 -77q-62 0 -123 18q-59 17 -92 37l-31 19zM295 1200v230h563v-230h-563z" />
    <glyph glyph-name="uni04F0" unicode="&#x4f0;" horiz-adv-x="1292" 
d="M111 86l155 268q88 -73 162 -73q88 0 117 75l-565 1108h393l243 -526l80 -197h4q21 86 58 195l180 528h377l-432 -1097q-27 -70 -63 -137q-31 -57 -84 -121q-55 -65 -126 -99q-75 -35 -166 -35q-176 0 -333 111zM758 1579v287h258v-287h-258zM330 1579v287h258v-287h-258
z" />
    <glyph glyph-name="uni04F1" unicode="&#x4f1;" horiz-adv-x="1148" 
d="M129 -96q57 -39 109 -39q127 0 170 106l20 49l-448 1035h401l156 -486l38 -163h5q28 135 34 157l134 492h387l-433 -1168q-62 -164 -181 -240q-121 -77 -259 -77q-62 0 -123 18q-59 17 -92 37l-31 19zM659 1178v286h259v-286h-259zM231 1178v286h258v-286h-258z" />
    <glyph glyph-name="uni04F2" unicode="&#x4f2;" horiz-adv-x="1292" 
d="M111 86l155 268q88 -73 162 -73q88 0 117 75l-565 1108h393l243 -526l80 -197h4q21 86 58 195l180 528h377l-432 -1097q-27 -70 -63 -137q-31 -57 -84 -121q-55 -65 -126 -99q-75 -35 -166 -35q-176 0 -333 111zM739 1559l166 307h334l-242 -307h-258zM313 1559l156 307
h285l-162 -307h-279z" />
    <glyph glyph-name="uni04F3" unicode="&#x4f3;" horiz-adv-x="1148" 
d="M129 -96q57 -39 109 -39q127 0 170 106l20 49l-448 1035h401l156 -486l38 -163h5q28 135 34 157l134 492h387l-433 -1168q-62 -164 -181 -240q-121 -77 -259 -77q-62 0 -123 18q-59 17 -92 37l-31 19zM639 1157l166 307h334l-242 -307h-258zM213 1157l156 307h284
l-161 -307h-279z" />
    <glyph glyph-name="uni04F4" unicode="&#x4f4;" horiz-adv-x="1417" 
d="M537 518q-228 0 -343 121q-116 122 -116 338v487h366v-403q0 -217 195 -217q146 0 258 67v553h367v-1464h-367v530l4 66h-4q-183 -78 -360 -78zM772 1579v287h258v-287h-258zM344 1579v287h258v-287h-258z" />
    <glyph glyph-name="uni04F5" unicode="&#x4f5;" horiz-adv-x="1179" 
d="M422 324q-147 0 -253 86t-106 276v369h349v-301q0 -142 135 -142q87 0 160 52v391h354v-1055h-354v330l2 49h-4q-122 -55 -283 -55zM651 1178v286h258v-286h-258zM223 1178v286h258v-286h-258z" />
    <glyph glyph-name="uni04F6" unicode="&#x4f6;" horiz-adv-x="1081" 
d="M154 0v1464h897v-307h-539v-852h233v-592h-317v287h-274z" />
    <glyph glyph-name="uni04F7" unicode="&#x4f7;" horiz-adv-x="903" 
d="M119 0v1055h743v-297h-389v-461h201v-543h-314v246h-241z" />
    <glyph glyph-name="uni04F8" unicode="&#x4f8;" horiz-adv-x="1894" 
d="M1382 0v1464h359v-1464h-359zM154 0v1464h358v-452h229q213 0 345 -143q133 -144 133 -365t-133 -363q-132 -141 -345 -141h-587zM512 307h162q86 0 133 53t47 144q0 90 -48 145q-48 56 -138 56h-156v-398zM1032 1579v287h258v-287h-258zM604 1579v287h258v-287h-258z
" />
    <glyph glyph-name="uni04F9" unicode="&#x4f9;" horiz-adv-x="1644" 
d="M1171 0v1055h355v-1055h-355zM119 0v1055h354v-330h160q214 0 315 -98q103 -100 103 -267t-103 -264q-102 -96 -315 -96h-514zM473 231h94q62 0 96 37q33 36 33 94q0 59 -34 96q-35 38 -101 38h-88v-265zM907 1178v286h258v-286h-258zM479 1178v286h258v-286h-258z" />
    <glyph glyph-name="uni0524" unicode="&#x524;" horiz-adv-x="1652" 
d="M154 0v1464h1237v-1159h233v-592h-317v287h-275v1159h-520v-1159h-358z" />
    <glyph glyph-name="uni0525" unicode="&#x525;" horiz-adv-x="1378" 
d="M119 0v1055h1022v-758h200v-543h-315v246h-240v758h-313v-758h-354z" />
    <glyph glyph-name="uni1E9E" unicode="&#x1e9e;" horiz-adv-x="1441" 
d="M141 0v983q0 217 135 349t359 132h668v-245l-189 -304l-41 -59v-4l19 -4q127 -28 200 -148q72 -119 72 -254q0 -188 -138 -317t-335 -129h-242v307h215q63 0 98 41q33 39 33 98q0 57 -32 96q-33 40 -99 40h-164v245l109 199q18 32 47 77q21 32 33 44l12 12v4
q-18 -6 -92 -6h-172q-57 0 -93 -47q-36 -46 -36 -119v-991h-367z" />
    <glyph glyph-name="thinspace" unicode="&#x2009;" horiz-adv-x="40" 
 />
    <glyph glyph-name="endash" unicode="&#x2013;" horiz-adv-x="1474" 
d="M127 455v266h1221v-266h-1221z" />
    <glyph glyph-name="emdash" unicode="&#x2014;" horiz-adv-x="1884" 
d="M127 455v266h1630v-266h-1630z" />
    <glyph glyph-name="quoteleft" unicode="&#x2018;" horiz-adv-x="573" 
d="M82 973l182 522h240l-111 -522h-311z" />
    <glyph glyph-name="quoteright" unicode="&#x2019;" horiz-adv-x="557" 
d="M94 973l111 522h311l-182 -522h-240z" />
    <glyph glyph-name="quotesinglbase" unicode="&#x201a;" horiz-adv-x="565" 
d="M53 -182l111 522h301l-182 -522h-230z" />
    <glyph glyph-name="quotedblleft" unicode="&#x201c;" horiz-adv-x="980" 
d="M487 973l183 522h241l-110 -522h-314zM82 973l182 522h242l-111 -522h-313z" />
    <glyph glyph-name="quotedblright" unicode="&#x201d;" horiz-adv-x="964" 
d="M500 973l110 522h314l-183 -522h-241zM94 973l111 522h313l-182 -522h-242z" />
    <glyph glyph-name="quotedblbase" unicode="&#x201e;" horiz-adv-x="958" 
d="M446 -182l111 522h301l-182 -522h-230zM53 -182l111 522h301l-182 -522h-230z" />
    <glyph glyph-name="dagger" unicode="&#x2020;" horiz-adv-x="1007" 
d="M334 -102v890h-266v267h266v409h338v-409h268v-267h-268v-890h-338z" />
    <glyph glyph-name="daggerdbl" unicode="&#x2021;" horiz-adv-x="1069" 
d="M98 307v266h267v215h-267v267h267v409h337v-409h269v-267h-269v-215h269v-266h-269v-409h-337v409h-267z" />
    <glyph glyph-name="bullet" unicode="&#x2022;" horiz-adv-x="1069" 
d="M535 215q-158 0 -270 112q-111 111 -111 269t111 269q112 112 270 112q157 0 269 -112q111 -111 111 -269t-111 -269q-112 -112 -269 -112z" />
    <glyph glyph-name="ellipsis" unicode="&#x2026;" horiz-adv-x="1892" 
d="M1448 0v336h324v-336h-324zM784 0v336h324v-336h-324zM121 0v336h323v-336h-323z" />
    <glyph glyph-name="perthousand" unicode="&#x2030;" horiz-adv-x="2582" 
d="M451 782q-155 0 -264 103q-107 101 -107 250q0 144 108 249t263 105q154 0 262 -105t108 -249q0 -148 -108 -250q-109 -103 -262 -103zM162 0l1130 1464h312l-1131 -1464h-311zM451 1028q45 0 79 32q33 32 33 77q0 43 -34 74q-35 32 -78 32q-44 0 -79 -32
q-34 -31 -34 -74q0 -45 33 -77q34 -32 80 -32zM1778 328q0 145 108 250q107 104 262 104t262 -104q109 -106 109 -250q0 -147 -109 -250t-262 -103q-154 0 -263 103q-107 101 -107 250zM954 328q0 144 109 250q107 104 262 104t262 -104q109 -106 109 -250q0 -147 -109 -250
t-262 -103q-154 0 -263 103q-108 102 -108 250zM2036 330q0 -46 32 -77q34 -32 80 -32t80 32q33 31 33 77q0 43 -34 74q-35 32 -79 32q-43 0 -78 -32q-34 -31 -34 -74zM1212 330q0 -46 33 -77q34 -32 80 -32t80 32q33 31 33 77q0 43 -34 74q-35 32 -79 32t-79 -32
q-34 -31 -34 -74z" />
    <glyph glyph-name="guilsinglleft" unicode="&#x2039;" horiz-adv-x="806" 
d="M401 158l-335 420l335 421h324l-336 -421l336 -420h-324z" />
    <glyph glyph-name="guilsinglright" unicode="&#x203a;" horiz-adv-x="806" 
d="M82 158l336 420l-336 421h324l335 -421l-335 -420h-324z" />
    <glyph glyph-name="fraction" unicode="&#x2044;" horiz-adv-x="401" 
d="M-20 0h-244l688 1464h244z" />
    <glyph glyph-name="zerosuperior" unicode="&#x2070;" horiz-adv-x="819" 
d="M410 846q-349 0 -349 473q0 471 349 471q348 0 348 -471q0 -473 -348 -473zM410 1081q88 0 88 238q0 233 -88 233t-88 -233q0 -238 88 -238z" />
    <glyph glyph-name="foursuperior" unicode="&#x2074;" horiz-adv-x="819" 
d="M422 866v178h-404v173l351 552h307v-505h108v-220h-108v-178h-254zM262 1264h160v184l8 102h-4q-17 -51 -43 -94l-121 -188v-4z" />
    <glyph glyph-name="fivesuperior" unicode="&#x2075;" horiz-adv-x="819" 
d="M395 846q-201 0 -334 133l129 190q28 -35 82 -62q52 -26 103 -26q44 0 81 26q36 25 36 69t-36 70q-37 26 -89 26q-79 0 -134 -27l-133 49l41 475h545v-223h-336l-4 -47l-6 -33l4 -2q40 9 88 9q141 0 231 -88q89 -87 89 -211q0 -129 -96 -230q-94 -98 -261 -98z" />
    <glyph glyph-name="sixsuperior" unicode="&#x2076;" horiz-adv-x="819" 
d="M438 846q-154 0 -264 110q-111 111 -111 318q0 204 118 359q119 157 319 157q126 0 217 -49l-66 -221q-60 32 -135 32q-119 0 -156 -106h5q37 12 75 12q151 0 237 -86q85 -85 85 -213t-88 -220q-88 -93 -236 -93zM438 1081q31 0 49 24q19 25 19 56q0 46 -28 83
q-27 36 -83 36q-69 0 -69 -39q0 -74 33 -116q35 -44 79 -44z" />
    <glyph glyph-name="sevensuperior" unicode="&#x2077;" horiz-adv-x="819" 
d="M80 866l360 631l33 49v4q-31 -4 -61 -4h-330v223h684v-174l-406 -729h-280z" />
    <glyph glyph-name="eightsuperior" unicode="&#x2078;" horiz-adv-x="819" 
d="M412 846q-146 0 -252 75q-107 75 -107 209q0 111 131 218q-88 73 -88 180q0 124 93 193t225 69q127 0 227 -71q98 -70 98 -193q0 -95 -100 -205q121 -78 121 -203q0 -127 -104 -199q-105 -73 -244 -73zM467 1401q35 56 35 108q0 27 -28 46q-27 18 -60 18q-72 0 -72 -57
q0 -62 125 -115zM410 1063q37 0 64 18q28 19 28 52q0 23 -25 48q-22 22 -50 37q-12 6 -79 37q-47 -52 -47 -108q0 -39 32 -62q31 -22 77 -22z" />
    <glyph glyph-name="ninesuperior" unicode="&#x2079;" horiz-adv-x="819" 
d="M100 895l66 221q88 -33 135 -33q118 0 156 107h-4q-37 -12 -76 -12q-151 0 -236 87q-86 88 -86 214t88 218q88 93 236 93q153 0 264 -111t111 -317q0 -205 -118 -360q-118 -156 -319 -156q-128 0 -217 49zM422 1356q70 0 70 39q0 72 -34 115q-35 44 -79 44q-31 0 -49 -22
q-19 -24 -19 -55q0 -45 28 -84q27 -37 83 -37z" />
    <glyph glyph-name="zeroinferior" unicode="&#x2080;" horiz-adv-x="819" 
d="M410 -342q-349 0 -349 473q0 471 349 471q348 0 348 -471q0 -473 -348 -473zM410 -106q88 0 88 237q0 234 -88 234t-88 -234q0 -237 88 -237z" />
    <glyph glyph-name="oneinferior" unicode="&#x2081;" horiz-adv-x="819" 
d="M117 -322v222h182v293l6 65h-4q-10 -21 -22 -31l-50 -45l-147 162l254 238h221v-682h184v-222h-624z" />
    <glyph glyph-name="twoinferior" unicode="&#x2082;" horiz-adv-x="819" 
d="M76 -322q-10 54 -10 101q0 102 42 180q42 79 102 122t120 78q65 37 101 67q42 34 42 71q0 33 -27 51q-29 19 -65 19q-70 0 -145 -93l-170 146q50 83 140 132q92 50 193 50q131 0 233 -75q101 -74 101 -218q0 -97 -56 -171q-56 -73 -125 -108q-64 -32 -130 -69
q-62 -35 -68 -61h391v-222h-669z" />
    <glyph glyph-name="threeinferior" unicode="&#x2083;" horiz-adv-x="819" 
d="M383 -342q-210 0 -328 139l125 185q72 -88 187 -88q50 0 80 24t30 62q0 37 -36 55t-91 18h-76l-49 117l127 141l49 47v4q-39 -4 -69 -4h-226v224h603v-162l-170 -187q198 -49 198 -258q0 -128 -94 -222q-95 -95 -260 -95z" />
    <glyph glyph-name="fourinferior" unicode="&#x2084;" horiz-adv-x="819" 
d="M422 -322v179h-404v172l351 553h307v-506h108v-219h-108v-179h-254zM262 76h160v184l8 102h-4q-17 -51 -43 -94l-121 -188v-4z" />
    <glyph glyph-name="fiveinferior" unicode="&#x2085;" horiz-adv-x="819" 
d="M395 -342q-201 0 -334 133l129 191q29 -37 82 -63q50 -25 103 -25q46 0 81 25q36 25 36 69t-36 70q-37 26 -89 26q-79 0 -134 -27l-133 49l41 476h545v-224h-336l-4 -47l-6 -32l4 -3q40 9 88 9q142 0 231 -87t89 -212q0 -129 -96 -230q-94 -98 -261 -98z" />
    <glyph glyph-name="sixinferior" unicode="&#x2086;" horiz-adv-x="819" 
d="M438 -342q-153 0 -264 111t-111 317q0 204 118 359q119 157 319 157q126 0 217 -49l-66 -221q-61 33 -135 33q-118 0 -156 -107h5q37 12 75 12q151 0 237 -86q85 -85 85 -213t-88 -220q-88 -93 -236 -93zM438 -106q32 0 49 23q19 25 19 56q0 46 -28 83q-27 36 -83 36
q-69 0 -69 -39q0 -73 33 -115q35 -44 79 -44z" />
    <glyph glyph-name="seveninferior" unicode="&#x2087;" horiz-adv-x="819" 
d="M80 -322l360 631l33 49v4q-31 -4 -61 -4h-330v224h684v-174l-406 -730h-280z" />
    <glyph glyph-name="eightinferior" unicode="&#x2088;" horiz-adv-x="819" 
d="M412 -342q-146 0 -252 75q-107 75 -107 210q0 110 131 217q-88 73 -88 180q0 125 93 194q92 68 225 68q127 0 227 -71q98 -70 98 -193q0 -95 -100 -205q121 -78 121 -203q0 -127 -104 -199q-105 -73 -244 -73zM467 213q35 56 35 109q0 27 -28 46q-26 17 -60 17
q-72 0 -72 -57q0 -62 125 -115zM410 -125q36 0 64 19t28 51q0 23 -25 48q-22 22 -50 37q-26 14 -79 38q-47 -52 -47 -109q0 -38 32 -61t77 -23z" />
    <glyph glyph-name="nineinferior" unicode="&#x2089;" horiz-adv-x="819" 
d="M100 -293l66 221q86 -32 135 -32q119 0 156 106h-4q-37 -12 -76 -12q-151 0 -236 87q-86 88 -86 214t88 218q89 93 236 93q154 0 264 -110q111 -111 111 -318q0 -204 -118 -359q-119 -157 -319 -157q-128 0 -217 49zM422 168q70 0 70 39q0 73 -34 116q-35 44 -79 44
q-31 0 -49 -23q-19 -24 -19 -55q0 -45 28 -84q27 -37 83 -37z" />
    <glyph glyph-name="Euro" unicode="&#x20ac;" 
d="M53 485v197h115q-6 55 -2 98h-113v197h148q72 228 265 370t445 142q98 0 240 -29l-88 -323q-59 20 -162 20q-219 0 -315 -180h442l-41 -197h-448q-6 -47 4 -98h424l-41 -197h-318q50 -83 131 -127q82 -45 179 -45q84 0 194 31l62 -328q-118 -41 -263 -41q-259 0 -447 140
q-187 139 -259 370h-152z" />
    <glyph glyph-name="numero" unicode="&#x2116;" horiz-adv-x="2299" 
d="M147 0v1464h363l405 -684q44 -79 56 -105q42 -88 49 -104l18 -41h4q-16 153 -16 250v684h358v-1464h-360l-408 682q-37 66 -55 105q-42 88 -49 104l-18 41h-5q17 -162 17 -250v-682h-359zM1518 934q0 142 100 242t250 100q146 0 247 -100t101 -242q0 -143 -100 -242
q-99 -98 -248 -98q-151 0 -250 98q-100 99 -100 242zM1767 936q0 -44 28 -75q27 -30 73 -30q45 0 72 30q28 31 28 75q0 42 -29 73q-28 29 -71 29q-44 0 -72 -29q-29 -31 -29 -73zM1536 270v236h653v-236h-653z" />
    <glyph glyph-name="trademark" unicode="&#x2122;" horiz-adv-x="2095" 
d="M985 549l72 915h241l150 -358l27 -90h4q17 67 26 90l150 358h241l68 -915h-260l-21 356l3 66h-5l-104 -256h-201l-104 256h-4l2 -66l-25 -356h-260zM401 549v692h-290v223h835v-223h-287v-692h-258z" />
    <glyph glyph-name="minus" unicode="&#x2212;" 
d="M55 455v266h1119v-266h-1119z" />
    <glyph glyph-name="infinity" unicode="&#x221e;" horiz-adv-x="1050" 
d="M526 293q-174 0 -298 124t-124 298t124 297t298 123t297 -123t123 -297q0 -173 -123 -298q-123 -124 -297 -124z" />
    <glyph glyph-name="approxequal" unicode="&#x2248;" 
d="M203 659l-129 203q166 166 338 166q102 0 220 -72q117 -71 185 -71q114 0 209 110l129 -202q-166 -166 -338 -166q-103 0 -220 71q-118 72 -185 72q-107 0 -209 -111zM203 190l-129 203q166 166 338 166q102 0 220 -72q117 -71 185 -71q114 0 209 110l129 -202
q-166 -166 -338 -166q-103 0 -220 71q-118 72 -185 72q-107 0 -209 -111z" />
    <glyph glyph-name="notequal" unicode="&#x2260;" 
d="M199 96l77 123h-180v266h350l132 205h-482v266h654l141 222l156 -101l-78 -121h164v-266h-334l-131 -205h465v-266h-635l-140 -219z" />
    <glyph glyph-name="lessequal" unicode="&#x2264;" 
d="M82 479v219l1032 457v-297l-676 -268v-4l676 -267v-296zM88 -143h1026v-267h-1026v267z" />
    <glyph glyph-name="greaterequal" unicode="&#x2265;" 
d="M115 23v296l676 267v4l-676 268v297l1032 -457v-219zM117 -143h1026v-267h-1026v267z" />
    <glyph glyph-name="commaaccent" unicode="&#xf6c3;" horiz-adv-x="686" 
d="M215 -100h279q14 -56 14 -119q0 -97 -57 -211h-252q41 120 41 190q0 65 -25 140z" />
    <glyph glyph-name="cyrbreve" unicode="&#xf6d4;" horiz-adv-x="858" 
d="M426 1530q-164 0 -276 84q-113 84 -113 229v23h262v-25q0 -60 38 -90q39 -31 89 -31q48 0 88 31q39 30 39 90v25h260v-23q0 -145 -113 -229q-112 -84 -274 -84z" />
    <glyph glyph-name="apple" unicode="&#xf8ff;" horiz-adv-x="2314" 
d="M344 -10v311l-258 148v569l258 145v310l543 290l274 -145l271 145l542 -290v-310l254 -145v-569l-254 -148v-311l-542 -289l-271 145l-274 -145zM426 61l487 -258l248 136l242 -136l487 258v285l234 131v510l-234 135v279l-487 258l-242 -131l-248 131l-487 -258v-279
l-233 -135v-510l233 -131v-285zM496 131v248l-203 123v461l203 118v252l440 234l225 -121l219 121l439 -234v-252l204 -118v-461l-204 -123v-248l-439 -233l-219 118l-225 -118zM915 186h89v467h466v82h-466v393h407q35 0 47 -13t12 -46v-86h86v111q0 63 -26 89
q-27 27 -92 27h-656v-82h133v-942z" />
    <glyph glyph-name="zero.tnum" 
d="M614 -25q-151 0 -261 59q-109 58 -171 165t-90 239q-29 136 -29 297q0 162 29 296t90 238q62 106 171 163t261 57t262 -57q109 -57 171 -163q61 -104 90 -238q28 -130 28 -296t-28 -297q-28 -132 -90 -239q-61 -107 -171 -165q-110 -59 -262 -59zM614 303q183 0 183 432
q0 426 -183 426q-182 0 -182 -426q0 -432 182 -432z" />
    <glyph glyph-name="one.tnum" 
d="M162 0v307h311v611l2 112h-4q-18 -40 -57 -78l-88 -80l-207 222l395 370h309v-1157h314v-307h-975z" />
    <glyph glyph-name="two.tnum" 
d="M115 0q-17 94 -17 158q0 126 47 235q46 107 117 178q73 73 153 134q84 64 152 107q70 44 117 94t47 100q0 70 -47 108q-46 37 -111 37q-67 0 -124 -45q-60 -47 -93 -111l-266 179q71 138 202 227q130 88 314 88q199 0 350 -116q150 -115 150 -333q0 -125 -62 -231
t-149 -171q-100 -75 -176 -121q-89 -54 -154 -106q-64 -51 -69 -104h632v-307h-1013z" />
    <glyph glyph-name="three.tnum" 
d="M80 168l172 276q136 -131 301 -131q96 0 153 42q56 41 56 104q0 162 -273 162h-102l-76 174l193 231q26 33 62 72q29 32 48 49l17 16v4q-44 -10 -139 -10h-351v307h924v-223l-297 -342q162 -35 258 -151q96 -117 96 -273q0 -131 -57 -242t-184 -184q-128 -74 -301 -74
q-309 0 -500 193z" />
    <glyph glyph-name="four.tnum" 
d="M14 354v217l566 893h438v-813h174v-297h-174v-354h-354v354h-650zM379 651h285v328l12 164h-4q-29 -86 -72 -152l-221 -336v-4z" />
    <glyph glyph-name="five.tnum" 
d="M94 168l172 276q140 -131 297 -131q80 0 143 48q62 47 62 133q0 84 -66 133q-65 49 -167 49q-99 0 -197 -49l-191 71l60 766h819v-307h-508l-8 -135l-8 -57h4q36 14 106 14q251 0 387 -136q138 -138 138 -345q0 -228 -152 -375q-153 -148 -391 -148q-298 0 -500 193z" />
    <glyph glyph-name="six.tnum" 
d="M76 676q0 153 46 295q47 145 131 260q86 117 221 187q137 71 300 71q188 0 324 -64l-97 -307q-24 13 -90 29q-59 14 -110 14q-237 0 -316 -241h4q25 17 89 34q63 17 112 17q217 0 348 -151t131 -351t-136 -346q-137 -148 -363 -148q-242 0 -418 183q-176 184 -176 518z
M670 303q66 0 106 48q41 49 41 116q0 89 -55 151q-56 64 -166 64q-152 0 -152 -88q0 -123 72 -207t154 -84z" />
    <glyph glyph-name="seven.tnum" 
d="M166 0l518 1026q21 41 44 78q19 30 32 43l10 12v4q-12 -6 -86 -6h-580v307h1051v-250l-614 -1214h-375z" />
    <glyph glyph-name="eight.tnum" 
d="M66 430q0 83 40 163q41 82 81 122q42 42 81 71q-133 118 -133 281q0 176 125 299q124 123 367 123q213 0 354 -114t141 -310q0 -163 -143 -336q172 -118 172 -307q0 -183 -143 -314q-145 -133 -400 -133q-252 0 -398 135q-144 133 -144 320zM719 858q53 86 53 180
q0 61 -41 99q-40 37 -113 37q-64 0 -99 -32q-34 -31 -34 -83q0 -65 59 -109q56 -42 175 -92zM432 461q0 -71 51 -121q50 -49 125 -49q82 0 129 39t47 110q0 16 -4 27q-6 16 -14 25q-3 4 -10 11t-10 11q-10 12 -28 23q-28 17 -33 20q-31 17 -39 21q-17 8 -41 20
q-26 13 -46 22q-10 5 -25.5 12t-21.5 9q-80 -85 -80 -180z" />
    <glyph glyph-name="nine.tnum" 
d="M129 39l96 307q99 -43 201 -43q235 0 315 242h-4q-24 -21 -86 -36q-61 -15 -114 -15q-219 0 -349 150q-131 151 -131 351q0 198 137 346t363 148q243 0 418 -182q176 -184 176 -519q0 -152 -46 -294q-47 -146 -131 -261q-86 -117 -221 -187q-137 -71 -300 -71
q-188 0 -324 64zM631 782q151 0 151 88q0 124 -71 207q-72 84 -154 84q-65 0 -106 -48q-41 -49 -41 -116q0 -89 55 -151q56 -64 166 -64z" />
    <glyph glyph-name="hyphen.case" horiz-adv-x="884" 
d="M121 557v307h643v-307h-643z" />
    <glyph glyph-name="parenleft.case" horiz-adv-x="679" 
d="M336 -133q-254 403 -254 905q0 433 254 825h291q-232 -389 -232 -825q0 -462 232 -905h-291z" />
    <glyph glyph-name="parenright.case" horiz-adv-x="679" 
d="M53 -133q232 443 232 905q0 436 -232 825h291q254 -392 254 -825q0 -502 -254 -905h-291z" />
    <glyph glyph-name="bracketleft.case" horiz-adv-x="720" 
d="M143 -133v1730h504v-245h-209v-1239h209v-246h-504z" />
    <glyph glyph-name="bracketright.case" horiz-adv-x="720" 
d="M74 113h209v1239h-209v245h504v-1730h-504v246z" />
    <glyph glyph-name="braceleft.case" horiz-adv-x="811" 
d="M240 188v201q0 85 -44 137q-45 53 -130 60v307q81 7 128 59q46 50 46 144v180q0 102 42 174t110 103q67 31 129 43q60 12 126 12l88 -4v-254q-20 4 -51 4q-149 0 -149 -111v-239q0 -93 -49 -165q-49 -73 -124 -96v-4q173 -62 173 -258v-260q0 -110 149 -110l51 4v-254
q-33 -4 -88 -4q-71 0 -126 11q-62 12 -129 43q-68 31 -110 103t-42 174z" />
    <glyph glyph-name="braceright.case" horiz-adv-x="811" 
d="M76 115q20 -4 51 -4q149 0 149 110v260q0 87 46 162q45 74 127 96v4q-69 22 -121 93q-52 70 -52 168v239q0 111 -149 111l-51 -4v254q33 4 88 4q66 0 126 -12q62 -12 129 -43q68 -31 110 -103t42 -174v-180q0 -83 44 -141q43 -56 130 -62v-307q-80 -2 -127 -59
q-47 -58 -47 -138v-201q0 -102 -42 -174t-110 -103q-67 -31 -129 -43q-55 -11 -126 -11l-88 4v254z" />
    <glyph glyph-name="at.case" horiz-adv-x="1728" 
d="M92 727q0 326 231 548t574 222q320 0 465 -136t145 -355v-406h152v-244h-580q-217 0 -341 111t-124 262q0 147 122 254t343 107h101q0 62 -85 96q-87 35 -192 35q-194 0 -330 -151q-135 -150 -135 -343q0 -206 137 -348q137 -141 379 -141v-267q-392 0 -627 215t-235 541
zM965 737q0 -60 34 -98q35 -39 101 -39h80v274h-76q-69 0 -104 -38t-35 -99z" />
    <glyph glyph-name="guillemotleft.case" horiz-adv-x="1337" 
d="M934 281l-336 419l336 422h323l-335 -422l335 -419h-323zM401 281l-335 419l335 422h324l-336 -422l336 -419h-324z" />
    <glyph glyph-name="guillemotright.case" horiz-adv-x="1337" 
d="M612 281l336 419l-336 422h324l336 -422l-336 -419h-324zM80 281l336 419l-336 422h323l336 -422l-336 -419h-323z" />
    <glyph glyph-name="guilsinglleft.case" horiz-adv-x="804" 
d="M401 281l-335 419l335 422h324l-336 -422l336 -419h-324z" />
    <glyph glyph-name="guilsinglright.case" horiz-adv-x="804" 
d="M80 281l336 419l-336 422h323l336 -422l-336 -419h-323z" />
    <glyph glyph-name="endash.case" horiz-adv-x="1462" 
d="M121 578v266h1220v-266h-1220z" />
    <glyph glyph-name="emdash.case" horiz-adv-x="1871" 
d="M121 578v266h1630v-266h-1630z" />
    <glyph glyph-name="periodcentered.case" horiz-adv-x="565" 
d="M121 539v335h323v-335h-323z" />
    <glyph glyph-name="questiondown.case" horiz-adv-x="1044" 
d="M766 1012v-103q0 -75 -33 -140q-32 -63 -80 -106q-47 -43 -95 -80t-81 -81t-33 -90q0 -52 43 -86q44 -35 103 -35q94 0 194 88l197 -240q-170 -170 -428 -170q-189 0 -333 108t-144 294q0 93 36 169q36 77 87 125q54 51 103 90q52 42 88 88q36 47 36 95v74h340zM758 1464
v-307h-324v307h324z" />
    <glyph glyph-name="exclamdown.case" horiz-adv-x="630" 
d="M467 1012l33 -1012h-369l33 1012h303zM477 1464v-307h-323v307h323z" />
    <glyph glyph-name="bullet.case" horiz-adv-x="1064" 
d="M532 348q-157 0 -269 112q-111 111 -111 269t111 269q112 112 269 112q158 0 270 -112q111 -111 111 -269t-111 -269q-112 -112 -270 -112z" />
    <glyph glyph-name="zero.p_osf" horiz-adv-x="1198" 
d="M76 569q0 118 29 217q30 102 91 189q62 88 164 136q106 50 240 50q178 0 300 -89q123 -90 172 -219q50 -132 50 -288q0 -120 -29 -220t-91 -187q-60 -84 -163 -133q-105 -50 -237 -50t-240 51q-102 48 -165 136q-62 86 -92 188q-29 99 -29 219zM432 569q0 -299 168 -299
t168 295q0 301 -168 301t-168 -297z" />
    <glyph glyph-name="one.p_osf" horiz-adv-x="1069" 
d="M115 0v297h293v332l2 151h-4q-27 -34 -78 -65l-113 -64l-162 242l396 244h301v-840h274v-297h-909z" />
    <glyph glyph-name="two.p_osf" horiz-adv-x="1140" 
d="M98 0v236q551 330 551 505q0 59 -41 88t-94 29q-135 0 -274 -143l-181 227q84 96 221 158q135 61 283 61q177 0 310 -94q135 -96 135 -276q0 -287 -404 -500v-4q44 10 139 10h318v-297h-963z" />
    <glyph glyph-name="three.p_osf" horiz-adv-x="1122" 
d="M37 -84l153 248q145 -131 302 -131q96 0 154 41q56 40 56 106q0 88 -80 131t-182 43h-121l-75 162l184 227q27 32 50 55q27 27 40 36l14 10v2q-50 -8 -139 -8h-282v299h882v-201l-301 -340q160 -29 263 -136q104 -109 104 -253q0 -196 -145 -333q-143 -136 -406 -136
q-293 0 -471 178z" />
    <glyph glyph-name="four.p_osf" horiz-adv-x="1253" 
d="M35 47v217l526 873h457v-793h174v-297h-174v-285h-354v285h-629zM399 344h265v320l12 163h-4q-33 -87 -72 -151z" />
    <glyph glyph-name="five.p_osf" horiz-adv-x="1128" 
d="M53 -86l150 250q140 -131 299 -131q84 0 151 45q68 45 68 127q0 88 -66 139t-163 51q-58 0 -105 -11q-53 -12 -76 -24l-26 -10l-181 68l60 719h788v-299h-487l-8 -131l-8 -56h4q51 15 106 15q245 0 382 -128q136 -127 136 -315q0 -219 -152 -352t-395 -133
q-286 0 -477 176z" />
    <glyph glyph-name="six.p_osf" 
d="M84 625q0 143 44 280q44 136 125 247q82 112 213 179q133 68 294 68q186 0 323 -60l-96 -276q-102 41 -201 41q-110 0 -191 -70q-78 -67 -116 -170h4q29 18 89 32q63 15 114 15q215 0 342 -139t127 -328q0 -185 -134 -327t-355 -142q-114 0 -216 39q-104 40 -185 115
q-83 77 -132 204q-49 126 -49 292zM444 557q0 -118 65 -203q65 -84 157 -84q61 0 99 47t38 121q0 81 -53 142q-52 59 -158 59q-148 0 -148 -82z" />
    <glyph glyph-name="seven.p_osf" horiz-adv-x="1097" 
d="M117 -238l487 955q24 46 42 74q6 9 28 40l8 11v4q-10 -6 -84 -6h-551v297h1028v-236l-588 -1139h-370z" />
    <glyph glyph-name="eight.p_osf" horiz-adv-x="1226" 
d="M80 403q0 181 194 336q-129 108 -129 260q0 164 122 281q121 117 354 117q205 0 344 -108t139 -292q0 -144 -125 -319q162 -111 162 -283q0 -170 -142 -295t-391 -125q-246 0 -387 126t-141 302zM717 803q49 83 49 170q0 59 -41 95t-109 36q-64 0 -99 -32
q-34 -31 -34 -79q0 -61 59 -102q63 -43 175 -88zM430 432q0 -68 52 -116t126 -48q82 0 129 38t47 106q0 13 -4 24q-6 16 -14 25q-7 8 -20 21q-9 9 -27 21q-9 6 -33 18l-39 20q-9 4 -22.5 10.5t-17.5 8.5q-20 10 -45 20q-17 7 -46 20q-86 -83 -86 -168z" />
    <glyph glyph-name="nine.p_osf" horiz-adv-x="1193" 
d="M225 74q97 -41 201 -41q112 0 191 69q78 67 116 170h-4q-26 -16 -89 -31q-67 -16 -114 -16q-214 0 -342 140q-127 139 -127 327q0 186 134 328q134 141 356 141q114 0 216 -39q104 -40 184 -114q83 -76 132 -204q49 -126 49 -292q0 -144 -44 -281q-43 -134 -125 -246
q-83 -113 -213 -180q-131 -67 -293 -67q-187 0 -324 59zM621 498q147 0 147 82q0 117 -65 202q-65 84 -156 84q-62 0 -100 -47q-37 -46 -37 -121q0 -80 53 -141q52 -59 158 -59z" />
    <glyph glyph-name="zero.t_osf" 
d="M90 569q0 115 30 217q31 105 90 189q61 87 165 136q106 50 239 50q178 0 300 -89q123 -90 172 -219q51 -134 51 -288q0 -117 -30 -220t-90 -187q-59 -83 -164 -133t-237 -50q-131 0 -239 51q-103 49 -166 136q-60 84 -91 188q-30 102 -30 219zM446 569q0 -299 168 -299
t168 295q0 301 -168 301t-168 -297z" />
    <glyph glyph-name="one.t_osf" 
d="M197 0v297h292v332l3 151h-5q-28 -35 -77 -65l-113 -64l-162 242l395 244h301v-840h275v-297h-909z" />
    <glyph glyph-name="two.t_osf" 
d="M145 0v236q551 330 551 505q0 59 -41 88t-94 29q-135 0 -274 -143l-181 227q84 96 221 158q135 61 283 61q178 0 311 -94q134 -95 134 -276q0 -287 -404 -500v-4q44 10 140 10h317v-297h-963z" />
    <glyph glyph-name="three.t_osf" 
d="M94 -80l154 248q140 -131 299 -131q96 0 154 41q57 41 57 106q0 86 -81 129q-80 43 -181 43h-121l-74 162l182 227q24 29 51 54q32 30 39 35l15 10v2q-50 -8 -139 -8h-281v299h879v-201l-299 -338q158 -29 261 -136t103 -251q0 -195 -144 -331q-143 -136 -405 -136
q-293 0 -469 176z" />
    <glyph glyph-name="four.t_osf" 
d="M27 47v217l526 873h457v-793h174v-297h-174v-285h-355v285h-628zM391 344h264v320l13 163h-4q-33 -87 -72 -151z" />
    <glyph glyph-name="five.t_osf" 
d="M104 -86l150 250q140 -131 299 -131q87 0 153 45t66 127q0 89 -65 139q-66 51 -164 51q-58 0 -105 -11q-51 -12 -78 -24l-24 -10l-180 68l59 719h789v-299h-488l-8 -131l-8 -56h4q51 15 106 15q245 0 382 -128q136 -127 136 -315q0 -219 -152 -352t-394 -133
q-287 0 -478 176z" />
    <glyph glyph-name="six.t_osf" 
d="M86 625q0 143 44 280q44 136 125 247q82 112 213 179q133 68 294 68q186 0 323 -60l-96 -276q-102 41 -201 41q-110 0 -191 -70q-78 -67 -116 -170h4q29 18 89 32q63 15 114 15q215 0 342 -139t127 -328q0 -185 -134 -327t-355 -142q-114 0 -216 39q-104 40 -185 115
q-83 77 -132 204q-49 126 -49 292zM446 557q0 -118 65 -203q65 -84 157 -84q61 0 99 47t38 121q0 81 -53 142q-52 59 -158 59q-148 0 -148 -82z" />
    <glyph glyph-name="seven.t_osf" 
d="M184 -238l488 955q24 46 42 74q16 24 27 40l9 11v4q-10 -6 -84 -6h-551v297h1028v-236l-588 -1139h-371z" />
    <glyph glyph-name="eight.t_osf" 
d="M80 403q0 181 194 336q-129 108 -129 260q0 164 122 281q121 117 354 117q205 0 344 -108t139 -292q0 -144 -125 -319q162 -111 162 -283q0 -170 -142 -295t-391 -125q-246 0 -387 126t-141 302zM717 803q49 83 49 170q0 59 -41 95t-109 36q-64 0 -99 -32
q-34 -31 -34 -79q0 -61 59 -102q63 -43 175 -88zM430 432q0 -68 52 -116t126 -48q82 0 129 38t47 106q0 13 -4 24q-6 16 -14 25q-7 8 -20 21q-9 9 -27 21q-9 6 -33 18l-39 20q-9 4 -22.5 10.5t-17.5 8.5q-20 10 -45 20q-17 7 -46 20q-86 -83 -86 -168z" />
    <glyph glyph-name="nine.t_osf" 
d="M242 74q97 -41 200 -41q112 0 192 69q78 67 116 170h-5q-26 -16 -89 -31q-67 -16 -113 -16q-214 0 -342 140q-127 139 -127 327q0 186 134 328q134 141 355 141q114 0 216 -39q106 -40 185 -114q82 -76 132 -204q49 -126 49 -292q0 -144 -44 -281q-43 -134 -125 -246
q-83 -113 -213 -180q-131 -67 -294 -67q-187 0 -324 59zM637 498q147 0 147 82q0 119 -64 202q-64 84 -157 84q-61 0 -99 -47t-38 -121q0 -80 53 -141q52 -59 158 -59z" />
    <glyph glyph-name="dollar.osf" horiz-adv-x="1110" 
d="M70 170l159 264q147 -147 299 -147q138 0 138 69q0 29 -59 58q-53 26 -141 61q-83 33 -166 77q-81 43 -141 124q-59 80 -59 184q0 135 98 227q99 93 257 123v191h223v-184q194 -24 330 -132l-125 -282q-127 108 -273 108q-141 0 -141 -73q0 -28 58 -52q51 -21 142 -54
q89 -32 166 -73q85 -45 141 -121q58 -79 58 -186q0 -132 -95 -233t-261 -131v-193h-223v187q-230 33 -385 188z" />
    <glyph glyph-name="cent.osf" horiz-adv-x="1138" 
d="M481 -61v172q-191 45 -297 185t-106 318q0 179 106 318q106 140 297 186v170h234v-155q191 -22 342 -160l-160 -254q-91 106 -221 106q-120 0 -182 -62q-64 -64 -64 -145q0 -88 63 -151q64 -64 183 -64q114 0 221 107l160 -254q-127 -127 -342 -160v-157h-234z" />
    <glyph glyph-name="sterling.osf" horiz-adv-x="1267" 
d="M104 0v297h113v176h-88v221h88v86q0 194 151 319q149 124 369 124q234 0 402 -123l-152 -260q-105 71 -239 71q-68 0 -120 -37q-53 -38 -53 -94v-86h369v-221h-369v-176h592v-297h-1063z" />
    <glyph glyph-name="yen.osf" horiz-adv-x="1378" 
d="M176 242v196h330v15l-84 145h-246v197h133l-229 403h407l109 -242l88 -225h4q45 130 88 225l109 242h407l-231 -403h151v-197h-264l-84 -145v-15h348v-196h-348v-242h-358v242h-330z" />
    <glyph glyph-name="florin.osf" horiz-adv-x="1232" 
d="M102 55q104 -14 144 -14q178 0 190 131l33 373h-131v276h154l18 185q11 100 50 173q40 74 93 115q56 43 125 66q75 25 128 32t118 7l180 -17v-299q-123 15 -155 15q-181 0 -193 -131l-14 -146h196v-276h-221l-35 -412q-7 -96 -49 -173q-40 -75 -94 -116q-53 -41 -125 -65
q-75 -25 -128 -32t-116 -7l-168 16v299z" />
    <glyph glyph-name="Euro.osf" horiz-adv-x="1210" 
d="M86 377v176h131q-2 22 -2 92h-129v176h162q63 180 226 290q165 112 409 112q117 0 211 -25l-76 -276q-57 18 -144 18q-162 0 -251 -119h376l-38 -176h-390q-6 -42 4 -92h373l-33 -176h-270q89 -113 244 -113q97 0 178 29l51 -281q-105 -37 -235 -37q-239 0 -402 112
q-161 110 -229 290h-166z" />
    <glyph glyph-name="zero.numerator" horiz-adv-x="819" 
d="M410 541q-349 0 -349 473q0 471 349 471q348 0 348 -471q0 -473 -348 -473zM410 776q88 0 88 238q0 233 -88 233t-88 -233q0 -238 88 -238z" />
    <glyph glyph-name="one.numerator" horiz-adv-x="819" 
d="M119 561v221h182v293l6 66h-4q-10 -21 -22 -31l-50 -45l-147 162l254 237h221v-682h184v-221h-624z" />
    <glyph glyph-name="two.numerator" horiz-adv-x="819" 
d="M76 561q-10 54 -10 101q0 102 42 180q42 79 102 122q53 39 120 77q61 35 101 68q42 35 42 71q0 33 -27 51t-65 18q-71 0 -145 -92l-170 146q50 83 140 132q92 50 193 50q131 0 233 -75q101 -74 101 -218q0 -97 -56 -171q-57 -75 -125 -109q-81 -40 -130 -68
q-62 -35 -68 -62h391v-221h-669z" />
    <glyph glyph-name="three.numerator" horiz-adv-x="819" 
d="M381 541q-210 0 -328 139l125 184q72 -88 187 -88q49 0 80 25q30 24 30 61q0 38 -36 56t-91 18h-76l-49 117l127 141l49 47v4q-39 -4 -69 -4h-226v223h603v-161l-170 -187q198 -50 198 -258q0 -128 -94 -222q-95 -95 -260 -95z" />
    <glyph glyph-name="four.numerator" horiz-adv-x="819" 
d="M422 561v178h-404v172l351 553h307v-506h108v-219h-108v-178h-254zM262 958h160v185l8 102h-4q-17 -51 -43 -94l-121 -188v-5z" />
    <glyph glyph-name="five.numerator" horiz-adv-x="819" 
d="M395 541q-201 0 -334 133l129 190q28 -35 82 -62q52 -26 103 -26q44 0 81 26q36 26 36 68q0 46 -36 71q-37 26 -89 26q-79 0 -134 -27l-133 49l41 475h545v-223h-336l-4 -47l-6 -33l4 -2q35 8 88 8q142 0 231 -87t89 -212q0 -128 -96 -229q-94 -98 -261 -98z" />
    <glyph glyph-name="six.numerator" horiz-adv-x="819" 
d="M440 541q-154 0 -264 110t-110 318q0 205 117 359q119 157 319 157q126 0 217 -49l-66 -222q-61 33 -135 33q-119 0 -156 -106h5q38 12 75 12q151 0 237 -86q85 -85 85 -213t-88 -220q-88 -93 -236 -93zM440 776q31 0 49 24q19 25 19 56q0 46 -28 83q-27 36 -83 36
q-69 0 -69 -39q0 -74 33 -116q35 -44 79 -44z" />
    <glyph glyph-name="seven.numerator" horiz-adv-x="819" 
d="M80 561l360 631l33 49v4q-31 -4 -61 -4h-330v223h684v-174l-406 -729h-280z" />
    <glyph glyph-name="eight.numerator" horiz-adv-x="819" 
d="M412 541q-147 0 -252 74q-107 75 -107 210q0 110 131 217q-88 73 -88 181q0 124 93 193t225 69q127 0 227 -71q98 -70 98 -193q0 -95 -100 -205q121 -78 121 -203q0 -128 -104 -200t-244 -72zM467 1096q35 56 35 108q0 27 -28 46q-27 18 -60 18q-72 0 -72 -58
q0 -61 125 -114zM410 758q37 0 64 18q28 19 28 51q0 24 -25 49q-20 20 -50 36q-26 14 -79 38q-47 -52 -47 -108q0 -39 32 -62q31 -22 77 -22z" />
    <glyph glyph-name="nine.numerator" horiz-adv-x="819" 
d="M100 590l66 221q88 -33 135 -33q118 0 156 107h-4q-41 -13 -76 -13q-151 0 -236 87q-86 88 -86 215q0 126 88 218q88 93 236 93q153 0 264 -111t111 -317q0 -205 -118 -360q-118 -156 -319 -156q-128 0 -217 49zM422 1051q70 0 70 39q0 72 -34 115q-35 44 -79 44
q-31 0 -49 -22q-19 -24 -19 -56q0 -45 28 -84q26 -36 83 -36z" />
    <glyph glyph-name="zero.denominator" horiz-adv-x="819" 
d="M410 -20q-349 0 -349 473q0 471 349 471q348 0 348 -471q0 -473 -348 -473zM410 215q88 0 88 238q0 233 -88 233t-88 -233q0 -238 88 -238z" />
    <glyph glyph-name="one.denominator" horiz-adv-x="819" 
d="M119 0v221h182v293l6 66h-4q-10 -21 -22 -31l-50 -45l-147 162l254 237h221v-682h184v-221h-624z" />
    <glyph glyph-name="two.denominator" horiz-adv-x="819" 
d="M76 0q-10 54 -10 100q0 103 42 181q42 77 102 121t120 78q61 35 101 68q42 34 42 70q0 34 -27 52t-65 18q-71 0 -145 -92l-170 145q50 83 140 132q94 51 193 51q131 0 233 -75q101 -74 101 -218q0 -97 -56 -171q-57 -75 -125 -109q-81 -40 -130 -68q-62 -35 -68 -62h391
v-221h-669z" />
    <glyph glyph-name="three.denominator" horiz-adv-x="819" 
d="M383 -20q-210 0 -328 139l125 184q72 -88 187 -88q49 0 80 25q30 24 30 61t-36 55q-38 19 -91 19h-76l-49 117l127 141l49 47v4q-39 -4 -69 -4h-226v223h603v-162l-170 -186q198 -49 198 -258q0 -128 -94 -222q-95 -95 -260 -95z" />
    <glyph glyph-name="four.denominator" horiz-adv-x="819" 
d="M422 0v178h-404v172l351 553h307v-506h108v-219h-108v-178h-254zM262 397h160v185l8 102h-4q-17 -51 -43 -94l-121 -189v-4z" />
    <glyph glyph-name="five.denominator" horiz-adv-x="819" 
d="M395 -20q-201 0 -334 133l129 190q28 -35 82 -62q52 -26 103 -26q44 0 81 26q36 25 36 68q0 45 -36 71q-37 26 -89 26q-79 0 -134 -27l-133 49l41 475h545v-223h-336l-4 -47l-6 -33l4 -2q35 8 88 8q142 0 231 -87t89 -212q0 -128 -96 -229q-94 -98 -261 -98z" />
    <glyph glyph-name="six.denominator" horiz-adv-x="819" 
d="M438 -20q-154 0 -264 110q-111 111 -111 318q0 204 118 359q119 157 319 157q125 0 217 -50l-66 -221q-61 33 -135 33q-119 0 -156 -106h5q37 12 75 12q151 0 237 -86q85 -85 85 -213t-88 -220q-88 -93 -236 -93zM438 215q31 0 49 24q19 25 19 56q0 46 -28 83
q-27 36 -83 36q-69 0 -69 -39q0 -74 33 -116q35 -44 79 -44z" />
    <glyph glyph-name="seven.denominator" horiz-adv-x="819" 
d="M80 0l360 631l33 49v4q-31 -4 -61 -4h-330v223h684v-174l-406 -729h-280z" />
    <glyph glyph-name="eight.denominator" horiz-adv-x="819" 
d="M412 -20q-147 0 -252 74q-107 75 -107 210q0 110 131 217q-88 73 -88 181q0 124 93 193t225 69q127 0 227 -71q98 -70 98 -194q0 -94 -100 -204q121 -78 121 -203q0 -128 -104 -200t-244 -72zM467 535q35 56 35 108q0 27 -28 46q-27 18 -60 18q-72 0 -72 -58
q0 -61 125 -114zM410 197q37 0 64 18q28 19 28 51q0 23 -25 48q-22 22 -50 37q-26 14 -79 38q-47 -52 -47 -108q0 -39 32 -62q31 -22 77 -22z" />
    <glyph glyph-name="nine.denominator" horiz-adv-x="819" 
d="M100 29l66 221q88 -33 135 -33q118 0 156 107h-4q-41 -13 -76 -13q-151 0 -236 87q-86 88 -86 214t88 218q89 94 236 94q153 0 264 -111t111 -317q0 -205 -118 -360q-118 -156 -319 -156q-128 0 -217 49zM422 489q70 0 70 39q0 73 -34 116q-35 44 -79 44q-31 0 -49 -22
q-19 -24 -19 -56q0 -45 28 -84q27 -37 83 -37z" />
    <glyph glyph-name="uni0433.BUL" horiz-adv-x="958" 
d="M57 283q0 90 52 163q51 72 122 112q73 41 145 71q75 31 124 60q51 30 51 61q0 43 -82 43q-150 0 -272 -86l-121 251q175 121 411 121q176 0 285 -80t109 -227q0 -95 -52 -170t-122 -116t-145 -72q-60 -25 -124 -57q-51 -25 -51 -52q0 -43 92 -43q70 0 152 31
q78 29 129 76l151 -238q-180 -156 -442 -156q-195 0 -304 86q-108 85 -108 222z" />
    <glyph glyph-name="uni0434.BUL" horiz-adv-x="1280" 
d="M266 -68q138 -67 297 -67q244 0 244 203v34l2 39h-4q-91 -110 -264 -110q-227 0 -351 155t-124 375q0 219 122 368q123 150 351 150q184 0 286 -102h6q-2 16 -2 24v54h332v-959q0 -138 -51 -243q-51 -106 -139 -165q-90 -61 -190 -89q-104 -29 -216 -29q-220 0 -399 94z
M422 573q0 -107 51 -177t152 -70q83 0 136 52q54 52 54 179q0 227 -205 227q-90 0 -139 -58t-49 -153z" />
    <glyph glyph-name="uni0436.BUL" horiz-adv-x="1712" 
d="M14 0l297 545v4l-274 506h364l195 -375h94v784h330v-784h96l195 375h364l-274 -506v-4l297 -545h-383l-189 383h-106v-383h-330v383h-104l-189 -383h-383z" />
    <glyph glyph-name="uni0438.BUL" horiz-adv-x="1271" 
d="M109 371v684h354v-619q0 -139 112 -139q109 0 166 83q58 84 58 208v467h354v-1055h-340v92l4 66h-4q-43 -84 -133 -133q-91 -50 -197 -50q-170 0 -273 94q-101 92 -101 302z" />
    <glyph glyph-name="uni0439.BUL" horiz-adv-x="1271" 
d="M109 371v684h354v-619q0 -139 112 -139q109 0 166 83q58 84 58 208v467h354v-1055h-340v92l4 66h-4q-43 -84 -133 -133q-91 -50 -197 -50q-170 0 -273 94q-101 92 -101 302zM629 1128q-165 0 -277 84t-112 230v22h262v-24q0 -60 38 -90q39 -31 89 -31q48 0 88 31
q39 30 39 90v24h260v-22q0 -146 -113 -230t-274 -84z" />
    <glyph glyph-name="uni043A.BUL" horiz-adv-x="1210" 
d="M119 0v1464h354v-757h100l209 348h385l-309 -480v-4l352 -571h-403l-223 410h-111v-410h-354z" />
    <glyph glyph-name="uni043B.BUL" horiz-adv-x="1161" 
d="M-4 0l364 1055h433l358 -1055h-375l-162 561l-39 182h-4q-18 -115 -39 -182l-163 -561h-373z" />
    <glyph glyph-name="uni043F.BUL" horiz-adv-x="1282" 
d="M119 0v1055h340v-92l-4 -66h4q107 182 336 182q379 0 379 -395v-684h-355v618q0 140 -117 140q-112 0 -171 -80q-58 -79 -58 -201v-477h-354z" />
    <glyph glyph-name="uni0442.BUL" horiz-adv-x="1861" 
d="M119 0v1055h340v-92l-4 -66h4q121 182 313 182q213 0 295 -178h4q45 74 136 126t202 52q156 0 249 -94t93 -301v-684h-354v625q0 133 -82 133q-107 0 -155 -89t-48 -223v-446h-354v625q0 133 -82 133q-110 0 -157 -90q-46 -89 -46 -222v-446h-354z" />
    <glyph glyph-name="uni0446.BUL" horiz-adv-x="1372" 
d="M109 371v684h354v-619q0 -139 112 -139q109 0 166 83q58 84 58 208v467h354v-758h176v-543h-313v246h-203v92l4 66h-4q-43 -84 -133 -133q-91 -50 -197 -50q-170 0 -273 94q-101 92 -101 302z" />
    <glyph glyph-name="uni0448.BUL" horiz-adv-x="1859" 
d="M1741 1055v-1055h-340v92l4 66h-4q-121 -183 -314 -183q-210 0 -294 179h-5q-45 -74 -136 -126q-92 -53 -201 -53q-156 0 -249 95t-93 301v684h354v-625q0 -133 82 -133q106 0 154 89q49 90 49 222v447h354v-625q0 -133 82 -133q110 0 156 90q46 89 46 221v447h355z" />
    <glyph glyph-name="uni0449.BUL" horiz-adv-x="1941" 
d="M1741 1055v-758h155v-543h-313v246h-182v92l4 66h-4q-121 -183 -314 -183q-210 0 -294 179h-5q-45 -74 -136 -126q-92 -53 -201 -53q-156 0 -249 95t-93 301v684h354v-625q0 -133 82 -133q106 0 154 89q49 90 49 222v447h354v-625q0 -133 82 -133q110 0 156 90
q46 89 46 221v447h355z" />
    <glyph glyph-name="uni044A.BUL" horiz-adv-x="1236" 
d="M231 406v352h-192v297h547v-248q0 -34 -2 -72h4q103 53 229 53q167 0 275 -112t108 -287q0 -204 -133 -309t-348 -105q-488 0 -488 431zM584 387q0 -66 34 -109q36 -45 101 -45q129 0 129 144q0 141 -137 141q-62 0 -95 -36q-32 -35 -32 -95z" />
    <glyph glyph-name="uni044C.BUL" horiz-adv-x="1114" 
d="M109 406v649h354v-248q0 -34 -2 -72h4q103 53 229 53q167 0 275 -112t108 -287q0 -204 -133 -309q-134 -105 -348 -105q-487 0 -487 431zM461 387q0 -65 35 -109q36 -45 100 -45q129 0 129 144q0 141 -137 141q-61 0 -94 -36t-33 -95z" />
    <glyph glyph-name="uni044E.BUL" horiz-adv-x="1816" 
d="M119 0v1464h354v-790h148q45 187 195 296q149 109 358 109q250 0 416 -154q167 -155 167 -401q0 -243 -166 -396q-167 -153 -415 -153q-213 0 -366 114q-154 115 -194 304h-143v-393h-354zM952 524q0 -114 64 -184t160 -70q95 0 159 70t64 184q0 116 -64 189
q-62 71 -159 71q-98 0 -160 -71q-64 -73 -64 -189z" />
    <glyph glyph-name="uni0432.BUL" horiz-adv-x="1271" 
d="M98 512v381q0 271 155 434q155 162 411 162q218 0 323 -101q107 -102 107 -227q0 -171 -193 -295v-4q135 -23 224 -125q89 -103 89 -258q0 -233 -160 -368q-162 -136 -405 -136q-127 0 -227 39q-98 38 -160 97q-60 57 -97 133t-52 141q-15 66 -15 127zM453 874h4
q36 42 106 80l51 29q129 60 129 152q0 41 -29 74q-30 34 -96 34q-62 0 -114 -47q-51 -46 -51 -160v-162zM446 469q0 -104 56 -157q55 -52 143 -52q93 0 151 52t58 157q0 192 -209 192q-77 0 -138 -47t-61 -145z" />
    <glyph glyph-name="uni0437.BUL" horiz-adv-x="956" 
d="M102 -55q94 -76 228 -76q104 0 155 53q52 54 52 129q0 166 -187 166h-157v277h161q67 0 117 37q51 37 51 112q0 69 -48 107q-46 36 -126 36q-52 0 -111 -21t-92 -54l-151 217q169 151 422 151q204 0 332 -105q126 -104 126 -272q0 -226 -215 -325v-4q232 -102 232 -346
q0 -193 -142 -325q-143 -132 -387 -132q-99 0 -218 31q-114 30 -181 77z" />
    <glyph glyph-name="uni0414.ALT" horiz-adv-x="1533" 
d="M14 307h154l410 1157h372l408 -1157h162v-594h-318v287h-870v-287h-318v594zM543 307h444l-166 527q-5 15 -26 99q-15 59 -21 97l-8 39h-4q-28 -147 -55 -235z" />
    <glyph glyph-name="uni041B.ALT" horiz-adv-x="1388" 
d="M-10 0l518 1464h373l516 -1464h-383l-262 834q-12 40 -27 99q-13 49 -20 97l-9 39h-4q-28 -147 -55 -235l-258 -834h-389z" />
    <glyph glyph-name="uni0434.ALT" horiz-adv-x="1345" 
d="M25 281h139l280 774h453l277 -774h145v-527h-315v246h-664v-246h-315v527zM512 281h309l-104 321l-47 182h-4q-22 -103 -48 -182z" />
    <glyph glyph-name="uni043B.ALT" horiz-adv-x="1161" 
d="M-4 0l364 1055h433l358 -1055h-375l-162 561l-39 182h-4q-18 -115 -39 -182l-163 -561h-373z" />
    <glyph glyph-name="uni0409.ALT" horiz-adv-x="1945" 
d="M-8 0l512 1464h682v-534h250q212 0 345 -131q132 -131 132 -336t-132 -334t-345 -129h-609v1157h-79l-390 -1157h-366zM1186 307h182q86 0 133 42t47 114q0 73 -48 116q-49 44 -138 44h-176v-316z" />
    <glyph glyph-name="uni0459.ALT" horiz-adv-x="1691" 
d="M-2 0l426 1055h653v-363h164q214 0 315 -94q103 -95 103 -258q0 -159 -103 -250q-102 -90 -315 -90h-518v799h-78l-305 -799h-342zM1077 231h115q60 0 95 30q34 30 34 79q0 53 -35 86q-34 33 -100 33h-109v-228z" />
    <glyph glyph-name="uni04C5.ALT" horiz-adv-x="1630" 
d="M1014 0l-262 834q-12 40 -27 99q-13 49 -20 97l-9 39h-4q-28 -147 -55 -235l-258 -834h-389l518 1464h373l407 -1157h342v-186l-182 -408h-240l68 287h-262z" />
    <glyph glyph-name="uni04C6.ALT" horiz-adv-x="1337" 
d="M776 0l-162 561l-39 182h-4q-18 -115 -39 -182l-163 -561h-373l364 1055h433l256 -758h297v-176l-162 -367h-228l58 246h-238z" />
    </font>
</defs>
</svg>
